<svg width="116" height="125" viewBox="0 0 116 125" fill="none" xmlns="http://www.w3.org/2000/svg">
<path d="M36.282 12.5784C36.282 14.782 24.4931 22.9775 22.3377 24.81C21.9042 25.1784 20.37 27.5315 18.724 28.0036C17.0778 28.4759 14.8047 29.4989 12.9236 30.9943C11.0424 32.4896 9.00428 34.457 7.43662 34.1422C5.86897 33.8274 3.28212 32.1748 3.59595 30.2071C3.90948 28.2398 5.79066 27.5315 7.98508 25.8787C10.1801 24.2261 16.148 19.8313 18.9589 17.3793C26.076 11.1706 25.1046 11.0937 27.3876 9.8098C27.9158 9.51238 29.3037 9.15047 30.2672 8.79946C31.6474 8.2965 32.7162 7.66426 33.5383 8.09272C34.4428 8.56388 36.282 10.3749 36.282 12.5784Z" fill="#FB2F2F"/>
<path d="M0.695836 88.8384C1.00937 85.6119 2.18518 83.4866 2.18518 81.9127C2.18518 80.3387 2.02856 77.0335 3.4393 73.7281C4.85034 70.4229 6.51654 66.0941 8.63265 60.8999C10.7493 55.7057 11.6612 55.5378 12.8658 50.9838C13.7899 47.4901 16.216 40.5956 17.9403 37.2115C19.6649 33.8274 20.135 30.4433 21.3894 28.4759C22.6433 26.5085 25.1049 11.0937 27.3879 9.8098C27.9161 9.51238 29.304 9.15047 30.2674 8.79946C31.6477 8.2965 32.7164 7.66426 33.5385 8.09272C34.4431 8.56388 36.2823 10.3749 36.2823 12.5784C36.2823 14.782 33.6726 21.1977 31.7037 25.942C30.9197 27.8307 30.3484 30.1126 29.3843 31.6239C27.5219 34.5427 27.0887 35.3195 26.3071 38.8058C26.027 40.0555 26.0502 40.6766 24.4462 43.1926C23.2392 45.0857 22.264 47.0649 21.1542 51.7709C20.8034 53.2577 21.1815 53.4712 19.5083 56.4928C17.7497 59.6681 18.1368 60.6793 16.0996 63.8116C13.8266 67.3074 13.7477 71.1711 11.8064 73.9642C9.20721 77.7032 9.23977 77.6628 9.31808 79.3943C9.39668 81.1255 9.23595 83.6566 7.43689 86.7921C5.99389 89.3069 4.92865 91.2781 4.30158 95.2129C3.67452 99.1477 2.81224 101.981 2.02856 100.958C1.24459 99.9348 0.382598 92.065 0.695836 88.8384Z" fill="#FB2F2F"/>
<path d="M61.3171 2.95487C58.7977 2.79703 56.2487 4.39367 52.7133 6.37607C49.9047 7.95092 48.3256 8.88411 45.2548 13.6272C42.1841 18.3706 41.8474 19.9734 40.0366 23.6888C38.2258 27.4045 35.885 32.2268 34.7042 36.5747C33.5231 40.9226 32.4995 40.9226 32.027 50.4091C31.937 52.2145 31.2662 53.7679 31.1982 55.1213C30.9078 60.8785 32.081 63.012 33.165 65.5083C34.5033 68.5914 38.8086 72.6619 45.1762 73.2559C50.1376 73.7182 55.4348 72.702 59.9788 68.0952C66.8498 61.1297 65.3158 59.7118 69.8208 50.8043C72.6622 45.186 72.2616 40.9226 73.1277 36.4955C73.9938 32.0687 73.3638 27.2463 73.1277 22.1078C72.8916 16.9692 73.5213 8.35229 72.0255 7.32487C70.5294 6.29686 71.9915 14.9615 67.8499 20.6242C65.595 23.7071 67.1436 28.9855 67.2225 32.0687C67.3011 35.1518 65.7264 36.2584 65.0178 40.053C64.3092 43.8476 64.0731 42.1874 63.3645 44.8753C62.6559 47.5633 59.8999 50.0136 59.5849 51.832C59.2702 53.6504 59.8999 55.7847 57.9316 57.682C55.963 59.5793 56.0419 59.7716 55.5694 61.4148C55.0969 63.0576 52.6825 63.4063 50.3992 64.5922C48.1156 65.778 47.3985 64.265 44.6427 64.5816C41.8867 64.8975 39.9542 61.6353 39.9011 59.1052C39.8489 56.6472 39.2652 55.3348 40.1369 49.6976C41.1385 43.2213 42.0629 44.7952 42.893 38.6301C43.3816 35.001 44.8401 33.9468 46.5145 28.5685C47.5549 25.2262 51.1031 17.7955 53.9375 14.7913C56.7722 11.7873 58.4827 10.1707 60.6874 10.1707C62.8918 10.1707 65.5519 8.49275 65.9625 7.08752C66.3943 5.6125 63.8367 3.113 61.3171 2.95487Z" fill="#FB2F2F"/>
<path d="M103.376 0.13944C100.857 -0.0183972 98.3077 1.57824 94.7724 3.56064C91.9638 5.13549 90.3847 6.06868 87.3139 10.8118C84.2431 15.5552 83.9064 17.158 82.0957 20.8734C80.2849 24.589 77.9441 29.4114 76.7633 33.7593C75.5822 38.1072 74.5586 38.1072 74.0861 47.5937C73.9961 49.3991 73.3253 50.9524 73.2573 52.3058C72.9669 58.0631 74.1401 60.1966 75.2241 62.6928C76.5624 65.776 80.8676 69.8465 87.2353 70.4404C92.1967 70.9028 97.4939 69.8865 102.038 65.2798C108.909 58.3143 107.375 56.8964 111.88 47.9888C114.721 42.3706 114.321 38.1072 115.187 33.6801C116.053 29.2532 115.423 24.4309 115.187 19.2923C114.951 14.1538 115.58 5.53686 114.085 4.50944C112.588 3.48143 114.051 12.146 109.909 17.8088C107.654 20.8916 109.203 26.1701 109.282 29.2532C109.36 32.3364 107.786 33.443 107.077 37.2376C106.368 41.0322 106.132 39.3719 105.424 42.0599C104.715 44.7479 101.959 47.1982 101.644 49.0166C101.329 50.8349 101.959 52.9693 99.9907 54.8666C98.0221 56.7639 98.101 56.9562 97.6285 58.5993C97.156 60.2422 94.7416 60.5909 92.4583 61.7767C90.1747 62.9626 89.4576 61.4496 86.7018 61.7661C83.9457 62.0821 82.0132 58.8199 81.9602 56.2898C81.9079 53.8318 81.3243 52.5193 82.196 46.8822C83.1976 40.4058 84.122 41.9798 84.952 35.8147C85.4407 32.1856 86.8992 31.1314 88.5736 25.7531C89.6139 22.4108 93.1622 14.9801 95.9966 11.9758C98.8313 8.9719 100.542 7.35524 102.746 7.35524C104.951 7.35524 107.611 5.67732 108.022 4.27209C108.453 2.79707 105.896 0.297573 103.376 0.13944Z" fill="#FB2F2F"/>
<path d="M92.155 83.47C89.5242 82.1055 88.7273 82.273 86.9385 83.0958C85.15 83.9188 84.3302 83.844 82.9142 83.0213C81.4985 82.1982 77.4742 81.9082 74.3445 82.24C71.2147 82.5722 70.5592 81.4729 69.5007 82.8652C68.4425 84.2578 64.574 82.9385 63.1509 82.9385C61.7273 82.9385 61.0339 84.1479 58.5888 84.0378C56.1436 83.928 53.6078 83.8929 51.0409 85.0699C48.4737 86.2469 43.9003 86.1875 40.9982 87.6068C38.0963 89.0262 33.4083 89.1714 30.2088 90.8148C27.0093 92.4586 24.2555 92.2301 24.479 94.0979C24.7022 95.9658 25.8182 95.5261 25.9669 97.4688C26.1159 99.4111 29.5659 97.588 32.5109 97.7632C35.115 97.9178 40.3846 95.6916 42.9331 95.0031C47.8753 93.6683 48.2466 93.1688 55.9547 92.463C60.4902 92.0478 65.6284 92.0148 68.6047 90.8195C71.5814 89.624 78.4271 90.1007 81.2545 90.2359C84.0824 90.3713 86.5379 90.2218 87.877 89.101C89.2168 87.9802 97.9311 89.6107 97.595 88.0341C97.314 86.7152 95.2584 85.0796 92.155 83.47Z" fill="#FB2F2F"/>
<path d="M97.9199 105.197C95.275 104.925 96.6373 103.38 90.5952 103.38C88.4245 103.38 90.4594 104.516 87.068 105.129C83.677 105.741 86.0509 103.426 79.8791 103.426C73.7071 103.426 73.0967 103.018 70.6548 104.243C68.2134 105.469 68.1292 103.687 66.3656 103.959C64.6024 104.232 66.6534 105.469 63.3978 105.401C60.1425 105.333 57.0225 104.158 54.2415 106.006C51.4608 107.852 48.2052 105.741 43.7967 106.763C39.3882 107.784 38.3033 109.214 34.3694 109.623C30.4354 110.032 30.639 110.1 27.9263 111.462C25.2133 112.824 23.382 111.802 18.77 113.3C14.1576 114.799 13.2082 115.003 10.8343 116.365C8.46071 117.727 5.68029 116.977 3.78121 118.952C1.88213 120.927 5.88354 125.558 7.91811 124.945C9.95298 124.332 11.3775 122.97 15.1754 122.834C18.9735 122.698 19.9883 121.132 24.466 119.974C28.9437 118.816 32.4703 118.68 37.2178 117.114C41.9657 115.547 46.781 116.297 50.5114 115.071C54.2415 113.845 61.6316 114.07 65.3649 113.096C70.2444 111.823 73.9989 111.773 78.8617 111.802C83.2253 111.828 90.0523 111.734 91.002 110.78C91.9517 109.827 94.8468 109.827 97.604 109.964C100.362 110.1 101.413 109.487 102.532 109.487C103.651 109.487 105.203 109.802 104.657 108.945C104.195 108.22 100.565 105.469 97.9199 105.197Z" fill="#FB2F2F"/>
<path d="M35.9005 10.8209C35.4694 10.3615 34.7394 9.73132 34.4194 9.56346C33.5955 9.13648 32.5276 9.7696 31.1465 10.2702C30.1845 10.6236 28.794 10.9858 28.2661 11.2802C25.984 12.5671 26.9548 12.6437 19.8395 18.8512C17.0268 21.3041 11.0583 25.6977 8.86444 27.3497C6.6709 29.0047 4.78795 29.7114 4.47706 31.6785C4.43336 31.9553 4.73809 32.5207 4.79998 32.7857C4.00193 32.0849 3.44203 31.1838 3.59718 30.2061C3.90807 28.239 5.79102 27.5323 7.98456 25.8773C10.1784 24.2253 16.1469 19.8318 18.9596 17.3788C26.0749 11.1713 25.1041 11.0947 27.3862 9.80788C27.9141 9.5134 29.3046 9.1512 30.2666 8.79783C31.6478 8.29723 32.7156 7.66411 33.5395 8.09109C34.188 8.42974 35.3139 9.45451 35.9005 10.8209Z" fill="#A8001C"/>
<path d="M2.02857 100.957C1.24548 99.935 0.383193 92.0637 0.697017 88.8392C1.01084 85.6118 2.18402 83.4857 2.18402 81.9135C2.18402 80.3377 2.02857 77.0337 3.43931 73.7268C4.84976 70.4228 6.51596 66.094 8.63354 60.8995C10.7482 55.705 11.6603 55.5371 12.8658 50.9846C13.7896 47.4892 16.2149 40.5955 17.9397 37.212C19.4649 34.2172 20.0104 31.2224 20.9841 29.2082C21.5018 27.8245 23.0035 26.2243 23.3258 24.4536C23.3258 24.4536 23.5111 26.353 22.2558 28.3201C21.0035 30.2871 20.4879 35.1348 18.7633 38.5183C17.0384 41.9018 14.9628 49.256 14.0389 52.7514C12.8335 57.304 11.9214 56.8829 9.80671 62.0774C7.68913 67.2719 6.02293 71.6007 4.61249 74.9047C3.20174 78.2116 3.35719 82.1046 3.35719 83.6803C3.35719 85.2525 2.18402 87.3786 1.87019 90.6061C1.62969 93.0738 2.07843 98.2568 2.65329 101.016C2.44505 101.228 2.23388 101.225 2.02857 100.957Z" fill="#A8001C"/>
<path d="M34.575 67.7695C33.9502 66.998 33.4751 66.2265 33.1639 65.508C32.082 63.0108 30.9088 60.8788 31.1992 55.1219C31.2663 53.7673 31.9383 52.2154 32.0262 50.4103C32.4984 40.9223 33.522 40.9223 34.7037 36.5759C35.8857 32.2265 38.2265 27.403 40.0361 23.6897C41.8486 19.9734 42.1827 18.3715 45.2538 13.6275C48.3246 8.88352 49.9051 7.95004 52.7122 6.37755C56.2491 4.39279 58.7981 2.79674 61.3175 2.95576C63.438 3.08827 65.5849 4.87868 65.9544 6.32455C65.054 5.48235 63.7665 4.80211 62.4906 4.72261C59.9712 4.56359 57.4222 6.15964 53.8854 8.14439C51.0783 9.71689 49.4977 10.6504 46.427 15.3943C43.3559 20.1383 43.0218 21.7403 41.2093 25.4565C39.3996 29.1699 37.0589 33.9933 35.8769 38.3427C34.6952 42.6892 33.6716 42.6892 33.1994 52.1771C33.1114 53.9822 32.4395 55.5341 32.3723 56.8887C32.082 62.6457 33.2551 64.7777 34.3371 67.2748C34.4078 67.4368 34.487 67.6017 34.575 67.7695Z" fill="#A8001C"/>
<path d="M72.7414 9.01871C71.5683 9.49281 71.0051 15.1879 70.1282 18.5773C68.8025 23.7012 68.2306 21.9756 67.9226 25.8508C67.6205 29.6643 68.3156 30.7509 68.3951 33.834C68.474 36.9172 66.899 38.0244 66.1922 41.8202C65.4824 45.613 65.2478 43.9551 64.538 46.6407C63.8282 49.3293 61.0745 51.7793 60.7575 53.5992C60.4436 55.4161 61.0745 57.551 59.1062 59.4474C57.1353 61.3468 57.2145 61.5382 56.7423 63.1813C56.2701 64.8245 53.8563 65.172 51.5715 66.3587C49.2897 67.5454 48.5711 66.0318 45.8171 66.3469C43.9459 66.5622 42.453 65.1281 41.6699 63.3904C42.4618 64.2091 43.4795 64.7155 44.6439 64.5801C47.3979 64.265 48.1165 65.7786 50.3983 64.5919C52.6831 63.4051 55.0969 63.0577 55.5691 61.4145C56.0413 59.7713 55.9621 59.5799 57.933 57.6806C59.9013 55.7841 59.2705 53.6492 59.5843 51.8323C59.9013 50.0125 62.6551 47.5624 63.3648 44.8739C64.0746 42.1883 64.3092 43.8462 65.019 40.0533C65.7258 36.2576 67.3008 35.1503 67.2219 32.0672C67.1425 28.9841 66.4473 27.8974 66.7494 24.084C67.0574 20.2087 67.6293 21.9343 68.955 16.8105C69.9372 13.0059 70.53 6.29776 72.0258 7.32548C72.3601 7.55517 72.5863 8.15884 72.7414 9.01871Z" fill="#A8001C"/>
<path d="M76.6629 64.8247C76.0381 64.0532 75.563 63.2817 75.2518 62.5631C74.1699 60.066 72.9967 57.934 73.287 52.177C73.3542 50.8225 74.0261 49.2706 74.1141 47.4655C74.5863 37.9775 75.6099 37.9775 76.7916 33.6311C77.9736 29.2817 80.3144 24.4582 82.124 20.7449C83.9365 17.0286 84.2706 15.4267 87.3417 10.6827C90.4124 5.9387 91.993 5.00522 94.8001 3.43272C98.3369 1.44797 100.886 -0.14808 103.405 0.0109362C105.526 0.143449 107.673 1.93385 108.042 3.37972C107.142 2.53753 105.854 1.85729 104.579 1.77778C102.059 1.61876 99.5101 3.21481 95.9733 5.19957C93.1662 6.77206 91.5856 7.70555 88.5148 12.4495C85.4438 17.1935 85.1097 18.7954 83.2972 22.5117C81.4875 26.225 79.1468 31.0485 77.9648 35.3979C76.7831 39.7443 75.7595 39.7443 75.2873 49.2323C75.1993 51.0374 74.5274 52.5893 74.4602 53.9439C74.1699 59.7009 75.343 61.8328 76.425 64.33C76.4957 64.492 76.5749 64.6569 76.6629 64.8247Z" fill="#A8001C"/>
<path d="M114.829 6.07437C113.656 6.54847 113.093 12.2436 112.216 15.633C110.89 20.7569 110.318 19.0312 110.01 22.9065C109.708 26.72 110.403 27.8066 110.483 30.8897C110.561 33.9729 108.986 35.0801 108.28 38.8758C107.57 42.6687 107.335 41.0108 106.625 43.6964C105.916 46.3849 103.162 48.835 102.845 50.6548C102.531 52.4717 103.162 54.6067 101.194 56.5031C99.2227 58.4024 99.3019 58.5938 98.8297 60.237C98.3575 61.8802 95.9437 62.2276 93.6589 63.4144C91.3771 64.6011 90.6585 63.0875 87.9045 63.4026C86.0333 63.6179 84.5404 62.1838 83.7573 60.4461C84.5492 61.2647 85.5669 61.7712 86.7313 61.6358C89.4853 61.3207 90.2039 62.8343 92.4857 61.6475C94.7705 60.4608 97.1843 60.1133 97.6565 58.4702C98.1287 56.827 98.0495 56.6356 100.02 54.7362C101.989 52.8398 101.358 50.7049 101.672 48.888C101.989 47.0681 104.742 44.6181 105.452 41.9295C106.162 39.2439 106.397 40.9018 107.106 37.109C107.813 33.3132 109.388 32.206 109.309 29.1229C109.23 26.0397 108.535 24.9531 108.837 21.1397C109.145 17.2644 109.717 18.99 111.042 13.8662C112.025 10.0616 112.617 3.35343 114.113 4.38114C114.448 4.61083 114.674 5.2145 114.829 6.07437Z" fill="#A8001C"/>
<path d="M97.5978 88.0648C96.7992 86.6781 95.1723 85.6059 93.3272 84.6489C90.6969 83.2825 89.8988 83.4504 88.1127 84.2749C86.3236 85.0965 85.5024 85.0229 84.0861 84.1983C82.6721 83.3768 78.6481 83.0852 75.519 83.418C72.3863 83.7507 71.7323 82.6494 70.6735 84.0423C69.6147 85.4351 65.7461 84.1159 64.324 84.1159C62.9012 84.1159 62.2061 85.3262 59.7629 85.2143C57.3169 85.1053 54.7799 85.07 52.2136 86.2479C49.6473 87.4258 45.0719 87.3639 42.1712 88.7833C39.2676 90.2056 34.5808 90.3499 31.3809 91.9931C28.1811 93.6362 25.0437 93.4949 25.6529 95.2765C26.0694 96.4941 25.9667 97.4673 25.9667 97.4673C25.8172 95.5268 24.7026 95.9655 24.4797 94.0986C24.2542 92.2287 27.0079 92.4583 30.2078 90.8152C33.4076 89.172 38.0944 89.0277 40.998 87.6054C43.8987 86.186 48.4741 86.2479 51.0404 85.07C53.6067 83.8921 56.1437 83.9274 58.5898 84.0364C61.0329 84.1483 61.728 82.938 63.1508 82.938C64.573 82.938 68.4415 84.2572 69.5003 82.8644C70.5591 81.4715 71.2131 82.5728 74.3458 82.2401C77.4749 81.9073 81.4989 82.1989 82.9129 83.0204C84.3292 83.845 85.1504 83.9186 86.9395 83.097C88.7257 82.2725 89.5237 82.1046 92.154 83.471C95.2573 85.0788 97.3133 86.7161 97.5949 88.0353C97.5978 88.0442 97.5978 88.056 97.5978 88.0648Z" fill="#A8001C"/>
<path d="M104.496 109.499H104.493C104.875 108.695 99.9882 106.263 98.2138 106.08C95.5683 105.807 97.5187 104.558 91.4739 104.558C89.3035 104.558 91.339 105.695 87.9485 106.307C84.558 106.92 86.9305 104.605 80.7596 104.605C74.5861 104.605 73.9757 104.196 71.5355 105.421C69.0924 106.646 69.0073 104.864 67.2446 105.138C65.4819 105.409 67.5323 106.646 64.2765 106.578C61.0212 106.51 57.9035 105.335 55.1199 107.182C52.3394 109.031 49.0839 106.92 44.6757 107.942C40.2678 108.963 39.1826 110.392 35.2492 110.801C31.3162 111.21 31.5188 111.278 28.8059 112.638C26.0929 114.002 24.2625 112.98 19.6493 114.479C15.0384 115.975 14.0881 116.181 11.7157 117.541C9.33999 118.905 5.753 117.759 3.99735 120.48C3.63074 121.048 4.23668 121.961 4.23668 121.961C3.38613 121.184 2.31825 120.471 3.78178 118.952C5.67968 116.976 8.46011 117.727 10.8358 116.364C13.2082 115.003 14.1585 114.797 18.7694 113.301C23.3826 111.802 25.213 112.824 27.926 111.461C30.639 110.1 30.4363 110.032 34.3694 109.623C38.3027 109.214 39.3879 107.785 43.7958 106.764C48.204 105.742 51.4596 107.853 54.24 106.004C57.0236 104.158 60.1413 105.332 63.3966 105.4C66.6525 105.468 64.602 104.231 66.3647 103.96C68.1274 103.686 68.2125 105.468 70.6556 104.243C73.0958 103.018 73.7062 103.427 79.8797 103.427C86.0506 103.427 83.6781 105.742 87.0686 105.129C90.4591 104.517 88.4236 103.38 90.594 103.38C96.6388 103.38 95.275 104.923 97.9205 105.197C100.566 105.468 104.194 108.218 104.657 108.946C104.869 109.276 104.766 109.432 104.496 109.499Z" fill="#A8001C"/>
</svg>
