<svg width="17" height="21" viewBox="0 0 17 21" fill="none" xmlns="http://www.w3.org/2000/svg">
<path fill-rule="evenodd" clip-rule="evenodd" d="M8.5 2.50062C6.92551 2.50062 5.40461 3.15807 4.27503 4.34627C3.14381 5.53618 2.5 7.16039 2.5 8.86392C2.5 11.3442 4.03632 13.7652 5.74308 15.6603C6.57889 16.5883 7.41773 17.3484 8.04839 17.8767C8.2154 18.0166 8.36728 18.1397 8.5 18.245C8.63272 18.1397 8.7846 18.0166 8.95161 17.8767C9.58227 17.3484 10.4211 16.5883 11.2569 15.6603C12.9637 13.7652 14.5 11.3442 14.5 8.86392C14.5 7.16039 13.8562 5.53618 12.725 4.34627C11.5954 3.15807 10.0745 2.50062 8.5 2.50062ZM8.5 19.4997C7.92582 20.3184 7.92558 20.3182 7.92531 20.318L7.92279 20.3163L7.9172 20.3123L7.89857 20.2991C7.88288 20.2878 7.86072 20.2719 7.83253 20.2514C7.77615 20.2103 7.69558 20.1508 7.59427 20.0738C7.39174 19.92 7.10576 19.6959 6.76411 19.4098C6.08227 18.8386 5.17111 18.0136 4.25692 16.9986C2.46368 15.0075 0.5 12.1106 0.5 8.86392C0.5 6.66174 1.33118 4.54021 2.82548 2.96837C4.32141 1.39482 6.36146 0.500732 8.5 0.500732C10.6385 0.500732 12.6786 1.39482 14.1745 2.96837C15.6688 4.54021 16.5 6.66174 16.5 8.86392C16.5 12.1106 14.5363 15.0075 12.7431 16.9986C11.8289 18.0136 10.9177 18.8386 10.2359 19.4098C9.89424 19.6959 9.60826 19.92 9.40573 20.0738C9.30442 20.1508 9.22385 20.2103 9.16747 20.2514C9.13928 20.2719 9.11712 20.2878 9.10143 20.2991L9.0828 20.3123L9.07722 20.3163L9.07537 20.3176C9.0751 20.3177 9.07418 20.3184 8.5 19.4997ZM8.5 19.4997L9.07418 20.3184C8.72954 20.5601 8.26994 20.5597 7.92531 20.318L8.5 19.4997Z" fill="#ED3144"/>
<path fill-rule="evenodd" clip-rule="evenodd" d="M8.5 6.50038C7.39543 6.50038 6.5 7.39576 6.5 8.50027C6.5 9.60478 7.39543 10.5002 8.5 10.5002C9.60457 10.5002 10.5 9.60478 10.5 8.50027C10.5 7.39576 9.60457 6.50038 8.5 6.50038ZM4.5 8.50027C4.5 6.29125 6.29086 4.50049 8.5 4.50049C10.7091 4.50049 12.5 6.29125 12.5 8.50027C12.5 10.7093 10.7091 12.5001 8.5 12.5001C6.29086 12.5001 4.5 10.7093 4.5 8.50027Z" fill="#ED3144"/>
</svg>
