<svg width="279" height="66" viewBox="0 0 279 66" fill="none" xmlns="http://www.w3.org/2000/svg">
<path fill-rule="evenodd" clip-rule="evenodd" d="M56.5936 61.4218L57.1151 61.1495C57.8051 60.7729 58.4794 60.3728 59.1379 59.9484C58.3197 60.4714 57.472 60.9632 56.5936 61.4218ZM58.6776 5.37258C62.4512 7.70955 65.7082 10.7891 68.2388 14.4043C65.6501 10.6895 62.3753 7.65198 58.6776 5.37258ZM61.2564 37.4656C61.2426 37.5252 61.2278 37.5837 61.213 37.6432C61.1164 38.0296 61.008 38.4141 60.8877 38.7976C60.4431 40.2183 59.8517 41.5678 59.1271 42.8304C59.2069 42.6958 59.2838 42.5592 59.3588 42.4226C59.3864 42.3718 59.4149 42.3201 59.4416 42.2684C59.479 42.1991 59.5165 42.1289 59.552 42.0586C59.5973 41.9727 59.6417 41.8869 59.6841 41.8C59.7127 41.7463 59.7393 41.6917 59.7659 41.6371C59.8438 41.479 59.9197 41.3199 59.9926 41.1589C60.0123 41.117 60.0321 41.074 60.0508 41.0311C60.1099 40.8994 60.1681 40.7677 60.2243 40.634C60.2519 40.5705 60.2775 40.5071 60.3041 40.4427C60.3327 40.3725 60.3613 40.3032 60.3889 40.232C60.451 40.0768 60.5111 39.9207 60.5683 39.7636C60.5861 39.7168 60.6028 39.6709 60.6196 39.6231C60.6363 39.5792 60.6511 39.5362 60.6669 39.4923C60.7201 39.3411 60.7714 39.1889 60.8217 39.0366C60.8424 38.9703 60.8641 38.9039 60.8848 38.8376C60.9124 38.7498 60.939 38.6619 60.9656 38.5732C60.9902 38.4902 61.0139 38.4073 61.0376 38.3243C61.0701 38.2092 61.1016 38.094 61.1322 37.9789C61.2002 37.7203 61.2633 37.4598 61.3195 37.1983C61.2988 37.2881 61.2781 37.3769 61.2564 37.4656ZM61.144 27.6767C61.1499 27.6972 61.1549 27.7177 61.1598 27.7372C61.1647 27.7548 61.1697 27.7714 61.1746 27.7889C61.1647 27.7519 61.1549 27.7138 61.144 27.6767ZM57.9895 21.0308C58.5248 21.7753 59.0127 22.5588 59.4504 23.3814C59.8073 24.0517 60.1237 24.7367 60.4007 25.4315C60.455 25.57 60.5082 25.7086 60.5604 25.8481C60.5802 25.8989 60.5989 25.9506 60.6166 26.0023C60.6699 26.1448 60.7201 26.2882 60.7684 26.4316C60.7872 26.4882 60.8049 26.5439 60.8236 26.5995C60.8779 26.7624 60.9281 26.9254 60.9774 27.0893C61.0277 27.2581 61.076 27.4269 61.1223 27.5967C60.4944 25.2412 59.4366 23.0223 57.9895 21.0308ZM51.1215 15.022C51.1215 15.022 51.1195 15.021 51.1185 15.021C51.0022 14.9585 50.8869 14.8971 50.7705 14.8375C50.6927 14.7966 50.6148 14.7585 50.5369 14.7195C50.4778 14.6902 50.4196 14.6609 50.3604 14.6326C50.184 14.5468 50.0065 14.4638 49.8271 14.3828C49.7473 14.3467 49.6684 14.3116 49.5876 14.2765C49.4959 14.2365 49.4042 14.1984 49.3125 14.1594C49.1903 14.1067 49.0671 14.0579 48.9429 14.0091C48.8808 13.9847 48.8187 13.9603 48.7566 13.9369C48.6954 13.9125 48.6323 13.8891 48.5702 13.8657C48.4273 13.813 48.2844 13.7613 48.1404 13.7115C48.0764 13.6891 48.0113 13.6666 47.9462 13.6452C47.9364 13.6413 47.9275 13.6383 47.9176 13.6354C47.8477 13.612 47.7777 13.5895 47.7077 13.5671C47.6505 13.5476 47.5923 13.529 47.5342 13.5115C47.5105 13.5037 47.4869 13.4968 47.4622 13.489C47.3991 13.4695 47.335 13.451 47.271 13.4315C47.2 13.41 47.128 13.3895 47.0551 13.369L47.0492 13.3661C46.9762 13.3466 46.9043 13.3261 46.8313 13.3066C46.7712 13.29 46.7101 13.2734 46.6489 13.2578C46.6144 13.248 46.5809 13.2402 46.5474 13.2305C46.5001 13.2187 46.4537 13.207 46.4064 13.1953C46.3867 13.1904 46.366 13.1856 46.3453 13.1807C46.2911 13.167 46.2359 13.1534 46.1807 13.1407C46.1186 13.1251 46.0545 13.1104 45.9914 13.0968C45.9362 13.0841 45.882 13.0714 45.8268 13.0597C45.5429 12.9972 45.257 12.9406 44.9691 12.8909C44.9011 12.8792 44.8331 12.8675 44.7651 12.8567C45.6553 13.007 46.5435 13.2178 47.4208 13.4861C48.7556 13.8959 50.0272 14.4306 51.224 15.0795C51.1895 15.06 51.155 15.0415 51.1215 15.022ZM50.8918 50.7039C49.5984 51.3782 48.2568 51.907 46.8826 52.2915C47.0078 52.2573 47.133 52.2222 47.2572 52.1851C48.0024 51.9646 48.7329 51.7021 49.4466 51.3987C49.5649 51.3479 49.6832 51.2962 49.8015 51.2435C49.9366 51.183 50.0706 51.1216 50.2037 51.0571C50.3368 50.9947 50.4699 50.9293 50.602 50.863C50.668 50.8298 50.7341 50.7966 50.7991 50.7625L50.9943 50.661C50.9943 50.661 50.9973 50.659 50.9992 50.6581C51.0633 50.6239 51.1274 50.5898 51.1905 50.5546C51.2565 50.5195 51.3206 50.4834 51.3857 50.4473C51.568 50.3468 51.7484 50.2424 51.9269 50.1341C51.9742 50.1058 52.0215 50.0775 52.0688 50.0482C52.2226 49.9545 52.3764 49.8589 52.5282 49.7603C52.5903 49.7194 52.6524 49.6794 52.7135 49.6374C52.8989 49.5145 53.0832 49.3886 53.2656 49.2588C52.5144 49.7877 51.7218 50.2717 50.8918 50.7039ZM47.7915 64.5228C45.7154 64.9316 43.5673 65.1473 41.369 65.1473C41.2764 65.1473 41.1837 65.1463 41.091 65.1463C40.9984 65.1453 40.9067 65.1443 40.814 65.1424C40.7214 65.1424 40.6297 65.1395 40.537 65.1365C40.4631 65.1346 40.3892 65.1336 40.3152 65.1307C40.2876 65.1297 40.26 65.1287 40.2324 65.1278C40.1545 65.1258 40.0757 65.1219 39.9978 65.119C39.9919 65.119 39.985 65.119 39.9791 65.118C39.8115 65.1112 39.6459 65.1034 39.4793 65.0936C39.4586 65.0936 39.4379 65.0917 39.4172 65.0907C39.3324 65.0858 39.2466 65.0799 39.1628 65.0741C39.0711 65.0682 38.9805 65.0614 38.8888 65.0555C38.801 65.0487 38.7113 65.0419 38.6226 65.0341C41.6549 65.2907 44.7414 65.1297 47.7915 64.5228ZM38.5881 65.0312C38.5999 65.0321 38.6108 65.0331 38.6226 65.0341C38.5299 65.0263 38.4373 65.0194 38.3446 65.0107C38.4264 65.0175 38.5063 65.0253 38.5881 65.0312ZM35.4079 1.00406C35.3291 1.01869 35.2502 1.03333 35.1704 1.04894C35.2719 1.02943 35.3725 1.01089 35.474 0.992346C35.4523 0.996249 35.4306 1.00015 35.4079 1.00406ZM42.9729 0.504461C42.9019 0.501534 42.83 0.498607 42.759 0.495679C42.8339 0.498607 42.9079 0.50251 42.9828 0.505437C42.9788 0.505437 42.9759 0.504461 42.9729 0.504461ZM38.4117 0.597159C38.5487 0.58545 38.6847 0.573741 38.8227 0.563983C38.9519 0.554225 39.081 0.544468 39.2111 0.536662C39.4329 0.522025 39.6547 0.50934 39.8775 0.499582C39.9436 0.496655 40.0086 0.493728 40.0747 0.491776L40.1181 0.489825C40.1742 0.487873 40.2295 0.485922 40.2847 0.48397C40.4168 0.480067 40.5479 0.476164 40.68 0.474212C40.7569 0.472261 40.8328 0.471285 40.9096 0.469333C41.0624 0.469333 41.2152 0.466406 41.369 0.466406C41.4617 0.466406 41.5544 0.467382 41.647 0.468358C41.7387 0.468358 41.8314 0.468358 41.924 0.471285C41.995 0.471285 42.064 0.474212 42.134 0.476164C40.8968 0.445915 39.6537 0.484946 38.4117 0.598135V0.597159ZM42.2001 0.47714C42.1784 0.47714 42.1557 0.47714 42.134 0.476164C42.2208 0.478115 42.3065 0.480067 42.3933 0.482018C42.3292 0.480067 42.2641 0.479091 42.2001 0.47714ZM37.9858 0.638142C38.1277 0.623505 38.2697 0.61082 38.4117 0.597159C38.4087 0.597159 38.4057 0.597159 38.4038 0.597159C38.2648 0.609844 38.1248 0.623505 37.9858 0.637166V0.638142ZM37.6279 0.677172C37.7255 0.665463 37.8241 0.65473 37.9217 0.644972C37.8734 0.649851 37.8251 0.65473 37.7778 0.659609C37.7285 0.664487 37.6772 0.670342 37.6279 0.677172ZM37.8034 64.956C37.8143 64.958 37.8261 64.9589 37.8379 64.9609C37.8606 64.9628 37.8833 64.9658 37.9059 64.9677L37.8034 64.956ZM35.3172 52.1266C34.8283 51.9763 34.3482 51.8104 33.876 51.627C33.7193 51.5665 33.5635 51.5031 33.4088 51.4387C33.253 51.3743 33.0982 51.3079 32.9454 51.2396C32.7916 51.1713 32.6408 51.102 32.489 51.0298C32.2633 50.9215 32.0385 50.8103 31.8167 50.6951C31.7428 50.6561 31.6698 50.6181 31.5959 50.578C31.5496 50.5537 31.5032 50.5283 31.4579 50.5039C33.531 51.6475 35.7904 52.4203 38.1514 52.7862C37.2011 52.634 36.2538 52.4144 35.3172 52.1266ZM31.1868 50.3526C31.2676 50.3985 31.3494 50.4444 31.4313 50.4893C31.4401 50.4941 31.449 50.499 31.4579 50.5039C31.3672 50.4541 31.2765 50.4044 31.1868 50.3526ZM31.105 50.3068C31.1326 50.3224 31.1592 50.338 31.1868 50.3526C31.1326 50.3214 31.0783 50.2912 31.0241 50.2599C31.0517 50.2765 31.0783 50.2921 31.105 50.3068ZM34.9239 13.6032C34.8313 13.6325 34.7406 13.6637 34.6489 13.6949C34.5966 13.7125 34.5434 13.731 34.4921 13.7496C34.432 13.7701 34.3729 13.7925 34.3127 13.813C34.2457 13.8374 34.1777 13.8628 34.1097 13.8881C33.8967 13.9681 33.6838 14.0521 33.4728 14.1389C33.3319 14.1974 33.1919 14.257 33.0519 14.3194C32.9829 14.3497 32.9129 14.3799 32.8439 14.4121C32.7739 14.4433 32.7049 14.4755 32.6359 14.5077C32.4979 14.5721 32.3609 14.6385 32.2248 14.7068C32.1558 14.7409 32.0878 14.7741 32.0198 14.8092C31.9537 14.8434 31.8887 14.8776 31.8226 14.9117C31.8167 14.9146 31.8108 14.9176 31.8049 14.9215C31.7408 14.9546 31.6777 14.9878 31.6146 15.022C31.5476 15.0581 31.4805 15.0951 31.4145 15.1322C31.3475 15.1683 31.2804 15.2054 31.2144 15.2435C31.0843 15.3176 30.9551 15.3928 30.826 15.4698C30.7698 15.504 30.7146 15.5372 30.6584 15.5713C30.5973 15.6084 30.5371 15.6465 30.477 15.6845C30.4504 15.7001 30.4238 15.7177 30.3972 15.7343C30.2877 15.8036 30.1783 15.8738 30.0699 15.946C29.8678 16.0787 29.6696 16.2144 29.4725 16.3549C30.2237 15.826 31.0162 15.343 31.8463 14.9098C33.0292 14.2931 34.2546 13.7974 35.5075 13.4237C35.3123 13.4802 35.1171 13.5407 34.9239 13.6032ZM23.2876 42.2333C22.6242 40.9843 22.0997 39.6894 21.7143 38.3643C21.8178 38.7273 21.9312 39.0864 22.0544 39.4416C22.0721 39.4923 22.0899 39.5431 22.1076 39.5938C22.1303 39.6563 22.153 39.7187 22.1766 39.7812C22.2033 39.8534 22.2299 39.9256 22.2575 39.9968C22.3018 40.111 22.3462 40.2251 22.3915 40.3383C22.4152 40.3949 22.4389 40.4515 22.4615 40.5091C22.5079 40.6223 22.5562 40.7345 22.6055 40.8467C22.635 40.916 22.6656 40.9843 22.6971 41.0526C22.7908 41.2594 22.8874 41.4634 22.987 41.6663C23.053 41.802 23.122 41.9366 23.192 42.0703C23.2265 42.1376 23.262 42.204 23.2975 42.2713C23.333 42.3377 23.3694 42.404 23.4059 42.4704C23.4424 42.5367 23.4789 42.6021 23.5163 42.6685C23.5528 42.7338 23.5912 42.7992 23.6287 42.8656C23.7174 43.0178 23.8081 43.169 23.9018 43.3203C23.9274 43.3632 23.955 43.4061 23.9816 43.4491C24.022 43.5135 24.0625 43.5769 24.1039 43.6413C24.1531 43.7184 24.2044 43.7955 24.2557 43.8726C24.2882 43.9223 24.3207 43.9721 24.3552 44.0209C24.4361 44.1409 24.5179 44.2599 24.6037 44.379C24.1246 43.6959 23.6859 42.9797 23.2876 42.2333ZM23.4937 22.9882C23.4079 23.1413 23.3241 23.2945 23.2423 23.4497C23.2068 23.518 23.1703 23.5873 23.1348 23.6566C23.1052 23.7141 23.0757 23.7717 23.0471 23.8302C22.916 24.0898 22.7918 24.3533 22.6725 24.6187C22.6331 24.7065 22.5936 24.7953 22.5552 24.885C22.5295 24.9446 22.5049 25.0041 22.4793 25.0636C22.4576 25.1163 22.4359 25.17 22.4132 25.2236C22.3482 25.3837 22.2841 25.5437 22.224 25.7057C22.1628 25.8667 22.1037 26.0296 22.0465 26.1926C22.0278 26.2472 22.009 26.3009 21.9903 26.3555C21.9696 26.418 21.9479 26.4804 21.9282 26.5429C21.9046 26.6141 21.8819 26.6863 21.8592 26.7576C21.8365 26.8298 21.8139 26.902 21.7922 26.9732C21.7705 27.0454 21.7488 27.1176 21.7281 27.1908C21.7074 27.262 21.6867 27.3333 21.667 27.4045C21.6404 27.4991 21.6147 27.5948 21.5901 27.6894C21.5773 27.7382 21.5645 27.787 21.5526 27.8358C21.5487 27.8485 21.5457 27.8592 21.5438 27.8719C21.528 27.9314 21.5132 27.9909 21.4994 28.0504C21.4836 28.1148 21.4678 28.1783 21.4531 28.2436C21.4432 28.2837 21.4343 28.3237 21.4255 28.3646C21.4146 28.4115 21.4048 28.4593 21.3939 28.5061C21.3801 28.5705 21.3663 28.6349 21.3535 28.7003C21.3367 28.7764 21.322 28.8525 21.3062 28.9296C21.2618 29.1599 21.2214 29.3902 21.1839 29.6224C21.3387 28.6808 21.5595 27.7441 21.8503 26.8171C22.289 25.4168 22.8706 24.0839 23.5804 22.8369C23.5518 22.8876 23.5222 22.9374 23.4937 22.9882ZM14.7585 51.5763C17.228 55.0168 20.2938 57.8602 23.7391 60.0401C20.2287 57.8085 17.1777 54.931 14.7585 51.5763Z" fill="#ED3144"/>
<path fill-rule="evenodd" clip-rule="evenodd" d="M72.5198 23.0339C72.51 23.0036 72.5001 22.9734 72.4902 22.9431C72.5109 23.0075 72.5307 23.0709 72.5514 23.1353C72.5405 23.1012 72.5297 23.067 72.5198 23.0339Z" fill="#ED3144"/>
<path fill-rule="evenodd" clip-rule="evenodd" d="M42.9728 0.504143C42.9019 0.501216 42.8299 0.498289 42.7589 0.495361C42.8338 0.498289 42.9078 0.502192 42.9827 0.505119C42.9787 0.505119 42.9758 0.504143 42.9728 0.504143ZM35.4079 1.00374C35.3073 1.0213 35.2068 1.04082 35.1062 1.06033C35.1279 1.05643 35.1486 1.05253 35.1703 1.04862C35.2718 1.02911 35.3724 1.01057 35.4739 0.992028C35.4522 0.995931 35.4305 0.999834 35.4079 1.00374Z" fill="#ED3144"/>
<path fill-rule="evenodd" clip-rule="evenodd" d="M37.7775 0.659412C37.7282 0.664291 37.677 0.670145 37.6277 0.676976C37.7253 0.665267 37.8239 0.654533 37.9214 0.644775C37.8731 0.649654 37.8248 0.654533 37.7775 0.659412Z" fill="#ED3144"/>
<path fill-rule="evenodd" clip-rule="evenodd" d="M80.6112 40.8644L75.3461 36.896C74.4697 36.2344 74.0015 35.1815 74.0212 34.0916V34.0877C74.0212 34.0643 74.0232 34.0399 74.0232 34.0165C74.0271 33.914 74.031 33.8115 74.034 33.7081C74.0379 33.6057 74.0389 33.5032 74.0409 33.3998C74.0429 33.2973 74.0448 33.1949 74.0458 33.0914C74.0458 32.9402 74.0478 32.788 74.0458 32.6367C74.0458 32.586 74.0458 32.5362 74.0458 32.4845C74.0448 32.3791 74.0429 32.2747 74.0409 32.1703C74.0379 31.9742 74.032 31.7771 74.0241 31.5809C74.0202 31.4697 74.0153 31.3575 74.0103 31.2462C74.0054 31.1565 74.0005 31.0657 73.9956 30.976C73.9956 30.9555 73.9936 30.935 73.9926 30.9145C73.9916 30.9028 73.9906 30.8911 73.9906 30.8803C73.9857 30.8111 73.9818 30.7418 73.9768 30.6725C73.9768 30.651 73.9748 30.6286 73.9729 30.6071C73.9729 30.6013 73.9729 30.5944 73.9709 30.5876C73.965 30.4861 73.9571 30.3846 73.9482 30.2832C73.9453 30.2305 73.9403 30.1778 73.9354 30.1261C73.9305 30.0617 73.9256 29.9973 73.9196 29.9338C73.9098 29.8236 73.8989 29.7133 73.8881 29.604C73.8664 29.3845 73.8428 29.1649 73.8151 28.9454C73.8023 28.8351 73.7875 28.7249 73.7737 28.6156C73.7442 28.396 73.7136 28.1765 73.6791 27.9569C73.6633 27.8515 73.6466 27.7462 73.6288 27.6398C73.6229 27.6008 73.616 27.5608 73.6091 27.5208C73.5953 27.4359 73.5805 27.35 73.5648 27.2641C73.5598 27.2368 73.5549 27.2095 73.55 27.1822C73.5322 27.0836 73.5145 26.9851 73.4958 26.8855C73.4741 26.7694 73.4514 26.6523 73.4277 26.5352C73.4129 26.4611 73.3982 26.3879 73.3824 26.3137C73.3804 26.3049 73.3784 26.2962 73.3775 26.2864L73.3154 25.9995C73.2956 25.9049 73.2749 25.8102 73.2533 25.7156C73.2533 25.7136 73.2523 25.7117 73.2523 25.7087C73.2394 25.6512 73.2256 25.5946 73.2118 25.537C73.2099 25.5253 73.2069 25.5146 73.2049 25.5029C73.1892 25.4385 73.1744 25.3731 73.1586 25.3087C73.1162 25.1379 73.0748 24.9672 73.0305 24.7974C73.0098 24.7203 72.99 24.6422 72.9693 24.5661C72.9486 24.489 72.9279 24.4119 72.9062 24.3349C72.9023 24.3183 72.8974 24.3027 72.8934 24.2861C72.8934 24.2841 72.8934 24.2822 72.8915 24.2792C72.8905 24.2773 72.8895 24.2744 72.8895 24.2724C72.8865 24.2627 72.8836 24.2529 72.8806 24.2431C72.8806 24.2383 72.8806 24.2334 72.8777 24.2295C72.8757 24.2246 72.8747 24.2197 72.8737 24.2148C72.8727 24.2129 72.8727 24.2119 72.8717 24.21C72.8688 24.1992 72.8668 24.1895 72.8629 24.1797C72.852 24.1368 72.8402 24.0948 72.8274 24.0538C72.8274 24.046 72.8234 24.0392 72.8215 24.0324C72.8185 24.0197 72.8146 24.006 72.8106 23.9933C72.7899 23.9211 72.7692 23.8489 72.7485 23.7777C72.7239 23.6928 72.6982 23.6079 72.6726 23.523C72.6549 23.4645 72.6361 23.405 72.6174 23.3454C72.6095 23.3201 72.6016 23.2947 72.5938 23.2693C72.5829 23.2342 72.5721 23.201 72.5612 23.1678C72.5583 23.1561 72.5553 23.1464 72.5514 23.1356C72.5307 23.0712 72.5109 23.0078 72.4902 22.9434C72.4745 22.8956 72.4597 22.8478 72.4439 22.8C72.441 22.7931 72.439 22.7863 72.437 22.7795C72.4134 22.7083 72.3887 22.637 72.3651 22.5668C72.3611 22.5541 72.3572 22.5434 72.3532 22.5307C72.3296 22.4614 72.3049 22.3911 72.2813 22.3218C72.2014 22.0916 72.1186 21.8623 72.0328 21.633C71.9747 21.4778 71.9165 21.3236 71.8554 21.1685C71.4019 20.0093 70.8765 18.8627 70.2771 17.7367C70.2101 17.6099 70.1411 17.484 70.0721 17.3581C70.0179 17.2586 69.9627 17.16 69.9065 17.0605C69.8621 16.9815 69.8178 16.9024 69.7724 16.8244C69.7527 16.7892 69.733 16.7551 69.7123 16.7209C69.6748 16.6556 69.6374 16.5912 69.5989 16.5258C69.5644 16.4672 69.5289 16.4077 69.4934 16.3482C69.4619 16.2935 69.4284 16.2389 69.3958 16.1843C69.3485 16.1072 69.3022 16.0301 69.2549 15.954C69.2352 15.9218 69.2145 15.8896 69.1957 15.8583C69.1642 15.8076 69.1326 15.7578 69.1021 15.7071C69.0981 15.7012 69.0942 15.6954 69.0902 15.6895C69.0873 15.6847 69.0843 15.6798 69.0814 15.6749C69.0488 15.6242 69.0163 15.5724 68.9838 15.5217C68.9374 15.4475 68.8901 15.3744 68.8418 15.3012C68.8241 15.2729 68.8054 15.2446 68.7876 15.2163C68.759 15.1734 68.7314 15.1304 68.7018 15.0875C68.6417 14.9948 68.5806 14.904 68.5195 14.8133C68.486 14.7616 68.4505 14.7108 68.415 14.6591C68.3568 14.5733 68.2987 14.4884 68.2385 14.4045C65.708 10.7892 62.4509 7.70969 58.6773 5.37273C58.5561 5.29759 58.4338 5.22343 58.3106 5.14927C58.1351 5.04389 57.9587 4.93948 57.7812 4.838C54.1791 2.7723 50.2103 1.40427 46.1035 0.805146C46.0326 0.795388 45.9616 0.78563 45.8916 0.775873C45.8876 0.774897 45.8837 0.774897 45.8798 0.773921C45.8127 0.765139 45.7447 0.755381 45.6777 0.745624C45.6096 0.737818 45.5416 0.72806 45.4746 0.720254C45.4647 0.718302 45.4539 0.717326 45.444 0.716351C45.3642 0.706593 45.2843 0.696835 45.2045 0.688053C45.166 0.683174 45.1286 0.679271 45.0901 0.674393C45.0694 0.672441 45.0497 0.669514 45.03 0.667562C44.9985 0.664635 44.9659 0.660732 44.9344 0.657804C44.9314 0.656829 44.9295 0.656829 44.9255 0.656829C44.8388 0.647071 44.752 0.638289 44.6643 0.629507C44.617 0.624628 44.5696 0.619749 44.5223 0.614871C44.4789 0.611943 44.4366 0.607064 44.3932 0.604137C44.3114 0.596331 44.2305 0.589501 44.1497 0.58267C44.1448 0.581694 44.1418 0.581694 44.1369 0.581694C44.0896 0.577791 44.0413 0.572912 43.993 0.569985C43.9446 0.565106 43.8963 0.562179 43.848 0.559252C43.7741 0.553397 43.6992 0.547542 43.6243 0.542664C43.6065 0.542664 43.5888 0.540712 43.571 0.539736C43.5493 0.537785 43.5277 0.536809 43.505 0.534857C43.4547 0.53193 43.4044 0.529003 43.3551 0.526075C43.3059 0.523148 43.2556 0.520221 43.2063 0.517294C43.1314 0.51339 43.0564 0.509487 42.9825 0.505584C42.9076 0.502657 42.8337 0.498754 42.7587 0.495827C42.7528 0.495827 42.7469 0.495827 42.741 0.495827H42.74C42.7203 0.494851 42.7006 0.493875 42.6809 0.493875C42.6227 0.490948 42.5636 0.488996 42.5044 0.487045C42.4778 0.486069 42.4502 0.485093 42.4226 0.484117C42.4127 0.484117 42.4029 0.483142 42.393 0.483142C42.3289 0.48119 42.2639 0.480214 42.1998 0.478263C42.1081 0.475335 42.0164 0.473384 41.9238 0.472408C41.8311 0.470457 41.7384 0.469481 41.6468 0.469481C41.5541 0.468505 41.4614 0.467529 41.3688 0.467529C41.215 0.467529 41.0622 0.469481 40.9094 0.470457C40.8325 0.472408 40.7566 0.473384 40.6797 0.475335C40.5476 0.477287 40.4165 0.48119 40.2844 0.485093C40.2292 0.487045 40.174 0.488996 40.1178 0.490948L40.0744 0.492899C40.0084 0.494851 39.9433 0.497778 39.8773 0.500705C39.6545 0.510463 39.4327 0.523148 39.2109 0.537785C39.0807 0.545591 38.9516 0.555349 38.8225 0.565106C38.6825 0.57584 38.5435 0.587549 38.4035 0.599258C38.2645 0.611943 38.1245 0.625604 37.9855 0.639265C37.9638 0.641216 37.9431 0.643168 37.9215 0.646095C37.8239 0.655853 37.7253 0.666586 37.6277 0.678296C37.6208 0.678296 37.6149 0.679271 37.608 0.680247C37.5261 0.689029 37.4433 0.698787 37.3615 0.708544C37.3063 0.715375 37.2511 0.722205 37.1969 0.729036C37.1052 0.740745 37.0135 0.752454 36.9228 0.765139C36.8617 0.772945 36.8016 0.781727 36.7415 0.789533C36.6823 0.798315 36.6242 0.806121 36.565 0.814903C36.5571 0.814903 36.5502 0.816855 36.5423 0.818806C36.4615 0.82954 36.3816 0.842225 36.3008 0.85491C36.2712 0.858813 36.2426 0.863692 36.2131 0.868571C36.1835 0.872474 36.1549 0.877353 36.1253 0.882232C36.0406 0.894917 35.9548 0.909553 35.869 0.92419C35.7843 0.938826 35.6995 0.952487 35.6147 0.968099C35.5743 0.97493 35.5339 0.982736 35.4934 0.989566C35.4875 0.990542 35.4806 0.992494 35.4737 0.993469C35.3722 1.01201 35.2716 1.03055 35.1701 1.05006C35.1484 1.05397 35.1277 1.05787 35.106 1.06177C35.0745 1.06763 35.042 1.07348 35.0094 1.08031C34.9966 1.08226 34.9838 1.08519 34.971 1.08714C34.9641 1.08909 34.9572 1.09007 34.9503 1.09202C34.9365 1.09397 34.9227 1.0969 34.9089 1.09983C34.9069 1.09983 34.9059 1.09983 34.9039 1.1008C34.8369 1.11446 34.7689 1.12715 34.7019 1.14081C34.6604 1.14959 34.619 1.15837 34.5776 1.16716C34.4584 1.19253 34.3381 1.2179 34.2178 1.24424C34.1419 1.26083 34.066 1.27839 33.9901 1.29596C33.9241 1.31059 33.858 1.32621 33.793 1.34182C33.6609 1.37304 33.5307 1.40427 33.3996 1.43647C30.9312 2.05316 28.4963 2.96745 26.1442 4.19399C25.1032 4.73652 24.1026 5.32686 23.1464 5.96111C23.9429 5.42932 24.7651 4.93265 25.6099 4.47209L2.61726 16.4575C-0.661489 18.167 -0.899065 22.7004 2.12732 24.7486L7.39145 28.718C8.27965 29.3884 8.7479 30.4588 8.71537 31.5634C8.71044 31.6756 8.70749 31.7868 8.70453 31.899C8.70059 32.0269 8.69763 32.1557 8.69467 32.2835C8.69368 32.3645 8.6927 32.4445 8.69171 32.5245C8.68876 32.8319 8.68974 33.1392 8.69664 33.4476C8.70256 33.8164 8.71636 34.1862 8.73706 34.5561C8.74199 34.6429 8.74692 34.7307 8.75283 34.8185C8.79325 35.4743 8.85437 36.1309 8.93718 36.7857C8.96379 37.0043 8.99337 37.2228 9.0259 37.4414C9.04463 37.5731 9.06434 37.7039 9.08504 37.8346C9.10575 37.9654 9.12842 38.0961 9.15011 38.2269C9.18067 38.4016 9.21123 38.5753 9.24474 38.7499C9.29206 39.0036 9.34332 39.2563 9.39754 39.5091C9.41529 39.5891 9.43204 39.6691 9.44979 39.7481C9.46753 39.8272 9.48528 39.9052 9.50302 39.9843C9.50795 40.0096 9.51386 40.035 9.51978 40.0584C9.53259 40.1131 9.54541 40.1667 9.55822 40.2214C9.5878 40.3424 9.61639 40.4634 9.64695 40.5834C9.6568 40.6205 9.66568 40.6575 9.67455 40.6956C9.68046 40.7161 9.68539 40.7366 9.69032 40.7571C9.70511 40.8156 9.72088 40.8732 9.73567 40.9308C9.79876 41.1679 9.86283 41.404 9.93085 41.6401C9.9762 41.7972 10.0225 41.9534 10.0699 42.1095H10.0708C10.1182 42.2666 10.1665 42.4227 10.2167 42.5788C10.7954 44.3772 11.5407 46.1492 12.4594 47.8773C13.0075 48.9077 13.6049 49.8971 14.2457 50.8436C14.289 50.909 14.3344 50.9744 14.3787 51.0378C14.4221 51.1022 14.4665 51.1666 14.5118 51.23C14.5927 51.3461 14.6755 51.4613 14.7573 51.5764C17.1764 54.9311 20.2275 57.8086 23.7379 60.0402C23.8552 60.1144 23.9725 60.1876 24.0908 60.2608C24.1726 60.3125 24.2564 60.3632 24.3402 60.413C24.4151 60.4588 24.491 60.5037 24.5669 60.5486C24.6813 60.6159 24.7956 60.6833 24.91 60.7496C28.7309 62.95 32.9678 64.3629 37.3457 64.9035C37.4069 64.9113 37.469 64.9191 37.5311 64.9259C37.5429 64.9279 37.5538 64.9288 37.5646 64.9298C37.6435 64.9396 37.7223 64.9484 37.8022 64.9562L37.9047 64.9679C37.9155 64.9688 37.9264 64.9698 37.9372 64.9708C37.9816 64.9757 38.0269 64.9806 38.0723 64.9845C38.163 64.9932 38.2527 65.002 38.3434 65.0108C38.4252 65.0176 38.505 65.0254 38.5869 65.0313C38.6874 65.0401 38.788 65.0479 38.8875 65.0557C38.9792 65.0615 39.0699 65.0684 39.1616 65.0742C39.2454 65.0801 39.3311 65.0859 39.4159 65.0908C39.4366 65.0908 39.4573 65.0928 39.478 65.0938C39.6446 65.1035 39.8102 65.1113 39.9778 65.1181C39.9837 65.1191 39.9906 65.1191 39.9965 65.1191C40.0744 65.122 40.1533 65.1259 40.2312 65.1279C40.2588 65.1289 40.2864 65.1299 40.314 65.1308C40.3879 65.1338 40.4618 65.1347 40.5358 65.1367C40.6284 65.1396 40.7201 65.1416 40.8128 65.1425C40.9054 65.1445 40.9971 65.1455 41.0898 65.1464C41.1825 65.1464 41.2751 65.1474 41.3678 65.1474C43.7317 65.1474 46.0365 64.8986 48.2575 64.4273C48.4093 64.3951 48.5611 64.3609 48.7129 64.3268C48.9219 64.279 49.1299 64.2302 49.3369 64.1785C51.8054 63.5618 54.2403 62.6475 56.5924 61.4219C57.4707 60.9633 58.3185 60.4715 59.1367 59.9485C58.4782 60.373 57.8039 60.773 57.1138 61.1497L80.1193 49.1565C83.398 47.447 83.6346 42.9135 80.6102 40.8644H80.6112ZM61.5834 35.8031C61.5805 35.8216 61.5775 35.8402 61.5746 35.8597L61.5539 35.9914C61.5519 35.9992 61.5509 36.007 61.5499 36.0158C61.544 36.0509 61.5381 36.0861 61.5322 36.1212C61.5302 36.1319 61.5282 36.1427 61.5263 36.1534C61.5223 36.1778 61.5184 36.2022 61.5134 36.2266C61.4139 36.8189 61.2867 37.4024 61.1319 37.9791C61.1024 38.0942 61.0698 38.2093 61.0373 38.3245C61.0136 38.4074 60.99 38.4904 60.9653 38.5733C60.9397 38.6621 60.9121 38.7499 60.8845 38.8377C60.8638 38.9041 60.8421 38.9704 60.8214 39.0368C60.7711 39.189 60.7199 39.3412 60.6666 39.4925C60.6509 39.5364 60.6361 39.5793 60.6193 39.6232C60.6036 39.671 60.5858 39.7169 60.5681 39.7637C60.5109 39.9208 60.4508 40.077 60.3887 40.2321C60.3611 40.3033 60.3325 40.3726 60.3039 40.4429C60.2773 40.5073 60.2516 40.5707 60.224 40.6341C60.1678 40.7678 60.1097 40.8995 60.0505 41.0313C60.0318 41.0742 60.0121 41.1171 59.9924 41.1591C59.9194 41.3201 59.8435 41.4791 59.7656 41.6372C59.739 41.6919 59.7124 41.7465 59.6838 41.8002C59.6414 41.887 59.5971 41.9729 59.5517 42.0588C59.5162 42.129 59.4788 42.1993 59.4413 42.2685C59.4147 42.3203 59.3861 42.372 59.3585 42.4227C59.2836 42.5593 59.2067 42.6959 59.1268 42.8306C59.0775 42.9184 59.0263 43.0062 58.974 43.0931C58.9524 43.1301 58.9307 43.1653 58.909 43.2014C58.8804 43.2482 58.8518 43.296 58.8232 43.3429C58.5285 43.8229 58.215 44.2894 57.8798 44.7411C57.8404 44.7958 57.8 44.8495 57.7595 44.9031C57.7191 44.9568 57.6797 45.0105 57.6383 45.0641C57.591 45.1275 57.5417 45.19 57.4914 45.2524C57.3465 45.4388 57.1967 45.6213 57.0439 45.8008C57.037 45.8077 57.031 45.8155 57.0261 45.8233C56.9778 45.8799 56.9305 45.9355 56.8812 45.9911C56.829 46.0506 56.7777 46.1092 56.7254 46.1687L56.7195 46.1745C56.6693 46.2321 56.618 46.2897 56.5648 46.3473C56.5638 46.3482 56.5618 46.3502 56.5598 46.3521C56.5135 46.4039 56.4662 46.4556 56.4169 46.5073C56.2404 46.6966 56.061 46.8839 55.8767 47.0664C55.8284 47.1152 55.7791 47.163 55.7308 47.2108C55.6726 47.2664 55.6154 47.3221 55.5573 47.3767C55.2753 47.645 54.9855 47.9065 54.6868 48.1583C54.6247 48.212 54.5606 48.2646 54.4976 48.3173C54.4345 48.3691 54.3704 48.4208 54.3063 48.4725C54.05 48.6793 53.7868 48.8804 53.5196 49.0755C53.4822 49.1028 53.4447 49.1302 53.4063 49.1575C53.36 49.1926 53.3126 49.2258 53.2653 49.259C53.0829 49.3887 52.8986 49.5146 52.7133 49.6376C52.6521 49.6795 52.59 49.7195 52.5279 49.7605C52.3761 49.8591 52.2223 49.9547 52.0686 50.0484C52.0212 50.0776 51.9739 50.1059 51.9266 50.1342C51.7482 50.2425 51.5678 50.3469 51.3854 50.4474C51.3203 50.4835 51.2563 50.5196 51.1902 50.5548C51.1271 50.5899 51.0631 50.6241 50.999 50.6582C50.997 50.6592 50.995 50.6602 50.994 50.6611L50.7989 50.7626C50.7338 50.7968 50.6678 50.8299 50.6017 50.8631C50.4696 50.9295 50.3365 50.9948 50.2034 51.0573C50.0704 51.1217 49.9363 51.1832 49.8012 51.2437C49.6829 51.2964 49.5647 51.3481 49.4464 51.3988C48.7336 51.7033 48.0032 51.9657 47.2569 52.1853C47.1327 52.2224 47.0075 52.2575 46.8823 52.2916C46.8665 52.2965 46.8508 52.3004 46.835 52.3053C46.7877 52.318 46.7404 52.3307 46.694 52.3434C46.6467 52.357 46.5984 52.3697 46.5521 52.3814C46.4712 52.4029 46.3904 52.4234 46.3096 52.4429C46.2465 52.4585 46.1824 52.4741 46.1193 52.4888C46.068 52.5005 46.0168 52.5122 45.9655 52.5239C45.9162 52.5346 45.8679 52.5453 45.8196 52.5561H45.8177C45.8177 52.5561 45.8137 52.558 45.8117 52.558C45.8048 52.559 45.7989 52.561 45.792 52.5629C45.3819 52.6537 44.9699 52.7317 44.5558 52.7961C44.4484 52.8137 44.34 52.8303 44.2325 52.8449C43.9634 52.883 43.6933 52.9152 43.4222 52.9425C43.3137 52.9532 43.2053 52.963 43.0969 52.9727C42.8889 52.9903 42.6789 53.0049 42.4689 53.0157C42.2925 53.0254 42.116 53.0323 41.9395 53.0371C41.3422 53.0527 40.7418 53.042 40.1424 53.0059C40.101 53.003 40.0587 53.0001 40.0163 52.9971C39.7422 52.9796 39.4662 52.9552 39.1921 52.9249C39.1636 52.922 39.136 52.9191 39.1083 52.9161C39.0039 52.9044 38.9003 52.8917 38.7968 52.8791C38.6647 52.8615 38.5326 52.8439 38.3996 52.8244C38.3168 52.8127 38.234 52.8 38.1511 52.7864C35.6867 52.4039 33.3326 51.5803 31.1865 50.3528C31.1589 50.3382 31.1323 50.3225 31.1047 50.3069C31.0781 50.2923 31.0515 50.2767 31.0239 50.2601C30.9972 50.2445 30.9706 50.2289 30.943 50.2133C30.9075 50.1928 30.8711 50.1713 30.8356 50.1489C30.8237 50.143 30.8129 50.1362 30.8011 50.1293C30.7952 50.1264 30.7883 50.1215 30.7823 50.1176C30.7636 50.1069 30.7449 50.0952 30.7252 50.0835C30.7064 50.0728 30.6867 50.061 30.668 50.0484C30.5467 49.9762 30.4255 49.901 30.3062 49.8249C30.1317 49.7146 29.9582 49.6015 29.7877 49.4844C29.6162 49.3692 29.4476 49.2502 29.281 49.1292C29.0799 48.9838 28.8817 48.8345 28.6865 48.6823C28.5574 48.5808 28.4283 48.4774 28.3011 48.373C27.7284 47.9017 27.1812 47.3991 26.6627 46.8664C26.6203 46.8215 26.577 46.7766 26.5336 46.7317C26.4478 46.6429 26.364 46.5522 26.2802 46.4614C26.2378 46.4156 26.1964 46.3697 26.155 46.3238C26.0998 46.2624 26.0446 46.2009 25.9894 46.1384C25.88 46.0145 25.7725 45.8886 25.6661 45.7628C25.5596 45.6349 25.4541 45.5071 25.3506 45.3773C25.2087 45.1998 25.0697 45.0183 24.9336 44.8348C24.909 44.8016 24.8843 44.7694 24.8607 44.7363C24.8567 44.7314 24.8528 44.7275 24.8498 44.7226C24.8153 44.6758 24.7808 44.6299 24.7483 44.5831C24.699 44.5157 24.6497 44.4474 24.6034 44.3791C24.5176 44.2601 24.4358 44.141 24.355 44.021C24.3205 43.9722 24.2879 43.9225 24.2554 43.8727C24.2041 43.7956 24.1529 43.7185 24.1036 43.6414C24.0622 43.577 24.0218 43.5136 23.9814 43.4492C23.9547 43.4063 23.9271 43.3634 23.9015 43.3204C23.8079 43.1692 23.7172 43.0179 23.6284 42.8657C23.591 42.7994 23.5525 42.734 23.5161 42.6686C23.4786 42.6023 23.4421 42.5369 23.4057 42.4705C23.3682 42.4042 23.3317 42.3378 23.2972 42.2715C23.2607 42.2041 23.2253 42.1378 23.1917 42.0705C23.1208 41.9368 23.0527 41.8021 22.9867 41.6665C22.8852 41.4635 22.7895 41.2596 22.6969 41.0527C22.6653 40.9844 22.6348 40.9161 22.6052 40.8468C22.5559 40.7346 22.5076 40.6224 22.4613 40.5092C22.4386 40.4517 22.4149 40.3951 22.3913 40.3385C22.3449 40.2253 22.3006 40.1111 22.2572 39.9969C22.2296 39.9257 22.203 39.8535 22.1764 39.7813C22.1527 39.7189 22.13 39.6564 22.1074 39.594C22.0896 39.5432 22.0719 39.4925 22.0541 39.4417C21.8856 38.9636 21.7367 38.4786 21.6076 37.9878C21.6046 37.9771 21.6017 37.9654 21.5987 37.9547C21.5879 37.9147 21.577 37.8746 21.5672 37.8346C21.5533 37.7839 21.5405 37.7332 21.5277 37.6824C21.5149 37.6336 21.5031 37.5839 21.4912 37.5341C21.4883 37.5234 21.4853 37.5117 21.4834 37.5C21.4705 37.4482 21.4587 37.3975 21.4469 37.3458C21.437 37.3019 21.4272 37.257 21.4173 37.2121C21.4173 37.2053 21.4144 37.1975 21.4124 37.1906C21.4075 37.1701 21.4035 37.1497 21.3986 37.1292C21.3789 37.0413 21.3591 36.9525 21.3414 36.8638C21.3217 36.775 21.3039 36.6862 21.2872 36.5974C21.2527 36.4198 21.2211 36.2412 21.1916 36.0636C21.1758 35.9739 21.161 35.8851 21.1482 35.7953C21.1206 35.6167 21.0959 35.4372 21.0743 35.2576C21.0624 35.1698 21.0526 35.082 21.0437 34.9942C21.0437 34.9893 21.0437 34.9844 21.0417 34.9805C21.0319 34.8937 21.024 34.8068 21.0151 34.72C21.0062 34.6302 20.9983 34.5424 20.9914 34.4536C20.9914 34.4468 20.9914 34.4399 20.9895 34.4341C20.9826 34.356 20.9767 34.277 20.9717 34.1989C20.9707 34.1736 20.9688 34.1492 20.9678 34.1248C20.9619 34.0526 20.9579 33.9804 20.954 33.9091C20.9481 33.8223 20.9451 33.7364 20.9412 33.6496C20.9412 33.6261 20.9412 33.6027 20.9382 33.5803C20.9353 33.5091 20.9333 33.4378 20.9313 33.3676C20.9284 33.2768 20.9274 33.1861 20.9254 33.0963C20.9106 32.02 20.9845 30.9399 21.1462 29.8646C21.158 29.7845 21.1709 29.7036 21.1837 29.6226C21.2211 29.3903 21.2616 29.16 21.3059 28.9298C21.3217 28.8527 21.3365 28.7766 21.3532 28.7005C21.366 28.6351 21.3799 28.5707 21.3937 28.5063C21.4045 28.4594 21.4144 28.4116 21.4252 28.3648C21.4341 28.3238 21.4429 28.2838 21.4528 28.2438C21.4676 28.1784 21.4834 28.115 21.4991 28.0506C21.5129 27.9911 21.5277 27.9316 21.5435 27.872C21.5455 27.8593 21.5484 27.8486 21.5524 27.8359C21.5642 27.7871 21.577 27.7383 21.5898 27.6896C21.6145 27.5949 21.6401 27.4993 21.6667 27.4046C21.6864 27.3334 21.7061 27.2622 21.7278 27.1909C21.7485 27.1178 21.7702 27.0456 21.7919 26.9733C21.8136 26.9021 21.8353 26.8299 21.8589 26.7577C21.8806 26.6865 21.9043 26.6143 21.928 26.543C21.9477 26.4806 21.9694 26.4181 21.9901 26.3557C22.0088 26.301 22.0275 26.2474 22.0462 26.1927C22.1034 26.0298 22.1626 25.8668 22.2237 25.7058C22.2838 25.5438 22.3479 25.3838 22.413 25.2238C22.4356 25.1701 22.4573 25.1165 22.479 25.0638C22.5046 25.0042 22.5293 24.9447 22.5549 24.8852C22.5934 24.7954 22.6328 24.7066 22.6722 24.6188C22.7905 24.3534 22.9157 24.0899 23.0468 23.8304C23.0754 23.7718 23.105 23.7143 23.1346 23.6567C23.17 23.5874 23.2065 23.5181 23.242 23.4498C23.3238 23.2947 23.4076 23.1415 23.4934 22.9883C23.522 22.9376 23.5516 22.8878 23.5801 22.8371C23.5939 22.8117 23.6087 22.7873 23.6225 22.7619C23.6462 22.7209 23.6698 22.68 23.6945 22.639C23.7221 22.5902 23.7507 22.5424 23.7793 22.4946C23.8 22.4585 23.8226 22.4224 23.8453 22.3862C25.2225 20.1069 27.0413 18.1241 29.2179 16.5385C29.2554 16.5111 29.2928 16.4838 29.3303 16.4565C29.3776 16.4223 29.4249 16.3882 29.4722 16.355C29.6694 16.2145 29.8675 16.0789 30.0696 15.9462C30.1781 15.874 30.2875 15.8037 30.3969 15.7344C30.4235 15.7178 30.4501 15.7003 30.4767 15.6847C30.5369 15.6466 30.597 15.6086 30.6581 15.5715C30.7143 15.5373 30.7695 15.5041 30.8257 15.47C30.9549 15.3929 31.084 15.3178 31.2141 15.2436C31.2802 15.2056 31.3472 15.1685 31.4142 15.1324C31.4803 15.0943 31.5473 15.0582 31.6144 15.0221C31.6774 14.988 31.7405 14.9538 31.8046 14.9216C31.8105 14.9177 31.8164 14.9148 31.8224 14.9119C31.8884 14.8777 31.9535 14.8435 32.0195 14.8094C32.0875 14.7743 32.1556 14.7411 32.2246 14.7069C32.3606 14.6386 32.4976 14.5723 32.6356 14.5079C32.7046 14.4757 32.7736 14.4435 32.8436 14.4123C32.9126 14.3801 32.9826 14.3498 33.0516 14.3196C33.1916 14.2571 33.3316 14.1976 33.4726 14.139C33.6835 14.0522 33.8965 13.9683 34.1094 13.8883C34.1774 13.8629 34.2454 13.8375 34.3125 13.8131C34.3726 13.7926 34.4317 13.7702 34.4919 13.7497C34.5431 13.7312 34.5964 13.7126 34.6486 13.6951C34.7403 13.6638 34.831 13.6326 34.9237 13.6033C35.3742 13.4541 35.8306 13.3223 36.2919 13.2062C36.3471 13.1916 36.4023 13.1779 36.4576 13.1642C36.5177 13.1496 36.5768 13.135 36.636 13.1213C36.6872 13.1096 36.7385 13.0979 36.7898 13.0862C36.8282 13.0774 36.8676 13.0686 36.9061 13.0598C36.9189 13.0569 36.9307 13.054 36.9435 13.052C37.0845 13.0208 37.2265 12.9915 37.3684 12.9632C37.4562 12.9457 37.5439 12.9291 37.6316 12.9125C38.159 12.8139 38.6884 12.7369 39.2217 12.6812C39.3104 12.6715 39.3992 12.6637 39.4879 12.6549C39.6062 12.6442 39.7245 12.6344 39.8438 12.6256C39.8467 12.6256 39.8497 12.6256 39.8526 12.6246C39.9206 12.6198 39.9887 12.6149 40.0567 12.611C40.1247 12.6061 40.1937 12.6022 40.2617 12.5983C40.3495 12.5934 40.4372 12.5895 40.5259 12.5866C40.5397 12.5856 40.5525 12.5856 40.5653 12.5846C40.6462 12.5817 40.726 12.5788 40.8069 12.5768C40.8976 12.5749 40.9883 12.5729 41.0789 12.571C42.184 12.5573 43.293 12.6325 44.3961 12.7983C44.4592 12.8071 44.5223 12.8169 44.5864 12.8276C44.7146 12.8471 44.8417 12.8686 44.9689 12.891C45.2567 12.9408 45.5426 12.9974 45.8265 13.0598C45.8817 13.0716 45.9359 13.0842 45.9912 13.0969C46.0542 13.1106 46.1183 13.1252 46.1804 13.1408C46.2356 13.1535 46.2908 13.1672 46.3451 13.1808C46.3658 13.1857 46.3865 13.1906 46.4062 13.1955C46.4535 13.2072 46.4998 13.2189 46.5471 13.2306C46.5807 13.2404 46.6142 13.2482 46.6487 13.2579C46.7098 13.2735 46.7709 13.2901 46.831 13.3067C46.904 13.3262 46.976 13.3467 47.0489 13.3662L47.0548 13.3692C47.1278 13.3897 47.1997 13.4101 47.2707 13.4316C47.3348 13.4511 47.3989 13.4697 47.462 13.4892C47.4866 13.497 47.5103 13.5038 47.5339 13.5116C47.5921 13.5292 47.6502 13.5477 47.7074 13.5672C47.7774 13.5887 47.8474 13.6121 47.9174 13.6355C47.9272 13.6385 47.9361 13.6414 47.946 13.6453C48.011 13.6668 48.0761 13.6892 48.1402 13.7117C48.2841 13.7614 48.427 13.8131 48.57 13.8658C48.6321 13.8892 48.6952 13.9127 48.7563 13.9371C48.8184 13.9605 48.8805 13.9849 48.9426 14.0093C49.0668 14.0581 49.1901 14.1068 49.3123 14.1595C49.404 14.1986 49.4956 14.2366 49.5873 14.2766C49.6682 14.3118 49.747 14.3469 49.8269 14.383C50.0063 14.464 50.1837 14.5459 50.3602 14.6328C50.4193 14.6611 50.4775 14.6904 50.5366 14.7196C50.6145 14.7587 50.6924 14.7967 50.7703 14.8377C50.8866 14.8972 51.0029 14.9577 51.1183 15.0211C51.1183 15.0211 51.1202 15.0211 51.1212 15.0221C51.2346 15.0836 51.3479 15.146 51.4603 15.2104C51.4633 15.2124 51.4662 15.2134 51.4692 15.2153C51.5126 15.2387 51.5559 15.2631 51.5983 15.2885C51.6437 15.3139 51.69 15.3392 51.7354 15.3666C51.7403 15.3685 51.7452 15.3714 51.7502 15.3744C51.7856 15.3958 51.8211 15.4163 51.8566 15.4368C51.9039 15.4651 51.9522 15.4944 51.9986 15.5227C52.039 15.5471 52.0804 15.5724 52.1208 15.5968C52.8572 16.0457 53.5611 16.5385 54.2314 17.0771C54.3132 17.1415 54.3941 17.2069 54.4739 17.2732C54.5656 17.3493 54.6563 17.4254 54.747 17.5025C54.8515 17.5923 54.956 17.683 55.0585 17.7757C55.1196 17.8294 55.1797 17.884 55.2399 17.9387C55.2842 17.9797 55.3276 18.0197 55.371 18.0597C55.4587 18.1417 55.5455 18.2236 55.6312 18.3066C55.6746 18.3485 55.717 18.3905 55.7594 18.4324C55.8165 18.4871 55.8727 18.5437 55.9289 18.6003C55.9861 18.6569 56.0423 18.7135 56.0965 18.771C56.1655 18.8423 56.2345 18.9145 56.3016 18.9857C56.3439 19.0296 56.3853 19.0735 56.4248 19.1184C56.5342 19.2355 56.6407 19.3536 56.7462 19.4736C56.7984 19.5331 56.8516 19.5936 56.9039 19.6541C56.9561 19.7146 57.0074 19.7751 57.0586 19.8366C57.3159 20.143 57.5644 20.4572 57.8039 20.7792C57.8325 20.8172 57.8601 20.8543 57.8877 20.8914C57.9222 20.9382 57.9567 20.985 57.9892 21.0309C59.4364 23.0225 60.4941 25.2414 61.1221 27.5969C61.13 27.6232 61.1369 27.6505 61.1438 27.6769C61.1546 27.714 61.1645 27.752 61.1743 27.7891C61.1743 27.793 61.1763 27.7969 61.1773 27.8008C61.1822 27.8223 61.1881 27.8437 61.1931 27.8652C61.195 27.872 61.197 27.8798 61.199 27.8876C61.2088 27.9267 61.2187 27.9647 61.2285 28.0047C61.2345 28.0291 61.2404 28.0545 61.2463 28.0799C61.2483 28.0877 61.2502 28.0965 61.2522 28.1052C61.2591 28.1326 61.266 28.1599 61.2729 28.1872C61.2788 28.2136 61.2857 28.2409 61.2926 28.2682C61.3419 28.4819 61.3892 28.6966 61.4306 28.9112C61.4503 29.002 61.4671 29.0937 61.4839 29.1854C61.5016 29.2771 61.5174 29.3689 61.5332 29.4606C61.5775 29.7211 61.617 29.9836 61.6505 30.2461C61.6593 30.3115 61.6682 30.3768 61.6751 30.4432C61.683 30.5086 61.6909 30.5749 61.6978 30.6403C61.7037 30.6881 61.7086 30.7359 61.7136 30.7847C61.7195 30.8433 61.7244 30.9028 61.7303 30.9633C61.7343 31.0111 61.7392 31.0589 61.7431 31.1067C61.7441 31.1126 61.7441 31.1194 61.7441 31.1252C61.75 31.1916 61.755 31.257 61.7599 31.3243C61.7658 31.3926 61.7697 31.4629 61.7747 31.5312C61.7776 31.5839 61.7806 31.6375 61.7835 31.6902C61.7904 31.8093 61.7964 31.9293 61.8003 32.0493C61.8023 32.1049 61.8042 32.1615 61.8062 32.2181C61.8082 32.2737 61.8092 32.3293 61.8102 32.385C61.8102 32.4484 61.8121 32.5108 61.8131 32.5743V32.6221C61.8141 32.6748 61.8141 32.7284 61.8141 32.7821C61.8141 33.7891 61.7372 34.798 61.5834 35.8031Z" fill="#ED3144"/>
<path fill-rule="evenodd" clip-rule="evenodd" d="M44.7333 0.635981C44.7106 0.634029 44.687 0.632078 44.6643 0.62915C44.752 0.637932 44.8398 0.646714 44.9265 0.656472C44.8625 0.649642 44.7984 0.642811 44.7333 0.635981ZM45.8226 52.5548C45.8226 52.5548 45.8206 52.5548 45.8197 52.5557C45.868 52.545 45.9163 52.5343 45.9656 52.5225C45.9182 52.5333 45.8709 52.544 45.8226 52.5538V52.5548ZM72.9428 24.4653C72.9388 24.4516 72.9359 24.4389 72.9319 24.4253C72.9201 24.3784 72.9073 24.3316 72.8935 24.2857C72.8974 24.3023 72.9023 24.3179 72.9063 24.3345C72.928 24.4116 72.9487 24.4887 72.9694 24.5648C72.9605 24.5316 72.9516 24.4984 72.9428 24.4653Z" fill="#2E2526"/>
<path fill-rule="evenodd" clip-rule="evenodd" d="M58.3103 5.14819C62.2397 7.51151 65.6259 10.672 68.2382 14.4034C65.5647 10.5676 62.1579 7.45296 58.3103 5.14819ZM69.1777 15.829C69.152 15.788 69.1264 15.747 69.1008 15.707C69.1323 15.7577 69.1629 15.8075 69.1944 15.8582C69.1885 15.8485 69.1826 15.8397 69.1777 15.8299V15.829ZM69.3946 16.1832C69.4281 16.2378 69.4606 16.2925 69.4931 16.3481C69.5286 16.4066 69.5631 16.4661 69.5986 16.5257C69.6361 16.5901 69.6745 16.6554 69.712 16.7208C69.7317 16.755 69.7524 16.7891 69.7721 16.8243C69.8175 16.9033 69.8618 16.9814 69.9072 17.0614C69.9624 17.1599 70.0176 17.2594 70.0728 17.359C70.1418 17.4839 70.2108 17.6107 70.2778 17.7376C70.8772 18.8636 71.4026 20.0101 71.8561 21.1694C71.9162 21.3235 71.9754 21.4787 72.0325 21.6328C72.1183 21.8622 72.2011 22.0915 72.281 22.3217C71.5347 20.1633 70.5637 18.1074 69.3946 16.1841V16.1832ZM72.8843 24.2567C72.8843 24.2567 72.8823 24.2479 72.8803 24.243C72.8823 24.2528 72.8862 24.2626 72.8882 24.2713C72.8882 24.2733 72.8892 24.2762 72.8902 24.2782C72.8882 24.2713 72.8862 24.2635 72.8843 24.2567ZM73.0607 24.9183C73.043 24.849 73.0252 24.7797 73.0075 24.7114C73.0035 24.6958 72.9996 24.6792 72.9947 24.6636C72.9809 24.6099 72.9661 24.5572 72.9523 24.5045C72.9483 24.4909 72.9454 24.4782 72.9414 24.4655C72.9375 24.4518 72.9345 24.4392 72.9306 24.4255C72.9188 24.3787 72.9059 24.3318 72.8921 24.286C72.8961 24.3026 72.901 24.3182 72.905 24.3348C72.9266 24.4118 72.9474 24.4889 72.9681 24.565C72.9888 24.6411 73.0095 24.7192 73.0292 24.7963C73.0735 24.9661 73.1159 25.1368 73.1573 25.3076C73.1258 25.1778 73.0942 25.048 73.0617 24.9183H73.0607ZM73.2037 25.5028C73.2056 25.5145 73.2086 25.5252 73.2106 25.5359C73.2244 25.5935 73.2372 25.6511 73.251 25.7086C73.2352 25.6403 73.2194 25.5711 73.2037 25.5028ZM74.0238 31.5808C74.0199 31.4686 74.015 31.3574 74.0091 31.2452C74.0051 31.1554 74.0002 31.0656 73.9952 30.9758C73.9943 30.9554 73.9933 30.9349 73.9913 30.9144C73.9913 30.9027 73.9903 30.891 73.9893 30.8802C73.9854 30.8109 73.9805 30.7426 73.9755 30.6734C73.9745 30.6519 73.9736 30.6294 73.9716 30.607C73.9716 30.6012 73.9716 30.5943 73.9706 30.5885C73.9637 30.487 73.9558 30.3845 73.9479 30.2831C73.944 30.2313 73.94 30.1786 73.9351 30.126C73.9302 30.0616 73.9243 29.9971 73.9184 29.9337C73.9085 29.8244 73.8986 29.7142 73.8868 29.6039C73.8651 29.3844 73.8405 29.1648 73.8139 28.9453C73.8001 28.836 73.7863 28.7257 73.7725 28.6155C73.7439 28.3959 73.7123 28.1764 73.6778 27.9568C73.6611 27.8505 73.6443 27.7451 73.6266 27.6397C73.6206 27.6007 73.6137 27.5606 73.6068 27.5206C73.593 27.4348 73.5783 27.3499 73.5625 27.264C73.5576 27.2367 73.5526 27.2094 73.5477 27.1821C73.53 27.0835 73.5122 26.9849 73.4935 26.8854C73.4718 26.7683 73.4491 26.6512 73.4255 26.5351C73.8277 28.5647 74.0396 30.6617 74.0396 32.8074V32.1331C74.0357 31.9497 74.0307 31.7662 74.0229 31.5818L74.0238 31.5808Z" fill="#B20F26"/>
<path fill-rule="evenodd" clip-rule="evenodd" d="M74.0411 6.4868V32.132C74.0372 31.9485 74.0322 31.7651 74.0244 31.5807C74.0204 31.4685 74.0155 31.3572 74.0096 31.245C74.0056 31.1552 74.0007 31.0655 73.9958 30.9757C73.9948 30.9552 73.9938 30.9347 73.9918 30.9142C73.9918 30.9025 73.9908 30.8908 73.9899 30.8801C73.9859 30.8108 73.981 30.7425 73.976 30.6732C73.9751 30.6517 73.9741 30.6293 73.9721 30.6069C73.9721 30.601 73.9721 30.5942 73.9711 30.5883C73.9642 30.4868 73.9563 30.3844 73.9485 30.2829C73.9445 30.2312 73.9406 30.1785 73.9356 30.1258C73.9307 30.0614 73.9248 29.997 73.9189 29.9336C73.909 29.8243 73.8992 29.714 73.8873 29.6038C73.8656 29.3842 73.841 29.1647 73.8144 28.9451C73.8006 28.8358 73.7868 28.7256 73.773 28.6153C73.7444 28.3958 73.7128 28.1762 73.6783 27.9567C73.6616 27.8503 73.6448 27.7449 73.6271 27.6395C73.6212 27.6005 73.6143 27.5605 73.6074 27.5205C73.5936 27.4346 73.5788 27.3497 73.563 27.2639C73.5581 27.2365 73.5531 27.2092 73.5482 27.1819C73.5305 27.0834 73.5127 26.9848 73.494 26.8853C73.4723 26.7682 73.4496 26.6511 73.426 26.535C73.4112 26.4608 73.3964 26.3876 73.3816 26.3135C73.3796 26.3047 73.3777 26.2949 73.3757 26.2852C73.356 26.1895 73.3343 26.0939 73.3136 25.9983C73.2939 25.9036 73.2732 25.809 73.2515 25.7153C73.2515 25.7134 73.2505 25.7114 73.2505 25.7085C73.2347 25.6402 73.219 25.5709 73.2032 25.5026C73.1874 25.4382 73.1726 25.3728 73.1569 25.3074C73.1253 25.1777 73.0938 25.0479 73.0612 24.9181C73.0435 24.8488 73.0257 24.7796 73.008 24.7113C73.0041 24.6956 73.0001 24.6791 72.9952 24.6634C72.9814 24.6098 72.9666 24.5571 72.9528 24.5044C72.9489 24.4907 72.9459 24.478 72.942 24.4654C72.938 24.4517 72.9351 24.439 72.9311 24.4254C72.9193 24.3785 72.9065 24.3317 72.8927 24.2858C72.8927 24.2839 72.8927 24.2809 72.8907 24.279C72.8887 24.2722 72.8867 24.2644 72.8848 24.2575C72.8838 24.2526 72.8828 24.2487 72.8808 24.2439C72.8808 24.239 72.8789 24.2341 72.8769 24.2292C72.8759 24.2243 72.8749 24.2204 72.8729 24.2156C72.8729 24.2136 72.872 24.2117 72.871 24.2097C72.868 24.199 72.8651 24.1902 72.8621 24.1795C72.8503 24.1375 72.8384 24.0955 72.8266 24.0536C72.8246 24.0468 72.8227 24.0399 72.8207 24.0321C72.8177 24.0194 72.8138 24.0058 72.8099 23.9931C72.7892 23.9209 72.7685 23.8487 72.7478 23.7774C72.7231 23.6926 72.6975 23.6077 72.6718 23.5228C72.6541 23.4632 72.6354 23.4037 72.6166 23.3452C72.6097 23.3198 72.6009 23.2944 72.593 23.2691V23.2681C72.5821 23.2339 72.5713 23.2008 72.5614 23.1666C72.5575 23.1559 72.5545 23.1451 72.5506 23.1344C72.5398 23.1003 72.5289 23.0661 72.5191 23.0329C72.5092 23.0027 72.4993 22.9724 72.4895 22.9432C72.4737 22.8953 72.4589 22.8475 72.4431 22.7997C72.4412 22.7929 72.4382 22.7861 72.4362 22.7792C72.4126 22.708 72.3889 22.6368 72.3643 22.5665C72.3603 22.5548 72.3564 22.5431 72.3525 22.5304C72.3288 22.4611 72.3051 22.3909 72.2805 22.3216C71.5342 20.1632 70.5632 18.1072 69.3941 16.184C69.3478 16.1069 69.3004 16.0298 69.2531 15.9537C69.2334 15.9215 69.2137 15.8893 69.194 15.8581C69.1881 15.8483 69.1821 15.8396 69.1772 15.8298C69.1516 15.7888 69.126 15.7478 69.1003 15.7078C69.0964 15.702 69.0934 15.6961 69.0895 15.6903C69.0865 15.6854 69.0836 15.6805 69.0806 15.6756C69.0481 15.6239 69.0155 15.5732 68.983 15.5224C68.9357 15.4483 68.8884 15.3751 68.8401 15.3019C68.8223 15.2736 68.8036 15.2453 68.7859 15.218C68.7573 15.1751 68.7297 15.1311 68.7011 15.0882C68.6409 14.9965 68.5798 14.9057 68.5187 14.814C68.4852 14.7623 68.4497 14.7116 68.4142 14.6598C68.356 14.574 68.2969 14.4901 68.2378 14.4052C65.5643 10.5694 62.1574 7.45476 58.3098 5.14999C58.1344 5.04461 57.9579 4.9402 57.7795 4.8397C57.7469 4.82018 57.7144 4.80067 57.6819 4.78311C58.6568 5.33344 59.8378 5.42516 60.8552 4.95679L66.8567 2.19536C70.097 0.50045 74.0401 2.82083 74.0401 6.48875L74.0411 6.4868Z" fill="#B20F26"/>
<path fill-rule="evenodd" clip-rule="evenodd" d="M25.0545 60.8322C24.0796 60.2819 22.8986 60.1902 21.8813 60.6586L15.8798 63.42C12.6395 65.1149 8.69629 62.7945 8.69629 59.1266V33.4473C8.70319 33.8171 8.716 34.1859 8.73769 34.5557C8.74262 34.6426 8.74755 34.7304 8.75347 34.8182C8.79487 35.4739 8.85599 36.1306 8.93781 36.7864C8.96442 37.0049 8.99498 37.2225 9.02653 37.4421C9.04526 37.5738 9.06596 37.7045 9.08666 37.8353C9.10736 37.9661 9.12905 38.0968 9.15172 38.2276C9.1813 38.4022 9.21284 38.5769 9.24636 38.7506C9.29368 39.0033 9.34494 39.257 9.39916 39.5097C9.4169 39.5897 9.43366 39.6688 9.45141 39.7488C9.46816 39.8278 9.48591 39.9059 9.50464 39.9849C9.50464 39.9849 9.50464 39.9852 9.50464 39.9859C9.51055 40.0103 9.51548 40.0347 9.5214 40.0591C9.53323 40.1127 9.54604 40.1674 9.55886 40.2211V40.222C9.58745 40.3421 9.61603 40.4631 9.64659 40.5831C9.65547 40.6202 9.66532 40.6582 9.6742 40.6953C9.67715 40.707 9.68011 40.7187 9.68307 40.7314C10.6146 44.3895 12.1742 47.7999 14.2453 50.8443C14.2887 50.9087 14.3331 50.974 14.3784 51.0384C14.4218 51.1028 14.4661 51.1672 14.5115 51.2307C17.1051 54.9454 20.3858 57.983 24.0904 60.2614C24.1732 60.3131 24.256 60.3639 24.3398 60.4136C24.4148 60.4595 24.4907 60.5044 24.5666 60.5493C24.6799 60.6176 24.7943 60.6839 24.9096 60.7493C24.9569 60.7776 25.0052 60.8059 25.0535 60.8332L25.0545 60.8322Z" fill="#B20F26"/>
<path d="M116.698 54.9336C113.553 54.9336 110.621 54.4453 107.905 53.4688C105.189 52.4923 102.811 51.0878 100.771 49.25C98.7315 47.4139 97.1395 45.1962 95.9968 42.5968C94.8541 39.9992 94.2827 37.0749 94.2827 33.8273C94.2827 30.5798 94.8354 27.6813 95.9408 25.0716C97.0463 22.4619 98.5857 20.2305 100.559 18.3738C102.533 16.5171 104.843 15.0936 107.493 14.0965C110.142 13.1045 113.019 12.606 116.127 12.606C117.556 12.606 119.024 12.7211 120.53 12.9532C122.035 13.1853 123.541 13.5721 125.048 14.1137C126.553 14.6552 127.993 15.3996 129.364 16.3469L126.162 22.2316C124.732 21.3032 123.203 20.6121 121.572 20.1583C119.943 19.7044 118.241 19.4775 116.469 19.4775C114.24 19.4775 112.227 19.811 110.437 20.478C108.645 21.1451 107.12 22.1009 105.862 23.349C104.604 24.5954 103.641 26.1031 102.975 27.8722C102.307 29.6412 101.975 31.6268 101.975 33.8308C101.975 36.9425 102.628 39.5814 103.933 41.7458C105.239 43.9103 107.031 45.5486 109.308 46.6592C111.584 47.7715 114.182 48.3268 117.098 48.3268C118.47 48.3268 119.719 48.1961 120.843 47.9348C121.967 47.6735 122.891 47.3795 123.617 47.0512V38.1218H114.84V31.9758H130.251V51.5159C129.146 52.231 127.796 52.8448 126.206 53.3571C124.614 53.8694 122.971 54.2596 121.274 54.5313C119.577 54.8012 118.053 54.937 116.7 54.937L116.698 54.9336Z" fill="#2E2526"/>
<path d="M148.178 54.9336C145.128 54.9336 142.426 54.2321 140.073 52.831C137.718 51.4299 135.87 49.5646 134.525 47.2351C133.181 44.9057 132.509 42.3493 132.509 39.5659C132.509 37.5167 132.896 35.5654 133.667 33.7087C134.439 31.852 135.526 30.2154 136.928 28.7953C138.33 27.3753 139.983 26.2544 141.888 25.4327C143.794 24.6109 145.891 24.2 148.178 24.2C151.21 24.2 153.901 24.8963 156.255 26.2871C158.609 27.6779 160.458 29.5397 161.803 31.8675C163.147 34.197 163.819 36.762 163.819 39.5642C163.819 41.6135 163.432 43.5613 162.661 45.4059C161.889 47.2523 160.806 48.8907 159.416 50.3193C158.024 51.7497 156.376 52.8757 154.47 53.6975C152.565 54.5192 150.467 54.9301 148.18 54.9301L148.178 54.9336ZM148.15 48.4385C149.769 48.4385 151.208 48.0758 152.466 47.352C153.724 46.6265 154.714 45.6036 155.44 44.2782C156.164 42.9544 156.527 41.3848 156.527 39.5676C156.527 37.7505 156.169 36.1757 155.455 34.8417C154.74 33.5076 153.75 32.4847 152.481 31.7678C151.213 31.0526 149.77 30.695 148.15 30.695C146.529 30.695 145.115 31.0526 143.847 31.7678C142.579 32.483 141.588 33.5076 140.873 34.8417C140.157 36.1757 139.801 37.7505 139.801 39.5676C139.801 41.3848 140.163 42.9561 140.888 44.2782C141.612 45.6019 142.604 46.6265 143.862 47.352C145.12 48.0775 146.549 48.4385 148.151 48.4385H148.15Z" fill="#2E2526"/>
<path d="M166.647 54.0654V13.4759H179.598C183.62 13.4759 187.175 14.3354 190.262 16.0563C193.35 17.7772 195.761 20.1634 197.497 23.2167C199.231 26.2699 200.099 29.7976 200.099 33.7981C200.099 36.7757 199.602 39.5058 198.612 41.9882C197.62 44.4724 196.215 46.6128 194.396 48.4093C192.575 50.2076 190.411 51.5984 187.906 52.5835C185.398 53.5685 182.631 54.0619 179.6 54.0619H166.648L166.647 54.0654ZM178.913 47.0495C180.914 47.0495 182.735 46.7503 184.374 46.1503C186.014 45.5521 187.424 44.6822 188.606 43.5406C189.788 42.4008 190.698 41.0083 191.335 39.3665C191.975 37.7247 192.293 35.868 192.293 33.7998C192.293 31.0165 191.736 28.6303 190.62 26.6395C189.504 24.6487 187.946 23.1273 185.946 22.0734C183.945 21.0196 181.6 20.4935 178.911 20.4935H174.108V47.0495H178.913Z" fill="#2E2526"/>
<path d="M210.821 54.9336C208.858 54.9336 207.123 54.5571 205.618 53.8023C204.112 53.0494 202.934 51.98 202.086 50.5995C201.238 49.2173 200.815 47.579 200.815 45.6862C200.815 44.0633 201.215 42.6123 202.015 41.3367C202.815 40.061 204.044 39.002 205.702 38.1614C207.361 37.3207 209.476 36.7551 212.05 36.4646C214.624 36.174 217.692 36.2136 221.256 36.5797L221.37 41.4794C219.044 41.1321 217.014 40.9774 215.28 41.0152C213.545 41.0547 212.111 41.2524 210.977 41.61C209.843 41.9676 208.995 42.4644 208.432 43.1023C207.869 43.7401 207.588 44.4845 207.588 45.3355C207.588 46.6111 208.046 47.5927 208.959 48.2787C209.875 48.9646 211.123 49.3084 212.705 49.3084C214.058 49.3084 215.268 49.0574 216.336 48.5555C217.403 48.0535 218.257 47.3434 218.895 46.4254C219.534 45.5074 219.852 44.4209 219.852 43.1641V35.8285C219.852 34.6302 219.6 33.5815 219.095 32.6824C218.589 31.7833 217.818 31.0836 216.779 30.5798C215.739 30.0778 214.42 29.8268 212.818 29.8268C211.331 29.8268 209.855 30.0538 208.386 30.5076C206.918 30.9615 205.555 31.6629 204.297 32.6102L202.296 27.3048C204.107 26.0877 206.018 25.2178 208.029 24.6951C210.039 24.1725 211.979 23.9129 213.847 23.9129C216.516 23.9129 218.827 24.3376 220.782 25.1885C222.735 26.0395 224.242 27.3392 225.3 29.0876C226.358 30.8377 226.887 33.0554 226.887 35.7408V54.0637H220.426V50.7594C219.473 52.1124 218.157 53.1473 216.48 53.8608C214.803 54.576 212.916 54.9336 210.819 54.9336H210.821Z" fill="#2E2526"/>
<path d="M227.575 31.1025V25.0716H234.436V31.1025H227.575ZM243.187 54.9336C240.252 54.9336 237.921 54.0826 236.196 52.3823C234.47 50.6821 233.609 48.1102 233.609 44.6701V16.6649H240.957V25.0734H248.476V31.1042H240.957V43.1934C240.957 45.0483 241.318 46.3584 242.044 47.1217C242.768 47.885 243.768 48.2666 245.046 48.2666C245.694 48.2666 246.31 48.1893 246.891 48.0345C247.473 47.8798 248.01 47.677 248.507 47.426L249.651 53.3399C248.812 53.7852 247.83 54.1616 246.706 54.4711C245.58 54.7805 244.409 54.9353 243.19 54.9353L243.187 54.9336Z" fill="#2E2526"/>
<path d="M265.115 54.9336C262.007 54.9336 259.283 54.2906 256.938 53.0064C254.593 51.7204 252.764 49.9291 251.448 47.6288C250.133 45.3286 249.475 42.6518 249.475 39.5986C249.475 37.3568 249.856 35.299 250.619 33.4233C251.382 31.5495 252.449 29.9197 253.822 28.5375C255.194 27.1553 256.814 26.0877 258.683 25.3347C260.551 24.5817 262.591 24.2035 264.801 24.2035C267.204 24.2035 269.347 24.6332 271.234 25.4928C273.121 26.3524 274.689 27.561 275.937 29.1168C277.185 30.6727 278.061 32.495 278.568 34.5821C279.074 36.6691 279.135 38.9316 278.755 41.3659H256.396C256.377 42.8925 256.733 44.2266 257.467 45.3664C258.201 46.5062 259.249 47.4002 260.612 48.0483C261.975 48.6964 263.581 49.0196 265.43 49.0196C267.07 49.0196 268.642 48.7789 270.149 48.2941C271.654 47.8111 273.055 47.0959 274.352 46.1486L276.925 51.3388C276.029 52.0729 274.915 52.7107 273.58 53.2522C272.246 53.7938 270.841 54.2081 269.364 54.4986C267.887 54.7892 266.471 54.9336 265.119 54.9336H265.115ZM256.823 36.0881H271.634C271.576 34.1368 270.937 32.605 269.718 31.4927C268.498 30.3821 266.802 29.8251 264.629 29.8251C262.455 29.8251 260.663 30.3804 259.254 31.4927C257.843 32.605 257.033 34.1368 256.825 36.0881H256.823Z" fill="#2E2526"/>
</svg>
