<svg width="148" height="125" viewBox="0 0 148 125" fill="none" xmlns="http://www.w3.org/2000/svg">
<path d="M141.208 62.7951C141.208 62.7951 142.009 53.2178 142.961 41.585C144.12 27.4046 145.503 10.1698 145.926 3.50604C134.155 3.22797 111.074 1.37915 111.074 1.37915C111.074 1.37915 87.3286 3.39724 74.3248 4.1311C52.7135 3.21885 37.1221 1.96907 37.1221 1.96907C37.1574 1.75587 16.4069 2.65326 1.54053 3.53003C2.36808 11.7061 3.65643 27.5239 4.69724 40.7542C5.64669 52.8232 6.39037 62.7393 6.39037 62.7393L4.68705 88.0654L2.45636 121.23C16.3407 121.621 36.9211 123.578 36.9211 123.578C51.3837 121.841 66.7689 120.983 74.0002 120.836C83.5939 121.643 110.973 123.61 110.973 123.61C110.973 123.61 132.331 121.425 146.505 121.034C145.433 104.623 144.012 89.2716 142.912 78.454C141.933 68.8301 141.208 62.7951 141.208 62.7951Z" fill="white"/>
<path d="M141.208 62.7951C141.208 62.7951 142.009 53.2178 142.961 41.585C144.12 27.4046 145.503 10.1698 145.926 3.50604C134.155 3.22797 111.074 1.37915 111.074 1.37915C111.074 1.37915 87.3286 3.39724 74.3248 4.1311C52.7135 3.21885 37.1221 1.96907 37.1221 1.96907C37.1574 1.75587 16.4069 2.65326 1.54053 3.53003C2.36808 11.7061 3.65643 27.5239 4.69724 40.7542C5.64669 52.8232 6.39037 62.7393 6.39037 62.7393L4.68705 88.0654L2.45636 121.23C16.3407 121.621 36.9211 123.578 36.9211 123.578C51.3837 121.841 66.7689 120.983 74.0002 120.836C83.5939 121.643 110.973 123.61 110.973 123.61C110.973 123.61 132.331 121.425 146.505 121.034C145.433 104.623 144.012 89.2716 142.912 78.454C141.933 68.8301 141.208 62.7951 141.208 62.7951Z" stroke="#B95E05" stroke-width="2.70571" stroke-miterlimit="10"/>
<g opacity="0.1">
<path d="M0 2.2241C1.72369 19.4342 4.99077 62.7393 4.99077 62.7393L38.7933 62.8413L37.0048 0.559082C37.0048 0.559082 18.9369 1.00203 0 2.2241Z" fill="black"/>
</g>
<g opacity="0.1">
<path d="M73.937 122.216L74.1146 62.501L38.7935 62.8416L36.937 124.977C50.7344 123.366 67.0382 122.352 73.937 122.216Z" fill="black"/>
</g>
<g opacity="0.2">
<path d="M37.0049 0.559082L38.7931 62.8413L74.1142 62.5007L74.3244 2.74949C53.7073 1.90279 37.0049 0.559082 37.0049 0.559082Z" fill="black"/>
</g>
<g opacity="0.1">
<path d="M74.3245 2.74949C86.7302 2.06868 111.074 0.000244141 111.074 0.000244141L109.666 62.5008H74.1143L74.3245 2.74949Z" fill="black"/>
</g>
<g opacity="0.2">
<path d="M142.607 62.7951L109.666 62.5008L111.073 0C111.073 0 135.494 1.94579 147.413 2.14784C146.677 13.4053 142.607 62.7951 142.607 62.7951Z" fill="black"/>
</g>
<g opacity="0.1">
<path d="M110.973 125C110.973 125 133.175 122.705 148 122.382C145.974 91.248 142.608 62.7949 142.608 62.7949L109.666 62.501L110.973 125Z" fill="black"/>
</g>
<path d="M111.104 6.02759L74.1692 8.55621L37.0646 6.53338L6.90674 8.05041L6.98959 9.05118L11.4391 62.7529C11.4391 62.7529 7.75398 110.671 7.79643 116.318C14.7007 116.191 36.8106 118.467 37.107 118.425C45.3666 117.076 74.0422 115.896 74.0422 115.896C74.0422 115.896 103.056 117.961 111.019 118.383C122.413 116.697 141.389 116.191 141.389 116.191L139.032 90.3656L136.518 62.8373C136.518 62.8373 140.711 9.77828 140.923 7.88182C132.918 8.30314 111.104 6.02759 111.104 6.02759Z" fill="#35BCF4"/>
<path d="M6.94873 7.96722C8.78041 21.9939 11.4634 62.7393 11.4634 62.7393H39.6697L37.256 6.43262C37.256 6.43262 20.6605 7.60029 6.94873 7.96722Z" fill="#39BFFC"/>
<path d="M11.4632 62.7393L7.79785 116.288C20.6716 116.644 37.1214 118.423 37.1214 118.423L39.6692 62.7393H11.4632Z" fill="#60E1FF"/>
<path d="M73.9997 115.91V62.4058L39.6694 62.7392L37.1216 118.423C50.5318 116.844 67.2947 116.044 73.9997 115.91Z" fill="#38C1F8"/>
<path d="M37.2563 6.43262L39.6701 62.7393L74.0003 62.4058L74.3246 8.52302C54.2861 7.69355 37.2563 6.43262 37.2563 6.43262Z" fill="#2386B0"/>
<path d="M74 115.91C82.8956 116.644 110.968 118.423 110.968 118.423L108.554 62.4058H74V115.91Z" fill="#60E1FF"/>
<path d="M74.3246 8.52307C86.3823 7.85578 110.968 5.98804 110.968 5.98804L108.554 62.4055H74L74.3246 8.52307Z" fill="#47C6FB"/>
<path d="M136.537 62.7394L108.554 62.4059L110.968 5.98804C110.968 5.98804 129.921 8.2119 140.828 7.94498C140.113 18.9751 136.537 62.7394 136.537 62.7394Z" fill="#2E8AB1"/>
<path d="M110.968 118.423C110.968 118.423 128.222 116.466 141.364 116.111C139.487 87.9129 136.537 62.7392 136.537 62.7392L108.554 62.4058L110.968 118.423Z" fill="#35BCF4"/>
<path d="M7.84863 116.288L7.89855 115.559C7.89855 115.559 12.1056 115.81 15.427 115.493C19.016 113.542 30.5242 110.917 33.0174 113.442C36.5422 117.023 31.8309 108.085 37.4679 110.866L37.1229 118.423C21.1363 116.875 9.58829 116.42 7.84863 116.288Z" fill="#F6FAFB"/>
<path d="M74.0026 106.676C68.0352 107.543 64.8839 115.749 59.1845 115.349C49.4006 114.849 49.5537 109.472 52.1882 103.607C53.4402 102.54 50.4006 102.895 49.5065 104.052C48.6124 105.208 48.7021 107.165 46.8694 107.298C45.0367 107.432 47.0035 109.967 45.4835 110.678C43.9636 111.39 40.2744 112.42 37.4702 110.905C37.3789 112.902 37.1245 118.462 37.1245 118.462C48.9466 117.174 61.261 116.357 74.0026 115.949V106.676Z" fill="#D9DDDC"/>
<path d="M110.437 106.025C110.437 106.025 104.782 104.753 102.636 108.622C100.29 106.42 96.1324 106.687 94.9256 105.353C93.7187 104.019 93.5846 104.286 92.1095 105.353C87.6366 109.34 88.1595 106.023 84.0632 107.287C82.9236 108.066 78.4978 106.465 74.0056 106.687L74.0005 115.96C83.4947 116.777 96.7382 117.622 110.973 118.473L110.437 106.025Z" fill="#FCFCFC"/>
<path d="M141.297 115.107C138.47 113.573 135.151 114.442 134.514 113.742C133.877 113.042 135.252 110.173 136.794 109.072C138.336 107.971 131.966 105.837 128.949 106.003C125.084 102.837 120.077 106.771 115.572 104.969C114.566 104.602 110.823 104.679 110.432 105.975L110.973 118.474C110.973 118.474 132.849 116.289 141.364 116.111L141.297 115.107Z" fill="#D9DDDC"/>
<path d="M44.6562 53.7229C45.4607 53.0556 43.9523 51.1213 45.6621 49.5201C47.3718 47.919 47.1708 44.3831 49.3835 44.2497C51.5962 44.1162 50.624 41.5143 49.9533 40.9139C49.2826 40.3135 50.3893 39.1458 52.2332 40.6135C54.0771 42.0812 54.0771 39.7131 51.965 37.4781C50.968 36.4229 49.0392 35.8932 48.181 34.8039C46.4037 32.5479 45.1411 32.2857 45.6284 36.1104C46.0465 39.3891 43.9526 40.3135 43.6507 38.212C43.3489 36.1104 38.2257 34.5913 39.1245 32.8081C39.585 31.8948 42.3454 30.6694 41.7284 29.5949C40.6557 27.7268 38.2545 23.7782 38.0942 26.9666L39.1727 52.1197C39.1727 52.1197 41.907 51.4544 43.047 51.7548C44.1869 52.0552 43.6168 54.1233 44.6562 53.7229Z" fill="#104A00"/>
<path d="M39.3942 57.2922C37.4481 56.0749 38.1239 52.3373 39.1725 52.1201L38.0943 26.967C37.6067 27.4097 36.409 28.3942 34.487 28.3942C32.565 28.3942 32.4305 31.0627 31.5813 29.3727C30.732 27.6826 26.709 26.3484 23.267 28.0384C21.7702 28.7733 17.2698 26.5819 15.6232 27.5712C12.0695 29.7062 17.031 32.1077 13.7456 33.8201C13.1198 35.1543 15.8911 35.1097 16.5617 36.2662C17.2324 37.4228 18.2603 38.0455 19.0203 36.222C22.4792 30.8539 26.1915 41.0005 28.5417 42.0414C28.7207 46.8071 28.4076 47.6075 31.9388 50.9433C36.4498 54.795 35.7876 58.6782 39.4941 59.6161L39.3942 57.2922Z" fill="#608706"/>
<path d="M39.4944 59.6163C44.7419 59.7052 46.4221 62.7295 46.4221 62.7295C46.4221 62.7295 52.216 62.5994 53.0381 62.5994C51.982 60.6344 49.719 61.9125 47.4225 61.7456C45.1259 61.5787 43.5 57.6763 42.7122 57.5594C41.9244 57.4425 40.3484 57.7929 39.3945 57.2925L39.4944 59.6163Z" fill="#104A00"/>
<path d="M47.2046 18.6984C48.5948 21.4033 52.6283 19.4505 55.0492 26.2599C55.0492 26.2599 54.9826 32.6085 56.1226 33.1977C57.2625 33.7869 58.4694 33.7535 58.5363 31.4185C58.6032 29.0835 64.705 28.5442 65.4426 27.2573C66.1802 25.9703 64.2357 20.1661 66.046 18.6984C67.8563 17.2307 68.7953 16.4302 68.527 15.9633C68.2587 15.4964 63.9002 17.1641 63.6992 15.9633C63.4982 14.7625 61.3558 12.5103 59.5085 13.6283C55.4855 16.0633 54.6508 13.4441 52.6358 14.996C48.7802 17.9648 47.2382 17.5976 47.2046 18.6984Z" fill="#A1A8B0"/>
<path d="M41.2374 19.9878C42.4778 21.1727 48.2106 15.1401 49.9092 14.3397C51.6077 13.5393 39.985 12.3037 40.1198 15.0512C40.1663 16.001 43.3383 14.9174 44.2769 15.9405C45.2155 16.9636 40.1198 18.9205 41.2374 19.9878Z" fill="#A1A8B0"/>
<path d="M50.6237 29.6395C47.1325 25.4813 42.4436 21.9006 40.8343 23.8352C39.2251 25.7699 41.7057 26.1703 42.3764 28.0383C43.047 29.9064 44.5221 27.7555 43.9856 26.4625C42.8293 24.2441 53.1888 33.4747 50.6237 29.6395Z" fill="#A1A8B0"/>
<path d="M47.2037 30.0842C45.7119 30.164 48.2547 32.7085 49.2157 32.4862C50.1767 32.2638 49.2819 29.9731 47.2037 30.0842Z" fill="#A1A8B0"/>
<path d="M27.4467 23.5238C26.958 24.9132 27.938 26.8596 28.8321 25.8589C29.7262 24.8581 30.3297 24.6581 30.7545 25.8589C31.1793 27.0597 31.8941 28.5054 33.5482 27.7492C35.2023 26.9931 36.0291 27.1489 35.4033 26.2815C34.7775 25.4142 34.6881 23.3015 33.7716 23.5238C32.8551 23.7462 31.1569 24.9693 30.3969 24.1242C29.6369 23.2792 27.7594 22.6342 27.4467 23.5238Z" fill="#F6FAFB"/>
<path d="M28.2065 20.3883C27.4092 21.3259 29.3909 20.7887 29.972 21.5002C30.553 22.2118 33.146 22.9233 33.9729 22.1229C34.7997 21.3225 31.0899 21.2779 30.665 20.8333C30.2402 20.3886 28.9441 19.521 28.2065 20.3883Z" fill="#F6FAFB"/>
<path d="M31.2241 19.2104C31.8601 19.7536 32.2523 19.1438 31.8499 18.743C31.4475 18.3422 30.7548 18.8096 31.2241 19.2104Z" fill="#F6FAFB"/>
<path d="M35.7387 17.7423C34.8412 16.875 32.7215 18.0092 34.5542 18.7877C36.3869 19.5661 37.2362 19.1654 37.2138 18.4316C37.1914 17.6977 36.5211 18.4985 35.7387 17.7423Z" fill="#F6FAFB"/>
<path d="M37.9681 15.5961C36.3725 17.7757 42.6132 18.5045 40.3014 16.7496C39.4266 16.3465 38.8232 14.9122 37.9681 15.5961Z" fill="#A1A8B0"/>
<path d="M39.173 57.2922C37.7617 56.5583 37.2139 52.9894 39.173 52.1201L38.8449 43.2915C38.8449 43.2915 33.177 37.0122 32.013 38.536C30.8163 40.1027 34.4678 46.6942 33.7387 47.0186C33.0096 47.3429 33.0697 44.3643 31.9281 43.8497C30.7864 43.3351 30.8003 40.9514 30.1514 41.2282C28.9446 41.7424 28.6501 44.767 29.7154 47.619C30.6343 50.079 33.2806 51.0602 36.1293 56.4306C37.309 57.5429 35.2023 54.0703 35.7164 53.7743C36.2305 53.4783 37.2139 57.2976 39.173 57.2922Z" fill="#E4B603"/>
<path d="M38.8442 43.2915C39.9176 44.7612 40.3588 46.0793 41.7507 47.3186C42.1755 47.6967 40.7635 51.4754 40.2049 51.0223C39.9706 50.8324 40.5153 49.7016 40.4766 48.664C40.4593 48.2001 39.5716 48.0859 39.0999 50.1655L38.8442 43.2915Z" fill="#E69D00"/>
<path d="M15.6238 27.5714C14.4553 28.7026 16.4731 29.0969 16.7414 30.102C17.0096 31.1072 18.4848 30.9737 19.5575 31.1072C20.6302 31.2406 20.2563 28.808 23.2677 28.0383C19.568 27.7241 16.92 26.101 15.6238 27.5714Z" fill="#D3DAEC"/>
<path d="M19.02 36.222C19.2642 34.0427 20.4951 32.4996 21.5234 32.1121C24.1161 28.8388 28.1051 33.9542 27.3159 35.3323C26.9654 35.9439 25.2207 31.629 22.4399 32.1121C21.7692 34.1887 25.3233 36.7109 25.6472 38.7702C22.1421 34.8428 20.361 33.9981 19.02 36.222Z" fill="#D3DAEC"/>
<path d="M46.4649 62.7394C47.0384 66.3708 41.8001 69.8005 49.0124 75.9933C48.8786 81.2415 46.0625 92.9831 46.5094 93.8727C48.3842 96.8646 49.8963 97.3359 49.0124 93.1608C48.9231 92.0046 52.2424 83.2764 56.042 81.8865C56.0532 80.4965 56.4777 78.8841 58.8469 77.8168C59.562 73.8583 61.1265 71.1898 62.5123 70.2114C59.9196 67.7206 57.1483 67.3205 56.6566 66.7425C51.6428 60.8568 54.1271 62.9559 46.4649 62.7394Z" fill="#036609"/>
<path d="M52.142 93.9392C51.8951 94.8721 52.8571 95.1846 53.2595 94.5842C53.6619 93.9838 52.3654 93.0942 52.142 93.9392Z" fill="#D79501"/>
<path d="M47.0922 67.7686C44.5909 64.1615 49.9348 63.3797 52.0711 63.4003C52.9408 63.3783 55.2288 65.3461 55.1803 66.3803C55.0349 67.4145 52.4576 66.0803 51.0402 66.0803C49.6228 66.0803 48.097 68.8028 47.0922 67.7686Z" fill="#025207"/>
<path d="M62.5125 70.2114C61.2754 69.0231 60.0003 68.3132 58.949 67.8301C58.8722 68.9849 57.8861 68.8771 57.2826 69.6776C56.6792 70.4783 58.2212 73.2803 56.612 73.3019C54.4061 73.5337 51.7295 82.5098 50.1413 75.5815C48.7671 74.4141 46.0596 72.6701 45.1872 69.143C45.1302 71.054 45.6301 73.6996 48.7671 76.1488C48.4451 80.4039 48.9467 87.4711 46.8332 90.5812C46.5371 92.3483 46.3747 93.6041 46.5096 93.8724C46.9564 94.762 48.4764 96.5412 49.0129 96.2297C49.5495 95.9182 49.1022 94.3174 49.0129 93.1609C48.9708 92.6165 51.121 89.9737 52.2538 87.1231C53.3867 84.2725 56.433 81.9084 56.433 81.9084C56.433 81.9084 56.4778 78.8838 58.8471 77.8165C59.5622 73.858 61.1267 71.1899 62.5125 70.2114Z" fill="#E69D00"/>
<path d="M51.6503 78.3948C52.1019 78.0836 52.3854 78.3056 53.3366 77.2383C54.521 79.0189 52.142 81.8884 56.4332 81.9083C53.2242 84.2977 51.5334 89.0664 50.1592 91.0605C50.1592 91.0605 48.7 84.1494 51.6503 78.3948Z" fill="#84A300"/>
<path d="M74.0766 49.7083C72.0779 50.1975 71.4524 49.886 70.7817 52.5102C68.5466 54.156 65.954 56.7799 69.53 62.3838C70.468 62.4402 74.0002 62.4061 74.0002 62.4061L74.0766 49.7083Z" fill="#AFA174"/>
<path d="M74.0007 64.2183C72.2128 65.1079 70.4902 64.1051 69.5679 62.4489C70.1061 62.4509 74.0048 62.3901 74.0007 62.4056V64.2183Z" fill="#106A04"/>
<path d="M79.0517 72.7023C78.397 74.1825 79.2307 77.0609 79.6331 79.2401C80.0355 81.4194 79.4989 83.1986 80.6165 83.9102C85.2001 86.16 85.6932 77.6623 87.1873 75.8601C87.6342 75.5489 88.7517 72.9247 88.1259 69.2331C89.8245 66.2088 91.7023 65.0969 91.7916 62.3838C90.8082 62.3838 74.0005 62.4061 74.0005 62.4061V64.2184C75.6991 63.4511 77.3175 63.6586 77.1745 65.3638C76.9063 68.5661 79.0069 68.6043 79.0517 72.7023Z" fill="#FAB649"/>
<path d="M91.5338 73.6138C90.4919 74.8602 90.1928 74.8146 89.8576 75.8154C89.5224 76.8161 89.5221 79.9516 90.5616 79.985C91.601 80.0185 91.4332 77.35 92.0367 75.7822C92.6401 74.2145 92.1888 72.8303 91.5338 73.6138Z" fill="#FAB649"/>
<path d="M86.0864 53.1493C85.0992 52.9875 88.5768 62.4769 90.4279 61.4048C91.8028 61.3048 91.7916 62.3836 91.7916 62.3836L74.0005 62.4056L74.0772 49.7078C78.5984 47.9468 78.0662 53.0997 81.2756 51.7316C82.0804 51.4978 85.2952 53.0716 86.2005 52.1844C86.7197 51.7982 87.081 53.1439 86.0864 53.1493Z" fill="#EBE390"/>
<path d="M83.5216 47.2284C83.3205 46.2276 80.0348 46.0942 79.1967 45.0268C78.3586 43.9595 78.9532 46.628 80.7513 47.4953C80.4708 48.6961 78.9712 49.6972 78.9621 48.1626C78.9529 46.6283 76.8835 44.3305 75.9113 44.7788C74.9391 45.2272 74.0908 47.395 74.0908 47.395L74.1261 41.5241C74.1261 41.5241 76.5147 38.8891 77.0176 38.1552C77.5206 37.4214 77.6543 39.356 79.5319 39.2895C81.4094 39.2229 80.4372 37.2548 82.0128 36.521C83.5885 35.7871 84.7288 35.1198 83.1864 35.0533C79.664 34.9968 83.7786 32.2033 83.0186 31.0171C82.4821 30.4167 80.4036 32.9852 80.2694 33.7856C80.1353 34.586 80.1689 36.5875 79.8001 37.1214C79.4314 37.6552 78.0231 36.8544 77.9562 35.9871C77.8893 35.1198 76.0118 36.2206 75.7435 34.9198C75.4753 33.619 78.8615 32.1219 79.1298 30.3187C79.3981 28.5155 82.3483 26.2805 84.1586 27.1478C85.9689 28.0151 88.1819 28.2482 88.2488 28.9155C88.3157 29.5828 86.4382 29.8828 86.4718 30.7836C86.5054 31.6844 87.2094 32.3179 88.0811 32.0844C91.9309 27.882 92.6725 28.456 97.9713 28.2489C98.9767 28.0151 99.3119 26.1801 99.5802 25.8466C99.8484 25.5132 100.854 25.5801 100.586 27.6147C100.318 29.6494 101.76 28.682 101.76 26.8809C101.76 25.0797 103.436 24.8793 104.241 24.4789C105.274 23.8221 108.726 19.9957 110.343 20.5806L108.691 59.2005C105.072 55.5076 107.06 53.9909 104.531 58.8163C103.492 59.9171 101.949 61.5578 102.128 62.4058H100.756C100.756 62.4058 101.122 58.4369 100.329 57.6246C94.1602 47.8048 88.4271 46.0796 83.5216 47.2284Z" fill="#6D8F00"/>
<path d="M111.818 56.2459C113.78 55.504 116.824 55.7124 117.495 53.2216C118.165 50.7309 115.349 46.995 116.422 46.2835C118.757 44.4907 119.504 49.5335 120.311 46.9508C120.857 43.5951 126.354 43.6126 125.406 39.2561C125.049 37.7442 123.35 38.7669 123.44 37.1657C123.529 35.5646 126.077 34.408 126.524 34.5861C126.971 34.7642 129.117 35.2534 130.323 33.8745C134.106 33.0606 131.219 35.644 129.787 36.2761C128.714 37.0769 129.698 40.9019 130.547 40.9019C131.396 40.9019 131.709 38.7223 132.782 37.5215C133.855 36.3207 132.648 36.1873 133.095 34.5861C138.354 34.1938 140.209 30.3266 137.342 27.7814C136.135 27.3814 132.38 27.2922 132.38 27.2922C132.38 27.2922 126.613 24.179 126.122 24.179C125.63 24.179 122.545 25.8245 121.607 25.4687C120.668 25.1129 120.981 23.7341 120.579 23.5117C120.176 23.2894 117.316 23.3337 116.511 22.7556C115.707 22.1775 116.243 20.2651 115.304 20.1317C114.365 19.9982 110.344 20.5807 110.344 20.5807L108.691 59.2006C108.691 59.2006 109.672 60.6605 111.616 60.994C116.375 61.1035 109.121 57.1207 111.818 56.2459Z" fill="#104A00"/>
<path d="M115.094 78.4167C114.557 79.5732 116.377 82.0866 116.377 83.3763C116.54 86.8161 120.939 79.1755 124.691 84.2206C127.118 88.7021 130.941 81.4899 128.089 78.1727C125.899 75.1481 125.407 73.2804 124.96 73.1023C124.513 72.9243 124.334 74.6146 123.395 74.57C122.457 74.5254 122.722 72.6577 122.12 72.3465C121.518 72.0353 118.389 75.3786 117.316 76.6868C116.243 77.995 115.63 77.2601 115.094 78.4167Z" fill="#F2A404"/>
<path d="M78.6722 19.6203C79.2946 22.0719 80.9005 21.241 81.1983 19.0864C81.1311 18.108 78.2922 18.9087 78.6722 19.6203Z" fill="#FCFCFC"/>
<path d="M93.4456 26.0798C94.4474 26.6018 94.2164 24.6124 96.2281 23.2448C98.2398 21.8771 100.538 22.3433 99.8826 21.177C98.7763 19.2086 91.3334 24.979 93.4456 26.0798Z" fill="#FCFCFC"/>
<path d="M124.893 21.6437C124.47 22.364 126.301 23.0114 126.737 22.5445C127.172 22.0775 125.362 20.8433 124.893 21.6437Z" fill="#A1A8B0"/>
<path d="M120.701 49.9636C118.647 52.2713 125.495 49.915 124.975 47.0279C125.043 45.1436 123.551 46.4609 123.417 47.5952C123.283 48.7294 120.701 49.9636 120.701 49.9636Z" fill="#104A00"/>
<path d="M124.859 44.3266C124.751 45.2551 125.797 45.4108 125.747 44.7435C125.697 44.0762 124.959 43.4593 124.859 44.3266Z" fill="#104A00"/>
<path d="M109.024 65.7196C109.176 67.6323 112.521 71.557 114.5 70.7451C114.656 70.3447 112.332 69.8781 111.762 67.8989C110.817 64.0417 110.891 61.4756 109.024 65.7196Z" fill="#036609"/>
<path d="M113.382 66.52C112.511 67.1704 114.656 68.21 115.483 68.0766C116.31 67.9431 116.489 64.2515 115.774 63.9846C115.058 63.7177 114.276 65.8527 113.382 66.52Z" fill="#036609"/>
<path d="M120.623 67.1737C120.072 67.6241 122.635 68.5214 123.506 69.878C124.378 71.2345 125.116 71.6126 126.054 70.6118C126.993 69.6111 121.674 66.3151 120.623 67.1737Z" fill="#036609"/>
<path d="M116.913 67.6988C116.602 68.51 117.249 68.8107 117.629 68.188C118.009 67.5653 117.204 66.9426 116.913 67.6988Z" fill="#036609"/>
<path d="M126.803 87.4902C126.267 88.1575 127.004 88.9913 127.943 88.4244C128.881 87.8574 127.34 86.8229 126.803 87.4902Z" fill="#3B8D65"/>
<path d="M137.297 85.6625C136.826 85.0043 134.481 89.725 134.716 89.892C134.95 90.0589 138.47 87.3039 137.297 85.6625Z" fill="#3B8D65"/>
<path d="M74.0916 47.3949C73.3754 49.2633 70.2462 49.8418 70.1569 46.9952C70.0676 44.1486 70.6486 44.5044 71.7214 44.7267C72.7941 44.9491 72.973 43.6594 72.7048 42.9033C72.4365 42.1471 73.4142 42.3187 74.1269 41.5244C74.1178 43.036 74.0916 47.3949 74.0916 47.3949Z" fill="#104A00"/>
<path d="M72.4923 41.091C73.2401 41.7603 74.0007 39.9905 73.6656 38.9563C73.3304 37.9221 73.4982 35.854 72.4923 35.854C71.4865 35.854 71.1177 37.1883 71.6875 37.8221C72.2573 38.4559 72.8608 38.2559 73.129 38.6894C73.3973 39.1229 71.4597 39.9236 70.9197 38.4725C70.3798 37.0213 69.5085 40.1571 70.6817 40.424C71.8549 40.6909 71.8549 39.4233 72.3915 40.0571C72.928 40.6909 71.8217 40.4906 72.4923 41.091Z" fill="#104A00"/>
<path d="M110.475 17.5066C116.286 20.8144 112.154 16.6214 110.56 15.5264L110.475 17.5066Z" fill="#A1A8B0"/>
<path d="M108.692 15.9063C108.819 16.8159 110.476 17.5065 110.476 17.5065L110.561 15.5262C110.561 15.5262 108.583 15.1279 108.692 15.9063Z" fill="#FCFCFC"/>
<path d="M117.047 58.1362C116.581 58.2207 117.416 61.7173 117.449 62.512C117.819 62.5163 118.422 62.5234 118.422 62.5234C118.422 62.5234 117.785 58.0027 117.047 58.1362Z" fill="#104A00"/>
<path d="M117.897 63.9619C118.483 63.9977 118.422 62.5235 118.422 62.5235L117.449 62.5117C117.449 62.5117 117.159 63.9166 117.897 63.9619Z" fill="#036609"/>
<path d="M74.0005 62.4057L74.0093 60.8742C76.076 61.2137 75.4179 62.9274 78.2099 61.783C79.8609 62.328 79.8905 59.8393 81.6783 60.7485C86.2619 64.609 86.104 57.7837 88.3014 62.3878L74.0005 62.4057Z" fill="#179906"/>
<path d="M88.3028 62.3894C89.0886 65.0001 84.852 64.1828 85.6752 66.8702C84.6697 68.8255 82.8794 73.7628 80.0266 72.0738C79.3332 71.2156 79.3645 69.8844 78.4602 69.3948C75.7541 67.7534 79.102 62.4776 74.0005 64.2183V62.406L88.3028 62.3894Z" fill="#3BA600"/>
<path d="M69.64 60.4487C69.64 60.4487 68.7853 60.9366 69.5677 62.4489L74.0006 62.406L74.0094 60.8744C72.051 60.2102 71.9254 61.4982 69.64 60.4487Z" fill="#005E00"/>
<path d="M77.8836 68.6675C77.0221 66.991 77.4038 66.0443 78.0011 66.2423C78.8056 66.5092 78.9173 68.0363 80.549 67.2802C82.1806 66.524 81.62 64.1856 83.2972 64.5989C84.9743 65.0117 85.3767 67.6248 83.9685 69.026C82.5603 70.4271 78.4881 69.8439 77.8836 68.6675Z" fill="#109100"/>
<path d="M118.422 83.6637C120.528 82.5369 122.635 82.2176 124.692 84.2202C123.932 81.4192 122.244 81.5919 123.356 79.4373C124.468 77.2827 120.514 76.1525 120.547 78.3189C120.579 80.4854 117.424 80.7584 116.22 79.9853C117.36 82.0865 117.07 84.4405 118.422 83.6637Z" fill="#FE8A01"/>
<path d="M109.539 39.3872L109.047 50.8822C109.047 50.8822 109.484 52.2756 106.988 52.4749C102.508 52.8324 101.503 49.4121 100.966 50.1308C100.43 50.8494 105.313 53.6115 104.471 54.4217C103.9 54.9704 98.3513 53.8666 100.329 57.6247C100.024 57.3122 98.2756 55.8759 98.0477 54.8779C98.0477 54.8779 92.9761 55.2674 91.2664 52.132C91.0317 51.6651 90.4789 51.9985 90.99 53.1328C91.5007 54.267 91.9034 55.2009 93.9484 55.2343C94.7864 55.1343 95.3226 56.402 94.6187 57.5693C93.9147 58.7367 91.5183 59.5374 90.99 60.0044C89.0652 61.5538 87.5976 52.849 86.0865 53.15C85.6341 53.2443 85.6881 52.6668 86.2542 52.132C90.1305 47.8265 83.7502 49.998 83.522 47.2285C88.3012 42.5095 93.0702 38.3077 102.448 41.5242C104.42 39.5044 109.539 39.3872 109.539 39.3872Z" fill="#EBE390"/>
<path d="M79.6538 45.4162C80.8661 46.2078 82.9409 46.25 83.4588 47.1974C83.9793 48.1499 84.52 45.7956 87.3643 45.1121C90.2086 44.4286 93.025 41.6773 95.3046 41.4519C97.5842 41.2266 97.6331 42.6629 100.693 42.4784C103.753 42.2939 109.539 39.3869 109.539 39.3869L109.749 35.4061C97.5719 32.7163 99.0858 38.4371 92.1543 37.358C88.983 36.3457 89.2645 39.3328 85.9146 40.5464C82.5647 41.7601 79.6538 45.4162 79.6538 45.4162Z" fill="#999F00"/>
<path d="M109.047 50.882C109.649 50.064 110.167 49.0295 110.344 47.8621C110.521 46.6948 111.102 47.751 110.968 48.7295C110.834 49.7079 115.363 47.6175 116.831 43.3479C118.299 39.0782 116.019 43.0945 115.304 42.5096C114.589 41.9248 117.704 40.1459 116.906 37.5662C116.109 34.9866 112.98 41.9248 111.37 42.0136C109.761 42.1025 112.536 39.2509 109.539 39.387C109.468 41.0355 109.047 50.882 109.047 50.882Z" fill="#AFA04B"/>
<path d="M123.455 37.5224C123.455 36.1871 119.204 35.4533 118.081 33.6187C114.611 33.7187 109.709 35.4198 109.709 35.4198C109.887 37.0078 108.609 41.6535 110.968 42.3587C112.332 42.2918 113.438 39.8233 115.148 38.5891C116.858 37.3548 119.003 36.254 118.836 37.4883C118.102 40.5088 121.673 35.2495 123.455 37.5224Z" fill="#526800"/>
<path d="M98.7201 41.0235C96.0381 40.2568 94.7667 39.4858 92.2175 40.7052C89.6683 41.9246 86.405 43.0811 85.3098 45.1431C84.486 46.6946 83.522 47.5285 83.522 47.5285C83.9899 47.6852 84.7536 47.594 85.6416 47.3518C85.8321 47.6113 87.3996 47.4781 87.6101 48.0245C88.4492 48.5117 88.7888 46.9632 88.0295 46.4814C88.7841 45.9858 90.4864 46.7156 90.286 45.3387C93.3738 43.123 93.2906 42.5712 97.9156 43.3017C100.732 43.5257 100.792 44.8228 103.121 43.0051C105.45 41.1873 105.45 41.1873 105.45 41.1873C105.45 41.1873 101.402 41.7901 98.7201 41.0235Z" fill="#EEB702"/>
<path d="M110.253 22.7025L110.344 20.5804C109.28 20.4094 108.1 20.7257 106.31 22.7025C106.8 22.7113 107.559 21.7717 108.554 22.0413C109.549 22.3109 108.68 22.2937 109.047 22.7025C109.414 23.1114 110.253 22.7025 110.253 22.7025Z" fill="#FCFCFC"/>
<path d="M110.2 23.9341C108.8 24.7085 109.499 25.1524 110.131 25.5383L110.2 23.9341Z" fill="#FCFCFC"/>
<path d="M110.344 20.5803C110.337 20.6979 115.31 19.5163 115.634 20.1113C116.036 20.4259 116.237 21.7047 116.095 22.0409C115.081 21.1763 115.047 21.2472 113.874 21.7121C111.96 22.4085 111.177 22.2842 110.253 22.7021L110.344 20.5803Z" fill="#A7A5B0"/>
<path d="M110.2 23.9343C111.102 23.534 112.018 23.0914 112.532 23.4684C113.046 23.8455 115.64 22.4582 117.393 22.8846C119.145 23.311 120.478 23.2451 120.757 23.6009C121.037 23.9566 120.72 24.7831 121.163 25.126C121.606 25.4689 121.205 26.4809 120.238 26.5809C118.142 27.2482 121.825 28.0607 121.988 25.5173C125.61 24.2709 126.2 23.4897 129.469 25.7531C127.507 26.6697 127.641 28.4044 129.027 28.0486C130.413 27.6928 130.007 26.0295 130.778 26.4383C131.548 26.8471 132.379 27.2924 132.379 27.2924C132.379 27.2924 135.947 26.739 136.677 27.6273C139.637 30.8336 134.365 29.4494 135.933 31.5107C136.269 32.2513 133.452 32.5713 131.105 31.5107C128.759 30.4502 128.792 30.1501 127.451 29.7832C126.11 29.4163 126.479 27.8408 126.982 26.9606C127.485 26.0805 125.066 26.7474 124.851 28.949C124.635 31.1506 118.656 29.1085 118.79 27.2441C118.924 25.3797 118.835 24.582 118.299 24.7364C117.762 24.8908 114.972 26.7201 110.131 25.5385C110.165 24.7594 110.2 23.9343 110.2 23.9343Z" fill="#A7A5B0"/>
<path d="M87.2597 51.468C86.5677 52.0907 87.3327 52.5908 87.8194 53.1087C88.2021 53.6203 88.0479 54.3538 88.287 54.9454C88.6877 55.9323 90.4389 56.6648 89.8704 54.9785C91.2847 54.6437 90.4708 56.2742 91.0032 56.9385C92.0057 58.1075 92.9035 56.6111 92.0043 55.6451C91.3401 54.5798 88.8833 50.6595 91.7391 51.2842C92.4923 52.6404 93.581 53.4537 95.2921 53.33C95.3604 54.8626 97.535 54.6146 97.9001 53.3206C98.352 52.2884 97.9041 51.1565 97.9493 50.0875C98.0671 48.4316 100.695 48.4786 99.6258 46.4125C102.35 46.3338 104.59 45.2924 107.316 45.7107C108.844 45.2779 107.508 44.0413 108.246 42.9513C108.721 42.4891 109.108 41.8901 109.004 41.1694C108.906 40.494 107.906 41.0123 107.279 41.4492C105.212 42.8892 103.055 42.8121 99.3453 42.3594C98.4817 43.0878 97.3055 43.1223 96.174 43.125C97.0256 43.4632 96.2229 44.937 95.1834 45.4006C93.0984 46.4236 93.5341 46.3047 92.5592 47.9187C90.8161 47.8694 89.684 48.7749 88.38 49.6047C87.3521 49.6229 87.9559 50.9362 87.2597 51.468Z" fill="#F7D34B"/>
<path d="M136.536 62.7394C136.536 62.7394 137.347 52.8104 138.274 41.2191C139.294 28.475 140.453 13.7212 140.827 7.94498C129.92 8.2119 110.967 5.98804 110.967 5.98804C110.967 5.98804 86.382 7.85578 74.3243 8.52308C54.2858 7.69361 37.2557 6.43267 37.2557 6.43267C37.2557 6.43267 20.6605 7.60035 6.94873 7.96728C7.86525 14.9869 8.99502 28.6976 9.89524 40.645C10.7938 52.5708 11.4634 62.7394 11.4634 62.7394L9.77673 87.3795L7.79801 116.288C20.6717 116.644 37.1215 118.423 37.1215 118.423C50.5318 116.844 67.2947 116.044 73.9996 115.91C82.8952 116.644 110.967 118.423 110.967 118.423C110.967 118.423 128.222 116.466 141.364 116.11C140.403 101.689 139.162 88.06 138.179 78.1837C137.24 68.7487 136.536 62.7394 136.536 62.7394Z" stroke="#58595B" stroke-width="1.35285" stroke-miterlimit="10"/>
</svg>
