<svg width="162" height="123" viewBox="0 0 162 123" fill="none" xmlns="http://www.w3.org/2000/svg">
<path d="M7.76939 8.64087C8.4452 10.1273 9.75087 11.903 8.94821 14.4207L9.31019 18.0444L4.84177 19.5424C4.64061 18.0456 4.24344 16.3943 4.24344 16.3943C1.78461 15.1222 2.31597 11.7495 2.31597 11.7495" fill="#FFD140"/>
<path d="M7.76939 8.64087C8.4452 10.1273 9.75087 11.903 8.94821 14.4207L9.31019 18.0444L4.84177 19.5424C4.64061 18.0456 4.24344 16.3943 4.24344 16.3943C1.78461 15.1222 2.31597 11.7495 2.31597 11.7495" stroke="#C47620" stroke-width="1.4665" stroke-linecap="round" stroke-linejoin="round"/>
<path d="M2.64126 7.8811C2.64126 7.8811 1 8.02313 1 9.85792C1 11.6927 2.97073 12.9025 3.68589 10.8393" fill="#FFD140"/>
<path d="M2.64126 7.8811C2.64126 7.8811 1 8.02313 1 9.85792C1 11.6927 2.97073 12.9025 3.68589 10.8393" stroke="#C47620" stroke-width="1.4665" stroke-linecap="round" stroke-linejoin="round"/>
<path d="M4.82634 11.0347C4.82634 11.0347 3.02744 11.2343 2.67841 9.13905C2.42031 7.58905 3.36498 6.02703 5.78885 6.37706L5.65467 5.27349C5.44423 2.22229 5.61385 1 6.72546 1C6.79316 1 6.8572 1.00613 6.91781 1.01815C7.851 1.20457 7.95732 2.79235 8.02478 4.73041C8.10861 7.1333 8.56518 10.6491 8.56518 10.6491" fill="#FFD140"/>
<path d="M4.82634 11.0347C4.82634 11.0347 3.02744 11.2343 2.67841 9.13905C2.42031 7.58905 3.36498 6.02703 5.78885 6.37706L5.65467 5.27349C5.44423 2.22229 5.61385 1 6.72546 1C6.79316 1 6.8572 1.00613 6.91781 1.01815C7.851 1.20457 7.95732 2.79235 8.02478 4.73041C8.10861 7.1333 8.56518 10.6491 8.56518 10.6491" stroke="#C47620" stroke-width="1.4665" stroke-linecap="round" stroke-linejoin="round"/>
<path d="M4.74843 12.9167C4.74843 12.9167 4.37471 10.8958 5.44941 10.0404C5.44941 10.0404 4.01762 6.25972 5.65448 5.2734C6.94084 4.49827 7.16864 7.31987 7.76917 8.64077C8.44498 10.1272 9.75065 11.9029 8.94799 14.4206" fill="#FFD140"/>
<path d="M4.74843 12.9167C4.74843 12.9167 4.37471 10.8958 5.44941 10.0404C5.44941 10.0404 4.01762 6.25972 5.65448 5.2734C6.94084 4.49827 7.16864 7.31987 7.76917 8.64077C8.44498 10.1272 9.75065 11.9029 8.94799 14.4206" stroke="#C47620" stroke-width="1.4665" stroke-linecap="round" stroke-linejoin="round"/>
<path d="M4.36062 20.7833L3.90186 17.946C3.90186 17.946 6.85318 17.6835 9.31006 15.8818L9.72825 19.1285" fill="#F978C2"/>
<path d="M4.36062 20.7833L3.90186 17.946C3.90186 17.946 6.85318 17.6835 9.31006 15.8818L9.72825 19.1285" stroke="#CE2489" stroke-width="1.4665" stroke-linecap="round" stroke-linejoin="round"/>
<path d="M10.5616 17.5132C12.6099 23.1041 14.3452 27.7054 15.2977 28.9897C17.7714 27.6416 24.3424 25.9361 28.8541 25.353C32.6064 24.8679 32.9411 29.3437 30.6815 31.7434C28.9892 33.5405 23.0933 35.7124 20.7151 36.4934C18.7864 37.1266 14.1683 38.4942 11.703 37.3838C9.15692 36.2369 4.87208 25.8396 3.45329 19.6962C3.45329 19.6962 6.60349 20.0097 10.5616 17.5132Z" fill="#9740AC"/>
<path d="M10.5616 17.5132C12.6099 23.1041 14.3452 27.7054 15.2977 28.9897C17.7714 27.6416 24.3424 25.9361 28.8541 25.353C32.6064 24.8679 32.9411 29.3437 30.6815 31.7434C28.9892 33.5405 23.0933 35.7124 20.7151 36.4934C18.7864 37.1266 14.1683 38.4942 11.703 37.3838C9.15692 36.2369 4.87207 25.8396 3.45329 19.6962C3.45329 19.6962 6.60349 20.0097 10.5616 17.5132Z" stroke="#49005B" stroke-width="1.4665" stroke-linecap="round" stroke-linejoin="round"/>
<path d="M10.2839 18.6083C9.73611 18.7081 9.24154 18.7242 9.28314 19.312C10.4166 22.8737 12.3739 28.9306 14.2933 30.6935C15.2497 31.5721 22.338 28.5426 27.1108 27.6925C28.2621 27.4874 31.3084 26.9194 31.2092 29.6847C31.2086 29.7009 32.8555 28.1393 30.9602 26.767C28.148 24.7309 17.2249 29.279 14.7785 29.2587C12.824 26.609 10.2839 18.6083 10.2839 18.6083Z" fill="#B757CE"/>
<g opacity="0.3">
<path d="M21.468 27.6685C22.7941 28.9951 18.373 36.9858 9.64581 33.6788C10.6725 41.8738 30.304 32.3785 31.3598 29.7234C34.0107 23.0566 21.5943 27.7016 21.468 27.6685Z" fill="#32003D"/>
</g>
<path d="M23.7348 111.842C23.7348 111.842 24.1014 115.207 23.4845 118.572H20.224L19.8043 116.286C19.128 116.368 17.5975 118.573 15.8616 118.572C13.5152 118.5 5.40991 118.572 4.55665 118.572C3.7034 118.572 4.04729 116.099 6.47312 115.276C11.5343 113.561 12.8895 112.647 12.8895 112.647L23.7348 111.842Z" fill="#1C2D2C"/>
<path d="M23.7348 111.842C23.7348 111.842 24.1014 115.207 23.4845 118.572H20.224L19.8043 116.286C19.128 116.368 17.5975 118.573 15.8616 118.572C13.5152 118.5 5.40991 118.572 4.55665 118.572C3.7034 118.572 4.04729 116.099 6.47312 115.276C11.5343 113.561 12.8895 112.647 12.8895 112.647L23.7348 111.842Z" stroke="black" stroke-width="1.4665" stroke-linecap="round" stroke-linejoin="round"/>
<path d="M5.32178 116.985C5.32178 116.985 9.43824 117.322 14.6446 115.896C16.4369 115.297 13.3005 113.366 12.1195 113.927C8.51434 115.637 5.93282 115.774 5.32178 116.985Z" fill="#334A56"/>
<path d="M42.2186 52.1784C36.4793 49.2136 27.6619 54.6672 27.6619 54.6672C27.6619 61.2315 27.6619 65.127 27.6619 65.127C25.7873 67.4175 15.6564 80.416 14.7079 83.9419C13.6444 87.1935 12.8896 112.647 12.8896 112.647C20.042 114.387 24.3731 111.489 24.3731 111.489C24.9668 102.243 24.6705 90.3649 25.4949 87.8788C25.4949 87.8788 35.4877 75.8227 39.3448 73.3408C43.2019 70.8589 43.2019 70.8587 43.2019 70.8587C43.2019 70.8587 47.9583 55.1433 42.2186 52.1784Z" fill="#5E1D6D"/>
<g opacity="0.4">
<path d="M43.6036 61.3295C43.6036 61.3295 35.5989 63.0058 39.1178 72.2036C39.1178 72.2036 28.3275 82.7313 24.7224 87.6268L24.0911 96.8258C23.9862 83.4924 20.3906 87.5366 21.9837 86.0533C31.6364 77.0667 33.0599 71.0904 31.808 68.9424C29.1424 64.3687 23.6506 71.4863 23.6506 71.4863L28.4906 65.3565L27.8803 50.2747H41.5275L43.6036 61.3295Z" fill="#32003D"/>
</g>
<path d="M34.1172 51.9028C30.5614 52.8737 27.6619 54.667 27.6619 54.667C27.6619 61.2313 27.6619 65.1268 27.6619 65.1268C25.7873 67.4173 15.6564 80.4159 14.7079 83.9417C13.6444 87.1933 12.8896 112.647 12.8896 112.647C20.042 114.386 24.3731 111.489 24.3731 111.489C24.9668 102.243 24.6705 90.3647 25.4949 87.8787C25.4949 87.8787 35.4877 75.8225 39.3448 73.3407C39.7107 73.1052 40.0421 72.892 40.3418 72.699" stroke="#32003D" stroke-width="1.4665" stroke-linecap="round" stroke-linejoin="round"/>
<path d="M57.9358 118.023C57.1303 118.713 56.7998 120.041 57.2803 120.614C57.8075 121.242 61.3767 121.07 64.3376 120.341C65.9996 119.931 69.3714 117.78 69.4166 117.553C69.4618 117.326 69.4166 115.984 69.4166 115.984L69.5613 117.49C69.5613 117.49 71.0148 116.976 71.2199 116.821C71.4249 116.667 71.1959 113.013 69.7485 110.869C68.3013 108.724 59.1785 116.96 57.9358 118.023Z" fill="#1C2D2C"/>
<path d="M57.9358 118.023C57.1303 118.713 56.7998 120.041 57.2803 120.614C57.8075 121.242 61.3767 121.07 64.3376 120.341C65.9996 119.931 69.3714 117.78 69.4166 117.553C69.4618 117.326 69.4166 115.984 69.4166 115.984L69.5613 117.49C69.5613 117.49 71.0148 116.976 71.2199 116.821C71.4249 116.667 71.1959 113.013 69.7485 110.869C68.3013 108.724 59.1785 116.96 57.9358 118.023Z" stroke="black" stroke-width="1.4665" stroke-linecap="round" stroke-linejoin="round"/>
<path d="M62.2827 118.706C63.8494 118.407 69.4201 115.774 65.4178 113.781C64.4406 113.295 59.0395 117.841 58.7115 118.212C57.5818 119.488 60.716 119.008 62.2827 118.706Z" fill="#334A56"/>
<path d="M38.7969 72.4289C39.9376 74.7183 43.9712 81.3647 51.0663 91.7322C52.1386 93.7991 56.3191 102.445 57.9139 109.021C58.7114 112.31 58.9072 115.829 58.9072 115.829C58.9072 115.829 61.5792 116.616 65.8821 114.64C69.6241 112.921 70.1658 110.264 70.1658 110.264C70.1658 110.264 69.3017 106.995 67.5006 102.427C65.8489 98.2386 63.7273 94.2853 60.8261 88.5025C58.0569 82.8791 55.591 73.3488 54.9054 70.8049C53.5144 65.6432 49.3085 58.4046 46.1294 54.2363" fill="#5E1D6D"/>
<path d="M38.7969 72.4289C39.9376 74.7183 43.9712 81.3647 51.0663 91.7322C52.1386 93.7991 56.3191 102.445 57.9139 109.021C58.7114 112.31 58.9072 115.829 58.9072 115.829C58.9072 115.829 61.5792 116.616 65.8821 114.64C69.6241 112.921 70.1658 110.264 70.1658 110.264C70.1658 110.264 69.3017 106.995 67.5006 102.427C65.8489 98.2386 63.7273 94.2853 60.8261 88.5025C58.0569 82.8791 55.591 73.3488 54.9054 70.8049C53.5144 65.6432 49.3085 58.4046 46.1294 54.2363" stroke="#32003D" stroke-width="1.4665" stroke-linecap="round" stroke-linejoin="round"/>
<path d="M48.8921 63.8697C43.7892 65.7933 45.726 74.4352 49.381 82.0459C52.1693 87.8515 53.0172 88.512 54.0518 89.634C56.6015 92.3989 61.1222 93.9131 57.9101 83.4492C55.0157 76.2678 53.0546 62.3006 48.8921 63.8697Z" fill="#7A288E"/>
<g opacity="0.5">
<path d="M60.0509 88.5979C60.0509 88.5979 56.3949 82.9765 53.4211 74.2686C51.2678 67.9631 49.9805 65.014 49.9805 65.014L50.4688 62.3003C51.9353 64.817 53.1325 67.4281 54.0564 70.8549C54.7407 73.3986 57.2817 82.9733 60.0509 88.5979Z" fill="#B757CE"/>
</g>
<g opacity="0.4">
<path d="M50.8184 89.907C51.7332 91.0118 54.0816 94.0134 57.1795 93.8856C59.8676 93.7748 57.4154 95.3145 56.7555 97.4365C55.8274 100.421 57.0876 103.745 57.0876 103.745C56.4055 101.892 55.6055 99.8467 54.7048 97.7595C53.5602 95.1072 52.2531 92.3869 50.8184 89.907Z" fill="#32003D"/>
</g>
<path d="M33.2315 38.7553C33.5628 32.3964 36.4734 25.3374 36.4734 25.3374L46.309 23.8047C46.309 23.8047 45.4237 26.2706 45.6079 28.2515" fill="#D89535"/>
<path d="M33.2315 38.7553C33.5628 32.3964 36.4734 25.3374 36.4734 25.3374L46.309 23.8047C46.309 23.8047 45.4237 26.2706 45.6079 28.2515" stroke="#B26212" stroke-width="1.4665" stroke-linecap="round" stroke-linejoin="round"/>
<path d="M34.9378 31.4912C35.4524 30.0165 37.3331 29.7389 38.2519 30.0684C39.5725 30.5422 39.5772 32.1589 37.5403 34.3197C35.5038 36.4805 32.1371 39.5148 34.9378 31.4912Z" fill="#FFD140"/>
<path d="M42.8918 30.7591L33.278 37.9294C33.278 37.9294 34.8113 29.6586 35.7913 26.3217C29.8229 30.1427 28.3503 34.0273 27.6028 37.7446C26.7968 41.7536 26.6776 57.8899 26.6776 57.8899L28.1922 56.4815L29.3146 55.4379L33.158 58.9192C38.9434 58.8302 44.1588 55.9961 44.1588 55.9961L48.3877 35.7986" fill="#7A288E"/>
<path d="M42.8918 30.7591L33.278 37.9294C33.278 37.9294 34.8113 29.6586 35.7913 26.3217C29.8229 30.1427 28.3503 34.0273 27.6028 37.7446C26.7968 41.7536 26.6776 57.8899 26.6776 57.8899L28.1922 56.4815L29.3146 55.4379L33.158 58.9192C38.9434 58.8302 44.1588 55.9961 44.1588 55.9961L48.3877 35.7986" stroke="#32003D" stroke-width="1.4665" stroke-linecap="round" stroke-linejoin="round"/>
<g opacity="0.3">
<path d="M33.1168 58.5489L29.3143 55.4382L27.3646 56.2389C27.3646 56.2389 27.4304 41.7868 28.237 37.7763C28.7127 35.4163 35.216 21.8056 32.748 38.9286C31.7097 41.6913 30.1922 53.6717 33.1168 58.5489Z" fill="#32003D"/>
</g>
<path d="M32.7227 52.2077C32.6422 53.7735 30.4434 53.9322 30.5884 51.9058C30.7 50.3445 32.8119 50.4767 32.7227 52.2077Z" fill="#E2C028"/>
<path d="M32.7403 47.174C32.6598 48.7398 30.4609 48.8985 30.6059 46.8721C30.7176 45.3108 32.8295 45.443 32.7403 47.174Z" fill="#E2C028"/>
<path d="M33.149 42.3742C33.0685 43.94 30.8696 44.0987 31.0146 42.0723C31.1263 40.511 33.2382 40.6432 33.149 42.3742Z" fill="#E2C028"/>
<g opacity="0.3">
<path d="M34.844 42.0252C29.1426 42.1906 27.838 39.2029 28.9303 35.8704C28.9303 35.8704 30.2292 31.7463 33.0352 30.2342C33.0352 30.2342 30.4848 43.3404 40.2431 32.119C41.9978 31.761 42.9497 33.3399 42.8098 34.4575C42.4289 37.5017 40.1018 41.8729 34.844 42.0252Z" fill="#DA77F2"/>
</g>
<path d="M28.1166 35.7174C25.94 40.1471 26.8237 56.0738 27.3481 64.6345C26.1029 64.0188 20.9354 63.2191 17.0049 58.1286C17.0049 58.1286 19.7719 54.5744 20.0706 52.7489C20.4478 50.4436 20.8457 45.7804 21.1373 44.0923C25.2742 20.1304 35.3508 26.074 35.3508 26.074C35.3508 26.074 30.1872 31.5035 28.1166 35.7174Z" fill="#521960"/>
<path d="M28.1166 35.7174C25.94 40.1471 26.8237 56.0738 27.3481 64.6345C26.1029 64.0188 20.9354 63.2191 17.0049 58.1286C17.0049 58.1286 19.7719 54.5744 20.0706 52.7489C20.4478 50.4436 20.8457 45.7804 21.1373 44.0923C25.2742 20.1304 35.3508 26.074 35.3508 26.074C35.3508 26.074 30.1872 31.5035 28.1166 35.7174Z" stroke="#32003D" stroke-width="1.4665" stroke-linecap="round" stroke-linejoin="round"/>
<path d="M27.3698 35.9544C24.7635 42.2101 26.5697 63.4385 26.5697 63.4385C26.5697 63.4385 24.559 63.3615 22.2181 61.4922C23.7532 60.9999 25.9443 58.242 25.9413 53.327C25.9372 46.7648 23.385 44.7624 21.492 48.5919C21.4926 41.1616 22.3142 25.2556 34.3316 25.9324C34.3316 25.9324 28.2258 33.9 27.3698 35.9544Z" fill="#3B0349"/>
<path d="M21.2829 43.9062C21.2829 43.9062 23.0716 37.6996 28.2829 31.7996C31.8295 27.7841 37.1991 25.8291 37.1991 25.8291C37.1991 25.8291 34.065 24.2379 31.1529 24.8482C28.2407 25.4584 20.8178 30.4515 21.2829 43.9062Z" fill="#9740AC"/>
<path d="M21.2829 43.9062C21.2829 43.9062 23.0716 37.6996 28.2829 31.7996C31.8295 27.7841 37.1991 25.8291 37.1991 25.8291C37.1991 25.8291 34.065 24.2379 31.1529 24.8482C28.2407 25.4584 20.8178 30.4515 21.2829 43.9062Z" stroke="#49005B" stroke-width="1.4665" stroke-linecap="round" stroke-linejoin="round"/>
<path d="M31.3496 25.58C31.3496 25.58 32.7347 25.7565 32.8805 26.2456C33.2279 27.4104 27.633 29.0205 25.1462 34.3933C29.3022 29.7792 35.8928 26.0744 35.8397 26.0505C33.6647 25.0692 31.3496 25.58 31.3496 25.58Z" fill="#B757CE"/>
<path d="M46.1394 28.4583C42.6357 32.2328 41.1013 35.4126 40.6385 39.6625C40.3978 41.8715 40.2638 46.3327 40.225 50.2811C40.1892 53.9291 40.2345 57.1391 40.3526 57.7307C40.6992 59.4649 45.5518 69.7034 45.9324 70.1892C45.9324 70.1892 49.4956 68.5513 51.6985 66.2251C53.1512 64.6912 53.7527 62.6247 53.6613 62.1541C53.6613 62.1541 51.0936 58.0021 50.9501 56.3063C50.8066 54.6106 51.9238 46.1212 52.665 44.229C54.6238 39.2286 57.4192 34.4088 55.077 31.8475C52.9296 29.4993 46.1394 28.4583 46.1394 28.4583Z" fill="#7A288E"/>
<path d="M46.1394 28.4583C42.6357 32.2328 41.1013 35.4126 40.6385 39.6625C40.3978 41.8715 40.2638 46.3327 40.225 50.2811C40.1892 53.9291 40.2345 57.1391 40.3526 57.7307C40.6992 59.4649 45.5518 69.7034 45.9324 70.1892C45.9324 70.1892 49.4956 68.5513 51.6985 66.2251C53.1512 64.6912 53.7527 62.6247 53.6613 62.1541C53.6613 62.1541 51.0936 58.0021 50.9501 56.3063C50.8066 54.6106 51.9238 46.1212 52.665 44.229C54.6238 39.2286 57.4192 34.4088 55.077 31.8475C52.9296 29.4993 46.1394 28.4583 46.1394 28.4583Z" stroke="#32003D" stroke-width="1.4665" stroke-linecap="round" stroke-linejoin="round"/>
<path d="M55.2149 34.164C53.9949 31.5515 45.8303 29.9143 45.8303 29.9143C45.8303 29.9143 46.036 29.6407 46.4276 29.2191C46.4276 29.2191 52.1788 30.2074 54.4192 32.2186C55.1199 32.8476 55.2149 34.164 55.2149 34.164Z" fill="#B757CE"/>
<g opacity="0.4">
<path d="M53.6606 62.1543C53.7341 62.529 52.4924 65.2197 52.4924 65.2197C51.6175 64.0511 48.82 60.2775 47.9197 56.2908C47.2978 53.5363 47.7622 41.7788 49.1717 36.6098C50.468 31.8553 54.087 31.2679 55.0452 32.8845C56.6007 35.3526 54.2547 39.0988 52.6658 44.23C48.5468 57.5323 53.6606 62.1543 53.6606 62.1543Z" fill="#32003D"/>
</g>
<path d="M40.2258 50.2332C40.2258 50.2332 44.9556 36.5815 46.3109 34.9627C47.6662 33.3438 50.0404 30.6181 52.277 30.1116C52.277 30.1116 47.684 28.1563 45.774 28.971C43.864 29.7858 39.8331 32.5989 40.2258 50.2332Z" fill="#9740AC"/>
<path d="M40.2258 50.2332C40.2258 50.2332 44.9556 36.5815 46.3109 34.9627C47.6662 33.3438 50.0404 30.6181 52.277 30.1116C52.277 30.1116 47.684 28.1563 45.774 28.971C43.864 29.7858 39.8331 32.5989 40.2258 50.2332Z" stroke="#49005B" stroke-width="1.4665" stroke-linecap="round" stroke-linejoin="round"/>
<path d="M67.6785 63.6757L67.7419 65.6385C67.7419 65.6385 66.1075 67.9201 65.7728 69.9523C65.3162 72.724 64.5791 77.7324 65.7656 77.7949C66.5926 77.8383 67.1663 74.2573 67.3835 72.6343C67.4469 72.1596 67.4801 71.8524 67.4801 71.8524C67.4801 71.8524 67.3414 73.7772 67.4944 74.3433C67.6474 74.9094 68.5736 76.4189 69.364 76.1159C70.0016 75.8713 69.6306 74.2118 69.4881 73.768C69.4536 73.6608 69.5114 72.7538 69.5522 72.1795C69.5716 71.9059 69.5874 71.708 69.5874 71.708C69.5874 71.708 69.9032 73.3932 70.5422 73.5164C72.4651 73.8875 71.5835 71.8398 71.3435 71.3418C71.3106 71.2737 71.2899 71.2346 71.2899 71.2346C71.3727 71.4575 71.4704 71.6486 71.578 71.8093C71.7199 72.0213 71.8787 72.181 72.0427 72.293C72.9256 72.8965 73.9589 72.1207 73.3075 70.7111C73.3075 70.7111 74.1715 67.9827 73.279 66.6872L72.7784 64.4392" fill="#FFD140"/>
<path d="M67.6785 63.6757L67.7419 65.6385C67.7419 65.6385 66.1075 67.9201 65.7728 69.9523C65.3162 72.724 64.5791 77.7324 65.7656 77.7949C66.5926 77.8383 67.1663 74.2573 67.3835 72.6343C67.4469 72.1596 67.4801 71.8524 67.4801 71.8524C67.4801 71.8524 67.3414 73.7772 67.4944 74.3433C67.6474 74.9094 68.5736 76.4189 69.364 76.1159C70.0016 75.8713 69.6306 74.2118 69.4881 73.768C69.4536 73.6608 69.5114 72.7538 69.5522 72.1795C69.5716 71.9059 69.5874 71.708 69.5874 71.708C69.5874 71.708 69.9032 73.3932 70.5422 73.5164C72.4651 73.8875 71.5835 71.8398 71.3435 71.3418C71.3106 71.2737 71.2899 71.2346 71.2899 71.2346C71.3727 71.4575 71.4704 71.6486 71.578 71.8093C71.7199 72.0213 71.8787 72.181 72.0427 72.293C72.9256 72.8965 73.9589 72.1207 73.3075 70.7111C73.3075 70.7111 74.1715 67.9827 73.279 66.6872L72.7784 64.4392" stroke="#C47620" stroke-width="1.4665" stroke-linecap="round" stroke-linejoin="round"/>
<path d="M67.5029 62.4973L67.3385 65.6457C68.8884 66.3612 72.5285 66.2975 73.256 65.6477L73.6408 62.8201" fill="#F978C2"/>
<path d="M67.5029 62.4973L67.3385 65.6457C68.8884 66.3612 72.5285 66.2975 73.256 65.6477L73.6408 62.8201" stroke="#CE2489" stroke-width="1.4665" stroke-linecap="round" stroke-linejoin="round"/>
<path d="M71.766 49.725C70.8338 45.9655 69.9795 45.0247 68.8538 43.814C67.2638 42.1564 58.8684 35.2457 54.4082 34.3482C50.6988 33.6016 49.6063 40.3594 51.6936 42.9115C53.2569 44.8227 57.1391 45.9251 61.6251 49.7084C63.3214 51.3038 65.05 57.0514 66.4032 63.5661C66.4032 63.5661 69.8877 64.8609 74.3962 63.6431C74.3962 63.6431 73.4782 56.63 71.766 49.725Z" fill="#9740AC"/>
<path d="M71.766 49.725C70.8338 45.9655 69.9795 45.0247 68.8538 43.814C67.2638 42.1564 58.8684 35.2457 54.4082 34.3482C50.6988 33.6016 49.6063 40.3594 51.6936 42.9115C53.2569 44.8227 57.1391 45.9251 61.6251 49.7084C63.3214 51.3038 65.05 57.0514 66.4032 63.5661C66.4032 63.5661 69.8877 64.8609 74.3962 63.6431C74.3962 63.6431 73.4782 56.63 71.766 49.725Z" stroke="#49005B" stroke-width="1.4665" stroke-linecap="round" stroke-linejoin="round"/>
<path d="M73.2902 63.247C72.6646 63.4156 72.5789 63.3317 71.9972 63.4116C71.7669 57.8385 70.0314 48.2298 67.971 45.9069C66.8108 44.599 61.0907 39.7626 56.7116 37.6766C53.7095 36.2466 52.1853 36.0428 51.4445 38.8119C51.4403 38.8274 51.5395 34.4521 54.4625 35.1111C58.8997 36.1116 67.5256 43.4252 68.9742 45.209C72.417 49.4483 73.2902 63.247 73.2902 63.247Z" fill="#B757CE"/>
<g opacity="0.3">
<path d="M52.8138 35.3324C51.3987 36.563 50.9584 38.6967 57.1263 43.3616C61.8408 46.9273 62.5966 49.345 62.8699 50.2093C59.6256 45.9921 52.3113 44.1479 51.69 41.358C50.6442 36.6616 52.6855 35.3566 52.8138 35.3324Z" fill="#32003D"/>
</g>
<g opacity="0.6">
<path d="M34.8474 37.9391C34.8474 37.9391 39.1706 35.1622 40.5735 35.1012C42.7278 35.0074 48.3067 36.6795 48.7293 36.5171C49.8703 32.6237 41.4215 29.0596 34.8474 37.9391Z" fill="#32003D"/>
</g>
<g opacity="0.6">
<path d="M29.123 28.5078C27.7856 29.728 28.0149 29.5639 31.0984 31.263C31.7103 31.6003 33.0606 36.564 33.0606 36.564C33.0606 36.564 34.5534 23.5529 29.123 28.5078Z" fill="#32003D"/>
</g>
<path d="M33.2943 38.5487L39.5754 31.7389C43.0712 29.0658 46.6961 27.6206 46.6961 27.6206C47.5871 29.0437 48.7139 34.749 48.7139 34.749C43.7394 32.9318 39.8771 33.1691 39.8771 33.1691C36.9166 34.6773 33.2602 38.6538 33.2602 38.6538C32.8257 35.8106 33.272 30.7972 33.272 30.7972C33.272 30.7972 32.2064 29.7093 29.7364 28.6015C29.7364 28.6015 33.2741 26.7678 36.35 26.1669C36.35 26.1669 35.3134 30.5371 34.9378 31.491C34.0497 33.4199 33.2943 38.5487 33.2943 38.5487Z" fill="#F978C2"/>
<path d="M33.2943 38.5487L39.5754 31.7389C43.0712 29.0658 46.6961 27.6206 46.6961 27.6206C47.5871 29.0437 48.7139 34.749 48.7139 34.749C43.7394 32.9318 39.8771 33.1691 39.8771 33.1691C36.9166 34.6773 33.2602 38.6538 33.2602 38.6538C32.8257 35.8106 33.272 30.7972 33.272 30.7972C33.272 30.7972 32.2064 29.7093 29.7364 28.6015C29.7364 28.6015 33.2741 26.7678 36.35 26.1669C36.35 26.1669 35.3134 30.5371 34.9378 31.491C34.0497 33.4199 33.2943 38.5487 33.2943 38.5487Z" stroke="#CE2489" stroke-width="1.4665" stroke-linecap="round" stroke-linejoin="round"/>
<path d="M30.598 17.0719C29.7533 17.6018 30.2365 19.7148 31.2278 20.3601C31.8376 20.7572 32.8685 20.9163 32.8685 20.9163C33.3396 20.8986 34.0191 14.926 30.598 17.0719Z" fill="#EDB026"/>
<path d="M30.598 17.0719C29.7533 17.6018 30.2365 19.7148 31.2278 20.3601C31.8376 20.7572 32.8685 20.9163 32.8685 20.9163C33.3396 20.8986 34.0191 14.926 30.598 17.0719Z" stroke="#C47620" stroke-width="1.4665" stroke-linecap="round" stroke-linejoin="round"/>
<path d="M50.2684 18.1065C50.9409 18.8441 50.3527 20.7728 49.2996 21.3106C48.6518 21.6415 47.61 21.6916 47.61 21.6916C46.5676 21.5508 47.8628 15.4679 50.2684 18.1065Z" fill="#EDB026"/>
<path d="M50.2684 18.1065C50.9409 18.8441 50.3527 20.7728 49.2996 21.3106C48.6518 21.6415 47.61 21.6916 47.61 21.6916C46.5676 21.5508 47.8628 15.4679 50.2684 18.1065Z" stroke="#C47620" stroke-width="1.4665" stroke-linecap="round" stroke-linejoin="round"/>
<path d="M48.2624 19.1849C47.7541 22.1605 46.1634 26.8494 40.177 26.5345C34.0425 26.2119 32.5642 21.3438 32.477 18.3546C32.477 18.3546 30.083 6.63893 40.977 7.13773C51.8711 7.63653 48.2624 19.1849 48.2624 19.1849Z" fill="#FFD140"/>
<path d="M48.2624 19.1849C47.7541 22.1605 46.1634 26.8494 40.177 26.5345C34.0425 26.2119 32.5642 21.3438 32.477 18.3546C32.477 18.3546 30.083 6.63893 40.977 7.13773C51.8711 7.63653 48.2624 19.1849 48.2624 19.1849Z" stroke="#C47620" stroke-width="1.4665" stroke-linecap="round" stroke-linejoin="round"/>
<path d="M42.5058 16.8876C42.5058 16.8876 42.4612 15.5901 43.4179 14.7989C44.2398 14.119 45.7128 14.2672 46.4046 15.2301C46.968 16.014 46.7787 16.8837 46.7787 16.8837C45.3686 17.8087 43.7116 17.6909 42.5058 16.8876Z" fill="#FFF7D4"/>
<path d="M46.0775 16.0141C46.0347 16.8339 45.3378 17.4637 44.5209 17.4207C43.7039 17.3777 43.0764 16.6783 43.1193 15.8585C43.1621 15.0386 43.859 14.4089 44.6759 14.4518C45.4929 14.4948 46.1203 15.1942 46.0775 16.0141Z" fill="url(#paint0_linear_288_3317)"/>
<path d="M45.5331 15.9855C45.506 16.5036 45.0655 16.9017 44.5492 16.8745C44.033 16.8474 43.6364 16.4052 43.6634 15.8872C43.6905 15.3691 44.131 14.971 44.6472 14.9981C45.1635 15.0253 45.5601 15.4674 45.5331 15.9855Z" fill="#16130B"/>
<path d="M44.1843 15.4607C43.7128 15.444 43.7127 14.7486 44.2215 14.7481C44.6499 14.7478 44.768 15.4813 44.1843 15.4607Z" fill="#F5F5F5"/>
<path d="M45.671 16.4135C45.544 16.7365 45.2674 16.9808 44.9308 17.066" stroke="#E09705" stroke-width="0.232929" stroke-linecap="round" stroke-linejoin="round"/>
<path d="M42.7325 15.6489C42.882 15.18 43.4704 14.225 44.8113 14.2967C46.1268 14.3672 47.1009 15.5726 46.7708 16.8831C46.8636 15.6552 46.0146 14.5381 44.7592 14.4596C43.5738 14.3854 42.899 15.1558 42.7325 15.6489Z" fill="#7D4202"/>
<path d="M42.7325 15.6489C42.882 15.18 43.4704 14.225 44.8113 14.2967C46.1268 14.3672 47.1009 15.5726 46.7708 16.8831C46.8636 15.6552 46.0146 14.5381 44.7592 14.4596C43.5738 14.3854 42.899 15.1558 42.7325 15.6489Z" stroke="#7D4202" stroke-width="0.133207" stroke-linecap="round" stroke-linejoin="round"/>
<path d="M38.478 16.6755C38.478 16.6755 38.6573 15.3897 37.7882 14.5025C37.0417 13.7401 35.5615 13.733 34.7732 14.6181C34.1313 15.3386 34.229 16.2234 34.229 16.2234C35.3368 17.2347 37.0139 17.3934 38.478 16.6755Z" fill="#FFF7D4"/>
<path d="M37.9752 15.5878C37.9324 16.4077 37.2353 17.0374 36.4183 16.9944C35.6014 16.9515 34.9739 16.2521 35.0167 15.4322C35.0595 14.6123 35.7564 13.9826 36.5734 14.0255C37.3903 14.0685 38.018 14.7679 37.9752 15.5878Z" fill="url(#paint1_linear_288_3317)"/>
<path d="M35.5609 15.4609C35.5338 15.979 35.9305 16.4211 36.4467 16.4482C36.9629 16.4754 37.4035 16.0773 37.4305 15.5592C37.4576 15.0411 37.0609 14.599 36.5447 14.5719C36.0285 14.5447 35.5879 14.9428 35.5609 15.4609Z" fill="#16130B"/>
<path d="M36.0659 15.0339C36.5293 15.0747 36.665 14.312 36.1031 14.3213C35.5784 14.3298 35.6098 14.9937 36.0659 15.0339Z" fill="#F5F5F5"/>
<path d="M37.5684 15.987C37.4414 16.3099 37.1648 16.5543 36.8282 16.6395" stroke="#E09705" stroke-width="0.232929" stroke-linecap="round" stroke-linejoin="round"/>
<path d="M38.3738 15.4192C38.2739 14.9372 37.7885 13.9257 36.4472 13.8564C35.1316 13.7884 34.0373 14.8851 34.2291 16.223C34.2647 14.9921 35.2254 13.9702 36.4821 14.0238C37.6687 14.0744 38.2596 14.9114 38.3738 15.4192Z" fill="#7D4202"/>
<path d="M38.3738 15.4192C38.2739 14.9372 37.7885 13.9257 36.4472 13.8564C35.1316 13.7884 34.0373 14.8851 34.2291 16.223C34.2647 14.9921 35.2254 13.9702 36.4821 14.0238C37.6687 14.0744 38.2596 14.9114 38.3738 15.4192Z" stroke="#7D4202" stroke-width="0.133207" stroke-linecap="round" stroke-linejoin="round"/>
<path d="M37.2107 12.3974C37.2107 12.3974 36.1401 12.1272 35.1141 12.676" stroke="#7D4202" stroke-width="1.22208" stroke-linecap="round" stroke-linejoin="round"/>
<path d="M44.0894 12.7592C44.0894 12.7592 45.1823 12.6027 46.1455 13.2562" stroke="#7D4202" stroke-width="1.22208" stroke-linecap="round" stroke-linejoin="round"/>
<path d="M42.1509 23.5831C42.1322 23.9417 41.1922 24.497 40.0714 24.4381C38.9505 24.3791 38.0736 23.7282 38.0923 23.3696C38.111 23.011 38.9964 23.5017 40.1172 23.5606C41.238 23.6196 42.1696 23.2245 42.1509 23.5831Z" fill="#EDB026"/>
<path d="M42.8364 22.2924C42.8013 22.9655 41.5651 23.6305 40.0867 23.5527C38.6083 23.475 37.4478 22.6839 37.483 22.0108C37.5539 20.6535 42.9124 20.8366 42.8364 22.2924Z" fill="#FFE28F"/>
<g opacity="0.3">
<path d="M42.943 20.2417L37.5908 19.9602C36.5419 19.905 35.2467 20.8278 35.1866 21.9803C35.1808 22.0912 35.2581 22.1899 35.3748 22.196L44.914 22.6977C45.0306 22.7039 45.1176 22.6139 45.1234 22.5029C45.1769 21.4778 43.9918 20.2968 42.943 20.2417Z" fill="#C47620"/>
</g>
<path d="M42.4949 22.2201C42.4924 22.3435 42.2951 23.2209 40.1093 23.1059C37.8879 22.9891 37.8299 22.0981 37.8298 21.9747C37.8269 20.3195 42.5248 20.7752 42.4949 22.2201Z" fill="#7E2312"/>
<path d="M42.4951 22.2201C42.4975 22.3435 42.4323 22.4582 42.3321 22.5618L37.9565 22.3316C37.8679 22.2182 37.8267 22.0981 37.83 21.9747C37.8589 20.8829 42.4748 21.1513 42.4951 22.2201Z" fill="#511312"/>
<path d="M42.7784 20.4679L37.7312 20.2024C36.7422 20.1504 35.7089 20.7875 35.5609 21.6672C35.5439 21.7672 35.6285 21.8589 35.7386 21.8647L44.587 22.33C44.6971 22.3358 44.7907 22.2536 44.7843 22.1523C44.7287 21.2619 43.7674 20.5199 42.7784 20.4679Z" fill="#FFCB2D"/>
<path d="M44.784 22.1522C44.7907 22.253 44.697 22.3358 44.5872 22.33L35.738 21.8646C35.6282 21.8588 35.5439 21.7667 35.5611 21.6671C35.6119 21.3647 35.7677 21.0909 35.9898 20.8638C35.9197 20.9921 35.7106 21.4298 36.0127 21.4595L44.3564 21.8983C44.6687 21.9086 44.4986 21.4433 44.4413 21.3084C44.6395 21.5575 44.7649 21.8461 44.784 22.1522Z" fill="#C67E14"/>
<g opacity="0.5">
<path d="M41.9945 19.5473C41.9559 20.2851 41.2737 20.8491 40.265 20.796C39.2562 20.7429 38.6362 20.1105 38.6747 19.3727C38.7132 18.6349 42.033 18.8095 41.9945 19.5473Z" fill="#C47620"/>
</g>
<path d="M42.042 19.2976C42.0061 19.982 41.2187 20.4971 40.2826 20.448C39.3465 20.399 38.617 19.8044 38.6529 19.12C38.6887 18.4356 39.4749 17.9494 40.411 17.9985C41.347 18.0475 42.0779 18.6132 42.042 19.2976Z" fill="#C67E14"/>
<path d="M41.9069 18.9622C41.8802 19.4717 41.122 19.923 40.3124 19.8805C39.5028 19.8381 38.7957 19.31 38.8224 18.8005C38.8491 18.291 39.6014 17.9561 40.411 17.9986C41.2206 18.041 41.9336 18.4527 41.9069 18.9622Z" fill="#FFD140"/>
<path d="M41.2733 18.4868C41.2591 18.7577 40.8494 18.9916 40.3605 18.9659C39.8716 18.9402 39.4885 18.6646 39.5027 18.3937C39.5168 18.123 39.9203 18.0079 40.4092 18.0336C40.8981 18.0593 41.2874 18.2161 41.2733 18.4868Z" fill="#FFE28F"/>
<path d="M48.8942 6.07471C47.1063 3.30455 44.1009 2.38135 41.233 2.2305C38.365 2.07966 35.4133 2.79664 33.2134 5.24997C28.4523 10.5596 32.4767 18.3546 32.4767 18.3546C31.7307 12.5804 33.8376 9.62111 37.13 9.79427C39.1908 9.90266 39.4707 11.2676 40.7575 11.3353C42.0443 11.403 42.4649 10.0749 44.5257 10.1833C47.9013 10.3608 49.5157 13.5566 48.2622 19.1848C48.2622 19.1848 52.7677 12.077 48.8942 6.07471Z" fill="#E5C84E"/>
<path d="M48.8942 6.07471C47.1063 3.30455 44.1009 2.38135 41.233 2.2305C38.365 2.07966 35.4133 2.79664 33.2134 5.24997C28.4523 10.5596 32.4767 18.3546 32.4767 18.3546C31.7307 12.5804 33.8376 9.62111 37.13 9.79427C39.1908 9.90266 39.4707 11.2676 40.7575 11.3353C42.0443 11.403 42.4649 10.0749 44.5257 10.1833C47.9013 10.3608 49.5157 13.5566 48.2622 19.1848C48.2622 19.1848 52.7677 12.077 48.8942 6.07471Z" stroke="#BC8D24" stroke-width="1.4665" stroke-linecap="round" stroke-linejoin="round"/>
<path d="M41.2139 2.95293C37.3989 2.75228 34.4105 4.43928 34.8956 6.14981C35.3807 7.86034 38.0585 7.85995 39.388 9.05486C40.1986 9.78328 41.5769 9.78922 42.6534 9.00602C43.6018 8.31608 46.9001 7.77182 47.1807 6.53805C47.5559 4.88824 44.827 3.14296 41.2139 2.95293Z" fill="#FFEB97"/>
<path d="M134.377 59.2325C143.385 57.4757 145.098 48.484 145.829 48.2151C146.56 47.9462 153.994 50.162 155.058 53.6526C156.538 58.5054 160.386 60.5708 160.904 63.8289C153.212 72.8382 161.275 73.0278 151.738 79.9457C148.872 82.0249 151.234 88.6105 149.507 89.8236C147.781 91.0367 145.191 88.2638 141.219 94.5892C137.247 100.915 134.83 102.214 128.7 101.608C122.569 101.002 121.842 108.685 118.288 107.807C105.463 104.638 108.486 109.948 102.213 106.807C99.7417 105.569 98.7182 101.112 91.7462 102.474C83.3167 104.121 84.7112 95.2045 77.0046 93.5104C69.2979 91.8166 117.505 62.5234 134.377 59.2325Z" fill="#380005"/>
<path d="M134.377 59.2325C143.385 57.4757 145.098 48.484 145.829 48.2151C146.56 47.9462 153.994 50.162 155.058 53.6526C156.538 58.5054 160.386 60.5708 160.904 63.8289C153.212 72.8382 161.275 73.0278 151.738 79.9457C148.872 82.0249 151.234 88.6105 149.507 89.8236C147.781 91.0367 145.191 88.2638 141.219 94.5892C137.247 100.915 134.83 102.214 128.7 101.608C122.569 101.002 121.842 108.685 118.288 107.807C105.463 104.638 108.486 109.948 102.213 106.807C99.7417 105.569 98.7182 101.112 91.7462 102.474C83.3167 104.121 84.7112 95.2045 77.0046 93.5104C69.2979 91.8166 117.505 62.5234 134.377 59.2325Z" stroke="#240005" stroke-width="1.48162" stroke-linecap="round" stroke-linejoin="round"/>
<g opacity="0.5">
<path d="M114.53 97.0311C114.53 97.0311 110.76 90.4762 110.598 82.3135" stroke="#65010A" stroke-width="1.48162" stroke-linecap="round" stroke-linejoin="round"/>
</g>
<g opacity="0.5">
<path d="M90.7788 96.1671C90.7788 96.1671 96.6727 92.8366 96.8127 86.2314" stroke="#65010A" stroke-width="1.48162" stroke-linecap="round" stroke-linejoin="round"/>
</g>
<g opacity="0.5">
<path d="M148.243 71.165C137.606 75.3056 126.228 71.9152 126.228 71.9152" stroke="#65010A" stroke-width="1.48162" stroke-linecap="round" stroke-linejoin="round"/>
</g>
<g opacity="0.5">
<path d="M151.62 76.9063C135.889 80.9305 124.169 73.9084 124.169 73.9084" stroke="#65010A" stroke-width="1.48162" stroke-linecap="round" stroke-linejoin="round"/>
</g>
<path d="M149.691 83.4531C143.825 85.6089 131.832 82.9778 131.832 82.9778C133.483 84.1859 145.748 91.5165 149.191 89.0497C149.191 89.0497 149.707 87.8105 149.691 83.4531Z" fill="#65010A"/>
<path d="M158.349 60.7566C151.574 72.9013 139.365 73.6743 139.365 73.6743C152.463 72.9685 159.769 63.8544 159.769 63.2658C159.768 62.0529 158.349 60.7566 158.349 60.7566Z" fill="#65010A"/>
<path d="M154.603 55.4423C154.603 55.4423 147.353 68.4128 130.198 69.0586C142.314 62.9759 146.187 48.9851 146.187 48.9851C146.187 48.9851 153.842 50.2242 154.603 55.4423Z" fill="#8C000E"/>
<path d="M94.0092 22.781C84.2271 27.4039 78.6582 23.3126 77.5129 17.6201C77.5129 17.6201 75.1818 20.0371 76.2483 25.3455C76.2483 25.3455 74.8768 24.9192 74.115 23.6194C74.115 23.6194 73.4446 29.1532 76.7429 32.5132C76.7429 32.5132 74.4684 32.7642 72.9897 31.4082C72.9897 31.4082 74.0133 40.4375 82.2022 43.8624C90.3911 47.2873 110.471 40.8236 110.051 26.4331" fill="#FFD140"/>
<path d="M94.0092 22.781C84.2271 27.4039 78.6582 23.3126 77.5129 17.6201C77.5129 17.6201 75.1818 20.0371 76.2483 25.3455C76.2483 25.3455 74.8768 24.9192 74.115 23.6194C74.115 23.6194 73.4446 29.1532 76.7429 32.5132C76.7429 32.5132 74.4684 32.7642 72.9897 31.4082C72.9897 31.4082 74.0133 40.4375 82.2022 43.8624C90.3911 47.2873 110.471 40.8236 110.051 26.4331" stroke="#B96000" stroke-width="1.48162" stroke-linecap="round" stroke-linejoin="round"/>
<g opacity="0.5">
<path d="M109.884 26.743C108.495 41.6911 89.6375 46.734 81.8605 42.9753C73.8661 39.1118 74.0202 32.8766 74.0202 32.8766C75.3579 33.4756 77.5082 32.7217 77.5082 32.7217C74.2568 30.0371 74.8228 25.1941 74.8228 25.1941C75.3579 25.917 76.716 25.7312 76.716 25.7312C76.4486 21.7455 77.0042 19.9074 77.2793 19.3889C76.4854 25.1703 83.9187 36.7396 99.3458 25.8283C102.565 25.9292 109.884 26.743 109.884 26.743Z" fill="#D65A05"/>
</g>
<path d="M128.618 79.4187C129.325 82.1172 128.871 97.5845 131.399 108.246L124.582 109.331C124.675 105.035 122.987 101.271 121.283 95.1623C119.578 89.0533 121.472 83.2416 121.472 83.2416" fill="#FFD140"/>
<path d="M128.618 79.4187C129.325 82.1172 128.871 97.5845 131.399 108.246L124.582 109.331C124.675 105.035 122.987 101.271 121.283 95.1623C119.578 89.0533 121.472 83.2416 121.472 83.2416" stroke="#C47620" stroke-width="1.48162" stroke-linecap="round" stroke-linejoin="round"/>
<path d="M128.157 83.2656C126.283 81.4225 122.105 86.0459 123.946 97.2472C125.058 104.012 125.242 105.902 125.168 106.942C124.172 99.8332 119.132 91.9306 122.152 83.1018C122.702 81.4949 129.148 73.8496 128.157 83.2656Z" fill="#E5A930"/>
<path d="M121.472 83.2417C114.637 81.0586 105.337 76.6248 105.337 76.6248L108.243 67.1685C108.243 67.1685 127.271 73.8767 128.618 79.4188" fill="#E5A930"/>
<path d="M121.472 83.2417C114.637 81.0586 105.337 76.6248 105.337 76.6248L108.243 67.1685C108.243 67.1685 127.271 73.8767 128.618 79.4188" stroke="#B76413" stroke-width="1.48162" stroke-linecap="round" stroke-linejoin="round"/>
<path d="M131.263 107.227C131.999 109.124 135.074 117.531 137.88 117.697C139.973 117.82 141.755 118.332 142.504 120.481C143.064 122.089 134.585 121.974 134.219 121.49C131.813 118.307 124.236 111.646 124.514 108.394" fill="#FFD140"/>
<path d="M131.263 107.227C131.999 109.124 135.074 117.531 137.88 117.697C139.973 117.82 141.755 118.332 142.504 120.481C143.064 122.089 134.585 121.974 134.219 121.49C131.813 118.307 124.236 111.646 124.514 108.394" stroke="#C47620" stroke-width="1.48162" stroke-linecap="round" stroke-linejoin="round"/>
<path d="M124.487 108.667C121.068 112.326 125.54 117.305 126.293 121.502C127.496 118.793 128.707 110.871 124.487 108.667Z" fill="#B70023"/>
<path d="M133.255 109.999C133.255 109.999 132.735 112.359 127.762 112.715" stroke="#81000D" stroke-width="1.48162" stroke-linecap="round" stroke-linejoin="round"/>
<path d="M136.53 117C136.53 117 136.994 118.806 135.929 121.655" stroke="#81000D" stroke-width="1.48162" stroke-linecap="round" stroke-linejoin="round"/>
<path d="M138.448 117.437C138.448 117.437 139.193 119.554 138.448 121.655" stroke="#81000D" stroke-width="1.48162" stroke-linecap="round" stroke-linejoin="round"/>
<path d="M140.262 117.757C140.262 117.757 141.218 119.036 140.812 121.655" stroke="#81000D" stroke-width="1.48162" stroke-linecap="round" stroke-linejoin="round"/>
<path d="M142.942 121.655L134.93 121.798C133.454 121.794 130.607 116.108 128.618 115.985C126.441 115.85 126.662 122.084 126.662 122.084H125.852C125.852 122.084 125.856 117.885 124.863 116.392C124.209 115.409 121.173 112.512 124.487 108.667C124.487 108.667 128.256 110.726 127.954 115.947" stroke="#81000D" stroke-width="1.48162" stroke-linecap="round" stroke-linejoin="round"/>
<path d="M110.111 94.3142C108.234 96.672 94.8164 102.868 89.9473 108.979C88.139 109.253 82.3315 107.987 82.3315 107.987C88.8951 104.575 91.6667 92.3733 103.658 91.0747" fill="#E5A930"/>
<path d="M110.111 94.3142C108.234 96.672 94.8164 102.868 89.9473 108.979C88.139 109.253 82.3315 107.987 82.3315 107.987C88.8951 104.575 91.6667 92.3733 103.658 91.0747" stroke="#B76413" stroke-width="1.48162" stroke-linecap="round" stroke-linejoin="round"/>
<path d="M83.0952 107.225C83.3518 111.623 89.4938 116.618 92.1321 119.646C93.2608 119.702 99.2335 119.738 98.9199 118.437C98.7522 116.292 96.6034 115.892 94.7469 115.767C92.36 115.606 90.8458 109.53 90.5342 108.121" fill="#E5A930"/>
<path d="M83.0952 107.225C83.3518 111.623 89.4938 116.618 92.1321 119.646C93.2608 119.702 99.2335 119.738 98.9199 118.437C98.7522 116.292 96.6034 115.892 94.7469 115.767C92.36 115.606 90.8458 109.53 90.5342 108.121" stroke="#B76413" stroke-width="1.48162" stroke-linecap="round" stroke-linejoin="round"/>
<path d="M82.8747 107.225C78.8479 111.56 84.1706 113.805 84.4842 119.917C84.4857 114.627 88.675 110.928 82.8747 107.225Z" fill="#B70023"/>
<path d="M91.2927 109.77C91.2927 109.77 89.5375 110.991 85.3877 110.413" stroke="#81000D" stroke-width="1.48162" stroke-linecap="round" stroke-linejoin="round"/>
<path d="M93.5492 115.107C93.5492 115.107 93.9606 116.816 93.0171 119.511" stroke="#81000D" stroke-width="1.48162" stroke-linecap="round" stroke-linejoin="round"/>
<path d="M95.3806 115.578C95.3806 115.578 95.911 117.524 95.2505 119.511" stroke="#81000D" stroke-width="1.48162" stroke-linecap="round" stroke-linejoin="round"/>
<path d="M97.1748 116.011C97.1748 116.011 97.9894 117.669 97.3457 119.511" stroke="#81000D" stroke-width="1.48162" stroke-linecap="round" stroke-linejoin="round"/>
<path d="M99.2336 119.511L92.1322 119.646C90.8232 119.643 88.2926 114.364 86.5368 114.147C84.2655 113.868 84.8029 119.917 84.8029 119.917H84.085C84.085 119.917 84.088 115.945 83.2076 114.532C82.6283 113.603 79.9375 110.863 82.8748 107.225C82.8748 107.225 86.2153 109.173 85.9479 114.112" stroke="#81000D" stroke-width="1.48162" stroke-linecap="round" stroke-linejoin="round"/>
<path d="M110.111 94.3143C111.941 92.4492 112.508 79.0383 112.446 75.3059H103.243C101.306 86.0554 104.023 92.013 104.023 92.013" fill="#E5A930"/>
<path d="M110.111 94.3143C111.941 92.4492 112.508 79.0383 112.446 75.3059H103.243C101.306 86.0554 104.023 92.013 104.023 92.013" stroke="#B76413" stroke-width="1.48162" stroke-linecap="round" stroke-linejoin="round"/>
<path d="M121.948 43.5397C120.049 43.8764 109.201 39.2194 109.201 39.2194L106.71 31.6318C109.872 31.8085 119.776 37.3929 119.776 37.3929" fill="#FFD140"/>
<path d="M121.948 43.5397C120.049 43.8764 109.201 39.2194 109.201 39.2194L106.71 31.6318C109.872 31.8085 119.776 37.3929 119.776 37.3929" stroke="#B76413" stroke-width="1.48162" stroke-linecap="round" stroke-linejoin="round"/>
<g opacity="0.4">
<path d="M108.853 38.0809C108.102 37.2271 106.334 31.3954 108.512 32.5086C111.342 33.9549 114.209 35.4478 114.593 35.684C113.904 36.6596 113.762 39.0625 115.817 41.0904C114.91 40.8275 109.424 38.7255 108.853 38.0809Z" fill="#C47620"/>
</g>
<path d="M121.948 43.5395C124.28 43.2649 129.369 27.5315 128.763 23.0298L125.339 23.9663C125.339 23.9663 123.282 31.4081 119.776 37.3928" fill="#FFD140"/>
<path d="M121.948 43.5395C124.28 43.2649 129.369 27.5315 128.763 23.0298L125.339 23.9663C125.339 23.9663 123.282 31.4081 119.776 37.3928" stroke="#C47620" stroke-width="1.48162" stroke-linecap="round" stroke-linejoin="round"/>
<path d="M128.812 23.9962C129.108 20.9695 126.587 19.4548 126.534 19.1971C126.481 18.9394 126.726 17.7027 127.588 16.0619C128.626 14.0873 127.711 13.6045 126.691 15.1041C126.691 15.1041 127.576 12.521 126.716 12.2407C125.399 11.8118 124.438 15.6661 124.438 15.6661C124.793 14.0431 125.036 12.9562 125.036 12.2975C125.036 11.4296 123.612 10.8933 123.101 12.2717C120.503 19.2804 122.122 19.6268 122.122 19.6268C122.122 19.6268 120.802 21.7566 125.194 25.0288" fill="#FFD140"/>
<path d="M128.812 23.9962C129.108 20.9695 126.587 19.4548 126.534 19.1971C126.481 18.9394 126.726 17.7027 127.588 16.0619C128.626 14.0873 127.711 13.6045 126.691 15.1041C126.691 15.1041 127.576 12.521 126.716 12.2407C125.399 11.8118 124.438 15.6661 124.438 15.6661C124.793 14.0431 125.036 12.9562 125.036 12.2975C125.036 11.4296 123.612 10.8933 123.101 12.2717C120.503 19.2804 122.122 19.6268 122.122 19.6268C122.122 19.6268 120.802 21.7566 125.194 25.0288" stroke="#C47620" stroke-width="1.48162" stroke-linecap="round" stroke-linejoin="round"/>
<path d="M124.672 19.6904C124.672 19.6904 126.295 16.6035 124.914 16.1004C123.702 15.6591 122.079 19.1372 121.906 20.5364" fill="#FFD140"/>
<path d="M124.672 19.6904C124.672 19.6904 126.295 16.6035 124.914 16.1004C123.702 15.6591 122.079 19.1372 121.906 20.5364" stroke="#C47620" stroke-width="1.48162" stroke-linecap="round" stroke-linejoin="round"/>
<path d="M104.946 27.4728C104.946 27.4728 104.368 30.3232 106.038 32.5132C119.069 57.2227 91.3257 36.9898 95.8137 32.5759C98.9486 29.4928 99.6864 22.781 99.6864 22.781L104.946 27.4728Z" fill="#FFD140"/>
<path d="M104.946 27.4728C104.946 27.4728 104.368 30.3232 106.038 32.5132C119.069 57.2227 91.3257 36.9898 95.8137 32.5759C98.9486 29.4928 99.6864 22.781 99.6864 22.781L104.946 27.4728Z" stroke="#B76413" stroke-width="1.48162" stroke-linecap="round" stroke-linejoin="round"/>
<path d="M104.236 30.5418C101.728 28.3305 99.5514 29.2856 98.353 30.2011C98.9146 28.7015 99.5941 27.4339 99.5321 26.3291C99.4218 24.357 101.583 25.5995 104.075 27.7491C104.431 28.0562 103.899 28.9139 104.236 30.5418Z" fill="#E5A930"/>
<path d="M95.9265 56.7294C96.1213 49.7493 98.0659 37.5941 95.6274 32.5131C98.0351 32.1019 103.214 41.6653 106.267 41.2364C109.321 40.8074 105.727 31.7285 106.65 31.3054C109.306 38.1304 118.566 44.9579 111.027 48.273C111.027 48.273 110.895 53.7977 111.472 57.6793C109.558 58.5504 104.077 60.8262 95.9265 56.7294Z" fill="#D8002F"/>
<path d="M111.561 57.9422C111.561 57.9422 104.085 59.7934 102.655 58.1756C101.736 56.484 99.0861 51.6924 107.16 49.5207C105.001 49.7955 98.8365 49.2159 99.7353 42.8407C100.733 35.7622 95.8142 32.5759 95.8142 32.5759C100.628 43.5393 94.3906 47.4928 94.3906 47.4928C94.3906 47.4928 95.1949 53.4613 96.1913 56.1938C96.2822 56.4431 101.06 68.4107 114.391 64.6343C114.391 64.6343 112.096 58.7513 111.561 57.9422Z" fill="#AD0025"/>
<path d="M95.3799 49.2785C95.3799 49.2785 104.696 50.7617 111.09 48.4629" stroke="#8E0022" stroke-width="1.48162" stroke-linecap="round" stroke-linejoin="round"/>
<g opacity="0.7">
<path d="M111.09 48.4625C111.09 48.4625 110.834 53.0729 111.409 57.6254L109.458 58.2179C109.036 55.0369 109.12 50.4829 109.231 49.1179C109.415 46.8578 114.329 45.8251 111.153 41.7817C107.534 37.1752 106.366 31.8096 106.212 31.5608C106.212 31.5608 108.246 35.3019 110.093 37.3923C118.088 46.4449 111.09 48.4625 111.09 48.4625Z" fill="#FF7D9F"/>
</g>
<path d="M101.783 58.6526C103.849 59.6397 106.171 64.1408 110.112 65.1202" stroke="#720011" stroke-width="1.48162" stroke-linecap="round" stroke-linejoin="round"/>
<path d="M111.408 57.6246C101.935 60.3839 95.9263 56.7295 95.9263 56.7295" stroke="#8E0022" stroke-width="1.48162" stroke-linecap="round" stroke-linejoin="round"/>
<path d="M95.9263 56.7295C94.4388 49.7627 94.3131 40.2166 93.4204 32.8395C93.4204 32.8395 95.8149 32.4026 96.8765 32.7069C97.9381 33.0112 103.214 41.6654 106.267 41.2364C109.32 40.8075 106.18 32.5049 105.611 31.5855C105.611 31.5855 106.137 31.5062 106.71 31.6316C106.71 31.6316 108.424 34.9891 109.846 37.3927C110.843 39.0772 114.391 41.3549 113.939 44.8893C113.611 47.4553 111.09 48.4629 111.09 48.4629C111.09 48.4629 110.833 53.0734 111.408 57.6246C111.408 57.6246 112.518 59.5385 114.391 64.6342" stroke="#720011" stroke-width="1.48162" stroke-linecap="round" stroke-linejoin="round"/>
<path d="M104.192 28.7127C105.547 29.1206 107.75 28.8416 109.032 28.4594C110.222 28.1051 110.698 27.5591 110.614 26.601C110.454 24.7981 111.285 23.5828 111.285 23.5828C112.419 23.4019 113.621 21.9462 111.274 20.8174C111.381 15.8389 110.183 13.8558 110.183 13.8558C110.183 13.8558 93.746 11.9573 96.5499 24.7478" fill="#FFD140"/>
<path d="M104.192 28.7127C105.547 29.1206 107.75 28.8416 109.032 28.4594C110.222 28.1051 110.698 27.5591 110.614 26.601C110.454 24.7981 111.285 23.5828 111.285 23.5828C112.419 23.4019 113.621 21.9462 111.274 20.8174C111.381 15.8389 110.183 13.8558 110.183 13.8558C110.183 13.8558 93.746 11.9573 96.5499 24.7478" stroke="#C47620" stroke-width="1.48162" stroke-linecap="round" stroke-linejoin="round"/>
<path d="M96.4708 21.3528L104.227 21.7612C102.818 24.1705 106.986 29.2625 109.849 27.0373C104.045 31.3975 95.6355 25.0756 96.4708 21.3528Z" fill="#E5A930"/>
<path d="M95.9264 56.7295C95.9264 56.7295 92.1083 60.1308 92.2868 65.77C86.2497 79.9818 65.4619 76.3151 60.2325 71.3904C58.0933 76.9267 42.7833 85.8763 56.9421 91.3633C56.9421 91.3633 60.9971 85.0979 66.0158 92.8083C69.224 97.7372 76.1355 94.0397 76.1355 94.0397C80.7502 90.7006 84.6582 96.7313 88.0551 93.8712C90.3726 91.9199 90.1644 83.5063 95.8649 84.8535C100.862 86.0344 104.514 89.1517 107.37 85.6963C110.225 82.241 110.897 77.7742 118.707 76.0043C120.066 75.6963 126.98 74.5412 127.55 64.2828C127.605 63.2921 127.952 61.8378 129.019 60.629C126.921 60.9115 121.571 63.5609 115.49 64.5872C109.163 65.6553 102.045 64.9658 96.9818 58.0241" fill="#B70023"/>
<path d="M95.9264 56.7295C95.9264 56.7295 92.1083 60.1308 92.2868 65.77C86.2497 79.9818 65.4619 76.3151 60.2325 71.3904C58.0933 76.9267 42.7833 85.8763 56.9421 91.3633C56.9421 91.3633 60.9971 85.0979 66.0158 92.8083C69.224 97.7372 76.1355 94.0397 76.1355 94.0397C80.7502 90.7006 84.6582 96.7313 88.0551 93.8712C90.3726 91.9199 90.1644 83.5063 95.8649 84.8535C100.862 86.0344 104.514 89.1517 107.37 85.6963C110.225 82.241 110.897 77.7742 118.707 76.0043C120.066 75.6963 126.98 74.5412 127.55 64.2828C127.605 63.2921 127.952 61.8378 129.019 60.629C126.921 60.9115 121.571 63.5609 115.49 64.5872C109.163 65.6553 102.045 64.9658 96.9818 58.0241" stroke="#720011" stroke-width="1.48162" stroke-linecap="round" stroke-linejoin="round"/>
<path d="M76.5396 76.696C72.3281 77.3267 68.4855 80.5509 56.7175 77.3951C55.6031 78.8439 49.6502 84.1228 53.4814 87.1221C61.493 80.9935 68.1074 84.4707 76.5396 76.696Z" fill="#FF1245"/>
<path d="M66.1248 91.8232C70.7531 86.5253 76.4855 84.028 76.1689 83.229C72.7375 83.5854 63.9051 86.4447 61.5693 88.2281C61.5693 88.2281 63.9812 88.8327 66.1248 91.8232Z" fill="#FF1245"/>
<path d="M83.5777 93.442C79.8872 87.0943 89.8402 81.183 88.4186 73.054C85.1786 81.752 76.4225 84.0912 75.981 92.9951C76.7514 92.6705 79.2573 91.2983 83.5777 93.442Z" fill="#FF1245"/>
<path d="M100.704 85.5138C96.14 79.6028 99.1005 71.1945 93.4014 65.5974C94.628 74.3554 92.8641 75.7464 90.4414 86.6687C92.9271 81.4994 98.1241 84.5022 100.704 85.5138Z" fill="#FF1245"/>
<path d="M94.3569 60.8389C95.3207 72.7117 103.571 78.5103 103.571 78.5103" stroke="#8E0022" stroke-width="1.48162" stroke-linecap="round" stroke-linejoin="round"/>
<path d="M114.627 76.5239C111.006 75.6828 109.053 74.9242 106.816 73.6876C104.263 72.276 99.6671 69.9931 94.9995 62.635C95.1637 63.2508 95.3689 63.9723 95.626 64.7678C96.5303 67.5659 98.0778 71.2803 100.748 74.5403C102.881 77.1445 105.731 79.4589 109.542 80.785C110.502 79.6026 112.171 77.5794 114.627 76.5239Z" fill="#FF1245"/>
<path d="M126.181 62.0645C123.371 63.1812 117.872 65.4401 112.058 65.7253C106.543 65.996 100.744 64.4912 96.6876 58.5531C96.1591 58.4448 97.0333 61.7324 100.693 64.1968C104.829 66.982 112.523 68.7158 125.771 63.3059C127.59 62.5631 126.755 62.1225 126.181 62.0645Z" fill="#FF1245"/>
<path d="M125.853 68.2428C111.258 72.5536 103.255 67.0686 103.255 67.0686C105.854 71.1728 114.446 74.3927 117.513 75.2665C117.434 75.3461 124.739 74.1972 125.853 68.2428Z" fill="#FF1245"/>
<path d="M103.47 68.4387C105.778 71.0679 111.825 74.7978 116.225 75.3168" stroke="#8E0022" stroke-width="1.48162" stroke-linecap="round" stroke-linejoin="round"/>
<path d="M61.1133 77.7045C65.7767 78.5278 69.2414 78.1484 74.4666 76.6389" stroke="#8E0022" stroke-width="1.48162" stroke-linecap="round" stroke-linejoin="round"/>
<path d="M92.9898 67.9502C93.9351 73.4699 90.3441 81.8153 89.8579 86.8959" stroke="#8E0022" stroke-width="1.48162" stroke-linecap="round" stroke-linejoin="round"/>
<path d="M75.1011 92.961C75.5406 89.465 76.7304 86.0014 79.826 83.5222" stroke="#8E0022" stroke-width="1.48162" stroke-linecap="round" stroke-linejoin="round"/>
<g opacity="0.7">
<path d="M125.923 68.2623C124.701 72.1487 122.723 74.0708 119.122 75.0236C111.731 76.9158 110.974 78.9073 108.856 82.4828C106.92 85.7501 105.746 87.094 102.984 86.1704C106.061 85.735 107.415 82.321 108.391 80.6212C110.6 76.7715 114.024 74.9999 119.078 73.6725C123.7 72.4587 124.113 69.7949 124.548 68.672C125.211 66.9585 125.873 65.3782 125.864 62.5897C126.597 62.1223 126.503 62.2804 127.125 62.1062C127.164 64.7457 126.66 65.9155 125.923 68.2623Z" fill="#FF7D9F"/>
</g>
<path d="M80.5901 47.9395C80.9289 46.4595 88.012 42.174 89.7078 42.2577C91.0029 42.3217 93.1115 46.206 95.0268 48.2151C99.7598 43.1967 99.4242 34.5183 95.0268 32.7131C92.4073 31.8525 88.2523 33.8829 84.3917 36.6451C79.5965 40.0757 75.2548 44.6351 74.8716 46.1852" fill="#FFD140"/>
<path d="M80.5901 47.9395C80.9289 46.4595 88.012 42.174 89.7078 42.2577C91.0029 42.3217 93.1115 46.206 95.0268 48.2151C99.7598 43.1967 99.4242 34.5183 95.0268 32.7131C92.4073 31.8525 88.2523 33.8829 84.3917 36.6451C79.5965 40.0757 75.2548 44.6351 74.8716 46.1852" stroke="#B76413" stroke-width="1.48162" stroke-linecap="round" stroke-linejoin="round"/>
<g opacity="0.4">
<path d="M90.3579 41.7864C90.3579 41.7864 96.918 44.4544 96.2224 33.6497C96.2224 33.6497 99.3313 38.4938 96.918 44.4544C94.665 50.0195 94.2844 46.1969 90.3579 41.7864Z" fill="#C47620"/>
</g>
<path d="M95.0264 48.2153C99.7594 43.197 99.4238 34.5185 95.0264 32.7134" stroke="#720011" stroke-width="1.48162" stroke-linecap="round" stroke-linejoin="round"/>
<path d="M74.8715 46.1221C74.0991 48.4434 77.6935 61.8253 77.6935 61.8253L80.75 62.0741C81.7916 60.4712 80.2041 48.3619 80.653 47.7183" fill="#FFD140"/>
<path d="M74.8715 46.1221C74.0991 48.4434 77.6935 61.8253 77.6935 61.8253L80.75 62.0741C81.7916 60.4712 80.2041 48.3619 80.653 47.7183" stroke="#C47620" stroke-width="1.48162" stroke-linecap="round" stroke-linejoin="round"/>
<path d="M77.4708 60.7998C77.4708 60.7998 77.0935 60.8637 76.5477 61.1002C76.285 61.2139 75.9835 61.3673 75.6662 61.573C75.3656 61.7678 75.051 62.0092 74.7424 62.3073C74.0895 62.938 72.3604 65.0286 71.5283 65.0653C70.2815 65.1203 68.7097 65.327 68.6371 66.0184C68.5462 66.8858 71.104 67.0662 72.3765 67.1024C72.7953 67.1143 73.0751 67.1106 73.0751 67.1106L71.3682 67.0491C71.3682 67.0491 68.4939 69.1581 69.0693 69.8222C69.3769 70.1774 70.6185 69.8763 72.1918 69.1759C72.6207 68.9851 73.0738 68.7645 73.5398 68.5194C73.9964 68.2793 74.4648 68.0159 74.9337 67.7336C77.952 65.9176 80.9903 63.3313 80.9903 61.2798" fill="#FFD140"/>
<path d="M77.4708 60.7998C77.4708 60.7998 77.0935 60.8637 76.5477 61.1002C76.285 61.2139 75.9835 61.3673 75.6662 61.573C75.3656 61.7678 75.051 62.0092 74.7424 62.3073C74.0895 62.938 72.3604 65.0286 71.5283 65.0653C70.2815 65.1203 68.7097 65.327 68.6371 66.0184C68.5462 66.8858 71.104 67.0662 72.3765 67.1024C72.7953 67.1143 73.0751 67.1106 73.0751 67.1106L71.3682 67.0491C71.3682 67.0491 68.4939 69.1581 69.0693 69.8222C69.3769 70.1774 70.6185 69.8763 72.1918 69.1759C72.6207 68.9851 73.0738 68.7645 73.5398 68.5194C73.9964 68.2793 74.4648 68.0159 74.9337 67.7336C77.952 65.9176 80.9903 63.3313 80.9903 61.2798" stroke="#C47620" stroke-width="1.48162" stroke-linecap="round" stroke-linejoin="round"/>
<path d="M111.508 25.2854C111.337 25.1924 111.765 24.7258 111.52 24.5265C111.423 24.4416 111.396 24.4089 111.198 24.4183C111 24.4277 111.036 24.416 110.396 24.5066C109.803 24.5903 108.853 24.5296 108.854 24.7159C108.857 25.0151 109.652 26.1065 111.193 26.0969C111.77 26.0544 111.679 25.3785 111.508 25.2854Z" fill="#75370D"/>
<path d="M111.64 24.8249C111.083 25.9601 108.713 24.6034 108.713 24.6034C109.132 24.6517 109.714 24.5826 110.348 24.5017C110.935 24.4269 110.952 24.4147 111.151 24.4054C111.348 24.396 111.391 24.4289 111.534 24.504C111.62 24.6378 111.629 24.6739 111.64 24.8249Z" fill="#512508"/>
<path d="M106.711 18.1494C106.711 18.1494 103.856 24.391 96.2851 27.3176C88.9165 30.1658 79.0685 27.3198 84.1677 20.8452C84.6119 22.0724 84.8401 24.4421 88.4271 24.2171L86.8326 23.5531C90.7298 21.353 89.3716 12.2453 95.0267 7.94288C97.2121 6.28024 102.375 5.19776 106.711 6.7511C112.478 8.81769 111.369 12.4795 111.369 12.4795L106.711 18.1494Z" fill="#FFD140"/>
<path d="M106.711 18.1494C106.711 18.1494 103.856 24.391 96.2851 27.3176C88.9165 30.1658 79.0685 27.3198 84.1677 20.8452C84.6119 22.0724 84.8401 24.4421 88.4271 24.2171L86.8326 23.5531C90.7298 21.353 89.3716 12.2453 95.0267 7.94288C97.2121 6.28024 102.375 5.19776 106.711 6.7511C112.478 8.81769 111.369 12.4795 111.369 12.4795L106.711 18.1494Z" stroke="#B96000" stroke-width="1.48162" stroke-linecap="round" stroke-linejoin="round"/>
<g opacity="0.4">
<path d="M83.5698 24.6503C83.5698 24.6503 87.3475 27.8791 93.7999 25.6316C98.9937 23.8225 100.844 19.4998 98.745 19.1372L105.381 17.9197C105.381 17.9197 105.667 22.8627 96.3989 26.6707C86.9773 30.5417 83.5698 24.6503 83.5698 24.6503Z" fill="#E84B05"/>
</g>
<path d="M105.466 8.62726C104.906 6.74208 101.294 6.5416 97.82 7.4682C94.5525 8.33979 92.3089 12.0338 92.7874 13.6496C93.2798 15.312 96.2601 14.0199 99.7207 12.5401C102.598 11.3094 105.927 10.1811 105.466 8.62726Z" fill="#FFE28F"/>
<path d="M108.215 20.987C108.215 20.987 108.381 19.0735 109.598 18.0659C110.849 17.031 111.778 21.2826 109.916 21.6878C109.106 21.8642 108.215 20.987 108.215 20.987Z" fill="#FFFFFC"/>
<path d="M110.95 19.4175C111.321 21.6776 109.254 22.6186 109.095 19.8504C108.943 17.2203 110.626 17.4428 110.95 19.4175Z" fill="url(#paint2_linear_288_3317)"/>
<path d="M110.784 19.9492C110.77 20.3732 110.709 20.6607 110.497 20.9697" stroke="#D39636" stroke-width="0.370404" stroke-linecap="round" stroke-linejoin="round"/>
<path d="M110.799 19.7218C110.809 20.9505 109.762 21.53 109.682 19.7642C109.604 18.0344 110.784 17.8786 110.799 19.7218Z" fill="#16130C"/>
<path d="M109.69 19.3409C109.36 19.3461 109.312 18.8294 109.636 18.8175C110.093 18.8009 110.022 19.3357 109.69 19.3409Z" fill="#F2F2F2"/>
<path d="M110.334 17.8608C109.274 18.0026 108.531 18.8638 108.111 20.6439" stroke="#2B0A06" stroke-width="0.493872" stroke-linecap="round" stroke-linejoin="round"/>
<path d="M113.005 12.0509C112.738 10.3843 110.818 10.1979 109.875 11.1944C103.888 17.5208 95.5288 18.1495 95.5288 18.1495C95.5288 18.1495 100.156 19.827 104.39 19.0962C109.875 18.1495 113.422 14.6525 113.005 12.0509Z" fill="#FFD140"/>
<path d="M113.005 12.0509C112.738 10.3843 110.818 10.1979 109.875 11.1944C103.888 17.5208 95.5288 18.1495 95.5288 18.1495C95.5288 18.1495 100.156 19.827 104.39 19.0962C109.875 18.1495 113.422 14.6525 113.005 12.0509Z" stroke="#B96000" stroke-width="1.48162" stroke-linecap="round" stroke-linejoin="round"/>
<g opacity="0.4">
<path d="M111.661 10.9976C111.661 10.9976 110.934 17.7772 101.292 18.823C103.018 18.8017 104.968 18.5717 106.899 17.9197C112.868 15.9044 113.038 11.717 111.661 10.9976Z" fill="#E84B05"/>
</g>
<defs>
<linearGradient id="paint0_linear_288_3317" x1="44.0371" y1="15.1087" x2="45.252" y2="16.8815" gradientUnits="userSpaceOnUse">
<stop stop-color="#370A00"/>
<stop offset="0.38" stop-color="#683002"/>
<stop offset="1" stop-color="#995704"/>
</linearGradient>
<linearGradient id="paint1_linear_288_3317" x1="35.9045" y1="14.3763" x2="37.16" y2="16.3285" gradientUnits="userSpaceOnUse">
<stop stop-color="#370A00"/>
<stop offset="0.38" stop-color="#683002"/>
<stop offset="1" stop-color="#995704"/>
</linearGradient>
<linearGradient id="paint2_linear_288_3317" x1="-130.478" y1="60.5382" x2="-129.15" y2="61.9733" gradientUnits="userSpaceOnUse">
<stop stop-color="#320D03"/>
<stop offset="0.38" stop-color="#603411"/>
<stop offset="1" stop-color="#8D5A1F"/>
</linearGradient>
</defs>
</svg>
