<svg width="106" height="76" viewBox="0 0 106 76" fill="none" xmlns="http://www.w3.org/2000/svg">
<g filter="url(#filter0_ddddi_509_2914)">
<rect x="3" y="1.6178" width="100" height="64" rx="16" fill="white"/>
<rect x="3.5" y="2.1178" width="99" height="63" rx="15.5" stroke="#F2DDDF" stroke-linecap="round"/>
<path d="M25.9079 20.4934C25.9079 17.7852 28.0849 15.8061 31.0743 15.8061C33.9387 15.8061 36.074 17.6289 36.074 20.0142C36.074 21.7641 35.1366 23.0662 32.9388 25.316L29.1786 29.0971V29.1492H36.3136V31.1178H26.0329V29.5346L31.4597 24.0036C33.2929 22.0975 33.7721 21.3058 33.7721 20.1288C33.7721 18.7955 32.5638 17.7331 31.0014 17.7331C29.3556 17.7331 28.1161 18.9205 28.1161 20.483V20.5142H25.9079V20.4934ZM43.8653 31.399C40.2613 31.399 38.126 28.3784 38.126 23.587C38.126 18.8268 40.2821 15.8061 43.8653 15.8061C47.4588 15.8061 49.5837 18.8164 49.5837 23.5765C49.5837 28.3679 47.4692 31.399 43.8653 31.399ZM43.8653 29.4408C46.011 29.4408 47.2297 27.2222 47.2297 23.587C47.2297 20.0038 45.9901 17.7644 43.8653 17.7644C41.7404 17.7644 40.4904 20.0142 40.4904 23.587C40.4904 27.2118 41.7195 29.4408 43.8653 29.4408ZM57.1562 31.399C53.5522 31.399 51.4169 28.3784 51.4169 23.587C51.4169 18.8268 53.5731 15.8061 57.1562 15.8061C60.7498 15.8061 62.8746 18.8164 62.8746 23.5765C62.8746 28.3679 60.7602 31.399 57.1562 31.399ZM57.1562 29.4408C59.3019 29.4408 60.5206 27.2222 60.5206 23.587C60.5206 20.0038 59.2811 17.7644 57.1562 17.7644C55.0313 17.7644 53.7814 20.0142 53.7814 23.587C53.7814 27.2118 55.0105 29.4408 57.1562 29.4408Z" fill="#F8A93C"/>
<path d="M79.7609 20.9517C79.6077 20.4799 79.2511 20.1773 78.7564 20.0999C78.5305 20.0645 78.3018 20.0334 78.0807 20.0031C78.0153 19.9941 77.9499 19.9853 77.8845 19.9763C77.5749 19.9334 77.2652 19.8907 76.9556 19.848C76.4199 19.7742 75.8841 19.7006 75.3486 19.6257C75.2253 19.6086 75.161 19.5622 75.1112 19.4547C74.9986 19.2123 74.877 18.9726 74.7593 18.7407C74.7082 18.6403 74.6573 18.5399 74.6069 18.4391C74.5045 18.2337 74.4022 18.0284 74.2998 17.8231C74.0684 17.3584 73.8291 16.878 73.591 16.4062C73.3604 15.9494 72.9769 15.704 72.4817 15.6967H72.476H72.4702C71.952 15.7076 71.5543 15.9711 71.3201 16.4583C70.8679 17.4 70.3812 18.4097 69.8324 19.5453C69.7931 19.6268 69.7501 19.648 69.6894 19.6575C68.8864 19.7798 68.0701 19.9053 67.2807 20.0269C66.9337 20.0804 66.5869 20.1338 66.2398 20.1872C65.7883 20.2565 65.421 20.5504 65.2573 20.9735C65.0979 21.3857 65.1682 21.8382 65.4457 22.184C65.7199 22.5263 66.0441 22.8843 66.4364 23.2793C66.6822 23.5267 67.0717 23.8625 67.6166 23.9245C67.6585 23.9292 67.7004 23.9346 67.7423 23.9399C67.8808 23.9577 68.0237 23.976 68.1744 23.976C68.1866 23.976 68.1987 23.976 68.2111 23.9755C68.2806 23.9743 68.3502 23.973 68.4199 23.9719C68.7909 23.9657 69.1742 23.9595 69.555 23.9105C70.098 23.8408 70.6387 23.7554 71.1624 23.6672C70.8701 23.823 70.5831 23.9867 70.303 24.1575C69.5943 24.59 69.058 25.0011 68.6152 25.451C68.1833 25.8902 67.9293 26.3485 67.8382 26.852C67.809 27.0134 67.7767 27.1784 67.7455 27.3378C67.7087 27.5266 67.6705 27.7218 67.6365 27.916C67.6314 27.945 67.626 27.9739 67.6209 28.0029C67.5869 28.1898 67.5521 28.3831 67.5525 28.5878C67.5538 29.2707 68.1115 29.8261 68.7956 29.8261C68.9977 29.8261 69.1926 29.7777 69.3749 29.682C69.5931 29.5674 69.8125 29.4488 70.0249 29.334C70.123 29.281 70.2211 29.228 70.3192 29.1752L70.8921 28.8677C71.4079 28.5908 71.9415 28.3043 72.4659 28.0211C72.4978 28.004 72.5249 27.9956 72.5484 27.9956C72.5719 27.9956 72.5999 28.004 72.6328 28.0213C72.9247 28.175 73.2222 28.3286 73.5098 28.4775C73.6385 28.5438 73.7671 28.6103 73.8955 28.677C74.0853 28.7755 74.2748 28.874 74.4644 28.9724C74.8749 29.1859 75.2995 29.4067 75.7181 29.6221C75.9181 29.7249 76.1207 29.777 76.3207 29.777C76.5744 29.777 76.8165 29.6944 77.0402 29.5316C77.4407 29.24 77.6146 28.8034 77.53 28.302C77.4462 27.8049 77.3552 27.3013 77.2671 26.8143C77.2246 26.5778 77.1819 26.3416 77.1398 26.1052C77.0979 25.8692 77.0565 25.6332 77.015 25.3972C76.9799 25.1972 76.9449 24.997 76.9094 24.7971C76.9028 24.7602 76.9054 24.7469 76.9364 24.7173C76.999 24.6572 77.0588 24.596 77.1165 24.537C77.1556 24.4971 77.1947 24.457 77.2345 24.4177C77.4625 24.1918 77.6909 23.9661 77.9193 23.7406C78.4185 23.2474 78.9346 22.7376 79.4397 22.233C79.7988 21.8744 79.9126 21.4194 79.7609 20.9517ZM65.6953 21.9824C65.25 21.4269 65.5866 20.6131 66.2883 20.5052C67.438 20.3286 68.5877 20.1507 69.7375 19.9757C69.9202 19.9478 70.0433 19.8463 70.1209 19.6858C70.6179 18.657 71.1141 17.628 71.6088 16.5982C71.7836 16.2343 72.0595 16.0273 72.477 16.0183C72.8179 16.0234 73.0737 16.1736 73.247 16.4489H72.3809C71.8407 16.4489 71.3661 17.7799 71.1041 18.4045C70.8423 19.0289 70.3675 20.2614 69.9912 20.3436C69.6147 20.4258 68.5344 20.5573 67.2576 20.7873C65.981 21.0173 65.8827 21.6419 66.0528 22.405C65.9302 22.2669 65.8107 22.1261 65.6953 21.9824Z" fill="#D57805"/>
<path d="M73.2474 16.4487H72.3813C71.8411 16.4487 71.3665 17.7797 71.1045 18.4043C70.8428 19.0287 70.3679 20.2612 69.9916 20.3434C69.6151 20.4256 68.5349 20.5571 67.2581 20.7871C65.9815 21.0171 65.8832 21.6417 66.0533 22.4048C65.9306 22.2667 65.8112 22.1259 65.6958 21.9822C65.2504 21.4267 65.587 20.6129 66.2888 20.505C67.4384 20.3284 68.5881 20.1505 69.738 19.9755C69.9207 19.9476 70.0438 19.8461 70.1213 19.6856C70.6184 18.6568 71.1146 17.6278 71.6093 16.598C71.7841 16.2341 72.0599 16.0271 72.4775 16.0181C72.8183 16.0232 73.0741 16.1734 73.2474 16.4487Z" fill="#FEE495"/>
<path d="M76.7151 24.4843C76.6085 24.5867 76.5681 24.7077 76.5939 24.8531C76.6713 25.2893 76.7469 25.7255 76.8243 26.1617C76.9544 26.8929 77.0905 27.6232 77.2141 28.3557C77.2769 28.7277 77.1606 29.0463 76.8523 29.2707C76.5416 29.4969 76.2048 29.5106 75.8644 29.3355C75.2562 29.0227 74.65 28.7058 74.0429 28.3909C73.6223 28.1729 73.2009 27.9566 72.7817 27.7361C72.6231 27.6526 72.4718 27.6526 72.3141 27.7376C71.5995 28.1235 70.8835 28.5069 70.168 28.8914C69.8543 29.0598 69.5417 29.2311 69.2263 29.3967C68.6141 29.7183 67.8745 29.2802 67.8732 28.587C67.8728 28.3819 67.9164 28.1755 67.9523 27.9719C68.0146 27.6168 68.0894 27.264 68.1535 26.9094C68.2424 26.4181 68.5012 26.025 68.8433 25.677C69.3271 25.1853 69.884 24.7896 70.4697 24.4324C71.1459 24.0198 71.8481 23.6577 72.5752 23.3442C72.7188 23.2822 72.8627 23.2202 73.0063 23.1582C73.0227 23.1511 73.043 23.1472 73.0541 23.135C73.0902 23.0957 73.1232 23.0535 73.1573 23.0123C73.1039 22.9968 73.046 22.9593 72.9979 22.9692C72.5979 23.0526 72.2021 23.1603 71.8 23.2307C71.0403 23.3635 70.2791 23.4929 69.5145 23.5911C69.0823 23.6467 68.6416 23.6448 68.2046 23.6538C68.0211 23.6574 67.8364 23.6255 67.6529 23.6047C67.2475 23.5585 66.9359 23.3262 66.6635 23.052C66.4547 22.8419 66.2498 22.6267 66.053 22.4049C65.8829 21.6417 65.9812 21.0172 67.2578 20.7872C68.5346 20.5572 69.6148 20.4257 69.9913 20.3435C70.3676 20.2613 70.8424 19.0287 71.1042 18.4044C71.3662 17.7798 71.8408 16.4487 72.381 16.4487H73.2471C73.2676 16.4813 73.2871 16.5157 73.3052 16.5517C73.6465 17.2273 73.9824 17.9057 74.3205 18.5831C74.488 18.9186 74.663 19.2506 74.8207 19.5906C74.9201 19.805 75.0821 19.9133 75.3047 19.9444C76.1499 20.0624 76.9955 20.1781 77.841 20.295C78.1297 20.3349 78.4191 20.3727 78.7071 20.4177C79.0826 20.4765 79.3386 20.6889 79.4563 21.0511C79.5747 21.4158 79.4796 21.7391 79.2138 22.0048C78.4819 22.7357 77.7444 23.4607 77.0093 24.1885C76.9106 24.2863 76.8155 24.388 76.7151 24.4843Z" fill="url(#paint0_linear_509_2914)"/>
<path d="M25.5469 47.6539V46.4508H26.7363C27.8027 46.4508 28.5342 45.7809 28.5342 44.8512C28.5342 43.9352 27.9053 43.3268 26.7363 43.3268C25.6699 43.3268 24.959 43.942 24.8701 44.9127H23.4277C23.5439 43.1832 24.8496 42.069 26.8047 42.069C28.6709 42.069 30.0312 43.1285 30.0312 44.6461C30.0312 45.8766 29.2246 46.7584 28.001 46.9772V47.0045C29.4844 47.1071 30.4414 48.0162 30.4414 49.3971C30.4414 51.1198 28.876 52.3024 26.8184 52.3024C24.6924 52.3024 23.3252 51.1334 23.2295 49.4313H24.6992C24.7949 50.3746 25.5742 51.024 26.8184 51.024C28.0215 51.024 28.8828 50.3405 28.8828 49.3766C28.8828 48.3102 28.0762 47.6539 26.7773 47.6539H25.5469ZM44.9131 52.1178H43.5117V44.858H43.4639L40.4902 52.0426H39.3555L36.375 44.858H36.3271V52.1178H34.9326V42.2535H36.7031L39.8955 50.0397H39.9502L43.1357 42.2535H44.9131V52.1178ZM49.6982 45.986C48.666 45.986 47.9414 46.7721 47.8662 47.859H51.4619C51.4277 46.7584 50.7305 45.986 49.6982 45.986ZM51.4551 50.0055H52.8564C52.6514 51.318 51.4072 52.2545 49.7598 52.2545C47.6475 52.2545 46.3691 50.8258 46.3691 48.5563C46.3691 46.3004 47.668 44.7965 49.6982 44.7965C51.6943 44.7965 52.9385 46.2047 52.9385 48.3854V48.8912H47.8594V48.9801C47.8594 50.2311 48.6113 51.0582 49.7939 51.0582C50.6348 51.0582 51.2568 50.6344 51.4551 50.0055ZM60.3418 47.2301H58.9199C58.7285 46.567 58.1816 46.027 57.2656 46.027C56.124 46.027 55.3789 47.0045 55.3789 48.5221C55.3789 50.0807 56.1309 51.0172 57.2793 51.0172C58.1543 51.0172 58.7285 50.5797 58.9336 49.8278H60.3555C60.1436 51.2701 58.9609 52.2545 57.2656 52.2545C55.208 52.2545 53.8818 50.8258 53.8818 48.5221C53.8818 46.2662 55.208 44.7965 57.252 44.7965C59.0293 44.7965 60.1367 45.9039 60.3418 47.2301ZM64.2314 48.5153H65.5371V46.0885H64.2314C63.3906 46.0885 62.8506 46.567 62.8506 47.3463C62.8506 48.0299 63.3975 48.5153 64.2314 48.5153ZM65.5371 52.1178V49.65H64.4434L62.7002 52.1178H61.0322L62.9941 49.3971C61.9961 49.1031 61.3809 48.358 61.3809 47.3531C61.3809 45.8561 62.4746 44.9264 64.1562 44.9264H66.9863V52.1178H65.5371ZM75.7705 54.0045H74.4102V52.1178H68.5723V44.9264H70.042V50.9489H73.1797V44.9264H74.6494V50.9489H75.7705V54.0045ZM79.2979 51.0719C80.3301 51.0719 81.1367 50.361 81.1367 49.4244V48.8571L79.3662 48.9664C78.4844 49.028 77.9854 49.4176 77.9854 50.0328C77.9854 50.6617 78.5049 51.0719 79.2979 51.0719ZM78.8877 52.2408C77.4795 52.2408 76.4951 51.3658 76.4951 50.0739C76.4951 48.816 77.459 48.0436 79.168 47.9479L81.1367 47.8317V47.278C81.1367 46.4781 80.5967 45.9996 79.6943 45.9996C78.8398 45.9996 78.3066 46.4098 78.1768 47.0524H76.7822C76.8643 45.7535 77.9717 44.7965 79.749 44.7965C81.4922 44.7965 82.6064 45.7194 82.6064 47.1617V52.1178H81.1914V50.9352H81.1572C80.7402 51.735 79.8311 52.2408 78.8877 52.2408Z" fill="#ED3144"/>
</g>
<defs>
<filter id="filter0_ddddi_509_2914" x="0" y="-1.3822" width="106" height="77" filterUnits="userSpaceOnUse" color-interpolation-filters="sRGB">
<feFlood flood-opacity="0" result="BackgroundImageFix"/>
<feColorMatrix in="SourceAlpha" type="matrix" values="0 0 0 0 0 0 0 0 0 0 0 0 0 0 0 0 0 0 127 0" result="hardAlpha"/>
<feOffset/>
<feGaussianBlur stdDeviation="0.5"/>
<feColorMatrix type="matrix" values="0 0 0 0 0.788235 0 0 0 0 0.788235 0 0 0 0 0.788235 0 0 0 0.14 0"/>
<feBlend mode="normal" in2="BackgroundImageFix" result="effect1_dropShadow_509_2914"/>
<feColorMatrix in="SourceAlpha" type="matrix" values="0 0 0 0 0 0 0 0 0 0 0 0 0 0 0 0 0 0 127 0" result="hardAlpha"/>
<feOffset dy="2"/>
<feGaussianBlur stdDeviation="1"/>
<feColorMatrix type="matrix" values="0 0 0 0 0.788235 0 0 0 0 0.788235 0 0 0 0 0.788235 0 0 0 0.12 0"/>
<feBlend mode="normal" in2="effect1_dropShadow_509_2914" result="effect2_dropShadow_509_2914"/>
<feColorMatrix in="SourceAlpha" type="matrix" values="0 0 0 0 0 0 0 0 0 0 0 0 0 0 0 0 0 0 127 0" result="hardAlpha"/>
<feOffset dy="4"/>
<feGaussianBlur stdDeviation="1"/>
<feColorMatrix type="matrix" values="0 0 0 0 0.788235 0 0 0 0 0.788235 0 0 0 0 0.788235 0 0 0 0.07 0"/>
<feBlend mode="normal" in2="effect2_dropShadow_509_2914" result="effect3_dropShadow_509_2914"/>
<feColorMatrix in="SourceAlpha" type="matrix" values="0 0 0 0 0 0 0 0 0 0 0 0 0 0 0 0 0 0 127 0" result="hardAlpha"/>
<feOffset dy="7"/>
<feGaussianBlur stdDeviation="1.5"/>
<feColorMatrix type="matrix" values="0 0 0 0 0.786667 0 0 0 0 0.786667 0 0 0 0 0.786667 0 0 0 0.02 0"/>
<feBlend mode="normal" in2="effect3_dropShadow_509_2914" result="effect4_dropShadow_509_2914"/>
<feBlend mode="normal" in="SourceGraphic" in2="effect4_dropShadow_509_2914" result="shape"/>
<feColorMatrix in="SourceAlpha" type="matrix" values="0 0 0 0 0 0 0 0 0 0 0 0 0 0 0 0 0 0 127 0" result="hardAlpha"/>
<feOffset dy="-3"/>
<feGaussianBlur stdDeviation="5.5"/>
<feComposite in2="hardAlpha" operator="arithmetic" k2="-1" k3="1"/>
<feColorMatrix type="matrix" values="0 0 0 0 0.906667 0 0 0 0 0.906667 0 0 0 0 0.906667 0 0 0 1 0"/>
<feBlend mode="normal" in2="shape" result="effect5_innerShadow_509_2914"/>
</filter>
<linearGradient id="paint0_linear_509_2914" x1="72.7479" y1="28.2351" x2="72.7479" y2="17.2923" gradientUnits="userSpaceOnUse">
<stop stop-color="#F79C07"/>
<stop offset="1" stop-color="#FED55E"/>
</linearGradient>
</defs>
</svg>
