<svg width="20" height="16" viewBox="0 0 20 16" fill="none" xmlns="http://www.w3.org/2000/svg">
<path d="M14.6652 3.4883C14.9083 3.22111 14.8942 2.80236 14.6338 2.55298C14.3733 2.30361 13.965 2.31805 13.7219 2.58523L5.14529 12.0109L1.10136 7.86294C0.849408 7.60451 0.440914 7.60451 0.188963 7.86294C-0.0629878 8.12138 -0.0629878 8.54039 0.188963 8.79882L4.61065 13.3343C4.92039 13.652 5.42519 13.6431 5.72407 13.3146L14.6652 3.4883Z" fill="#ED3144"/>
<path d="M19.8265 3.4883C20.0696 3.22111 20.0555 2.80236 19.795 2.55298C19.5346 2.30361 19.1263 2.31805 18.8832 2.58523L9.85093 12.5117C9.60781 12.7789 9.62189 13.1976 9.88237 13.447C10.1429 13.6964 10.5511 13.682 10.7942 13.4148L19.8265 3.4883Z" fill="#ED3144"/>
</svg>
