<svg width="17" height="14" viewBox="0 0 17 14" fill="none" xmlns="http://www.w3.org/2000/svg">
<g opacity="0.8">
<path fill-rule="evenodd" clip-rule="evenodd" d="M11.6116 2.96515C11.8723 2.64328 11.8227 2.17101 11.5009 1.91029C11.179 1.64957 10.7067 1.69914 10.446 2.02101L4.48839 9.37599L2.05738 6.961C1.76352 6.66908 1.28865 6.67065 0.996729 6.96451C0.704805 7.25837 0.706375 7.73324 1.00023 8.02516L4.02013 11.0252C4.17061 11.1746 4.37735 11.2534 4.58914 11.242C4.80094 11.2306 4.99799 11.13 5.1315 10.9652L11.6116 2.96515ZM16.5939 2.9862C16.8663 2.67409 16.834 2.20031 16.5219 1.92799C16.2098 1.65567 15.736 1.68792 15.4637 2.00004L9.00619 9.40106L8.55389 8.95759C8.25812 8.6676 7.78327 8.67227 7.49328 8.96804C7.20329 9.2638 7.20796 9.73865 7.50373 10.0286L8.52363 11.0286C8.67106 11.1732 8.87156 11.2506 9.07788 11.2426C9.28421 11.2345 9.47809 11.1418 9.61383 10.9862L16.5939 2.9862Z" fill="#2E2526"/>
</g>
</svg>
