<svg width="87" height="56" viewBox="0 0 87 56" fill="none" xmlns="http://www.w3.org/2000/svg">
<g filter="url(#filter0_ddddi_104_488)">
<rect x="3" y="1" width="81" height="45" rx="16" fill="white"/>
<rect x="3.5" y="1.5" width="80" height="44" rx="15.5" stroke="#F2DDDF" stroke-linecap="round"/>
<path fill-rule="evenodd" clip-rule="evenodd" d="M42.5 15.5005C38.634 15.5005 35.5 18.6344 35.5 22.5002C35.5 26.3659 38.634 29.4998 42.5 29.4998C46.366 29.4998 49.5 26.3659 49.5 22.5002C49.5 18.6344 46.366 15.5005 42.5 15.5005ZM33.5 22.5002C33.5 17.5299 37.5294 13.5006 42.5 13.5006C47.4706 13.5006 51.5 17.5299 51.5 22.5002C51.5 27.4704 47.4706 31.4997 42.5 31.4997C37.5294 31.4997 33.5 27.4704 33.5 22.5002Z" fill="#7E6B6D"/>
<path fill-rule="evenodd" clip-rule="evenodd" d="M47.7929 27.7927C48.1834 27.4022 48.8166 27.4022 49.2071 27.7927L53.2071 31.7924C53.5976 32.183 53.5976 32.8161 53.2071 33.2066C52.8166 33.5971 52.1834 33.5971 51.7929 33.2066L47.7929 29.2068C47.4024 28.8163 47.4024 28.1832 47.7929 27.7927Z" fill="#7E6B6D"/>
</g>
<defs>
<filter id="filter0_ddddi_104_488" x="0" y="-2" width="87" height="58" filterUnits="userSpaceOnUse" color-interpolation-filters="sRGB">
<feFlood flood-opacity="0" result="BackgroundImageFix"/>
<feColorMatrix in="SourceAlpha" type="matrix" values="0 0 0 0 0 0 0 0 0 0 0 0 0 0 0 0 0 0 127 0" result="hardAlpha"/>
<feOffset/>
<feGaussianBlur stdDeviation="0.5"/>
<feColorMatrix type="matrix" values="0 0 0 0 0.788235 0 0 0 0 0.788235 0 0 0 0 0.788235 0 0 0 0.14 0"/>
<feBlend mode="normal" in2="BackgroundImageFix" result="effect1_dropShadow_104_488"/>
<feColorMatrix in="SourceAlpha" type="matrix" values="0 0 0 0 0 0 0 0 0 0 0 0 0 0 0 0 0 0 127 0" result="hardAlpha"/>
<feOffset dy="2"/>
<feGaussianBlur stdDeviation="1"/>
<feColorMatrix type="matrix" values="0 0 0 0 0.788235 0 0 0 0 0.788235 0 0 0 0 0.788235 0 0 0 0.12 0"/>
<feBlend mode="normal" in2="effect1_dropShadow_104_488" result="effect2_dropShadow_104_488"/>
<feColorMatrix in="SourceAlpha" type="matrix" values="0 0 0 0 0 0 0 0 0 0 0 0 0 0 0 0 0 0 127 0" result="hardAlpha"/>
<feOffset dy="4"/>
<feGaussianBlur stdDeviation="1"/>
<feColorMatrix type="matrix" values="0 0 0 0 0.788235 0 0 0 0 0.788235 0 0 0 0 0.788235 0 0 0 0.07 0"/>
<feBlend mode="normal" in2="effect2_dropShadow_104_488" result="effect3_dropShadow_104_488"/>
<feColorMatrix in="SourceAlpha" type="matrix" values="0 0 0 0 0 0 0 0 0 0 0 0 0 0 0 0 0 0 127 0" result="hardAlpha"/>
<feOffset dy="7"/>
<feGaussianBlur stdDeviation="1.5"/>
<feColorMatrix type="matrix" values="0 0 0 0 0.786667 0 0 0 0 0.786667 0 0 0 0 0.786667 0 0 0 0.02 0"/>
<feBlend mode="normal" in2="effect3_dropShadow_104_488" result="effect4_dropShadow_104_488"/>
<feBlend mode="normal" in="SourceGraphic" in2="effect4_dropShadow_104_488" result="shape"/>
<feColorMatrix in="SourceAlpha" type="matrix" values="0 0 0 0 0 0 0 0 0 0 0 0 0 0 0 0 0 0 127 0" result="hardAlpha"/>
<feOffset dy="-3"/>
<feGaussianBlur stdDeviation="5.5"/>
<feComposite in2="hardAlpha" operator="arithmetic" k2="-1" k3="1"/>
<feColorMatrix type="matrix" values="0 0 0 0 0.906667 0 0 0 0 0.906667 0 0 0 0 0.906667 0 0 0 1 0"/>
<feBlend mode="normal" in2="shape" result="effect5_innerShadow_104_488"/>
</filter>
</defs>
</svg>
