<svg width="32" height="32" viewBox="0 0 32 32" fill="none" xmlns="http://www.w3.org/2000/svg">
<path fill-rule="evenodd" clip-rule="evenodd" d="M21.2117 5.16524C21.9574 4.41954 22.9689 4.00061 24.0235 4.00061C24.5457 4.00061 25.0628 4.10346 25.5453 4.30329C26.0277 4.50312 26.4661 4.79601 26.8353 5.16524C27.2046 5.53448 27.4975 5.97282 27.6973 6.45525C27.8972 6.93768 28 7.45474 28 7.97691C28 8.49909 27.8972 9.01615 27.6973 9.49858C27.4975 9.98101 27.2046 10.4194 26.8353 10.7886L25.3641 12.2597C24.8434 12.7804 23.9992 12.7804 23.4785 12.2597L19.7405 8.52189C19.2198 8.00122 19.2198 7.15704 19.7405 6.63637L21.2117 5.16524ZM17.8549 10.4074C17.3342 9.88673 16.4899 9.88673 15.9692 10.4074L6.68113 19.695C5.82674 20.5494 5.22062 21.6198 4.92756 22.792L4.03984 26.3427C3.92625 26.797 4.05938 27.2777 4.39055 27.6088C4.72173 27.94 5.20238 28.0731 5.65674 27.9595L9.20764 27.0718C10.3799 26.7788 11.4504 26.1727 12.3048 25.3184L21.5929 16.0307C22.1136 15.5101 22.1136 14.6659 21.5929 14.1452L17.8549 10.4074Z" fill="#FEFFFF"/>
<path fill-rule="evenodd" clip-rule="evenodd" d="M16 26.666C16 25.9297 16.597 25.3328 17.3333 25.3328L26.6667 25.3328C27.403 25.3328 28 25.9297 28 26.666C28 27.4024 27.403 27.9993 26.6667 27.9993L17.3333 27.9993C16.597 27.9993 16 27.4024 16 26.666Z" fill="#FEFFFF"/>
</svg>
