<svg width="133" height="56" viewBox="0 0 133 56" fill="none" xmlns="http://www.w3.org/2000/svg">
<g filter="url(#filter0_ddddi_8_740)">
<rect x="3" y="1" width="127" height="45" rx="16" fill="white"/>
<rect x="3.5" y="1.5" width="126" height="44" rx="15.5" stroke="#F2DDDF" stroke-linecap="round"/>
<path d="M25.0247 26.8521V20.1035C23.9456 20.1478 23.0906 20.4715 22.4598 21.0747C21.8289 21.6779 21.5135 22.4775 21.5135 23.4736C21.5135 24.4808 21.8261 25.286 22.4515 25.8892C23.0823 26.4924 23.9401 26.8133 25.0247 26.8521ZM30.3455 23.4819C30.3455 22.4748 30.0301 21.6696 29.3992 21.0664C28.7684 20.4632 27.9134 20.1423 26.8343 20.1035V26.8521C27.9134 26.8078 28.7684 26.484 29.3992 25.8809C30.0301 25.2777 30.3455 24.478 30.3455 23.4819ZM25.0164 28.4375C23.3673 28.3932 22.0586 27.9284 21.0901 27.043C20.1217 26.152 19.6375 24.9622 19.6375 23.4736C19.6375 21.9961 20.1217 20.8146 21.0901 19.9292C22.0641 19.0382 23.3729 18.5679 25.0164 18.5181V17.3228H26.8509V18.5181C28.4944 18.5623 29.7977 19.0299 30.7605 19.9209C31.729 20.8063 32.2132 21.9933 32.2132 23.4819C32.2132 24.9595 31.729 26.1437 30.7605 27.0347C29.7977 27.9201 28.4944 28.3877 26.8509 28.4375V29.6992H25.0164V28.4375ZM35.2746 29.5H33.5065V20.4854H35.2746V26.8604H35.341L39.6491 20.4854H41.4172V29.5H39.6491V23.1001H39.5827L35.2746 29.5ZM45.7071 25.416C45.6684 25.9473 45.6103 26.4204 45.5328 26.8354C45.4609 27.245 45.3557 27.6268 45.2174 27.981C45.079 28.3351 44.9075 28.6284 44.7027 28.8608C44.498 29.0877 44.2434 29.2648 43.9391 29.3921C43.6402 29.5194 43.2944 29.583 42.9015 29.583C42.6524 29.583 42.4477 29.5526 42.2872 29.4917V27.9062C42.4366 27.9505 42.5943 27.9727 42.7604 27.9727C43.1809 27.9727 43.4881 27.7485 43.6817 27.3003C43.881 26.8521 44.0082 26.1991 44.0636 25.3413L44.3873 20.4854H50.6129V29.5H48.8282V21.9131H45.9645L45.7071 25.416ZM55.5918 24.6938H54.0146V28.0806H55.5918C56.1341 28.0806 56.5658 27.9256 56.8867 27.6157C57.2132 27.3058 57.3765 26.8963 57.3765 26.3872C57.3765 25.8726 57.2132 25.4631 56.8867 25.1587C56.5658 24.8488 56.1341 24.6938 55.5918 24.6938ZM52.23 29.5V20.4854H54.0146V23.2827H55.7329C56.7788 23.2827 57.6117 23.5622 58.2314 24.1211C58.8512 24.68 59.1611 25.4354 59.1611 26.3872C59.1611 27.339 58.8512 28.0972 58.2314 28.6616C57.6117 29.2205 56.7788 29.5 55.7329 29.5H52.23ZM66.6469 20.4854V21.9131H63.7997V29.5H62.0233V21.9131H59.1762V20.4854H66.6469ZM72.2483 20.394C73.3994 20.394 74.3208 20.8118 75.0125 21.6475C75.7098 22.4831 76.0584 23.5981 76.0584 24.9927C76.0584 26.3817 75.7125 27.4967 75.0208 28.3379C74.3346 29.1735 73.4243 29.5913 72.2898 29.5913C71.6424 29.5913 71.0724 29.4557 70.5799 29.1846C70.0874 28.9079 69.7055 28.5205 69.4344 28.0225H69.4012V32.4468H67.5999V20.4854H69.3348V21.9795H69.3763C69.6308 21.4925 70.0154 21.1079 70.5301 20.8257C71.0503 20.5379 71.623 20.394 72.2483 20.394ZM71.7918 28.064C72.5223 28.064 73.1089 27.7845 73.5516 27.2256C73.9943 26.6667 74.2156 25.9224 74.2156 24.9927C74.2156 24.063 73.9943 23.3187 73.5516 22.7598C73.1089 22.2008 72.5223 21.9214 71.7918 21.9214C71.0779 21.9214 70.4996 22.2036 70.0569 22.7681C69.6142 23.3325 69.3901 24.0741 69.3846 24.9927C69.3901 25.9168 69.6115 26.6611 70.0486 27.2256C70.4913 27.7845 71.0724 28.064 71.7918 28.064ZM85.2541 29.5V20.4854H87.0388V29.5H85.2541ZM80.6389 24.6938H79.0617V28.0806H80.6389C81.1812 28.0806 81.6128 27.9256 81.9338 27.6157C82.2603 27.3058 82.4235 26.8963 82.4235 26.3872C82.4235 25.8726 82.2603 25.4631 81.9338 25.1587C81.6128 24.8488 81.1812 24.6938 80.6389 24.6938ZM77.2771 29.5V20.4854H79.0617V23.2827H80.78C81.8259 23.2827 82.6587 23.5622 83.2785 24.1211C83.8983 24.68 84.2082 25.4354 84.2082 26.3872C84.2082 27.339 83.8983 28.0972 83.2785 28.6616C82.6587 29.2205 81.8259 29.5 80.78 29.5H77.2771Z" fill="#7E6B6D"/>
<path fill-rule="evenodd" clip-rule="evenodd" d="M93.5 17.2863C93.5 15.7478 94.7473 14.5006 96.2858 14.5006H108.714C110.253 14.5006 111.5 15.7478 111.5 17.2863C111.5 18.0934 111.211 18.8738 110.686 19.4866L107.852 22.7929C106.764 24.0616 106.167 25.6773 106.167 27.3482V29.4998C106.167 31.1566 104.824 32.4997 103.167 32.4997H101.833C100.176 32.4997 98.8333 31.1566 98.8333 29.4998V27.3482C98.8333 25.6773 98.2356 24.0616 97.1481 22.7929L94.314 19.4866C93.7887 18.8738 93.5 18.0934 93.5 17.2863ZM96.2858 16.5005C95.8518 16.5005 95.5 16.8523 95.5 17.2863C95.5 17.616 95.6179 17.9348 95.8325 18.1851L98.6666 21.4914C100.065 23.1225 100.833 25.1999 100.833 27.3482V29.4998C100.833 30.0521 101.281 30.4998 101.833 30.4998H103.167C103.719 30.4998 104.167 30.0521 104.167 29.4998V27.3482C104.167 25.1999 104.935 23.1225 106.333 21.4914L109.168 18.1851C109.382 17.9348 109.5 17.616 109.5 17.2863C109.5 16.8523 109.148 16.5005 108.714 16.5005H96.2858Z" fill="#7E6B6D"/>
</g>
<defs>
<filter id="filter0_ddddi_8_740" x="0" y="-2" width="133" height="58" filterUnits="userSpaceOnUse" color-interpolation-filters="sRGB">
<feFlood flood-opacity="0" result="BackgroundImageFix"/>
<feColorMatrix in="SourceAlpha" type="matrix" values="0 0 0 0 0 0 0 0 0 0 0 0 0 0 0 0 0 0 127 0" result="hardAlpha"/>
<feOffset/>
<feGaussianBlur stdDeviation="0.5"/>
<feColorMatrix type="matrix" values="0 0 0 0 0.788235 0 0 0 0 0.788235 0 0 0 0 0.788235 0 0 0 0.14 0"/>
<feBlend mode="normal" in2="BackgroundImageFix" result="effect1_dropShadow_8_740"/>
<feColorMatrix in="SourceAlpha" type="matrix" values="0 0 0 0 0 0 0 0 0 0 0 0 0 0 0 0 0 0 127 0" result="hardAlpha"/>
<feOffset dy="2"/>
<feGaussianBlur stdDeviation="1"/>
<feColorMatrix type="matrix" values="0 0 0 0 0.788235 0 0 0 0 0.788235 0 0 0 0 0.788235 0 0 0 0.12 0"/>
<feBlend mode="normal" in2="effect1_dropShadow_8_740" result="effect2_dropShadow_8_740"/>
<feColorMatrix in="SourceAlpha" type="matrix" values="0 0 0 0 0 0 0 0 0 0 0 0 0 0 0 0 0 0 127 0" result="hardAlpha"/>
<feOffset dy="4"/>
<feGaussianBlur stdDeviation="1"/>
<feColorMatrix type="matrix" values="0 0 0 0 0.788235 0 0 0 0 0.788235 0 0 0 0 0.788235 0 0 0 0.07 0"/>
<feBlend mode="normal" in2="effect2_dropShadow_8_740" result="effect3_dropShadow_8_740"/>
<feColorMatrix in="SourceAlpha" type="matrix" values="0 0 0 0 0 0 0 0 0 0 0 0 0 0 0 0 0 0 127 0" result="hardAlpha"/>
<feOffset dy="7"/>
<feGaussianBlur stdDeviation="1.5"/>
<feColorMatrix type="matrix" values="0 0 0 0 0.786667 0 0 0 0 0.786667 0 0 0 0 0.786667 0 0 0 0.02 0"/>
<feBlend mode="normal" in2="effect3_dropShadow_8_740" result="effect4_dropShadow_8_740"/>
<feBlend mode="normal" in="SourceGraphic" in2="effect4_dropShadow_8_740" result="shape"/>
<feColorMatrix in="SourceAlpha" type="matrix" values="0 0 0 0 0 0 0 0 0 0 0 0 0 0 0 0 0 0 127 0" result="hardAlpha"/>
<feOffset dy="-3"/>
<feGaussianBlur stdDeviation="5.5"/>
<feComposite in2="hardAlpha" operator="arithmetic" k2="-1" k3="1"/>
<feColorMatrix type="matrix" values="0 0 0 0 0.906667 0 0 0 0 0.906667 0 0 0 0 0.906667 0 0 0 1 0"/>
<feBlend mode="normal" in2="shape" result="effect5_innerShadow_8_740"/>
</filter>
</defs>
</svg>
