<svg width="15" height="14" viewBox="0 0 15 14" fill="none" xmlns="http://www.w3.org/2000/svg">
<path fill-rule="evenodd" clip-rule="evenodd" d="M7.85886 12.7261C7.64346 12.867 7.35621 12.8668 7.14082 12.7258L7.13924 12.7248L7.13575 12.7225L7.1241 12.7148C7.1143 12.7082 7.10045 12.6989 7.08283 12.687C7.04759 12.663 6.99724 12.6283 6.93392 12.5834C6.80734 12.4936 6.6286 12.3629 6.41507 12.196C5.98892 11.8628 5.41944 11.3815 4.84808 10.7894C3.7273 9.62787 2.5 7.93794 2.5 6.04392C2.5 4.75925 3.01949 3.52162 3.95342 2.60467C4.88838 1.68671 6.16341 1.16513 7.5 1.16513C8.83659 1.16513 10.1116 1.68671 11.0466 2.60467C11.9805 3.52162 12.5 4.75925 12.5 6.04392C12.5 7.93794 11.2727 9.62787 10.1519 10.7894C9.58056 11.3815 9.01108 11.8628 8.58493 12.196C8.3714 12.3629 8.19266 12.4936 8.06608 12.5834C8.00276 12.6283 7.9524 12.663 7.91717 12.687C7.89955 12.6989 7.8857 12.7082 7.8759 12.7148L7.86425 12.7225L7.86076 12.7248L7.85961 12.7256L7.85886 12.7261ZM5.625 5.8318C5.625 4.8653 6.46447 4.0818 7.5 4.0818C8.53553 4.0818 9.375 4.8653 9.375 5.8318C9.375 6.7983 8.53553 7.5818 7.5 7.5818C6.46447 7.5818 5.625 6.7983 5.625 5.8318Z" fill="white"/>
</svg>
