<svg width="229" height="80" viewBox="0 0 229 80" fill="none" xmlns="http://www.w3.org/2000/svg">
<path fill-rule="evenodd" clip-rule="evenodd" d="M29.4122 31.6794L29.6832 31.5379C30.0418 31.3421 30.3922 31.1342 30.7345 30.9136C30.3092 31.1854 29.8686 31.441 29.4122 31.6794ZM30.4952 2.54985C32.4564 3.76441 34.1492 5.36488 35.4643 7.24376C34.1189 5.31315 32.417 3.73449 30.4952 2.54985ZM31.8355 19.229C31.8283 19.26 31.8206 19.2904 31.8129 19.3213C31.7627 19.5222 31.7064 19.722 31.6439 19.9213C31.4128 20.6596 31.1054 21.361 30.7288 22.0172C30.7703 21.9472 30.8103 21.8762 30.8492 21.8052C30.8636 21.7789 30.8784 21.752 30.8923 21.7251C30.9117 21.6891 30.9312 21.6526 30.9497 21.6161C30.9732 21.5714 30.9963 21.5268 31.0183 21.4817C31.0332 21.4538 31.047 21.4254 31.0608 21.397C31.1013 21.3148 31.1408 21.2322 31.1787 21.1485C31.1889 21.1267 31.1992 21.1044 31.2089 21.0821C31.2396 21.0136 31.2699 20.9451 31.2991 20.8757C31.3134 20.8427 31.3267 20.8097 31.3406 20.7763C31.3554 20.7398 31.3703 20.7038 31.3846 20.6667C31.4169 20.5861 31.4482 20.505 31.4779 20.4233C31.4871 20.399 31.4958 20.3751 31.5045 20.3503C31.5132 20.3275 31.5209 20.3052 31.5291 20.2823C31.5568 20.2037 31.5834 20.1246 31.6095 20.0455C31.6203 20.011 31.6316 19.9765 31.6423 19.9421C31.6567 19.8964 31.6705 19.8508 31.6843 19.8046C31.6971 19.7615 31.7094 19.7184 31.7217 19.6753C31.7386 19.6155 31.755 19.5556 31.7709 19.4958C31.8063 19.3614 31.8391 19.226 31.8683 19.0901C31.8575 19.1368 31.8468 19.1829 31.8355 19.229ZM31.7771 14.1416C31.7801 14.1523 31.7827 14.1629 31.7853 14.1731C31.7878 14.1822 31.7904 14.1908 31.793 14.1999C31.7878 14.1807 31.7827 14.1609 31.7771 14.1416ZM30.1376 10.6876C30.4158 11.0745 30.6694 11.4818 30.8969 11.9093C31.0824 12.2577 31.2468 12.6137 31.3908 12.9747C31.419 13.0467 31.4466 13.1188 31.4738 13.1913C31.484 13.2176 31.4938 13.2445 31.503 13.2714C31.5306 13.3454 31.5568 13.42 31.5819 13.4945C31.5916 13.5239 31.6008 13.5528 31.6106 13.5818C31.6387 13.6664 31.6649 13.7511 31.6905 13.8363C31.7166 13.9241 31.7417 14.0118 31.7658 14.1C31.4394 12.8758 30.8897 11.7227 30.1376 10.6876ZM26.5682 7.56477C26.5682 7.56477 26.5672 7.56426 26.5667 7.56426C26.5062 7.53181 26.4463 7.49986 26.3858 7.46892C26.3454 7.44762 26.3049 7.42785 26.2644 7.40756C26.2337 7.39235 26.2034 7.37713 26.1727 7.36243C26.081 7.3178 25.9888 7.2747 25.8955 7.2326C25.854 7.21384 25.813 7.19558 25.771 7.17733C25.7234 7.15654 25.6757 7.13676 25.6281 7.11647C25.5646 7.08909 25.5005 7.06373 25.436 7.03838C25.4037 7.0257 25.3714 7.01302 25.3391 7.00085C25.3074 6.98817 25.2746 6.976 25.2423 6.96383C25.168 6.93645 25.0937 6.90957 25.0189 6.88371C24.9856 6.87204 24.9518 6.86038 24.918 6.84922C24.9129 6.84719 24.9083 6.84567 24.9031 6.84415C24.8668 6.83198 24.8304 6.82032 24.794 6.80865C24.7643 6.79851 24.7341 6.78887 24.7039 6.77975C24.6916 6.77569 24.6793 6.77214 24.6665 6.76808C24.6337 6.75794 24.6004 6.7483 24.5671 6.73816C24.5302 6.72701 24.4928 6.71636 24.4549 6.70571L24.4518 6.70419C24.4139 6.69404 24.3765 6.68339 24.3386 6.67325C24.3073 6.66463 24.2755 6.65601 24.2438 6.64789C24.2258 6.64282 24.2084 6.63877 24.191 6.6337C24.1664 6.62761 24.1423 6.62152 24.1177 6.61544C24.1075 6.6129 24.0967 6.61037 24.086 6.60783C24.0578 6.60073 24.0291 6.59363 24.0004 6.58704C23.9681 6.57893 23.9348 6.57132 23.9021 6.56422C23.8734 6.55763 23.8452 6.55103 23.8165 6.54495C23.6689 6.51249 23.5204 6.48308 23.3708 6.45722C23.3354 6.45113 23.3001 6.44505 23.2647 6.43947C23.7274 6.51756 24.189 6.6271 24.6449 6.76656C25.3386 6.97955 25.9995 7.25745 26.6215 7.59469C26.6036 7.58455 26.5856 7.57491 26.5682 7.56477ZM26.4488 26.1092C25.7767 26.4596 25.0794 26.7344 24.3652 26.9342C24.4303 26.9165 24.4953 26.8982 24.5599 26.879C24.9472 26.7644 25.3268 26.6279 25.6978 26.4702C25.7593 26.4439 25.8207 26.417 25.8822 26.3896C25.9524 26.3582 26.0221 26.3262 26.0912 26.2927C26.1604 26.2603 26.2296 26.2263 26.2982 26.1918C26.3325 26.1746 26.3669 26.1573 26.4007 26.1396L26.5021 26.0868C26.5021 26.0868 26.5037 26.0858 26.5047 26.0853C26.538 26.0676 26.5713 26.0498 26.6041 26.0316C26.6384 26.0133 26.6717 25.9945 26.7055 25.9758C26.8003 25.9235 26.8941 25.8693 26.9868 25.813C27.0114 25.7983 27.036 25.7836 27.0606 25.7684C27.1405 25.7197 27.2204 25.67 27.2993 25.6188C27.3316 25.5975 27.3639 25.5767 27.3956 25.5549C27.4919 25.491 27.5878 25.4256 27.6825 25.3581C27.2921 25.633 26.8802 25.8845 26.4488 26.1092ZM24.8376 33.291C23.7586 33.5035 22.6422 33.6156 21.4997 33.6156C21.4516 33.6156 21.4034 33.615 21.3553 33.615C21.3071 33.6145 21.2595 33.614 21.2113 33.613C21.1631 33.613 21.1155 33.6115 21.0673 33.61C21.0289 33.609 20.9905 33.6085 20.9521 33.6069C20.9377 33.6064 20.9234 33.6059 20.909 33.6054C20.8686 33.6044 20.8276 33.6024 20.7871 33.6008C20.784 33.6008 20.7804 33.6008 20.7774 33.6003C20.6903 33.5968 20.6042 33.5927 20.5176 33.5877C20.5069 33.5877 20.4961 33.5867 20.4853 33.5861C20.4413 33.5836 20.3967 33.5806 20.3531 33.5775C20.3055 33.5745 20.2584 33.5709 20.2107 33.5679C20.1651 33.5643 20.1185 33.5608 20.0724 33.5567C21.6483 33.6901 23.2524 33.6064 24.8376 33.291ZM20.0545 33.5552C20.0606 33.5557 20.0662 33.5562 20.0724 33.5567C20.0242 33.5527 19.9761 33.5491 19.9279 33.5446C19.9704 33.5481 20.0119 33.5522 20.0545 33.5552ZM18.4017 0.279474C18.3607 0.287081 18.3197 0.294688 18.2782 0.302802C18.331 0.292659 18.3832 0.283024 18.436 0.273389C18.4247 0.275417 18.4135 0.277446 18.4017 0.279474ZM22.3333 0.0198284C22.2964 0.018307 22.259 0.0167857 22.2221 0.0152643C22.2611 0.0167857 22.2995 0.0188142 22.3384 0.0203355C22.3364 0.0203355 22.3348 0.0198284 22.3333 0.0198284ZM19.9628 0.0680049C20.034 0.0619194 20.1047 0.055834 20.1764 0.0507628C20.2435 0.0456916 20.3106 0.0406203 20.3783 0.0365634C20.4935 0.0289566 20.6088 0.022364 20.7246 0.0172928C20.7589 0.0157714 20.7927 0.0142501 20.8271 0.0132358L20.8496 0.0122216C20.8788 0.0112074 20.9075 0.0101931 20.9362 0.00917887C21.0048 0.00715039 21.073 0.00512191 21.1416 0.00410767C21.1816 0.00309342 21.221 0.0025863 21.261 0.00157206C21.3404 0.00157206 21.4198 5.07001e-05 21.4997 5.07001e-05C21.5479 5.07001e-05 21.5961 0.000557821 21.6442 0.00106494C21.6919 0.00106494 21.74 0.00106494 21.7882 0.0025863C21.8251 0.0025863 21.8609 0.00410766 21.8973 0.00512191C21.2543 -0.0105988 20.6083 0.009686 19.9628 0.068512V0.0680049ZM21.9316 0.00562903C21.9204 0.00562903 21.9086 0.00562903 21.8973 0.00512191C21.9424 0.00613615 21.987 0.00715039 22.0321 0.00816463C21.9988 0.00715039 21.9649 0.00664327 21.9316 0.00562903ZM19.7414 0.0893039C19.8152 0.0816971 19.889 0.0751045 19.9628 0.0680049C19.9612 0.0680049 19.9597 0.0680049 19.9587 0.0680049C19.8864 0.0745974 19.8137 0.0816971 19.7414 0.0887968V0.0893039ZM19.5555 0.109589C19.6062 0.103503 19.6574 0.097925 19.7081 0.0928538C19.683 0.0953894 19.6579 0.097925 19.6333 0.100461C19.6077 0.102996 19.5811 0.106039 19.5555 0.109589ZM19.6466 33.5162C19.6523 33.5172 19.6584 33.5177 19.6646 33.5187C19.6764 33.5197 19.6881 33.5212 19.6999 33.5222L19.6466 33.5162ZM18.3546 26.8485C18.1004 26.7704 17.8509 26.6842 17.6055 26.5889C17.5241 26.5575 17.4431 26.5245 17.3627 26.491C17.2817 26.4575 17.2013 26.4231 17.1219 26.3876C17.042 26.3521 16.9636 26.3161 16.8847 26.2785C16.7674 26.2222 16.6505 26.1644 16.5353 26.1046C16.4968 26.0843 16.4589 26.0645 16.4205 26.0437C16.3964 26.0311 16.3723 26.0179 16.3488 26.0052C17.4262 26.5995 18.6005 27.0012 19.8275 27.1914C19.3336 27.1122 18.8413 26.9981 18.3546 26.8485ZM16.2079 25.9266C16.2499 25.9504 16.2924 25.9743 16.335 25.9976C16.3396 26.0001 16.3442 26.0027 16.3488 26.0052C16.3016 25.9793 16.2545 25.9535 16.2079 25.9266ZM16.1654 25.9028C16.1797 25.9109 16.1935 25.919 16.2079 25.9266C16.1797 25.9104 16.1515 25.8946 16.1234 25.8784C16.1377 25.887 16.1515 25.8952 16.1654 25.9028ZM18.1501 6.82741C18.102 6.84263 18.0548 6.85886 18.0072 6.87508C17.98 6.88421 17.9524 6.89385 17.9257 6.90348C17.8945 6.91413 17.8637 6.9258 17.8325 6.93645C17.7977 6.94912 17.7623 6.96231 17.7269 6.97549C17.6163 7.01708 17.5056 7.06069 17.396 7.10582C17.3227 7.13625 17.25 7.16719 17.1772 7.19964C17.1414 7.21536 17.105 7.23108 17.0691 7.24782C17.0327 7.26405 16.9969 7.28078 16.961 7.29752C16.8893 7.33099 16.8181 7.36547 16.7474 7.40097C16.7115 7.41872 16.6762 7.43596 16.6408 7.45422C16.6065 7.47197 16.5727 7.48972 16.5383 7.50746C16.5353 7.50899 16.5322 7.51051 16.5291 7.51254C16.4958 7.52978 16.463 7.54702 16.4302 7.56477C16.3954 7.58353 16.3606 7.6028 16.3262 7.62207C16.2914 7.64084 16.2566 7.66011 16.2222 7.67988C16.1546 7.71843 16.0875 7.75747 16.0204 7.79754C15.9912 7.81529 15.9625 7.83253 15.9333 7.85028C15.9015 7.86955 15.8703 7.88933 15.839 7.9091C15.8252 7.91722 15.8113 7.92635 15.7975 7.93497C15.7406 7.97097 15.6838 8.00748 15.6274 8.04501C15.5224 8.11398 15.4194 8.18447 15.317 8.25749C15.7073 7.98264 16.1193 7.73161 16.5506 7.50645C17.1654 7.18595 17.8023 6.92833 18.4534 6.73411C18.352 6.76352 18.2505 6.79496 18.1501 6.82741ZM12.1026 21.7068C11.7578 21.0577 11.4852 20.3848 11.2849 19.6961C11.3387 19.8848 11.3976 20.0714 11.4617 20.256C11.4709 20.2823 11.4801 20.3087 11.4893 20.3351C11.5011 20.3675 11.5129 20.4 11.5252 20.4324C11.539 20.47 11.5529 20.5075 11.5672 20.5445C11.5903 20.6039 11.6133 20.6632 11.6369 20.722C11.6492 20.7514 11.6615 20.7808 11.6733 20.8108C11.6973 20.8696 11.7224 20.9279 11.7481 20.9862C11.7634 21.0222 11.7793 21.0577 11.7957 21.0932C11.8444 21.2007 11.8946 21.3067 11.9463 21.4122C11.9807 21.4827 12.0165 21.5527 12.0529 21.6222C12.0708 21.6571 12.0893 21.6916 12.1077 21.7266C12.1262 21.7611 12.1451 21.7956 12.1641 21.8301C12.183 21.8646 12.202 21.8985 12.2215 21.933C12.2404 21.967 12.2604 22.001 12.2799 22.0355C12.326 22.1146 12.3731 22.1932 12.4218 22.2718C12.4351 22.2941 12.4494 22.3164 12.4633 22.3387C12.4843 22.3722 12.5053 22.4051 12.5268 22.4386C12.5524 22.4787 12.5791 22.5187 12.6057 22.5588C12.6226 22.5847 12.6395 22.6105 12.6574 22.6359C12.6995 22.6983 12.742 22.7601 12.7866 22.822C12.5376 22.467 12.3096 22.0948 12.1026 21.7068ZM12.2097 11.7049C12.1651 11.7845 12.1216 11.8641 12.079 11.9448C12.0606 11.9803 12.0416 12.0163 12.0232 12.0523C12.0078 12.0822 11.9924 12.1121 11.9776 12.1425C11.9094 12.2774 11.8449 12.4144 11.7829 12.5523C11.7624 12.5979 11.7419 12.6441 11.7219 12.6907C11.7086 12.7217 11.6958 12.7526 11.6825 12.7835C11.6712 12.8109 11.6599 12.8388 11.6482 12.8667C11.6143 12.9499 11.581 13.0331 11.5498 13.1172C11.518 13.2009 11.4873 13.2856 11.4576 13.3703C11.4478 13.3987 11.4381 13.4266 11.4284 13.455C11.4176 13.4874 11.4063 13.5199 11.3961 13.5523C11.3838 13.5894 11.372 13.6269 11.3602 13.6639C11.3484 13.7014 11.3367 13.739 11.3254 13.776C11.3141 13.8135 11.3029 13.851 11.2921 13.8891C11.2813 13.9261 11.2706 13.9631 11.2603 14.0001C11.2465 14.0493 11.2332 14.099 11.2204 14.1482C11.2137 14.1736 11.207 14.1989 11.2009 14.2243C11.1988 14.2309 11.1973 14.2364 11.1963 14.243C11.1881 14.274 11.1804 14.3049 11.1732 14.3358C11.165 14.3693 11.1568 14.4023 11.1492 14.4363C11.144 14.457 11.1394 14.4778 11.1348 14.4991C11.1292 14.5235 11.124 14.5483 11.1184 14.5727C11.1112 14.6061 11.1041 14.6396 11.0974 14.6736C11.0887 14.7131 11.081 14.7527 11.0728 14.7928C11.0498 14.9124 11.0288 15.0321 11.0093 15.1528C11.0897 14.6634 11.2045 14.1766 11.3556 13.6948C11.5836 12.9671 11.8859 12.2744 12.2548 11.6263C12.2399 11.6527 12.2245 11.6785 12.2097 11.7049ZM7.66992 26.5625C8.95331 28.3506 10.5467 29.8284 12.3372 30.9613C10.5128 29.8015 8.92718 28.306 7.66992 26.5625Z" fill="#ED3144"/>
<path fill-rule="evenodd" clip-rule="evenodd" d="M37.6892 11.7287C37.6841 11.713 37.679 11.6972 37.6738 11.6815C37.6846 11.715 37.6948 11.748 37.7056 11.7814C37.7 11.7637 37.6943 11.7459 37.6892 11.7287Z" fill="#ED3144"/>
<path fill-rule="evenodd" clip-rule="evenodd" d="M22.3335 0.0197008C22.2966 0.0181794 22.2592 0.0166581 22.2223 0.0151367C22.2613 0.0166581 22.2997 0.0186866 22.3386 0.0202079C22.3366 0.0202079 22.335 0.0197008 22.3335 0.0197008ZM18.4019 0.279347C18.3496 0.288475 18.2974 0.298617 18.2451 0.30876C18.2564 0.306731 18.2671 0.304703 18.2784 0.302674C18.3312 0.292532 18.3834 0.282896 18.4362 0.273261C18.4249 0.27529 18.4137 0.277318 18.4019 0.279347Z" fill="#ED3144"/>
<path fill-rule="evenodd" clip-rule="evenodd" d="M19.6335 0.10038C19.6079 0.102916 19.5813 0.105959 19.5557 0.109508C19.6064 0.103423 19.6576 0.0978446 19.7083 0.0927734C19.6832 0.095309 19.6581 0.0978446 19.6335 0.10038Z" fill="#ED3144"/>
<path fill-rule="evenodd" clip-rule="evenodd" d="M41.8947 20.9954L39.1584 18.9329C38.7029 18.5891 38.4595 18.0419 38.4698 17.4755V17.4734C38.4698 17.4613 38.4708 17.4486 38.4708 17.4364C38.4729 17.3832 38.4749 17.3299 38.4764 17.2762C38.4785 17.2229 38.479 17.1697 38.48 17.1159C38.4811 17.0627 38.4821 17.0094 38.4826 16.9557C38.4826 16.8771 38.4836 16.798 38.4826 16.7194C38.4826 16.693 38.4826 16.6671 38.4826 16.6403C38.4821 16.5855 38.4811 16.5312 38.48 16.477C38.4785 16.375 38.4754 16.2726 38.4713 16.1707C38.4693 16.1128 38.4667 16.0545 38.4642 15.9967C38.4616 15.9501 38.459 15.9029 38.4565 15.8562C38.4565 15.8456 38.4554 15.8349 38.4549 15.8243C38.4544 15.8182 38.4539 15.8121 38.4539 15.8065C38.4513 15.7705 38.4493 15.7345 38.4467 15.6985C38.4467 15.6874 38.4457 15.6757 38.4447 15.6646C38.4447 15.6615 38.4447 15.658 38.4437 15.6544C38.4406 15.6017 38.4365 15.5489 38.4319 15.4962C38.4303 15.4688 38.4278 15.4414 38.4252 15.4145C38.4227 15.3811 38.4201 15.3476 38.417 15.3146C38.4119 15.2573 38.4063 15.2 38.4006 15.1432C38.3894 15.0291 38.3771 14.915 38.3627 14.8009C38.356 14.7436 38.3484 14.6863 38.3412 14.6295C38.3258 14.5154 38.3099 14.4013 38.292 14.2872C38.2838 14.2324 38.2751 14.1777 38.2659 14.1224C38.2628 14.1021 38.2592 14.0813 38.2556 14.0605C38.2485 14.0164 38.2408 13.9718 38.2326 13.9272C38.23 13.913 38.2275 13.8988 38.2249 13.8846C38.2157 13.8333 38.2064 13.7821 38.1967 13.7304C38.1854 13.67 38.1737 13.6092 38.1614 13.5483C38.1537 13.5098 38.146 13.4718 38.1378 13.4332C38.1368 13.4287 38.1357 13.4241 38.1352 13.419L38.103 13.2699C38.0927 13.2207 38.082 13.1715 38.0707 13.1224C38.0707 13.1213 38.0702 13.1203 38.0702 13.1188C38.0635 13.0889 38.0563 13.0595 38.0492 13.0296C38.0481 13.0235 38.0466 13.0179 38.0456 13.0118C38.0374 12.9783 38.0297 12.9444 38.0215 12.9109C37.9995 12.8221 37.978 12.7334 37.9549 12.6452C37.9441 12.6051 37.9339 12.5645 37.9231 12.525C37.9124 12.4849 37.9016 12.4448 37.8903 12.4048C37.8883 12.3962 37.8857 12.388 37.8837 12.3794C37.8837 12.3784 37.8837 12.3774 37.8827 12.3759C37.8821 12.3749 37.8816 12.3733 37.8816 12.3723C37.8801 12.3673 37.8786 12.3622 37.877 12.3571C37.877 12.3546 37.877 12.352 37.8755 12.35C37.8745 12.3475 37.8739 12.3449 37.8734 12.3424C37.8729 12.3414 37.8729 12.3409 37.8724 12.3399C37.8709 12.3343 37.8699 12.3292 37.8678 12.3241C37.8622 12.3018 37.856 12.28 37.8494 12.2587C37.8494 12.2547 37.8473 12.2511 37.8463 12.2476C37.8447 12.241 37.8427 12.2339 37.8406 12.2273C37.8299 12.1898 37.8191 12.1522 37.8084 12.1152C37.7956 12.0711 37.7822 12.027 37.7689 11.9829C37.7597 11.9524 37.75 11.9215 37.7402 11.8906C37.7361 11.8774 37.732 11.8642 37.7279 11.851C37.7223 11.8327 37.7167 11.8155 37.711 11.7983C37.7095 11.7922 37.708 11.7871 37.7059 11.7815C37.6951 11.7481 37.6849 11.7151 37.6741 11.6816C37.6659 11.6568 37.6583 11.6319 37.6501 11.6071C37.6485 11.6035 37.6475 11.6 37.6465 11.5964C37.6342 11.5594 37.6214 11.5224 37.6091 11.4859C37.607 11.4793 37.605 11.4737 37.6029 11.4671C37.5906 11.4311 37.5778 11.3946 37.5655 11.3586C37.524 11.2389 37.481 11.1197 37.4364 11.0006C37.4062 10.9199 37.376 10.8398 37.3442 10.7592C37.1085 10.1567 36.8355 9.56085 36.524 8.97563C36.4891 8.9097 36.4533 8.84429 36.4174 8.77887C36.3892 8.72714 36.3605 8.67592 36.3313 8.6242C36.3083 8.58312 36.2852 8.54204 36.2617 8.50147C36.2514 8.48322 36.2412 8.46547 36.2304 8.44772C36.2109 8.41374 36.1915 8.38027 36.1715 8.34629C36.1535 8.31587 36.1351 8.28493 36.1167 8.254C36.1003 8.2256 36.0828 8.1972 36.0659 8.1688C36.0413 8.12874 36.0173 8.08868 35.9927 8.04912C35.9824 8.03239 35.9717 8.01565 35.9619 7.99942C35.9455 7.97305 35.9291 7.94719 35.9133 7.92082C35.9112 7.91778 35.9092 7.91473 35.9071 7.91169C35.9056 7.90916 35.904 7.90662 35.9025 7.90408C35.8856 7.87771 35.8687 7.85084 35.8518 7.82447C35.8277 7.78593 35.8031 7.74789 35.778 7.70986C35.7688 7.69515 35.759 7.68044 35.7498 7.66574C35.735 7.64342 35.7206 7.62111 35.7053 7.5988C35.674 7.55062 35.6422 7.50346 35.6105 7.4563C35.5931 7.42942 35.5746 7.40305 35.5562 7.37617C35.5259 7.33155 35.4957 7.28743 35.4645 7.24381C34.1493 5.36493 32.4566 3.76446 30.4954 2.54991C30.4324 2.51086 30.3688 2.47232 30.3048 2.43377C30.2136 2.37901 30.1219 2.32474 30.0297 2.272C28.1576 1.19843 26.095 0.487446 23.9606 0.176074C23.9237 0.171003 23.8868 0.165932 23.8505 0.16086C23.8484 0.160353 23.8464 0.160353 23.8443 0.159846C23.8095 0.155282 23.7741 0.150211 23.7393 0.14514C23.7039 0.141083 23.6686 0.136012 23.6337 0.131955C23.6286 0.13094 23.623 0.130433 23.6179 0.129926C23.5764 0.124855 23.5349 0.119784 23.4934 0.11522C23.4734 0.112684 23.4539 0.110656 23.4339 0.10812C23.4232 0.107106 23.4129 0.105584 23.4027 0.10457C23.3863 0.103049 23.3694 0.10102 23.353 0.0994989C23.3515 0.0989917 23.3504 0.0989917 23.3484 0.0989917C23.3033 0.0939205 23.2582 0.0893565 23.2126 0.0847924C23.188 0.0822568 23.1634 0.0797212 23.1388 0.0771856C23.1163 0.0756642 23.0943 0.0731286 23.0717 0.0716072C23.0292 0.0675503 22.9872 0.0640004 22.9452 0.0604506C22.9426 0.0599435 22.9411 0.0599435 22.9385 0.0599435C22.9139 0.057915 22.8888 0.0553794 22.8637 0.053858C22.8386 0.0513224 22.8135 0.049801 22.7884 0.0482797C22.75 0.045237 22.711 0.0421942 22.6721 0.0396586C22.6629 0.0396586 22.6537 0.0386444 22.6444 0.0381373C22.6332 0.037123 22.6219 0.0366159 22.6101 0.0356017C22.584 0.0340803 22.5579 0.0325589 22.5322 0.0310376C22.5066 0.0295162 22.4805 0.0279949 22.4549 0.0264735C22.4159 0.024445 22.377 0.0224165 22.3386 0.0203881C22.2996 0.0188667 22.2612 0.0168382 22.2223 0.0153168C22.2192 0.0153168 22.2161 0.0153168 22.2131 0.0153168H22.2125C22.2023 0.0148097 22.1921 0.0143026 22.1818 0.0143026C22.1516 0.0127812 22.1208 0.011767 22.0901 0.0107528C22.0763 0.0102456 22.0619 0.00973852 22.0476 0.0092314C22.0425 0.0092314 22.0373 0.00872428 22.0322 0.00872428C21.9989 0.00771004 21.9651 0.00720292 21.9318 0.00618868C21.8841 0.00466732 21.8365 0.00365308 21.7883 0.00314595C21.7402 0.00213171 21.692 0.00162459 21.6444 0.00162459C21.5962 0.00111747 21.5481 0.000610352 21.4999 0.000610352C21.42 0.000610352 21.3406 0.00162459 21.2612 0.00213171C21.2212 0.00314595 21.1817 0.00365307 21.1418 0.00466732C21.0731 0.00568156 21.005 0.00771004 20.9363 0.00973852C20.9076 0.0107528 20.879 0.011767 20.8498 0.0127812L20.8272 0.0137955C20.7929 0.0148097 20.7591 0.0163311 20.7247 0.0178525C20.609 0.0229237 20.4937 0.0295162 20.3784 0.037123C20.3108 0.04118 20.2437 0.0462512 20.1765 0.0513224C20.1038 0.0569007 20.0316 0.0629862 19.9588 0.0690716C19.8866 0.0756642 19.8138 0.0827639 19.7416 0.0898636C19.7303 0.0908778 19.7196 0.0918921 19.7083 0.0934134C19.6576 0.0984846 19.6063 0.104063 19.5556 0.110148C19.552 0.110148 19.5489 0.110656 19.5454 0.111163C19.5028 0.115727 19.4598 0.120798 19.4173 0.125869C19.3886 0.129419 19.3599 0.132969 19.3317 0.136519C19.2841 0.142604 19.2364 0.14869 19.1893 0.155282C19.1575 0.159339 19.1263 0.163903 19.095 0.16796C19.0643 0.172524 19.0341 0.176581 19.0033 0.181145C18.9992 0.181145 18.9956 0.18216 18.9915 0.183174C18.9495 0.188752 18.908 0.195345 18.866 0.201937C18.8506 0.203966 18.8358 0.206501 18.8204 0.209037C18.805 0.211065 18.7902 0.213601 18.7748 0.216137C18.7308 0.222729 18.6862 0.230336 18.6416 0.237943C18.5975 0.24555 18.5535 0.252649 18.5094 0.260763C18.4884 0.264313 18.4674 0.26837 18.4464 0.27192C18.4433 0.272427 18.4398 0.273441 18.4362 0.273948C18.3834 0.283584 18.3311 0.293219 18.2784 0.303361C18.2671 0.30539 18.2563 0.307418 18.2451 0.309447C18.2287 0.31249 18.2118 0.315532 18.1949 0.319082C18.1882 0.320096 18.1815 0.321618 18.1749 0.322632C18.1713 0.323646 18.1677 0.324153 18.1641 0.325168C18.1569 0.326182 18.1498 0.327703 18.1426 0.329224C18.1416 0.329224 18.1411 0.329224 18.14 0.329732C18.1052 0.336831 18.0699 0.343424 18.035 0.350524C18.0135 0.355088 17.992 0.359652 17.9705 0.364216C17.9085 0.377401 17.846 0.390586 17.7835 0.404278C17.744 0.412899 17.7046 0.422028 17.6651 0.431156C17.6308 0.438763 17.5965 0.446876 17.5626 0.45499C17.494 0.471218 17.4264 0.487446 17.3582 0.504181C16.0754 0.824681 14.8099 1.29985 13.5875 1.9373C13.0465 2.21926 12.5264 2.52607 12.0295 2.8557C12.4434 2.57932 12.8707 2.32119 13.3098 2.08183L1.36022 8.31079C-0.343785 9.19927 -0.467256 11.5554 1.1056 12.6198L3.84144 14.6828C4.30304 15.0312 4.5464 15.5875 4.52949 16.1615C4.52693 16.2198 4.5254 16.2777 4.52386 16.336C4.52181 16.4024 4.52027 16.4694 4.51873 16.5358C4.51822 16.5779 4.51771 16.6195 4.5172 16.661C4.51566 16.8208 4.51617 16.9805 4.51976 17.1408C4.52283 17.3325 4.53001 17.5247 4.54077 17.7169C4.54333 17.762 4.54589 17.8076 4.54896 17.8533C4.56997 18.1941 4.60173 18.5354 4.64477 18.8756C4.6586 18.9892 4.67397 19.1028 4.69088 19.2164C4.70061 19.2849 4.71086 19.3528 4.72162 19.4208C4.73238 19.4887 4.74416 19.5567 4.75543 19.6247C4.77131 19.7154 4.7872 19.8057 4.80462 19.8965C4.82921 20.0283 4.85585 20.1597 4.88403 20.291C4.89325 20.3326 4.90196 20.3742 4.91118 20.4153C4.9204 20.4563 4.92962 20.4969 4.93885 20.538C4.94141 20.5512 4.94448 20.5644 4.94756 20.5765C4.95422 20.6049 4.96088 20.6328 4.96754 20.6612C4.98291 20.7241 4.99776 20.787 5.01365 20.8494C5.01877 20.8686 5.02338 20.8879 5.02799 20.9077C5.03106 20.9183 5.03363 20.929 5.03619 20.9396C5.04387 20.97 5.05207 21 5.05976 21.0299C5.09254 21.1531 5.12585 21.2758 5.1612 21.3986C5.18476 21.4802 5.20884 21.5613 5.23343 21.6425H5.23395C5.25854 21.7241 5.28364 21.8053 5.30977 21.8864C5.61051 22.821 5.99783 23.742 6.47532 24.6401C6.76018 25.1756 7.07065 25.6898 7.40366 26.1817C7.4262 26.2157 7.44977 26.2497 7.47283 26.2826C7.49537 26.3161 7.51842 26.3496 7.54199 26.3825C7.584 26.4429 7.62704 26.5027 7.66956 26.5626C8.92682 28.306 10.5125 29.8015 12.3369 30.9613C12.3979 30.9999 12.4588 31.0379 12.5203 31.0759C12.5628 31.1028 12.6064 31.1292 12.6499 31.1551C12.6889 31.1789 12.7283 31.2022 12.7678 31.2255C12.8272 31.2605 12.8866 31.2955 12.946 31.33C14.9318 32.4736 17.1338 33.2079 19.4091 33.4888C19.4408 33.4929 19.4731 33.4969 19.5054 33.5005C19.5115 33.5015 19.5172 33.502 19.5228 33.5025C19.5638 33.5076 19.6048 33.5121 19.6463 33.5162L19.6996 33.5223C19.7052 33.5228 19.7108 33.5233 19.7165 33.5238C19.7395 33.5264 19.7631 33.5289 19.7867 33.5309C19.8338 33.5355 19.8804 33.54 19.9276 33.5446C19.9701 33.5482 20.0116 33.5522 20.0541 33.5553C20.1064 33.5598 20.1586 33.5639 20.2104 33.5679C20.258 33.571 20.3051 33.5745 20.3528 33.5776C20.3963 33.5806 20.4409 33.5837 20.485 33.5862C20.4957 33.5862 20.5065 33.5872 20.5173 33.5877C20.6038 33.5928 20.6899 33.5968 20.777 33.6004C20.7801 33.6009 20.7837 33.6009 20.7867 33.6009C20.8272 33.6024 20.8682 33.6044 20.9087 33.6055C20.923 33.606 20.9374 33.6065 20.9517 33.607C20.9901 33.6085 21.0286 33.609 21.067 33.61C21.1151 33.6115 21.1628 33.6126 21.2109 33.6131C21.2591 33.6141 21.3067 33.6146 21.3549 33.6151C21.4031 33.6151 21.4512 33.6156 21.4994 33.6156C22.728 33.6156 23.9258 33.4863 25.0801 33.2413C25.159 33.2246 25.2379 33.2069 25.3168 33.1891C25.4254 33.1643 25.5335 33.1389 25.6411 33.112C26.9239 32.7915 28.1894 32.3164 29.4118 31.6794C29.8683 31.4411 30.3089 31.1855 30.7341 30.9137C30.3919 31.1343 30.0415 31.3422 29.6828 31.5379L41.6391 25.3049C43.3431 24.4164 43.466 22.0604 41.8942 20.9954H41.8947ZM32.0057 18.365C32.0042 18.3746 32.0027 18.3842 32.0011 18.3944L31.9904 18.4628C31.9893 18.4669 31.9888 18.471 31.9883 18.4755C31.9852 18.4938 31.9822 18.512 31.9791 18.5303C31.9781 18.5359 31.977 18.5414 31.976 18.547C31.974 18.5597 31.9719 18.5724 31.9694 18.5851C31.9176 18.8929 31.8515 19.1961 31.7711 19.4958C31.7557 19.5557 31.7388 19.6155 31.7219 19.6754C31.7096 19.7185 31.6973 19.7616 31.6845 19.8047C31.6712 19.8508 31.6568 19.8965 31.6425 19.9421C31.6317 19.9766 31.6205 20.0111 31.6097 20.0456C31.5836 20.1247 31.5569 20.2038 31.5293 20.2824C31.5211 20.3052 31.5134 20.3275 31.5047 20.3503C31.4965 20.3752 31.4872 20.399 31.478 20.4234C31.4483 20.505 31.4171 20.5862 31.3848 20.6668C31.3704 20.7038 31.3556 20.7398 31.3407 20.7763C31.3269 20.8098 31.3136 20.8428 31.2992 20.8757C31.27 20.9452 31.2398 21.0137 31.2091 21.0821C31.1993 21.1044 31.1891 21.1267 31.1788 21.1486C31.1409 21.2322 31.1015 21.3149 31.061 21.397C31.0472 21.4254 31.0333 21.4538 31.0185 21.4817C30.9964 21.5269 30.9734 21.5715 30.9498 21.6161C30.9314 21.6526 30.9119 21.6891 30.8924 21.7251C30.8786 21.752 30.8637 21.7789 30.8494 21.8053C30.8105 21.8763 30.7705 21.9473 30.729 22.0173C30.7034 22.0629 30.6767 22.1085 30.6496 22.1537C30.6383 22.1729 30.627 22.1912 30.6158 22.21C30.6009 22.2343 30.5861 22.2591 30.5712 22.2835C30.418 22.533 30.2551 22.7754 30.0809 23.0102C30.0604 23.0386 30.0394 23.0665 30.0184 23.0944C29.9974 23.1223 29.9769 23.1502 29.9554 23.178C29.9308 23.211 29.9052 23.2435 29.879 23.2759C29.8037 23.3728 29.7259 23.4676 29.6464 23.5609C29.6429 23.5645 29.6398 23.5685 29.6372 23.5726C29.6121 23.602 29.5875 23.6309 29.5619 23.6598C29.5348 23.6907 29.5081 23.7212 29.481 23.7521L29.4779 23.7552C29.4518 23.7851 29.4251 23.815 29.3975 23.8449C29.3969 23.8454 29.3959 23.8464 29.3949 23.8474C29.3708 23.8743 29.3462 23.9012 29.3206 23.9281C29.2289 24.0265 29.1357 24.1238 29.0399 24.2187C29.0147 24.244 28.9891 24.2689 28.964 24.2937C28.9338 24.3226 28.9041 24.3515 28.8739 24.3799C28.7273 24.5194 28.5767 24.6553 28.4215 24.7861C28.3892 24.814 28.3559 24.8414 28.3231 24.8688C28.2903 24.8957 28.257 24.9225 28.2237 24.9494C28.0905 25.0569 27.9537 25.1614 27.8149 25.2628C27.7954 25.277 27.7759 25.2912 27.756 25.3054C27.7319 25.3237 27.7073 25.3409 27.6827 25.3582C27.5879 25.4256 27.4921 25.491 27.3958 25.5549C27.364 25.5767 27.3317 25.5975 27.2995 25.6188C27.2206 25.67 27.1406 25.7197 27.0607 25.7684C27.0361 25.7836 27.0115 25.7983 26.9869 25.813C26.8942 25.8693 26.8005 25.9236 26.7057 25.9758C26.6719 25.9946 26.6386 26.0134 26.6042 26.0316C26.5714 26.0499 26.5381 26.0676 26.5048 26.0854C26.5038 26.0859 26.5028 26.0864 26.5023 26.0869L26.4008 26.1396C26.367 26.1574 26.3327 26.1746 26.2984 26.1919C26.2297 26.2263 26.1606 26.2603 26.0914 26.2928C26.0222 26.3263 25.9526 26.3582 25.8824 26.3896C25.8209 26.417 25.7594 26.4439 25.6979 26.4703C25.3275 26.6285 24.9479 26.7649 24.56 26.879C24.4955 26.8983 24.4304 26.9165 24.3654 26.9343C24.3572 26.9368 24.349 26.9389 24.3408 26.9414C24.3162 26.948 24.2916 26.9546 24.2675 26.9612C24.2429 26.9683 24.2178 26.9749 24.1937 26.9809C24.1517 26.9921 24.1097 27.0028 24.0677 27.0129C24.0349 27.021 24.0016 27.0291 23.9688 27.0367C23.9422 27.0428 23.9155 27.0489 23.8889 27.055C23.8633 27.0606 23.8382 27.0661 23.8131 27.0717H23.812C23.812 27.0717 23.81 27.0727 23.809 27.0727C23.8054 27.0732 23.8023 27.0743 23.7987 27.0753C23.5856 27.1224 23.3714 27.163 23.1563 27.1965C23.1004 27.2056 23.0441 27.2142 22.9882 27.2218C22.8483 27.2416 22.708 27.2583 22.5671 27.2725C22.5107 27.2781 22.4544 27.2832 22.398 27.2883C22.2899 27.2974 22.1808 27.305 22.0717 27.3106C21.9799 27.3156 21.8882 27.3192 21.7965 27.3217C21.4861 27.3298 21.1741 27.3243 20.8626 27.3055C20.841 27.304 20.819 27.3025 20.797 27.3009C20.6546 27.2918 20.5111 27.2791 20.3687 27.2634C20.3538 27.2619 20.3395 27.2604 20.3251 27.2588C20.2708 27.2528 20.217 27.2462 20.1632 27.2396C20.0946 27.2304 20.0259 27.2213 19.9568 27.2112C19.9137 27.2051 19.8707 27.1985 19.8277 27.1914C18.5468 26.9926 17.3234 26.5646 16.208 25.9266C16.1937 25.919 16.1799 25.9109 16.1655 25.9028C16.1517 25.8952 16.1379 25.8871 16.1235 25.8785C16.1097 25.8704 16.0958 25.8622 16.0815 25.8541C16.0631 25.8435 16.0441 25.8323 16.0257 25.8207C16.0195 25.8176 16.0139 25.8141 16.0077 25.8105C16.0047 25.809 16.0011 25.8065 15.998 25.8044C15.9883 25.7988 15.9785 25.7928 15.9683 25.7867C15.9585 25.7811 15.9483 25.775 15.9386 25.7684C15.8755 25.7309 15.8125 25.6918 15.7505 25.6523C15.6599 25.595 15.5697 25.5362 15.4811 25.4753C15.3919 25.4155 15.3043 25.3536 15.2177 25.2907C15.1132 25.2152 15.0102 25.1376 14.9088 25.0585C14.8417 25.0057 14.7745 24.952 14.7085 24.8977C14.4108 24.6528 14.1265 24.3916 13.857 24.1147C13.8349 24.0914 13.8124 24.068 13.7899 24.0447C13.7453 23.9986 13.7017 23.9514 13.6582 23.9042C13.6362 23.8804 13.6146 23.8566 13.5931 23.8327C13.5644 23.8008 13.5357 23.7688 13.507 23.7364C13.4502 23.672 13.3943 23.6066 13.339 23.5411C13.2837 23.4747 13.2289 23.4083 13.1751 23.3408C13.1013 23.2485 13.029 23.1542 12.9583 23.0589C12.9455 23.0416 12.9327 23.0249 12.9204 23.0077C12.9184 23.0051 12.9163 23.0031 12.9148 23.0006C12.8969 22.9762 12.8789 22.9524 12.862 22.928C12.8364 22.893 12.8108 22.8575 12.7867 22.8221C12.7421 22.7602 12.6996 22.6983 12.6576 22.6359C12.6397 22.6106 12.6228 22.5847 12.6059 22.5589C12.5792 22.5188 12.5526 22.4787 12.527 22.4387C12.5054 22.4052 12.4844 22.3722 12.4634 22.3388C12.4496 22.3165 12.4353 22.2941 12.4219 22.2718C12.3733 22.1932 12.3261 22.1146 12.28 22.0355C12.2605 22.001 12.2406 21.967 12.2216 21.9331C12.2021 21.8986 12.1832 21.8646 12.1642 21.8301C12.1448 21.7956 12.1258 21.7612 12.1079 21.7267C12.0889 21.6917 12.0705 21.6572 12.0531 21.6222C12.0162 21.5527 11.9808 21.4827 11.9465 21.4123C11.8937 21.3068 11.844 21.2008 11.7959 21.0933C11.7795 21.0578 11.7636 21.0223 11.7482 20.9863C11.7226 20.928 11.6975 20.8696 11.6734 20.8108C11.6616 20.7809 11.6493 20.7515 11.637 20.7221C11.613 20.6632 11.5899 20.6039 11.5674 20.5446C11.553 20.5076 11.5392 20.47 11.5254 20.4325C11.5131 20.4 11.5013 20.3676 11.4895 20.3351C11.4803 20.3088 11.471 20.2824 11.4618 20.256C11.3742 20.0075 11.2969 19.7555 11.2297 19.5004C11.2282 19.4948 11.2267 19.4887 11.2251 19.4832C11.2195 19.4624 11.2139 19.4416 11.2087 19.4208C11.2016 19.3944 11.1949 19.3681 11.1882 19.3417C11.1816 19.3163 11.1754 19.2905 11.1693 19.2646C11.1677 19.259 11.1662 19.2529 11.1652 19.2469C11.1585 19.22 11.1524 19.1936 11.1462 19.1667C11.1411 19.1439 11.136 19.1206 11.1309 19.0972C11.1309 19.0937 11.1293 19.0896 11.1283 19.0861C11.1257 19.0754 11.1237 19.0648 11.1211 19.0541C11.1109 19.0085 11.1006 18.9624 11.0914 18.9162C11.0812 18.8701 11.0719 18.8239 11.0632 18.7778C11.0453 18.6855 11.0289 18.5927 11.0135 18.5004C11.0053 18.4537 10.9977 18.4076 10.991 18.3609C10.9766 18.2681 10.9638 18.1748 10.9526 18.0815C10.9464 18.0358 10.9413 17.9902 10.9367 17.9446C10.9367 17.942 10.9367 17.9395 10.9357 17.9375C10.9305 17.8923 10.9264 17.8472 10.9218 17.8021C10.9172 17.7554 10.9131 17.7098 10.9095 17.6636C10.9095 17.6601 10.9095 17.6565 10.9085 17.6535C10.9049 17.6129 10.9018 17.5718 10.8993 17.5313C10.8988 17.5181 10.8977 17.5054 10.8972 17.4927C10.8942 17.4552 10.8921 17.4177 10.8901 17.3806C10.887 17.3355 10.8855 17.2909 10.8834 17.2458C10.8834 17.2336 10.8834 17.2214 10.8819 17.2097C10.8803 17.1727 10.8793 17.1357 10.8783 17.0992C10.8767 17.052 10.8762 17.0049 10.8752 16.9582C10.8675 16.3989 10.9059 15.8375 10.99 15.2786C10.9961 15.237 11.0028 15.195 11.0094 15.1529C11.0289 15.0322 11.0499 14.9125 11.073 14.7928C11.0812 14.7527 11.0888 14.7132 11.0976 14.6736C11.1042 14.6397 11.1114 14.6062 11.1186 14.5727C11.1242 14.5484 11.1293 14.5235 11.135 14.4992C11.1396 14.4779 11.1442 14.4571 11.1493 14.4363C11.157 14.4023 11.1652 14.3694 11.1734 14.3359C11.1806 14.305 11.1882 14.274 11.1964 14.2431C11.1975 14.2365 11.199 14.2309 11.201 14.2243C11.2072 14.199 11.2139 14.1736 11.2205 14.1483C11.2333 14.0991 11.2466 14.0494 11.2605 14.0002C11.2707 13.9632 11.281 13.9261 11.2922 13.8891C11.303 13.8511 11.3143 13.8136 11.3255 13.776C11.3368 13.739 11.3481 13.7015 11.3604 13.664C11.3717 13.6269 11.384 13.5894 11.3962 13.5524C11.4065 13.5199 11.4178 13.4875 11.4285 13.455C11.4383 13.4266 11.448 13.3987 11.4577 13.3703C11.4874 13.2856 11.5182 13.201 11.5499 13.1173C11.5812 13.0331 11.6145 12.9499 11.6483 12.8668C11.6601 12.8389 11.6714 12.811 11.6826 12.7836C11.696 12.7527 11.7088 12.7217 11.7221 12.6908C11.7421 12.6441 11.7626 12.598 11.7831 12.5524C11.8445 12.4144 11.9096 12.2775 11.9777 12.1426C11.9926 12.1122 12.008 12.0823 12.0233 12.0523C12.0418 12.0163 12.0607 11.9803 12.0792 11.9448C12.1217 11.8642 12.1653 11.7846 12.2098 11.705C12.2247 11.6786 12.2401 11.6527 12.2549 11.6263C12.2621 11.6132 12.2698 11.6005 12.2769 11.5873C12.2892 11.566 12.3015 11.5447 12.3143 11.5234C12.3287 11.498 12.3435 11.4732 12.3584 11.4483C12.3692 11.4296 12.3809 11.4108 12.3927 11.3921C13.1085 10.2074 14.0537 9.17696 15.1849 8.35289C15.2044 8.33869 15.2239 8.32449 15.2433 8.31029C15.2679 8.29254 15.2925 8.27479 15.3171 8.25755C15.4196 8.18452 15.5225 8.11403 15.6276 8.04506C15.6839 8.00754 15.7408 7.97102 15.7977 7.93502C15.8115 7.9264 15.8253 7.91727 15.8392 7.90916C15.8704 7.88938 15.9017 7.8696 15.9334 7.85033C15.9626 7.83258 15.9913 7.81534 16.0205 7.79759C16.0876 7.75753 16.1548 7.71848 16.2224 7.67994C16.2567 7.66016 16.2916 7.64089 16.3264 7.62213C16.3607 7.60235 16.3956 7.58358 16.4304 7.56482C16.4632 7.54707 16.496 7.52932 16.5293 7.51259C16.5324 7.51056 16.5354 7.50904 16.5385 7.50752C16.5728 7.48977 16.6066 7.47202 16.641 7.45427C16.6763 7.43601 16.7117 7.41877 16.7475 7.40102C16.8182 7.36552 16.8894 7.33104 16.9612 7.29757C16.997 7.28083 17.0329 7.2641 17.0693 7.24787C17.1051 7.23113 17.1415 7.21541 17.1774 7.19969C17.2501 7.16724 17.3229 7.1363 17.3961 7.10588C17.5058 7.06074 17.6164 7.01713 17.7271 6.97555C17.7625 6.96236 17.7978 6.94918 17.8326 6.9365C17.8639 6.92585 17.8946 6.91418 17.9259 6.90354C17.9525 6.8939 17.9802 6.88426 18.0073 6.87514C18.055 6.85891 18.1021 6.84268 18.1503 6.82747C18.3844 6.74988 18.6216 6.68142 18.8614 6.62107C18.8901 6.61346 18.9188 6.60636 18.9475 6.59926C18.9787 6.59166 19.0095 6.58405 19.0402 6.57695C19.0668 6.57086 19.0935 6.56478 19.1201 6.55869C19.1401 6.55413 19.1606 6.54957 19.1806 6.545C19.1872 6.54348 19.1934 6.54196 19.2001 6.54094C19.2733 6.52472 19.3471 6.5095 19.4209 6.4948C19.4665 6.48567 19.5121 6.47705 19.5577 6.46843C19.8318 6.41721 20.1069 6.37714 20.384 6.34824C20.4302 6.34317 20.4763 6.33911 20.5224 6.33455C20.5839 6.32897 20.6453 6.3239 20.7073 6.31933C20.7089 6.31933 20.7104 6.31933 20.7119 6.31883C20.7473 6.31629 20.7826 6.31375 20.818 6.31173C20.8533 6.30919 20.8892 6.30716 20.9246 6.30513C20.9701 6.3026 21.0157 6.30057 21.0619 6.29905C21.069 6.29854 21.0757 6.29854 21.0823 6.29803C21.1244 6.29651 21.1659 6.29499 21.2079 6.29398C21.255 6.29296 21.3021 6.29195 21.3493 6.29093C21.9236 6.28383 22.5 6.32288 23.0733 6.40909C23.1061 6.41366 23.1388 6.41873 23.1721 6.42431C23.2387 6.43445 23.3048 6.44561 23.3709 6.45727C23.5205 6.48313 23.6691 6.51255 23.8167 6.545C23.8453 6.55109 23.8735 6.55768 23.9022 6.56427C23.935 6.57137 23.9683 6.57898 24.0006 6.58709C24.0293 6.59368 24.058 6.60078 24.0861 6.60788C24.0969 6.61042 24.1077 6.61296 24.1179 6.61549C24.1425 6.62158 24.1666 6.62766 24.1912 6.63375C24.2086 6.63882 24.226 6.64288 24.2439 6.64795C24.2757 6.65606 24.3075 6.66468 24.3387 6.6733C24.3766 6.68345 24.414 6.69409 24.4519 6.70424L24.455 6.70576C24.4929 6.71641 24.5303 6.72706 24.5672 6.73821C24.6005 6.74836 24.6338 6.75799 24.6666 6.76813C24.6794 6.77219 24.6917 6.77574 24.704 6.7798C24.7342 6.78893 24.7645 6.79856 24.7942 6.8087C24.8306 6.81986 24.8669 6.83203 24.9033 6.8442C24.9084 6.84572 24.913 6.84725 24.9182 6.84927C24.952 6.86043 24.9858 6.87209 25.0191 6.88376C25.0939 6.90962 25.1682 6.9365 25.2425 6.96388C25.2747 6.97605 25.3075 6.98822 25.3393 7.0009C25.3716 7.01307 25.4038 7.02575 25.4361 7.03843C25.5007 7.06379 25.5647 7.08914 25.6283 7.11653C25.6759 7.13681 25.7235 7.15659 25.7712 7.17738C25.8132 7.19564 25.8542 7.21389 25.8957 7.23266C25.9889 7.27475 26.0811 7.31735 26.1729 7.36248C26.2036 7.37719 26.2338 7.3924 26.2646 7.40761C26.305 7.4279 26.3455 7.44768 26.386 7.46897C26.4464 7.49991 26.5069 7.53135 26.5668 7.56431C26.5668 7.56431 26.5679 7.56431 26.5684 7.56482C26.6273 7.59677 26.6862 7.62922 26.7446 7.66269C26.7462 7.66371 26.7477 7.66422 26.7492 7.66523C26.7718 7.6774 26.7943 7.69008 26.8163 7.70326C26.8399 7.71645 26.864 7.72963 26.8876 7.74383C26.8901 7.74485 26.8927 7.74637 26.8952 7.74789C26.9137 7.75905 26.9321 7.7697 26.9506 7.78035C26.9752 7.79505 27.0003 7.81027 27.0243 7.82497C27.0453 7.83765 27.0669 7.85084 27.0879 7.86351C27.4706 8.09679 27.8364 8.35289 28.1848 8.63282C28.2273 8.66629 28.2693 8.70026 28.3108 8.73475C28.3585 8.7743 28.4056 8.81386 28.4527 8.85392C28.507 8.90058 28.5613 8.94774 28.6146 8.99591C28.6464 9.02381 28.6776 9.05221 28.7089 9.0806C28.7319 9.1019 28.7545 9.12269 28.777 9.14349C28.8226 9.18608 28.8677 9.22868 28.9123 9.27179C28.9348 9.29359 28.9569 9.3154 28.9789 9.33721C29.0086 9.36561 29.0378 9.39502 29.067 9.42443C29.0967 9.45385 29.1259 9.48326 29.1541 9.51318C29.19 9.5502 29.2258 9.58772 29.2607 9.62474C29.2827 9.64756 29.3042 9.67039 29.3247 9.69371C29.3816 9.75457 29.4369 9.81593 29.4917 9.8783C29.5189 9.90924 29.5465 9.94068 29.5737 9.97212C29.6008 10.0036 29.6275 10.035 29.6541 10.067C29.7879 10.2262 29.917 10.3895 30.0415 10.5568C30.0563 10.5766 30.0707 10.5959 30.085 10.6152C30.1029 10.6395 30.1209 10.6638 30.1378 10.6877C30.8899 11.7227 31.4396 12.8759 31.766 14.1001C31.7701 14.1138 31.7736 14.128 31.7772 14.1417C31.7829 14.1609 31.788 14.1807 31.7931 14.2C31.7931 14.202 31.7941 14.204 31.7946 14.2061C31.7972 14.2172 31.8003 14.2284 31.8028 14.2395C31.8039 14.2431 31.8049 14.2471 31.8059 14.2512C31.811 14.2715 31.8162 14.2913 31.8213 14.3121C31.8244 14.3247 31.8274 14.3379 31.8305 14.3511C31.8315 14.3552 31.8326 14.3597 31.8336 14.3643C31.8372 14.3785 31.8408 14.3927 31.8443 14.4069C31.8474 14.4206 31.851 14.4348 31.8546 14.449C31.8802 14.56 31.9048 14.6716 31.9263 14.7832C31.9366 14.8303 31.9453 14.878 31.954 14.9257C31.9632 14.9733 31.9714 15.021 31.9796 15.0687C32.0027 15.2041 32.0231 15.3405 32.0406 15.4769C32.0452 15.5109 32.0498 15.5449 32.0534 15.5794C32.0575 15.6133 32.0616 15.6478 32.0652 15.6818C32.0682 15.7066 32.0708 15.7315 32.0734 15.7568C32.0764 15.7873 32.079 15.8182 32.0821 15.8496C32.0841 15.8745 32.0867 15.8993 32.0887 15.9242C32.0892 15.9272 32.0892 15.9308 32.0892 15.9338C32.0923 15.9683 32.0949 16.0023 32.0974 16.0373C32.1005 16.0728 32.1026 16.1093 32.1051 16.1448C32.1067 16.1722 32.1082 16.2001 32.1097 16.2275C32.1133 16.2893 32.1164 16.3517 32.1184 16.4141C32.1195 16.443 32.1205 16.4724 32.1215 16.5018C32.1225 16.5307 32.1231 16.5596 32.1236 16.5885C32.1236 16.6215 32.1246 16.6539 32.1251 16.6869V16.7118C32.1256 16.7391 32.1256 16.767 32.1256 16.7949C32.1256 17.3183 32.0857 17.8426 32.0057 18.365Z" fill="#ED3144"/>
<path fill-rule="evenodd" clip-rule="evenodd" d="M23.2483 0.0881446C23.2365 0.0871303 23.2242 0.0861161 23.2124 0.0845947C23.258 0.0891588 23.3036 0.0937229 23.3487 0.0987941C23.3154 0.0952443 23.2821 0.0916944 23.2483 0.0881446ZM23.8144 27.071C23.8144 27.071 23.8134 27.071 23.8129 27.0715C23.838 27.0659 23.8631 27.0604 23.8887 27.0543C23.8641 27.0599 23.8395 27.0654 23.8144 27.0705V27.071ZM37.9091 12.4725C37.907 12.4654 37.9055 12.4588 37.9035 12.4517C37.8973 12.4274 37.8906 12.4031 37.8835 12.3792C37.8855 12.3878 37.8881 12.396 37.8901 12.4046C37.9014 12.4446 37.9122 12.4847 37.9229 12.5243C37.9183 12.507 37.9137 12.4898 37.9091 12.4725Z" fill="#2E2526"/>
<path fill-rule="evenodd" clip-rule="evenodd" d="M30.3047 2.43323C32.3468 3.66147 34.1067 5.30404 35.4644 7.24327C34.0749 5.24977 32.3043 3.63105 30.3047 2.43323ZM35.9526 7.98417C35.9393 7.96287 35.926 7.94157 35.9126 7.92078C35.929 7.94715 35.9449 7.97301 35.9613 7.99938C35.9582 7.99431 35.9552 7.98975 35.9526 7.98468V7.98417ZM36.0653 8.16825C36.0827 8.19665 36.0996 8.22505 36.1166 8.25396C36.135 8.28438 36.1529 8.31532 36.1714 8.34625C36.1908 8.37972 36.2108 8.4137 36.2303 8.44768C36.2405 8.46543 36.2513 8.48318 36.2615 8.50143C36.2851 8.54251 36.3082 8.58308 36.3317 8.62466C36.3604 8.67588 36.3891 8.72761 36.4178 8.77933C36.4537 8.84425 36.4895 8.91017 36.5244 8.9761C36.8359 9.56131 37.1089 10.1572 37.3446 10.7596C37.3759 10.8398 37.4066 10.9204 37.4363 11.0005C37.4809 11.1197 37.5239 11.2389 37.5654 11.3585C37.1776 10.2368 36.6729 9.1683 36.0653 8.16876V8.16825ZM37.879 12.3642C37.879 12.3642 37.8779 12.3596 37.8769 12.3571C37.8779 12.3621 37.88 12.3672 37.881 12.3718C37.881 12.3728 37.8815 12.3743 37.882 12.3753C37.881 12.3718 37.88 12.3677 37.879 12.3642ZM37.9707 12.708C37.9615 12.672 37.9522 12.636 37.943 12.6005C37.941 12.5924 37.9389 12.5838 37.9363 12.5756C37.9292 12.5477 37.9215 12.5204 37.9143 12.493C37.9123 12.4859 37.9107 12.4793 37.9087 12.4727C37.9066 12.4656 37.9051 12.459 37.903 12.4519C37.8969 12.4276 37.8902 12.4032 37.8831 12.3794C37.8851 12.388 37.8877 12.3961 37.8897 12.4047C37.901 12.4448 37.9118 12.4849 37.9225 12.5244C37.9333 12.564 37.944 12.6045 37.9543 12.6446C37.9773 12.7328 37.9994 12.8216 38.0209 12.9103C38.0045 12.8429 37.9881 12.7754 37.9712 12.708H37.9707ZM38.045 13.0118C38.046 13.0178 38.0475 13.0234 38.0485 13.029C38.0557 13.0589 38.0624 13.0888 38.0696 13.1188C38.0614 13.0833 38.0532 13.0473 38.045 13.0118ZM38.4712 16.1706C38.4692 16.1123 38.4666 16.0545 38.4635 15.9962C38.4615 15.9495 38.4589 15.9029 38.4564 15.8562C38.4558 15.8456 38.4553 15.8349 38.4543 15.8243C38.4543 15.8182 38.4538 15.8121 38.4533 15.8065C38.4512 15.7705 38.4487 15.735 38.4461 15.699C38.4456 15.6878 38.4451 15.6762 38.4441 15.6645C38.4441 15.6615 38.4441 15.6579 38.4436 15.6549C38.44 15.6021 38.4359 15.5489 38.4318 15.4961C38.4297 15.4693 38.4277 15.4419 38.4251 15.4145C38.4225 15.381 38.4195 15.3476 38.4164 15.3146C38.4113 15.2578 38.4062 15.2005 38.4 15.1432C38.3887 15.0291 38.3759 14.915 38.3621 14.8009C38.3549 14.7441 38.3477 14.6868 38.3406 14.6295C38.3257 14.5154 38.3093 14.4013 38.2914 14.2872C38.2827 14.2319 38.274 14.1771 38.2648 14.1224C38.2617 14.1021 38.2581 14.0813 38.2545 14.0605C38.2473 14.0159 38.2396 13.9717 38.2314 13.9271C38.2289 13.9129 38.2263 13.8987 38.2238 13.8845C38.2145 13.8333 38.2053 13.7821 38.1956 13.7304C38.1843 13.6695 38.1725 13.6086 38.1602 13.5483C38.3693 14.6031 38.4794 15.6929 38.4794 16.8081V16.4576C38.4774 16.3623 38.4748 16.267 38.4707 16.1711L38.4712 16.1706Z" fill="#B20F26"/>
<path fill-rule="evenodd" clip-rule="evenodd" d="M38.4801 3.12893V16.4571C38.4781 16.3617 38.4755 16.2664 38.4714 16.1705C38.4694 16.1122 38.4668 16.0544 38.4637 15.9961C38.4617 15.9494 38.4591 15.9028 38.4566 15.8561C38.4561 15.8455 38.4555 15.8348 38.4545 15.8242C38.4545 15.8181 38.454 15.812 38.4535 15.8064C38.4514 15.7704 38.4489 15.7349 38.4463 15.6989C38.4458 15.6878 38.4453 15.6761 38.4443 15.6644C38.4443 15.6614 38.4443 15.6578 38.4438 15.6548C38.4402 15.6021 38.4361 15.5488 38.432 15.4961C38.4299 15.4692 38.4279 15.4418 38.4253 15.4144C38.4228 15.381 38.4197 15.3475 38.4166 15.3145C38.4115 15.2577 38.4064 15.2004 38.4002 15.1431C38.3889 15.029 38.3761 14.9149 38.3623 14.8008C38.3551 14.744 38.348 14.6867 38.3408 14.6294C38.3259 14.5153 38.3095 14.4012 38.2916 14.2871C38.2829 14.2318 38.2742 14.1771 38.265 14.1223C38.2619 14.102 38.2583 14.0812 38.2547 14.0604C38.2475 14.0158 38.2399 13.9717 38.2317 13.927C38.2291 13.9128 38.2265 13.8986 38.224 13.8844C38.2147 13.8332 38.2055 13.782 38.1958 13.7303C38.1845 13.6694 38.1727 13.6086 38.1604 13.5482C38.1528 13.5097 38.1451 13.4716 38.1374 13.4331C38.1364 13.4285 38.1353 13.4235 38.1343 13.4184C38.1241 13.3687 38.1128 13.319 38.102 13.2693C38.0918 13.2201 38.081 13.1709 38.0698 13.1222C38.0698 13.1212 38.0692 13.1202 38.0692 13.1187C38.061 13.0832 38.0529 13.0472 38.0447 13.0117C38.0365 12.9782 38.0288 12.9442 38.0206 12.9103C38.0042 12.8428 37.9878 12.7754 37.9709 12.7079C37.9617 12.6719 37.9524 12.6359 37.9432 12.6004C37.9412 12.5923 37.9391 12.5837 37.9366 12.5756C37.9294 12.5477 37.9217 12.5203 37.9145 12.4929C37.9125 12.4858 37.9109 12.4792 37.9089 12.4726C37.9068 12.4655 37.9053 12.4589 37.9033 12.4518C37.8971 12.4275 37.8904 12.4031 37.8833 12.3793C37.8833 12.3783 37.8833 12.3768 37.8822 12.3758C37.8812 12.3722 37.8802 12.3682 37.8792 12.3646C37.8787 12.3621 37.8781 12.36 37.8771 12.3575C37.8771 12.355 37.8761 12.3524 37.8751 12.3499C37.8746 12.3474 37.874 12.3453 37.873 12.3428C37.873 12.3418 37.8725 12.3408 37.872 12.3398C37.8705 12.3342 37.8689 12.3296 37.8674 12.324C37.8612 12.3022 37.8551 12.2804 37.8489 12.2586C37.8479 12.2551 37.8469 12.2515 37.8459 12.2475C37.8443 12.2409 37.8423 12.2338 37.8402 12.2272C37.8295 12.1896 37.8187 12.1521 37.808 12.1151C37.7952 12.071 37.7818 12.0269 37.7685 11.9827C37.7593 11.9518 37.7496 11.9209 37.7398 11.8904C37.7362 11.8773 37.7316 11.8641 37.7275 11.8509V11.8504C37.7219 11.8326 37.7163 11.8154 37.7111 11.7976C37.7091 11.7921 37.7075 11.7865 37.7055 11.7809C37.6999 11.7632 37.6942 11.7454 37.6891 11.7282C37.684 11.7124 37.6789 11.6967 37.6737 11.6815C37.6655 11.6567 37.6578 11.6318 37.6496 11.607C37.6486 11.6034 37.6471 11.5999 37.6461 11.5963C37.6338 11.5593 37.6215 11.5223 37.6087 11.4858C37.6066 11.4797 37.6046 11.4736 37.6025 11.467C37.5902 11.431 37.5779 11.3945 37.5651 11.3585C37.1773 10.2367 36.6726 9.16822 36.065 8.16869C36.0409 8.12863 36.0163 8.08856 35.9918 8.04901C35.9815 8.03227 35.9713 8.01554 35.961 7.99931C35.9579 7.99424 35.9549 7.98968 35.9523 7.98461C35.939 7.96331 35.9257 7.94201 35.9123 7.92122C35.9103 7.91817 35.9088 7.91513 35.9067 7.91209C35.9052 7.90955 35.9036 7.90702 35.9021 7.90448C35.8852 7.8776 35.8683 7.85123 35.8514 7.82486C35.8268 7.78632 35.8022 7.74829 35.7771 7.71025C35.7679 7.69555 35.7581 7.68084 35.7489 7.66664C35.734 7.64433 35.7197 7.62151 35.7048 7.59919C35.6736 7.55152 35.6418 7.50436 35.6101 7.45669C35.5926 7.42982 35.5742 7.40344 35.5558 7.37657C35.5255 7.33194 35.4948 7.28833 35.4641 7.24421C34.0746 5.25072 32.304 3.63199 30.3044 2.43417C30.2132 2.3794 30.1215 2.32514 30.0287 2.27291C30.0118 2.26276 29.9949 2.25262 29.978 2.24349C30.4847 2.52951 31.0985 2.57718 31.6272 2.33376L34.7463 0.898609C36.4303 0.017741 38.4796 1.22367 38.4796 3.12994L38.4801 3.12893Z" fill="#B20F26"/>
<path fill-rule="evenodd" clip-rule="evenodd" d="M13.0211 31.373C12.5144 31.0869 11.9007 31.0393 11.3719 31.2827L8.25288 32.7178C6.56885 33.5987 4.51953 32.3928 4.51953 30.4865V17.1406C4.52312 17.3328 4.52978 17.5245 4.54105 17.7167C4.54361 17.7618 4.54617 17.8075 4.54925 17.8531C4.57076 18.1939 4.60253 18.5352 4.64505 18.876C4.65888 18.9896 4.67477 19.1027 4.69116 19.2168C4.7009 19.2852 4.71165 19.3532 4.72241 19.4211C4.73317 19.4891 4.74444 19.5571 4.75623 19.625C4.7716 19.7158 4.78799 19.8066 4.80541 19.8968C4.83 20.0282 4.85664 20.16 4.88482 20.2914C4.89404 20.3329 4.90275 20.374 4.91198 20.4156C4.92069 20.4567 4.92991 20.4973 4.93964 20.5383C4.93964 20.5383 4.93964 20.5385 4.93964 20.5388C4.94272 20.5515 4.94528 20.5642 4.94835 20.5769C4.9545 20.6048 4.96116 20.6332 4.96782 20.6611V20.6616C4.98268 20.7239 4.99753 20.7868 5.01342 20.8492C5.01803 20.8685 5.02315 20.8882 5.02776 20.9075C5.0293 20.9136 5.03084 20.9197 5.03237 20.9263C5.51652 22.8275 6.32703 24.5999 7.40343 26.1821C7.42598 26.2155 7.44903 26.2495 7.4726 26.283C7.49514 26.3165 7.5182 26.3499 7.54176 26.3829C8.8897 28.3135 10.5947 29.8922 12.5201 31.0763C12.5631 31.1032 12.6061 31.1295 12.6497 31.1554C12.6886 31.1792 12.7281 31.2026 12.7675 31.2259C12.8264 31.2614 12.8859 31.2959 12.9458 31.3299C12.9704 31.3446 12.9955 31.3593 13.0206 31.3735L13.0211 31.373Z" fill="#B20F26"/>
<path d="M60.6495 28.3073C59.015 28.3073 57.4915 28.0535 56.0799 27.5461C54.6683 27.0386 53.4321 26.3086 52.3721 25.3535C51.3121 24.3992 50.4847 23.2467 49.8908 21.8957C49.2969 20.5457 49 19.0259 49 17.3381C49 15.6503 49.2872 14.144 49.8617 12.7877C50.4362 11.4314 51.2363 10.2716 52.262 9.30669C53.2876 8.34173 54.4886 7.60194 55.8658 7.08372C57.2421 6.56819 58.7374 6.30908 60.3525 6.30908C61.0953 6.30908 61.8584 6.36894 62.6408 6.48956C63.4233 6.61018 64.2057 6.81121 64.989 7.09266C65.7715 7.3741 66.5196 7.76098 67.2324 8.25328L65.5679 11.3116C64.8252 10.8292 64.0304 10.47 63.1827 10.2341C62.336 9.99823 61.4513 9.8803 60.5305 9.8803C59.3718 9.8803 58.3259 10.0536 57.3954 10.4003C56.4641 10.747 55.6719 11.2437 55.0181 11.8924C54.3643 12.5402 53.8639 13.3237 53.5176 14.2431C53.1704 15.1625 52.9977 16.1945 52.9977 17.3399C52.9977 18.9571 53.3369 20.3286 54.0154 21.4535C54.6939 22.5783 55.6252 23.4298 56.8086 24.007C57.992 24.5851 59.3419 24.8737 60.8574 24.8737C61.5702 24.8737 62.2196 24.8058 62.8038 24.67C63.388 24.5342 63.8682 24.3814 64.2454 24.2107V19.57H59.6837V16.3758H67.6932V26.5311C67.1187 26.9028 66.4174 27.2217 65.5909 27.488C64.7635 27.7542 63.9097 27.9571 63.0276 28.0982C62.1456 28.2385 61.3535 28.3091 60.6503 28.3091L60.6495 28.3073Z" fill="#2E2526"/>
<path d="M77.0103 28.3073C75.4252 28.3073 74.0207 27.9428 72.7976 27.2146C71.5738 26.4864 70.6133 25.517 69.9146 24.3063C69.2158 23.0957 68.8669 21.7671 68.8669 20.3205C68.8669 19.2555 69.0678 18.2414 69.4687 17.2765C69.8696 16.3115 70.4345 15.4609 71.1631 14.7229C71.8918 13.9849 72.751 13.4024 73.7413 12.9753C74.7317 12.5482 75.8217 12.3347 77.0103 12.3347C78.5858 12.3347 79.9842 12.6965 81.2081 13.4193C82.4311 14.1422 83.3924 15.1098 84.0911 16.3196C84.7899 17.5302 85.1388 18.8633 85.1388 20.3196C85.1388 21.3847 84.9379 22.397 84.537 23.3557C84.1361 24.3153 83.573 25.1667 82.8505 25.9092C82.1271 26.6526 81.2706 27.2378 80.2802 27.6649C79.2898 28.092 78.1999 28.3055 77.0112 28.3055L77.0103 28.3073ZM76.9954 24.9318C77.8369 24.9318 78.5849 24.7432 79.2387 24.3671C79.8925 23.99 80.4071 23.4584 80.7842 22.7695C81.1605 22.0816 81.349 21.2658 81.349 20.3214C81.349 19.377 81.1631 18.5586 80.7922 17.8653C80.4203 17.1719 79.9058 16.6403 79.2467 16.2677C78.5876 15.8961 77.8377 15.7102 76.9954 15.7102C76.153 15.7102 75.4181 15.8961 74.7591 16.2677C74.1 16.6394 73.5854 17.1719 73.2135 17.8653C72.8417 18.5586 72.6567 19.377 72.6567 20.3214C72.6567 21.2658 72.8444 22.0825 73.2215 22.7695C73.5977 23.4575 74.1132 23.99 74.767 24.3671C75.4208 24.7441 76.1636 24.9318 76.9963 24.9318H76.9954Z" fill="#2E2526"/>
<path d="M86.6085 27.8561V6.76118H93.3395C95.4296 6.76118 97.2773 7.20792 98.8818 8.10228C100.486 8.99665 101.739 10.2368 102.642 11.8236C103.543 13.4104 103.994 15.2438 103.994 17.3229C103.994 18.8704 103.736 20.2893 103.221 21.5794C102.706 22.8705 101.976 23.9829 101.03 24.9166C100.084 25.8511 98.9594 26.574 97.6571 27.0859C96.3539 27.5979 94.9159 27.8543 93.3404 27.8543H86.6094L86.6085 27.8561ZM92.9835 24.2098C94.0233 24.2098 94.9696 24.0544 95.8217 23.7425C96.6737 23.4316 97.4068 22.9795 98.021 22.3862C98.6351 21.7939 99.1083 21.0702 99.4396 20.2169C99.7718 19.3636 99.9374 18.3987 99.9374 17.3238C99.9374 15.8773 99.6475 14.6371 99.0678 13.6025C98.488 12.5679 97.6782 11.7771 96.6385 11.2294C95.5987 10.6817 94.3801 10.4083 92.9827 10.4083H90.4864V24.2098H92.9835Z" fill="#2E2526"/>
<path d="M109.566 28.3073C108.546 28.3073 107.645 28.1116 106.862 27.7194C106.08 27.3281 105.467 26.7723 105.027 26.0549C104.586 25.3365 104.366 24.485 104.366 23.5013C104.366 22.6579 104.574 21.9038 104.99 21.2408C105.406 20.5779 106.045 20.0275 106.906 19.5906C107.768 19.1537 108.868 18.8597 110.205 18.7087C111.543 18.5577 113.138 18.5783 114.99 18.7686L115.049 21.315C113.84 21.1345 112.785 21.0541 111.884 21.0737C110.982 21.0943 110.237 21.197 109.648 21.3829C109.058 21.5687 108.617 21.8269 108.325 22.1584C108.032 22.4899 107.886 22.8768 107.886 23.319C107.886 23.982 108.124 24.4922 108.599 24.8487C109.075 25.2052 109.723 25.3839 110.545 25.3839C111.249 25.3839 111.878 25.2534 112.433 24.9925C112.987 24.7316 113.431 24.3626 113.762 23.8855C114.095 23.4084 114.26 22.8437 114.26 22.1906V18.3781C114.26 17.7554 114.129 17.2104 113.866 16.7431C113.604 16.2758 113.203 15.9121 112.663 15.6503C112.123 15.3895 111.437 15.259 110.604 15.259C109.832 15.259 109.064 15.3769 108.301 15.6128C107.538 15.8487 106.83 16.2132 106.176 16.7055L105.136 13.9483C106.077 13.3157 107.07 12.8636 108.115 12.592C109.16 12.3204 110.168 12.1855 111.139 12.1855C112.526 12.1855 113.727 12.4061 114.743 12.8484C115.758 13.2907 116.542 13.9662 117.091 14.8748C117.641 15.7844 117.916 16.937 117.916 18.3326V27.8552H114.558V26.1379C114.063 26.8411 113.379 27.379 112.508 27.7498C111.636 28.1215 110.656 28.3073 109.566 28.3073H109.566Z" fill="#2E2526"/>
<path d="M118.274 15.922V12.7877H121.84V15.922H118.274ZM126.387 28.3073C124.862 28.3073 123.65 27.865 122.754 26.9814C121.857 26.0977 121.41 24.7611 121.41 22.9733V8.41857H125.229V12.7886H129.136V15.9229H125.229V22.2058C125.229 23.1698 125.416 23.8506 125.793 24.2474C126.17 24.6441 126.69 24.8424 127.354 24.8424C127.69 24.8424 128.01 24.8022 128.313 24.7218C128.615 24.6414 128.894 24.5359 129.152 24.4055L129.747 27.479C129.311 27.7105 128.801 27.9061 128.217 28.0669C127.631 28.2278 127.023 28.3082 126.389 28.3082L126.387 28.3073Z" fill="#2E2526"/>
<path d="M137.784 28.3073C136.169 28.3073 134.753 27.9731 133.534 27.3057C132.316 26.6374 131.365 25.7064 130.681 24.5109C129.997 23.3155 129.655 21.9243 129.655 20.3375C129.655 19.1724 129.854 18.1029 130.25 17.1282C130.647 16.1543 131.201 15.3073 131.915 14.5889C132.627 13.8705 133.47 13.3157 134.441 12.9244C135.412 12.533 136.472 12.3365 137.621 12.3365C138.869 12.3365 139.983 12.5598 140.964 13.0066C141.945 13.4533 142.76 14.0814 143.408 14.89C144.057 15.6986 144.512 16.6457 144.776 17.7304C145.038 18.815 145.07 19.9908 144.873 21.256H133.252C133.243 22.0494 133.428 22.7427 133.809 23.3351C134.191 23.9275 134.735 24.3921 135.444 24.7289C136.152 25.0658 136.986 25.2337 137.948 25.2337C138.8 25.2337 139.617 25.1087 140.4 24.8567C141.182 24.6056 141.91 24.2339 142.584 23.7416L143.922 26.439C143.456 26.8206 142.877 27.152 142.183 27.4335C141.49 27.7149 140.759 27.9303 139.992 28.0812C139.225 28.2322 138.489 28.3073 137.786 28.3073H137.784ZM133.474 18.513H141.172C141.142 17.4989 140.81 16.7029 140.176 16.1248C139.542 15.5476 138.661 15.2581 137.531 15.2581C136.401 15.2581 135.47 15.5467 134.738 16.1248C134.005 16.7029 133.584 17.4989 133.475 18.513H133.474Z" fill="#2E2526"/>
<path d="M0 41.6178H14.1977C21.5458 41.6178 26.6633 46.6171 26.6633 53.8959C26.6633 61.2006 21.4409 66.2258 14.014 66.2258H5.87852V78.9961H0V41.6178ZM5.87852 46.5135V61.356H12.6231C17.7405 61.356 20.6536 58.6362 20.6536 53.9218C20.6536 49.2074 17.7405 46.5135 12.6493 46.5135H5.87852Z" fill="#ED3144"/>
<path d="M37.6855 46.4876V59.9314H45.926C50.4661 59.9314 53.0642 57.4706 53.0642 53.1965C53.0642 49.0261 50.3086 46.4876 45.7685 46.4876H37.6855ZM37.6855 64.6198V78.9961H31.807V41.6178H46.4771C54.2714 41.6178 59.1264 46.0732 59.1264 53.0411C59.1264 58.0922 56.3971 62.1849 51.7783 63.7132L60.2549 78.9961H53.4841L45.7685 64.6198H37.6855Z" fill="#ED3144"/>
<path d="M88.8602 73.9709V78.9961H64.8212V41.6178H88.8602V46.6171H70.6997V57.5483H87.8892V62.3663H70.6997V73.9709H88.8602Z" fill="#ED3144"/>
<path d="M133.212 78.9961H127.832V51.4869H127.648L116.232 78.7112H111.876L100.434 51.4869H100.25V78.9961H94.8962V41.6178H101.693L113.949 71.1215H114.159L126.388 41.6178H133.212V78.9961Z" fill="#ED3144"/>
<path d="M146.071 78.9961H140.192V41.6178H146.071V78.9961Z" fill="#ED3144"/>
<path d="M158.93 41.6178V65.371C158.93 70.7071 162.342 74.4631 168.378 74.4631C174.414 74.4631 177.852 70.7071 177.852 65.371V41.6178H183.704V65.8632C183.704 73.9191 177.878 79.6178 168.378 79.6178C158.878 79.6178 153.052 73.9191 153.052 65.8632V41.6178H158.93Z" fill="#ED3144"/>
<path d="M229 78.9961H223.62V51.4869H223.436L212.021 78.7112H207.664L196.222 51.4869H196.038V78.9961H190.685V41.6178H197.482L209.737 71.1215H209.947L222.177 41.6178H229V78.9961Z" fill="#ED3144"/>
</svg>
