<svg width="25" height="25" viewBox="0 0 25 25" fill="none" xmlns="http://www.w3.org/2000/svg">
<path fill-rule="evenodd" clip-rule="evenodd" d="M9.25129 5.80017C8.55777 6.5908 8.16618 7.73708 8.16618 9.10038V10.8336C8.16618 11.6941 7.77889 12.409 7.36834 12.9537C6.99286 13.4518 6.52528 13.8991 6.15809 14.2503C6.12725 14.2798 6.09712 14.3086 6.06782 14.3367C5.72433 14.6663 5.49951 15.1137 5.49951 15.6334C5.49951 16.1585 5.89315 16.5 6.27729 16.5H18.7217C19.1059 16.5 19.4995 16.1585 19.4995 15.6334C19.4995 15.1137 19.2747 14.6663 18.9312 14.3367C18.9019 14.3086 18.8718 14.2798 18.8409 14.2503C18.4737 13.8991 18.0062 13.4518 17.6307 12.9537C17.2201 12.409 16.8328 11.6941 16.8328 10.8336V9.10038C16.8328 7.73708 16.4413 6.5908 15.7477 5.80017C15.0708 5.02842 14.0246 4.50062 12.4995 4.50062C10.9745 4.50062 9.92826 5.02842 9.25129 5.80017ZM7.74773 4.48141C8.84854 3.22647 10.469 2.50073 12.4995 2.50073C14.53 2.50073 16.1505 3.22647 17.2513 4.48141C18.3355 5.71747 18.8328 7.37104 18.8328 9.10038V10.8336C18.8328 11.0776 18.9423 11.3712 19.2279 11.75C19.5015 12.1131 19.8568 12.4536 20.2493 12.8298C20.2713 12.851 20.2935 12.8722 20.3158 12.8936C20.9995 13.5495 21.4995 14.4997 21.4995 15.6334C21.4995 17.17 20.3013 18.4999 18.7217 18.4999H6.27729C4.69775 18.4999 3.49951 17.17 3.49951 15.6334C3.49951 14.4997 3.99948 13.5495 4.68323 12.8936C4.70551 12.8722 4.72768 12.851 4.74973 12.8298C5.14221 12.4536 5.49749 12.1131 5.77117 11.75C6.05668 11.3712 6.16618 11.0776 6.16618 10.8336V9.10038C6.16618 7.37104 6.66348 5.71747 7.74773 4.48141Z" fill="#ED3144"/>
<path fill-rule="evenodd" clip-rule="evenodd" d="M9.94265 19.6691C10.4013 19.3615 11.0225 19.484 11.3301 19.9426C11.4295 20.0908 11.5839 20.2306 11.7915 20.334C11.9994 20.4376 12.2441 20.496 12.4996 20.496C12.7552 20.496 12.9998 20.4376 13.2077 20.334C13.4153 20.2306 13.5697 20.0908 13.6691 19.9426C13.9767 19.484 14.5979 19.3615 15.0566 19.6691C15.5153 19.9767 15.6378 20.5978 15.3301 21.0565C15.023 21.5144 14.594 21.8778 14.0996 22.1241C13.6054 22.3703 13.0542 22.4959 12.4996 22.4959C11.945 22.4959 11.3938 22.3703 10.8997 22.1241C10.4053 21.8778 9.9762 21.5144 9.66908 21.0565C9.36148 20.5978 9.48396 19.9767 9.94265 19.6691Z" fill="#ED3144"/>
</svg>
