<svg width="322" height="63" viewBox="0 0 322 63" fill="none" xmlns="http://www.w3.org/2000/svg">
<g filter="url(#filter0_ddddi_502_3518)">
<rect x="3" y="2.6178" width="316" height="50" rx="16" fill="#ED3144"/>
<rect x="3.5" y="3.1178" width="315" height="49" rx="15.5" stroke="#ED3144" stroke-linecap="round"/>
<path d="M82.2734 33.6178H80.5312V23.8678H74.8906V33.6178H73.1328V22.3444H82.2734V33.6178ZM88.5859 25.2662C90.6719 25.2662 92.0469 26.9069 92.0469 29.5084C92.0469 32.11 90.6797 33.7584 88.6172 33.7584C87.4375 33.7584 86.5 33.1803 86.0312 32.2662H85.9922V36.3365H84.3047V25.399H85.9375V26.8131H85.9688C86.4531 25.8678 87.3984 25.2662 88.5859 25.2662ZM88.1406 32.3287C89.4766 32.3287 90.3125 31.235 90.3125 29.5084C90.3125 27.7897 89.4766 26.6881 88.1406 26.6881C86.8516 26.6881 85.9844 27.8131 85.9844 29.5084C85.9844 31.2194 86.8438 32.3287 88.1406 32.3287ZM95.1641 33.6178H93.5V25.399H95.1641V31.1569H95.2266L99.0234 25.399H100.688V33.6178H99.0234V27.8444H98.9609L95.1641 33.6178ZM107.945 26.735H104.18V33.6178H102.5V25.399H107.945V26.735ZM111.078 29.8756C110.922 32.2037 110.336 33.6959 108.492 33.6959C108.219 33.6959 108.023 33.649 107.922 33.61V32.1256C108 32.149 108.156 32.1881 108.367 32.1881C109.164 32.1881 109.445 31.235 109.539 29.8053L109.82 25.399H115.516V33.6178H113.836V26.735H111.305L111.078 29.8756ZM120.211 32.4225C121.391 32.4225 122.312 31.61 122.312 30.5397V29.8912L120.289 30.0162C119.281 30.0865 118.711 30.5319 118.711 31.235C118.711 31.9537 119.305 32.4225 120.211 32.4225ZM119.742 33.7584C118.133 33.7584 117.008 32.7584 117.008 31.2819C117.008 29.8444 118.109 28.9615 120.062 28.8522L122.312 28.7194V28.0865C122.312 27.1725 121.695 26.6256 120.664 26.6256C119.688 26.6256 119.078 27.0944 118.93 27.8287H117.336C117.43 26.3444 118.695 25.2506 120.727 25.2506C122.719 25.2506 123.992 26.3053 123.992 27.9537V33.6178H122.375V32.2662H122.336C121.859 33.1803 120.82 33.7584 119.742 33.7584ZM132.781 28.0319H131.156C130.938 27.274 130.312 26.6569 129.266 26.6569C127.961 26.6569 127.109 27.774 127.109 29.5084C127.109 31.2897 127.969 32.36 129.281 32.36C130.281 32.36 130.938 31.86 131.172 31.0006H132.797C132.555 32.649 131.203 33.774 129.266 33.774C126.914 33.774 125.398 32.1412 125.398 29.5084C125.398 26.9303 126.914 25.2506 129.25 25.2506C131.281 25.2506 132.547 26.5162 132.781 28.0319ZM135.82 33.6178H134.156V25.399H135.82V31.1569H135.883L139.68 25.399H141.344V33.6178H139.68V27.8444H139.617L135.82 33.6178ZM148.828 28.5162V27.1412H150.188C151.406 27.1412 152.242 26.3756 152.242 25.3131C152.242 24.2662 151.523 23.5709 150.188 23.5709C148.969 23.5709 148.156 24.274 148.055 25.3834H146.406C146.539 23.4069 148.031 22.1334 150.266 22.1334C152.398 22.1334 153.953 23.3444 153.953 25.0787C153.953 26.485 153.031 27.4928 151.633 27.7428V27.774C153.328 27.8912 154.422 28.9303 154.422 30.5084C154.422 32.4772 152.633 33.8287 150.281 33.8287C147.852 33.8287 146.289 32.4928 146.18 30.5475H147.859C147.969 31.6256 148.859 32.3678 150.281 32.3678C151.656 32.3678 152.641 31.5865 152.641 30.485C152.641 29.2662 151.719 28.5162 150.234 28.5162H148.828ZM164.812 32.2819V26.735H161.953L161.727 29.8756C161.664 30.8444 161.461 31.6881 161.086 32.2194V32.2819H164.812ZM160.141 35.774H158.586V32.2819H159.25C159.852 31.9069 160.125 30.9147 160.203 29.8053L160.5 25.399H166.492V32.2819H167.766V35.774H166.203V33.6178H160.141V35.774ZM173.195 25.2662C175.281 25.2662 176.656 26.9069 176.656 29.5084C176.656 32.11 175.289 33.7584 173.227 33.7584C172.047 33.7584 171.109 33.1803 170.641 32.2662H170.602V36.3365H168.914V25.399H170.547V26.8131H170.578C171.062 25.8678 172.008 25.2662 173.195 25.2662ZM172.75 32.3287C174.086 32.3287 174.922 31.235 174.922 29.5084C174.922 27.7897 174.086 26.6881 172.75 26.6881C171.461 26.6881 170.594 27.8131 170.594 29.5084C170.594 31.2194 171.453 32.3287 172.75 32.3287ZM178.711 36.6803C178.578 36.6803 178.148 36.6647 178.023 36.6412V35.274C178.148 35.3053 178.43 35.3053 178.57 35.3053C179.359 35.3053 179.773 34.9772 180.031 34.1334C180.031 34.1178 180.18 33.6334 180.18 33.6256L177.211 25.399H179.039L181.125 32.0865H181.148L183.234 25.399H185.016L181.93 34.0475C181.227 36.0397 180.422 36.6803 178.711 36.6803ZM189.047 33.774C187.125 33.774 185.789 32.8287 185.641 31.3131H187.305C187.477 32.024 188.102 32.4147 189.047 32.4147C190.125 32.4147 190.727 31.9147 190.727 31.1881C190.727 30.3678 190.172 29.9928 189.055 29.9928H187.852V28.7506H189.031C189.977 28.7506 190.469 28.3912 190.469 27.6725C190.469 27.0397 190.016 26.5944 189.055 26.5944C188.148 26.5944 187.539 26.985 187.43 27.6256H185.812C185.984 26.1647 187.211 25.2506 189.047 25.2506C191.039 25.2506 192.117 26.1412 192.117 27.5084C192.117 28.3444 191.602 29.0553 190.805 29.2584V29.3209C191.852 29.5631 192.406 30.2428 192.406 31.1803C192.406 32.7428 191.086 33.774 189.047 33.774ZM197.336 26.61C196.156 26.61 195.328 27.5084 195.242 28.7506H199.352C199.312 27.4928 198.516 26.61 197.336 26.61ZM199.344 31.2037H200.945C200.711 32.7037 199.289 33.774 197.406 33.774C194.992 33.774 193.531 32.1412 193.531 29.5475C193.531 26.9694 195.016 25.2506 197.336 25.2506C199.617 25.2506 201.039 26.86 201.039 29.3522V29.9303H195.234V30.0319C195.234 31.4615 196.094 32.4069 197.445 32.4069C198.406 32.4069 199.117 31.9225 199.344 31.2037ZM204.148 33.6178H202.484V25.399H204.148V31.1569H204.211L208.008 25.399H209.672V33.6178H208.008V27.8444H207.945L204.148 33.6178ZM203.602 21.7897H204.742C204.75 22.6725 205.312 23.3444 206.195 23.3444C207.086 23.3444 207.648 22.6725 207.656 21.7897H208.797C208.797 23.2662 207.75 24.2662 206.195 24.2662C204.648 24.2662 203.602 23.2662 203.602 21.7897ZM215.289 29.1881C215.289 26.4537 216.008 24.2506 217.547 22.3444H219.031C217.906 23.6569 217.023 26.61 217.023 29.1803C217.023 31.7506 217.906 34.7115 219.031 36.024H217.547C216.008 34.11 215.289 31.9069 215.289 29.1881ZM224.312 33.8287C221.609 33.8287 220.008 31.5631 220.008 27.9694C220.008 24.399 221.625 22.1334 224.312 22.1334C227.008 22.1334 228.602 24.3912 228.602 27.9615C228.602 31.5553 227.016 33.8287 224.312 33.8287ZM224.312 32.36C225.922 32.36 226.836 30.6959 226.836 27.9694C226.836 25.2819 225.906 23.6022 224.312 23.6022C222.719 23.6022 221.781 25.2897 221.781 27.9694C221.781 30.6881 222.703 32.36 224.312 32.36ZM230.797 36.024H229.297L233.297 22.3444H234.797L230.797 36.024ZM238.125 28.5162V27.1412H239.484C240.703 27.1412 241.539 26.3756 241.539 25.3131C241.539 24.2662 240.82 23.5709 239.484 23.5709C238.266 23.5709 237.453 24.274 237.352 25.3834H235.703C235.836 23.4069 237.328 22.1334 239.562 22.1334C241.695 22.1334 243.25 23.3444 243.25 25.0787C243.25 26.485 242.328 27.4928 240.93 27.7428V27.774C242.625 27.8912 243.719 28.9303 243.719 30.5084C243.719 32.4772 241.93 33.8287 239.578 33.8287C237.148 33.8287 235.586 32.4928 235.477 30.5475H237.156C237.266 31.6256 238.156 32.3678 239.578 32.3678C240.953 32.3678 241.938 31.5865 241.938 30.485C241.938 29.2662 241.016 28.5162 239.531 28.5162H238.125ZM248.523 29.1881C248.523 32.6022 247.414 34.6022 246.266 36.024H244.781C245.562 35.1178 246.789 32.5553 246.789 29.1803C246.789 25.8053 245.555 23.2428 244.781 22.3444H246.266C247.414 23.7584 248.523 25.7584 248.523 29.1881Z" fill="white"/>
<path fill-rule="evenodd" clip-rule="evenodd" d="M292.25 28.5345C292.25 26.5094 293.892 24.8678 295.917 24.8678H300.5C302.525 24.8678 304.167 26.5094 304.167 28.5345V33.1178C304.167 35.1428 302.525 36.7845 300.5 36.7845H295.917C293.892 36.7845 292.25 35.1428 292.25 33.1178V28.5345ZM295.917 26.7011C294.904 26.7011 294.083 27.5219 294.083 28.5345V33.1178C294.083 34.1303 294.904 34.9511 295.917 34.9511H300.5C301.513 34.9511 302.333 34.1303 302.333 33.1178V28.5345C302.333 27.5219 301.513 26.7011 300.5 26.7011H295.917Z" fill="#FEFFFF"/>
<path fill-rule="evenodd" clip-rule="evenodd" d="M285.833 22.1178C285.833 20.0928 287.475 18.4512 289.5 18.4512H294.083C296.108 18.4512 297.75 20.0928 297.75 22.1178V22.3088C297.75 22.8151 297.339 23.2255 296.833 23.2255C296.327 23.2255 295.916 22.8151 295.916 22.3088V22.1178C295.916 21.1053 295.096 20.2845 294.083 20.2845H289.5C288.487 20.2845 287.666 21.1053 287.666 22.1178V26.7012C287.666 27.7137 288.487 28.5345 289.5 28.5345H289.691C290.197 28.5345 290.607 28.9449 290.607 29.4512C290.607 29.9574 290.197 30.3678 289.691 30.3678H289.5C287.475 30.3678 285.833 28.7262 285.833 26.7012V22.1178Z" fill="#FEFFFF"/>
</g>
<defs>
<filter id="filter0_ddddi_502_3518" x="0" y="-2.3822" width="322" height="65" filterUnits="userSpaceOnUse" color-interpolation-filters="sRGB">
<feFlood flood-opacity="0" result="BackgroundImageFix"/>
<feColorMatrix in="SourceAlpha" type="matrix" values="0 0 0 0 0 0 0 0 0 0 0 0 0 0 0 0 0 0 127 0" result="hardAlpha"/>
<feOffset dy="2"/>
<feGaussianBlur stdDeviation="1"/>
<feColorMatrix type="matrix" values="0 0 0 0 0.545098 0 0 0 0 0.572549 0 0 0 0 0.623529 0 0 0 0.12 0"/>
<feBlend mode="normal" in2="BackgroundImageFix" result="effect1_dropShadow_502_3518"/>
<feColorMatrix in="SourceAlpha" type="matrix" values="0 0 0 0 0 0 0 0 0 0 0 0 0 0 0 0 0 0 127 0" result="hardAlpha"/>
<feOffset dy="4"/>
<feGaussianBlur stdDeviation="1"/>
<feColorMatrix type="matrix" values="0 0 0 0 0.545098 0 0 0 0 0.572549 0 0 0 0 0.623529 0 0 0 0.07 0"/>
<feBlend mode="normal" in2="effect1_dropShadow_502_3518" result="effect2_dropShadow_502_3518"/>
<feColorMatrix in="SourceAlpha" type="matrix" values="0 0 0 0 0 0 0 0 0 0 0 0 0 0 0 0 0 0 127 0" result="hardAlpha"/>
<feOffset dy="7"/>
<feGaussianBlur stdDeviation="1.5"/>
<feColorMatrix type="matrix" values="0 0 0 0 0.545098 0 0 0 0 0.572549 0 0 0 0 0.623529 0 0 0 0.02 0"/>
<feBlend mode="normal" in2="effect2_dropShadow_502_3518" result="effect3_dropShadow_502_3518"/>
<feColorMatrix in="SourceAlpha" type="matrix" values="0 0 0 0 0 0 0 0 0 0 0 0 0 0 0 0 0 0 127 0" result="hardAlpha"/>
<feOffset dy="1"/>
<feGaussianBlur stdDeviation="1.5"/>
<feComposite in2="hardAlpha" operator="out"/>
<feColorMatrix type="matrix" values="0 0 0 0 0.514167 0 0 0 0 0.111403 0 0 0 0 0.152108 0 0 0 0.25 0"/>
<feBlend mode="normal" in2="effect3_dropShadow_502_3518" result="effect4_dropShadow_502_3518"/>
<feBlend mode="normal" in="SourceGraphic" in2="effect4_dropShadow_502_3518" result="shape"/>
<feColorMatrix in="SourceAlpha" type="matrix" values="0 0 0 0 0 0 0 0 0 0 0 0 0 0 0 0 0 0 127 0" result="hardAlpha"/>
<feOffset dy="-5"/>
<feGaussianBlur stdDeviation="5.5"/>
<feComposite in2="hardAlpha" operator="arithmetic" k2="-1" k3="1"/>
<feColorMatrix type="matrix" values="0 0 0 0 0.708333 0 0 0 0 0.0714236 0 0 0 0 0.135792 0 0 0 1 0"/>
<feBlend mode="normal" in2="shape" result="effect5_innerShadow_502_3518"/>
</filter>
</defs>
</svg>
