<svg width="330" height="112" viewBox="0 0 330 112" fill="none" xmlns="http://www.w3.org/2000/svg">
<g filter="url(#filter0_dddd_108_2430)">
<g clip-path="url(#clip0_108_2430)">
<rect x="13" y="2.5" width="304" height="64" rx="16" fill="#FEFFFF"/>
<g filter="url(#filter1_ddddi_108_2430)">
<rect x="23" y="10.5" width="284" height="48" rx="6" fill="#ED3144"/>
<rect x="23.5" y="11" width="283" height="47" rx="5.5" stroke="#ED3144" stroke-linecap="round"/>
<path d="M92.2901 40.5996C91.8585 40.5996 91.5569 40.5609 91.3854 40.4834V38.6987C91.5901 38.743 91.8253 38.7651 92.0909 38.7651C92.5004 38.7651 92.8463 38.6877 93.1285 38.5327C93.4163 38.3722 93.6681 38.1121 93.8839 37.7524L89.8663 28.522H92.1324L94.9879 35.5776H95.0543L97.8019 28.522H100.051L96.3824 37.0718C96.0117 37.9351 95.6409 38.6157 95.2701 39.1138C94.9049 39.6118 94.4815 39.9854 94.0001 40.2344C93.5242 40.4779 92.9542 40.5996 92.2901 40.5996ZM103.677 40.6743C102.576 40.6743 101.677 40.4225 100.979 39.9189C100.288 39.4098 99.9004 38.7181 99.8174 37.8438H101.826C101.926 38.2311 102.133 38.5299 102.449 38.7402C102.77 38.945 103.179 39.0474 103.677 39.0474C104.231 39.0474 104.66 38.9339 104.964 38.707C105.274 38.4746 105.429 38.1647 105.429 37.7773C105.429 36.9583 104.848 36.5488 103.686 36.5488H102.382V35.1045H103.644C104.646 35.1045 105.146 34.731 105.146 33.9839C105.146 33.6408 105.019 33.3669 104.765 33.1621C104.516 32.9574 104.15 32.855 103.669 32.855C103.193 32.855 102.803 32.9546 102.499 33.1538C102.2 33.353 102.023 33.6297 101.967 33.9839H100C100.094 33.1372 100.465 32.4704 101.112 31.9834C101.765 31.4964 102.615 31.2529 103.661 31.2529C104.778 31.2529 105.642 31.4798 106.25 31.9336C106.859 32.3818 107.164 32.9961 107.164 33.7764C107.164 34.2412 107.034 34.6507 106.773 35.0049C106.513 35.3535 106.167 35.5832 105.736 35.6938V35.7603C106.3 35.8986 106.732 36.1449 107.031 36.499C107.33 36.8532 107.479 37.2876 107.479 37.8022C107.479 38.6766 107.136 39.3739 106.45 39.894C105.764 40.4142 104.839 40.6743 103.677 40.6743ZM114.707 40.5V36.6318H110.723V40.5H108.664V31.4272H110.723V35.0215H114.707V31.4272H116.758V40.5H114.707ZM121.571 39.0142C122.201 39.0142 122.727 38.8371 123.148 38.4829C123.568 38.1287 123.779 37.6777 123.779 37.1299V36.4409L121.703 36.5737C120.552 36.6512 119.977 37.0662 119.977 37.8188C119.977 38.1841 120.121 38.4746 120.408 38.6904C120.702 38.9062 121.089 39.0142 121.571 39.0142ZM120.965 40.5996C120.068 40.5996 119.332 40.3506 118.757 39.8525C118.187 39.3545 117.902 38.7043 117.902 37.9019C117.902 37.0939 118.2 36.4631 118.798 36.0093C119.401 35.5555 120.276 35.2926 121.421 35.2207L123.779 35.0796V34.4155C123.779 33.9396 123.624 33.5744 123.314 33.3198C123.009 33.0597 122.578 32.9297 122.019 32.9297C121.554 32.9297 121.164 33.0404 120.848 33.2617C120.533 33.4831 120.339 33.7791 120.267 34.1499H118.358C118.386 33.3198 118.746 32.6392 119.437 32.1079C120.135 31.5711 121.017 31.3027 122.085 31.3027C123.22 31.3027 124.124 31.5739 124.8 32.1162C125.48 32.6585 125.821 33.3807 125.821 34.2827V40.5H123.837V39.0391H123.787C123.538 39.5205 123.156 39.9023 122.641 40.1846C122.132 40.4613 121.573 40.5996 120.965 40.5996ZM134.136 31.4272V33.0376H131.339V40.5H129.28V33.0376H126.483V31.4272H134.136ZM138.626 35.7437H137.131V38.9062H138.626C139.135 38.9062 139.539 38.7624 139.838 38.4746C140.142 38.1868 140.294 37.805 140.294 37.3291C140.294 36.8532 140.142 36.4714 139.838 36.1836C139.533 35.8903 139.129 35.7437 138.626 35.7437ZM135.073 40.5V31.4272H137.131V34.1665H138.875C139.932 34.1665 140.773 34.4543 141.398 35.0298C142.029 35.5998 142.344 36.369 142.344 37.3374C142.344 38.3058 142.029 39.075 141.398 39.645C140.773 40.215 139.932 40.5 138.875 40.5H135.073ZM150.883 35.6689L154.933 40.5H152.385L148.965 36.416H148.899V40.5H146.84V31.4272H148.899V35.229H148.965L152.344 31.4272H154.759L150.883 35.6689ZM162.685 31.4272V33.0376H159.888V40.5H157.829V33.0376H155.032V31.4272H162.685ZM167.489 40.6328C166.15 40.6328 165.088 40.215 164.302 39.3794C163.516 38.5438 163.123 37.4038 163.123 35.9595C163.123 34.5317 163.516 33.4001 164.302 32.5645C165.093 31.7233 166.156 31.3027 167.489 31.3027C168.829 31.3027 169.891 31.7205 170.677 32.5562C171.468 33.3918 171.864 34.5262 171.864 35.9595C171.864 37.4038 171.471 38.5438 170.685 39.3794C169.899 40.215 168.834 40.6328 167.489 40.6328ZM167.489 38.981C168.203 38.981 168.759 38.7181 169.158 38.1924C169.562 37.6611 169.764 36.9196 169.764 35.9678C169.764 35.0215 169.562 34.2827 169.158 33.7515C168.759 33.2202 168.203 32.9546 167.489 32.9546C166.781 32.9546 166.225 33.2202 165.821 33.7515C165.423 34.2827 165.223 35.0215 165.223 35.9678C165.223 36.9141 165.423 37.6528 165.821 38.1841C166.225 38.7153 166.781 38.981 167.489 38.981ZM179.365 36.2998C179.32 36.986 179.24 37.5809 179.124 38.0845C179.008 38.5825 178.839 39.028 178.618 39.4209C178.396 39.8083 178.103 40.1016 177.738 40.3008C177.373 40.4945 176.933 40.5913 176.418 40.5913C176.136 40.5913 175.909 40.5581 175.737 40.4917V38.707C175.887 38.7513 176.053 38.7734 176.235 38.7734C176.518 38.7734 176.75 38.66 176.933 38.4331C177.115 38.2062 177.248 37.9129 177.331 37.5532C177.414 37.1935 177.472 36.7397 177.505 36.1919L177.796 31.4272H184.312V40.5H182.253V33.0376H179.589L179.365 36.2998ZM189.108 39.0142C189.739 39.0142 190.265 38.8371 190.685 38.4829C191.106 38.1287 191.316 37.6777 191.316 37.1299V36.4409L189.241 36.5737C188.09 36.6512 187.515 37.0662 187.515 37.8188C187.515 38.1841 187.658 38.4746 187.946 38.6904C188.239 38.9062 188.627 39.0142 189.108 39.0142ZM188.502 40.5996C187.606 40.5996 186.87 40.3506 186.294 39.8525C185.724 39.3545 185.439 38.7043 185.439 37.9019C185.439 37.0939 185.738 36.4631 186.336 36.0093C186.939 35.5555 187.813 35.2926 188.959 35.2207L191.316 35.0796V34.4155C191.316 33.9396 191.161 33.5744 190.851 33.3198C190.547 33.0597 190.115 32.9297 189.557 32.9297C189.092 32.9297 188.702 33.0404 188.386 33.2617C188.071 33.4831 187.877 33.7791 187.805 34.1499H185.896C185.924 33.3198 186.283 32.6392 186.975 32.1079C187.672 31.5711 188.555 31.3027 189.623 31.3027C190.757 31.3027 191.662 31.5739 192.337 32.1162C193.018 32.6585 193.358 33.3807 193.358 34.2827V40.5H191.374V39.0391H191.325C191.076 39.5205 190.694 39.9023 190.179 40.1846C189.67 40.4613 189.111 40.5996 188.502 40.5996ZM196.03 27.4346H197.358C197.363 27.9049 197.502 28.2896 197.773 28.5884C198.049 28.8872 198.412 29.0366 198.86 29.0366C199.308 29.0366 199.668 28.8872 199.939 28.5884C200.216 28.2896 200.357 27.9049 200.363 27.4346H201.691C201.691 28.237 201.431 28.8844 200.91 29.377C200.39 29.8695 199.707 30.1157 198.86 30.1157C198.013 30.1157 197.33 29.8695 196.81 29.377C196.29 28.8844 196.03 28.237 196.03 27.4346ZM196.768 40.5H194.743V31.4272H196.768V37.5532H196.835L200.919 31.4272H202.952V40.5H200.919V34.3325H200.852L196.768 40.5ZM208.529 35.6689L212.58 40.5H210.031L206.612 36.416H206.545V40.5H204.487V31.4272H206.545V35.229H206.612L209.99 31.4272H212.405L208.529 35.6689ZM219.327 40.5V36.6318H215.342V40.5H213.284V31.4272H215.342V35.0215H219.327V31.4272H221.377V40.5H219.327ZM223.924 43.8037C223.52 43.8037 223.249 43.7899 223.11 43.7622V42.1187C223.215 42.1408 223.404 42.1519 223.675 42.1519C224.118 42.1519 224.466 42.0578 224.721 41.8696C224.981 41.687 225.174 41.3826 225.302 40.9565L225.418 40.5332L222.172 31.4272H224.422L226.597 38.7153H226.638L228.805 31.4272H230.988L227.701 40.8154C227.313 41.9277 226.84 42.7025 226.281 43.1396C225.728 43.5824 224.942 43.8037 223.924 43.8037ZM234.539 36.2998C234.495 36.986 234.414 37.5809 234.298 38.0845C234.182 38.5825 234.013 39.028 233.792 39.4209C233.571 39.8083 233.277 40.1016 232.912 40.3008C232.547 40.4945 232.107 40.5913 231.592 40.5913C231.31 40.5913 231.083 40.5581 230.912 40.4917V38.707C231.061 38.7513 231.227 38.7734 231.41 38.7734C231.692 38.7734 231.924 38.66 232.107 38.4331C232.289 38.2062 232.422 37.9129 232.505 37.5532C232.588 37.1935 232.646 36.7397 232.68 36.1919L232.97 31.4272H239.486V40.5H237.428V33.0376H234.763L234.539 36.2998Z" fill="white"/>
</g>
</g>
<rect x="13.5" y="3" width="303" height="63" rx="15.5" stroke="#F2DDDF"/>
</g>
<defs>
<filter id="filter0_dddd_108_2430" x="0" y="0.5" width="330" height="111" filterUnits="userSpaceOnUse" color-interpolation-filters="sRGB">
<feFlood flood-opacity="0" result="BackgroundImageFix"/>
<feColorMatrix in="SourceAlpha" type="matrix" values="0 0 0 0 0 0 0 0 0 0 0 0 0 0 0 0 0 0 127 0" result="hardAlpha"/>
<feOffset dy="2"/>
<feGaussianBlur stdDeviation="2"/>
<feColorMatrix type="matrix" values="0 0 0 0 0.545098 0 0 0 0 0.572549 0 0 0 0 0.623529 0 0 0 0.1 0"/>
<feBlend mode="normal" in2="BackgroundImageFix" result="effect1_dropShadow_108_2430"/>
<feColorMatrix in="SourceAlpha" type="matrix" values="0 0 0 0 0 0 0 0 0 0 0 0 0 0 0 0 0 0 127 0" result="hardAlpha"/>
<feOffset dy="8"/>
<feGaussianBlur stdDeviation="4"/>
<feColorMatrix type="matrix" values="0 0 0 0 0.545098 0 0 0 0 0.572549 0 0 0 0 0.623529 0 0 0 0.09 0"/>
<feBlend mode="normal" in2="effect1_dropShadow_108_2430" result="effect2_dropShadow_108_2430"/>
<feColorMatrix in="SourceAlpha" type="matrix" values="0 0 0 0 0 0 0 0 0 0 0 0 0 0 0 0 0 0 127 0" result="hardAlpha"/>
<feOffset dy="18"/>
<feGaussianBlur stdDeviation="5.5"/>
<feColorMatrix type="matrix" values="0 0 0 0 0.545098 0 0 0 0 0.572549 0 0 0 0 0.623529 0 0 0 0.05 0"/>
<feBlend mode="normal" in2="effect2_dropShadow_108_2430" result="effect3_dropShadow_108_2430"/>
<feColorMatrix in="SourceAlpha" type="matrix" values="0 0 0 0 0 0 0 0 0 0 0 0 0 0 0 0 0 0 127 0" result="hardAlpha"/>
<feOffset dy="32"/>
<feGaussianBlur stdDeviation="6.5"/>
<feColorMatrix type="matrix" values="0 0 0 0 0.545098 0 0 0 0 0.572549 0 0 0 0 0.623529 0 0 0 0.01 0"/>
<feBlend mode="normal" in2="effect3_dropShadow_108_2430" result="effect4_dropShadow_108_2430"/>
<feBlend mode="normal" in="SourceGraphic" in2="effect4_dropShadow_108_2430" result="shape"/>
</filter>
<filter id="filter1_ddddi_108_2430" x="20" y="5.5" width="290" height="63" filterUnits="userSpaceOnUse" color-interpolation-filters="sRGB">
<feFlood flood-opacity="0" result="BackgroundImageFix"/>
<feColorMatrix in="SourceAlpha" type="matrix" values="0 0 0 0 0 0 0 0 0 0 0 0 0 0 0 0 0 0 127 0" result="hardAlpha"/>
<feOffset dy="2"/>
<feGaussianBlur stdDeviation="1"/>
<feColorMatrix type="matrix" values="0 0 0 0 0.545098 0 0 0 0 0.572549 0 0 0 0 0.623529 0 0 0 0.12 0"/>
<feBlend mode="normal" in2="BackgroundImageFix" result="effect1_dropShadow_108_2430"/>
<feColorMatrix in="SourceAlpha" type="matrix" values="0 0 0 0 0 0 0 0 0 0 0 0 0 0 0 0 0 0 127 0" result="hardAlpha"/>
<feOffset dy="4"/>
<feGaussianBlur stdDeviation="1"/>
<feColorMatrix type="matrix" values="0 0 0 0 0.545098 0 0 0 0 0.572549 0 0 0 0 0.623529 0 0 0 0.07 0"/>
<feBlend mode="normal" in2="effect1_dropShadow_108_2430" result="effect2_dropShadow_108_2430"/>
<feColorMatrix in="SourceAlpha" type="matrix" values="0 0 0 0 0 0 0 0 0 0 0 0 0 0 0 0 0 0 127 0" result="hardAlpha"/>
<feOffset dy="7"/>
<feGaussianBlur stdDeviation="1.5"/>
<feColorMatrix type="matrix" values="0 0 0 0 0.545098 0 0 0 0 0.572549 0 0 0 0 0.623529 0 0 0 0.02 0"/>
<feBlend mode="normal" in2="effect2_dropShadow_108_2430" result="effect3_dropShadow_108_2430"/>
<feColorMatrix in="SourceAlpha" type="matrix" values="0 0 0 0 0 0 0 0 0 0 0 0 0 0 0 0 0 0 127 0" result="hardAlpha"/>
<feOffset dy="1"/>
<feGaussianBlur stdDeviation="1.5"/>
<feComposite in2="hardAlpha" operator="out"/>
<feColorMatrix type="matrix" values="0 0 0 0 0.514167 0 0 0 0 0.111403 0 0 0 0 0.152108 0 0 0 0.25 0"/>
<feBlend mode="normal" in2="effect3_dropShadow_108_2430" result="effect4_dropShadow_108_2430"/>
<feBlend mode="normal" in="SourceGraphic" in2="effect4_dropShadow_108_2430" result="shape"/>
<feColorMatrix in="SourceAlpha" type="matrix" values="0 0 0 0 0 0 0 0 0 0 0 0 0 0 0 0 0 0 127 0" result="hardAlpha"/>
<feOffset dy="-5"/>
<feGaussianBlur stdDeviation="5.5"/>
<feComposite in2="hardAlpha" operator="arithmetic" k2="-1" k3="1"/>
<feColorMatrix type="matrix" values="0 0 0 0 0.708333 0 0 0 0 0.0714236 0 0 0 0 0.135792 0 0 0 1 0"/>
<feBlend mode="normal" in2="shape" result="effect5_innerShadow_108_2430"/>
</filter>
<clipPath id="clip0_108_2430">
<rect x="13" y="2.5" width="304" height="64" rx="16" fill="white"/>
</clipPath>
</defs>
</svg>
