<svg width="25" height="25" viewBox="0 0 25 25" fill="none" xmlns="http://www.w3.org/2000/svg">
<path fill-rule="evenodd" clip-rule="evenodd" d="M11.5 4.50053C7.63401 4.50053 4.5 7.63437 4.5 11.5002C4.5 15.3659 7.63401 18.4998 11.5 18.4998C15.366 18.4998 18.5 15.3659 18.5 11.5002C18.5 7.63437 15.366 4.50053 11.5 4.50053ZM2.5 11.5002C2.5 6.52986 6.52944 2.50064 11.5 2.50064C16.4706 2.50064 20.5 6.52986 20.5 11.5002C20.5 16.4704 16.4706 20.4997 11.5 20.4997C6.52944 20.4997 2.5 16.4704 2.5 11.5002Z" fill="#7E6B6D"/>
<path fill-rule="evenodd" clip-rule="evenodd" d="M16.7929 16.7927C17.1834 16.4022 17.8166 16.4022 18.2071 16.7927L22.2071 20.7924C22.5976 21.183 22.5976 21.8161 22.2071 22.2066C21.8166 22.5971 21.1834 22.5971 20.7929 22.2066L16.7929 18.2068C16.4024 17.8163 16.4024 17.1832 16.7929 16.7927Z" fill="#7E6B6D"/>
</svg>
