<svg width="56" height="56" viewBox="0 0 56 56" fill="none" xmlns="http://www.w3.org/2000/svg">
<g filter="url(#filter0_ddddi_502_3468)">
<rect x="3" y="1.6178" width="50" height="44" rx="16" fill="white"/>
<rect x="3.5" y="2.1178" width="49" height="43" rx="15.5" stroke="#F2DDDF" stroke-linecap="round"/>
<path fill-rule="evenodd" clip-rule="evenodd" d="M26.2862 15.5264C27.0635 14.2348 28.9361 14.2348 29.7134 15.5264L31.6006 18.6621L35.1661 19.4878C36.6348 19.828 37.2134 21.6088 36.2252 22.7471L33.826 25.5108L34.1425 29.1569C34.2728 30.6586 32.7578 31.7593 31.3698 31.1712L27.9998 29.7436L24.6298 31.1712C23.2418 31.7593 21.7268 30.6586 21.8571 29.1569L22.1736 25.5108L19.7744 22.7471C18.7862 21.6088 19.3648 19.828 20.8335 19.4878L24.399 18.6621L26.2862 15.5264ZM27.9998 16.5576L26.1126 19.6933C25.8334 20.1573 25.3779 20.4882 24.8503 20.6104L21.2847 21.4362L23.6839 24.1998C24.0389 24.6088 24.2129 25.1442 24.1661 25.6838L23.8497 29.3298L27.2196 27.9021C27.7183 27.6909 28.2813 27.6909 28.78 27.9021L32.1499 29.3298L31.8335 25.6838C31.7867 25.1442 31.9607 24.6088 32.3157 24.1998L34.7149 21.4362L31.1493 20.6104C30.6217 20.4882 30.1662 20.1573 29.887 19.6933L27.9998 16.5576Z" fill="#ED3144"/>
</g>
<defs>
<filter id="filter0_ddddi_502_3468" x="0" y="-1.3822" width="56" height="57" filterUnits="userSpaceOnUse" color-interpolation-filters="sRGB">
<feFlood flood-opacity="0" result="BackgroundImageFix"/>
<feColorMatrix in="SourceAlpha" type="matrix" values="0 0 0 0 0 0 0 0 0 0 0 0 0 0 0 0 0 0 127 0" result="hardAlpha"/>
<feOffset/>
<feGaussianBlur stdDeviation="0.5"/>
<feColorMatrix type="matrix" values="0 0 0 0 0.788235 0 0 0 0 0.788235 0 0 0 0 0.788235 0 0 0 0.14 0"/>
<feBlend mode="normal" in2="BackgroundImageFix" result="effect1_dropShadow_502_3468"/>
<feColorMatrix in="SourceAlpha" type="matrix" values="0 0 0 0 0 0 0 0 0 0 0 0 0 0 0 0 0 0 127 0" result="hardAlpha"/>
<feOffset dy="2"/>
<feGaussianBlur stdDeviation="1"/>
<feColorMatrix type="matrix" values="0 0 0 0 0.788235 0 0 0 0 0.788235 0 0 0 0 0.788235 0 0 0 0.12 0"/>
<feBlend mode="normal" in2="effect1_dropShadow_502_3468" result="effect2_dropShadow_502_3468"/>
<feColorMatrix in="SourceAlpha" type="matrix" values="0 0 0 0 0 0 0 0 0 0 0 0 0 0 0 0 0 0 127 0" result="hardAlpha"/>
<feOffset dy="4"/>
<feGaussianBlur stdDeviation="1"/>
<feColorMatrix type="matrix" values="0 0 0 0 0.788235 0 0 0 0 0.788235 0 0 0 0 0.788235 0 0 0 0.07 0"/>
<feBlend mode="normal" in2="effect2_dropShadow_502_3468" result="effect3_dropShadow_502_3468"/>
<feColorMatrix in="SourceAlpha" type="matrix" values="0 0 0 0 0 0 0 0 0 0 0 0 0 0 0 0 0 0 127 0" result="hardAlpha"/>
<feOffset dy="7"/>
<feGaussianBlur stdDeviation="1.5"/>
<feColorMatrix type="matrix" values="0 0 0 0 0.786667 0 0 0 0 0.786667 0 0 0 0 0.786667 0 0 0 0.02 0"/>
<feBlend mode="normal" in2="effect3_dropShadow_502_3468" result="effect4_dropShadow_502_3468"/>
<feBlend mode="normal" in="SourceGraphic" in2="effect4_dropShadow_502_3468" result="shape"/>
<feColorMatrix in="SourceAlpha" type="matrix" values="0 0 0 0 0 0 0 0 0 0 0 0 0 0 0 0 0 0 127 0" result="hardAlpha"/>
<feOffset dy="-3"/>
<feGaussianBlur stdDeviation="5.5"/>
<feComposite in2="hardAlpha" operator="arithmetic" k2="-1" k3="1"/>
<feColorMatrix type="matrix" values="0 0 0 0 0.906667 0 0 0 0 0.906667 0 0 0 0 0.906667 0 0 0 1 0"/>
<feBlend mode="normal" in2="shape" result="effect5_innerShadow_502_3468"/>
</filter>
</defs>
</svg>
