<svg width="33" height="25" viewBox="0 0 33 25" fill="none" xmlns="http://www.w3.org/2000/svg">
<path fill-rule="evenodd" clip-rule="evenodd" d="M22.1386 23.5585L22.3403 23.4533C22.6072 23.3077 22.868 23.1531 23.1227 22.989C22.8062 23.1912 22.4783 23.3813 22.1386 23.5585ZM22.9446 1.89621C24.4041 2.79942 25.6639 3.98962 26.6426 5.38685C25.6414 3.95115 24.3748 2.77717 22.9446 1.89621ZM23.942 14.2998C23.9367 14.3228 23.931 14.3454 23.9253 14.3684C23.8879 14.5177 23.846 14.6663 23.7994 14.8145C23.6275 15.3636 23.3987 15.8852 23.1185 16.3732C23.1494 16.3211 23.1791 16.2683 23.2081 16.2155C23.2188 16.1959 23.2298 16.1759 23.2401 16.156C23.2546 16.1292 23.2691 16.102 23.2828 16.0749C23.3003 16.0417 23.3175 16.0085 23.3339 15.9749C23.345 15.9542 23.3552 15.9331 23.3655 15.912C23.3957 15.8509 23.425 15.7894 23.4532 15.7272C23.4609 15.711 23.4685 15.6944 23.4757 15.6778C23.4986 15.6269 23.5211 15.5759 23.5428 15.5243C23.5535 15.4998 23.5634 15.4753 23.5737 15.4504C23.5848 15.4232 23.5958 15.3964 23.6065 15.3689C23.6305 15.3089 23.6538 15.2486 23.6759 15.1879C23.6828 15.1698 23.6892 15.1521 23.6957 15.1336C23.7022 15.1166 23.7079 15.1 23.714 15.083C23.7346 15.0246 23.7544 14.9658 23.7739 14.9069C23.7819 14.8813 23.7903 14.8556 23.7983 14.83C23.809 14.7961 23.8193 14.7621 23.8296 14.7278C23.8391 14.6957 23.8482 14.6637 23.8574 14.6316C23.87 14.5871 23.8822 14.5426 23.894 14.4981C23.9203 14.3982 23.9447 14.2975 23.9664 14.1964C23.9584 14.2311 23.9504 14.2654 23.942 14.2998ZM23.8986 10.5165C23.9009 10.5244 23.9028 10.5323 23.9047 10.5399C23.9066 10.5466 23.9085 10.5531 23.9104 10.5598C23.9066 10.5455 23.9028 10.5308 23.8986 10.5165ZM22.6785 7.94789C22.8855 8.23564 23.0742 8.53847 23.2435 8.85638C23.3816 9.11546 23.5039 9.3802 23.6111 9.64872C23.6321 9.70227 23.6526 9.75582 23.6729 9.80975C23.6805 9.82936 23.6877 9.84934 23.6946 9.86933C23.7152 9.92439 23.7346 9.97983 23.7533 10.0353C23.7605 10.0571 23.7674 10.0786 23.7747 10.1001C23.7956 10.1631 23.8151 10.2261 23.8341 10.2894C23.8536 10.3547 23.8723 10.4199 23.8902 10.4855C23.6473 9.57518 23.2382 8.7176 22.6785 7.94789ZM20.0221 5.62557C20.0221 5.62557 20.0214 5.6252 20.021 5.6252C19.976 5.60106 19.9314 5.5773 19.8864 5.5543C19.8563 5.53846 19.8262 5.52375 19.796 5.50867C19.7732 5.49735 19.7507 5.48604 19.7278 5.4751C19.6595 5.44191 19.5909 5.40986 19.5215 5.37856C19.4906 5.3646 19.4601 5.35103 19.4289 5.33745C19.3934 5.32199 19.358 5.30728 19.3225 5.2922C19.2752 5.27183 19.2276 5.25298 19.1795 5.23412C19.1555 5.22469 19.1315 5.21526 19.1075 5.20621C19.0838 5.19678 19.0594 5.18773 19.0354 5.17868C18.9801 5.15832 18.9248 5.13833 18.8692 5.1191C18.8444 5.11042 18.8192 5.10175 18.794 5.09345C18.7902 5.09194 18.7868 5.09081 18.783 5.08968C18.7559 5.08063 18.7288 5.07196 18.7018 5.06328C18.6797 5.05574 18.6572 5.04858 18.6347 5.04179C18.6255 5.03877 18.6164 5.03613 18.6068 5.03311C18.5824 5.02557 18.5577 5.01841 18.5329 5.01086C18.5054 5.00257 18.4776 4.99465 18.4494 4.98673L18.4471 4.9856C18.4189 4.97805 18.391 4.97013 18.3628 4.96259C18.3396 4.95618 18.3159 4.94977 18.2923 4.94374C18.2789 4.93996 18.266 4.93695 18.253 4.93318C18.2347 4.92865 18.2168 4.92413 18.1985 4.9196C18.1909 4.91771 18.1829 4.91583 18.1749 4.91394C18.1539 4.90866 18.1325 4.90338 18.1112 4.89848C18.0872 4.89245 18.0624 4.88679 18.038 4.88151C18.0166 4.87661 17.9957 4.87171 17.9743 4.86718C17.8645 4.84304 17.7539 4.82117 17.6426 4.80194C17.6163 4.79741 17.59 4.79289 17.5637 4.78874C17.908 4.84682 18.2515 4.92827 18.5908 5.03198C19.1071 5.19037 19.5989 5.39704 20.0618 5.64782C20.0484 5.64028 20.0351 5.63311 20.0221 5.62557ZM19.9333 19.4162C19.4331 19.6768 18.9141 19.8812 18.3826 20.0298C18.4311 20.0166 18.4795 20.003 18.5275 19.9887C18.8158 19.9034 19.0983 19.802 19.3743 19.6847C19.4201 19.6651 19.4659 19.6451 19.5116 19.6247C19.5638 19.6014 19.6157 19.5776 19.6672 19.5527C19.7186 19.5286 19.7701 19.5033 19.8212 19.4777C19.8467 19.4648 19.8723 19.452 19.8975 19.4388L19.9729 19.3996C19.9729 19.3996 19.9741 19.3988 19.9749 19.3985C19.9996 19.3853 20.0244 19.3721 20.0488 19.3585C20.0744 19.3449 20.0992 19.331 20.1243 19.317C20.1949 19.2782 20.2646 19.2378 20.3336 19.1959C20.3519 19.185 20.3702 19.1741 20.3885 19.1628C20.448 19.1266 20.5075 19.0896 20.5662 19.0515C20.5902 19.0357 20.6143 19.0202 20.6379 19.004C20.7096 18.9565 20.7809 18.9078 20.8514 18.8577C20.5609 19.0621 20.2543 19.2491 19.9333 19.4162ZM18.7342 24.757C17.9312 24.915 17.1004 24.9984 16.2502 24.9984C16.2143 24.9984 16.1785 24.998 16.1427 24.998C16.1068 24.9976 16.0714 24.9972 16.0355 24.9965C15.9997 24.9965 15.9642 24.9953 15.9284 24.9942C15.8998 24.9935 15.8712 24.9931 15.8426 24.9919C15.8319 24.9916 15.8212 24.9912 15.8106 24.9908C15.7804 24.9901 15.7499 24.9885 15.7198 24.9874C15.7175 24.9874 15.7149 24.9874 15.7126 24.987C15.6478 24.9844 15.5837 24.9814 15.5193 24.9776C15.5113 24.9776 15.5033 24.9769 15.4952 24.9765C15.4625 24.9746 15.4293 24.9723 15.3969 24.9701C15.3614 24.9678 15.3263 24.9652 15.2909 24.9629C15.2569 24.9603 15.2223 24.9576 15.1879 24.9546C16.3607 25.0538 17.5545 24.9916 18.7342 24.757ZM15.1746 24.9535C15.1792 24.9539 15.1834 24.9542 15.1879 24.9546C15.1521 24.9516 15.1163 24.9489 15.0804 24.9456C15.1121 24.9482 15.1429 24.9512 15.1746 24.9535ZM13.9446 0.207832C13.9141 0.213489 13.8836 0.219146 13.8527 0.22518C13.892 0.217637 13.9309 0.210472 13.9701 0.203307C13.9618 0.204815 13.9534 0.206324 13.9446 0.207832ZM16.8705 0.0147455C16.8431 0.0136141 16.8152 0.0124827 16.7878 0.0113514C16.8167 0.0124827 16.8453 0.0139912 16.8743 0.0151226C16.8728 0.0151226 16.8717 0.0147455 16.8705 0.0147455ZM15.1063 0.0505721C15.1593 0.0460466 15.212 0.0415212 15.2653 0.0377499C15.3153 0.0339787 15.3652 0.0302075 15.4156 0.0271905C15.5013 0.0215337 15.5871 0.0166311 15.6733 0.0128599C15.6988 0.0117285 15.724 0.0105971 15.7496 0.00984289L15.7663 0.00908864C15.7881 0.0083344 15.8094 0.00758015 15.8308 0.00682591C15.8819 0.00531742 15.9326 0.00380893 15.9837 0.00305468C16.0134 0.00230044 16.0428 0.00192332 16.0725 0.00116907C16.1316 0.00116907 16.1907 3.77034e-05 16.2502 3.77034e-05C16.286 3.77034e-05 16.3219 0.000414826 16.3577 0.000791948C16.3932 0.000791948 16.429 0.000791948 16.4648 0.00192332C16.4923 0.00192332 16.519 0.00305468 16.546 0.00380893C16.0675 -0.00788187 15.5868 0.00720303 15.1063 0.0509492V0.0505721ZM16.5716 0.00418605C16.5632 0.00418605 16.5544 0.00418605 16.546 0.00380893C16.5796 0.00456317 16.6128 0.00531742 16.6463 0.00607166C16.6215 0.00531742 16.5964 0.00494029 16.5716 0.00418605ZM14.9416 0.0664112C14.9965 0.0607544 15.0514 0.0558518 15.1063 0.0505721C15.1052 0.0505721 15.1041 0.0505721 15.1033 0.0505721C15.0495 0.0554747 14.9954 0.0607544 14.9416 0.0660341V0.0664112ZM14.8032 0.0814961C14.841 0.0769707 14.8791 0.0728223 14.9168 0.0690511C14.8982 0.0709367 14.8795 0.0728223 14.8612 0.0747079C14.8421 0.0765936 14.8223 0.0788563 14.8032 0.0814961ZM14.8711 24.9244C14.8753 24.9252 14.8799 24.9256 14.8844 24.9263C14.8932 24.9271 14.902 24.9282 14.9107 24.929L14.8711 24.9244ZM13.9095 19.966C13.7204 19.908 13.5347 19.8438 13.3521 19.7729C13.2915 19.7496 13.2312 19.725 13.1714 19.7002C13.1111 19.6753 13.0513 19.6496 12.9922 19.6232C12.9327 19.5968 12.8744 19.5701 12.8156 19.5421C12.7283 19.5003 12.6414 19.4573 12.5556 19.4128C12.527 19.3977 12.4988 19.383 12.4702 19.3675C12.4523 19.3581 12.4344 19.3483 12.4168 19.3389C13.2186 19.7809 14.0925 20.0795 15.0057 20.221C14.6381 20.1621 14.2717 20.0773 13.9095 19.966ZM12.312 19.2804C12.3432 19.2981 12.3749 19.3159 12.4065 19.3332C12.41 19.3351 12.4134 19.337 12.4168 19.3389C12.3817 19.3196 12.3467 19.3004 12.312 19.2804ZM12.2803 19.2627C12.291 19.2687 12.3013 19.2748 12.312 19.2804C12.291 19.2684 12.27 19.2567 12.2491 19.2446C12.2597 19.251 12.27 19.257 12.2803 19.2627ZM13.7574 5.07724C13.7215 5.08855 13.6865 5.10062 13.651 5.11269C13.6308 5.11947 13.6102 5.12664 13.5904 5.13381C13.5671 5.14172 13.5443 5.1504 13.521 5.15832C13.4951 5.16775 13.4688 5.17755 13.4425 5.18736C13.3601 5.21828 13.2777 5.25071 13.1962 5.28428C13.1416 5.3069 13.0875 5.32991 13.0333 5.35404C13.0067 5.36574 12.9796 5.37743 12.9529 5.38987C12.9258 5.40194 12.8991 5.41438 12.8724 5.42683C12.8191 5.45172 12.7661 5.47736 12.7135 5.50376C12.6868 5.51696 12.6605 5.52978 12.6341 5.54336C12.6086 5.55656 12.5834 5.56976 12.5579 5.58296C12.5556 5.58409 12.5533 5.58522 12.551 5.58673C12.5262 5.59955 12.5018 5.61237 12.4774 5.62557C12.4515 5.63953 12.4256 5.65386 12.4 5.66819C12.3741 5.68214 12.3482 5.69647 12.3226 5.71118C12.2723 5.73984 12.2224 5.76888 12.1724 5.79867C12.1507 5.81187 12.1293 5.82469 12.1076 5.83789C12.084 5.85222 12.0607 5.86693 12.0375 5.88164C12.0272 5.88767 12.0169 5.89446 12.0066 5.90087C11.9642 5.92765 11.9219 5.9548 11.88 5.98271C11.8018 6.034 11.7252 6.08642 11.6489 6.14072C11.9395 5.93632 12.246 5.74965 12.567 5.5822C13.0246 5.34386 13.4985 5.15228 13.9831 5.00785C13.9076 5.02972 13.8321 5.0531 13.7574 5.07724ZM9.25681 16.1424C9.00021 15.6597 8.79737 15.1592 8.64829 14.6471C8.68832 14.7874 8.73217 14.9262 8.77983 15.0634C8.78669 15.083 8.79356 15.1027 8.80042 15.1223C8.80919 15.1464 8.81796 15.1705 8.82711 15.1947C8.8374 15.2226 8.8477 15.2505 8.85837 15.278C8.87553 15.3221 8.89269 15.3663 8.91023 15.41C8.91938 15.4319 8.92853 15.4538 8.9373 15.476C8.95522 15.5198 8.9739 15.5631 8.99296 15.6065C9.0044 15.6333 9.01622 15.6597 9.02842 15.6861C9.06464 15.766 9.10201 15.8448 9.14052 15.9233C9.16606 15.9757 9.19275 16.0277 9.21982 16.0794C9.23317 16.1054 9.24689 16.1311 9.26062 16.1571C9.27435 16.1827 9.28845 16.2084 9.30256 16.234C9.31667 16.2597 9.33078 16.2849 9.34526 16.3106C9.35937 16.3358 9.37424 16.3611 9.38873 16.3868C9.42304 16.4456 9.45812 16.504 9.49434 16.5625C9.50426 16.5791 9.51493 16.5957 9.52523 16.6123C9.54086 16.6372 9.55649 16.6617 9.5725 16.6866C9.59157 16.7164 9.61139 16.7462 9.63122 16.776C9.6438 16.7952 9.65638 16.8144 9.66973 16.8333C9.70099 16.8797 9.73264 16.9257 9.76581 16.9717C9.58051 16.7077 9.41084 16.4309 9.25681 16.1424ZM9.33649 8.7044C9.30332 8.76361 9.27091 8.82282 9.23927 8.88278C9.22554 8.90918 9.21144 8.93595 9.19771 8.96273C9.18627 8.98498 9.17483 9.00723 9.16378 9.02986C9.11307 9.13017 9.06503 9.23199 9.01889 9.33457C9.00364 9.36851 8.98839 9.40283 8.97352 9.43753C8.96361 9.46053 8.95407 9.48353 8.94416 9.50654C8.93577 9.5269 8.92738 9.54765 8.91862 9.56839C8.89345 9.63024 8.86867 9.69208 8.84541 9.75469C8.82177 9.81691 8.79889 9.87989 8.77678 9.94287C8.76954 9.96399 8.76229 9.98473 8.75505 10.0058C8.74704 10.03 8.73865 10.0541 8.73103 10.0783C8.72188 10.1058 8.71311 10.1337 8.70434 10.1612C8.69557 10.1891 8.6868 10.217 8.67841 10.2446C8.67002 10.2725 8.66164 10.3004 8.65363 10.3287C8.64562 10.3562 8.63761 10.3837 8.62999 10.4113C8.61969 10.4478 8.60978 10.4848 8.60025 10.5214C8.59529 10.5402 8.59034 10.5591 8.58576 10.5779C8.58424 10.5828 8.58309 10.587 8.58233 10.5919C8.57623 10.6149 8.57051 10.6379 8.56517 10.6609C8.55907 10.6858 8.55297 10.7103 8.54725 10.7356C8.54344 10.751 8.54001 10.7665 8.53658 10.7823C8.53238 10.8004 8.52857 10.8189 8.52438 10.837C8.51904 10.8619 8.5137 10.8868 8.50874 10.9121C8.50226 10.9415 8.49654 10.9709 8.49044 11.0007C8.47329 11.0897 8.45765 11.1787 8.44316 11.2685C8.50302 10.9045 8.58843 10.5425 8.70091 10.1842C8.87057 9.64306 9.09553 9.12791 9.37005 8.64595C9.35899 8.66556 9.34755 8.68479 9.33649 8.7044ZM5.95801 19.7533C6.9131 21.0831 8.09887 22.182 9.43143 23.0245C8.07371 22.162 6.89366 21.0499 5.95801 19.7533Z" fill="#ED3144"/>
<path fill-rule="evenodd" clip-rule="evenodd" d="M28.2985 8.72255C28.2947 8.71072 28.2909 8.69888 28.2871 8.68704C28.2951 8.71224 28.3027 8.73707 28.3107 8.76227C28.3066 8.7489 28.3024 8.73554 28.2985 8.72255Z" fill="#ED3144"/>
<path fill-rule="evenodd" clip-rule="evenodd" d="M16.8705 0.0148382C16.843 0.0137068 16.8152 0.0125755 16.7877 0.0114441C16.8167 0.0125755 16.8453 0.0140839 16.8743 0.0152153C16.8728 0.0152153 16.8716 0.0148382 16.8705 0.0148382ZM13.9446 0.207925C13.9057 0.214713 13.8668 0.222255 13.8279 0.229798C13.8363 0.228289 13.8443 0.226781 13.8527 0.225272C13.8919 0.21773 13.9308 0.210565 13.9701 0.203399C13.9617 0.204908 13.9533 0.206416 13.9446 0.207925Z" fill="#ED3144"/>
<path fill-rule="evenodd" clip-rule="evenodd" d="M14.8612 0.0748043C14.8421 0.0767136 14.8223 0.0790047 14.8032 0.0816777C14.841 0.0770955 14.8791 0.0728951 14.9168 0.0690765C14.8982 0.0709858 14.8795 0.0728951 14.8612 0.0748043Z" fill="#ED3144"/>
<path fill-rule="evenodd" clip-rule="evenodd" d="M31.4281 15.6133L29.3917 14.0795C29.0527 13.8238 28.8716 13.4169 28.8792 12.9957V12.9942C28.8792 12.9851 28.88 12.9757 28.88 12.9666C28.8815 12.927 28.8831 12.8874 28.8842 12.8475C28.8857 12.8079 28.8861 12.7683 28.8869 12.7283C28.8876 12.6887 28.8884 12.6491 28.8888 12.6091C28.8888 12.5507 28.8895 12.4918 28.8888 12.4334C28.8888 12.4138 28.8888 12.3945 28.8888 12.3746C28.8884 12.3338 28.8876 12.2935 28.8869 12.2531C28.8857 12.1773 28.8834 12.1011 28.8804 12.0253C28.8789 11.9823 28.877 11.939 28.875 11.896C28.8731 11.8613 28.8712 11.8262 28.8693 11.7915C28.8693 11.7836 28.8686 11.7757 28.8682 11.7678C28.8678 11.7632 28.8674 11.7587 28.8674 11.7546C28.8655 11.7278 28.864 11.701 28.8621 11.6742C28.8621 11.6659 28.8613 11.6573 28.8606 11.649C28.8606 11.6467 28.8606 11.6441 28.8598 11.6414C28.8575 11.6022 28.8545 11.563 28.851 11.5238C28.8499 11.5034 28.848 11.483 28.8461 11.463C28.8442 11.4382 28.8423 11.4133 28.84 11.3888C28.8362 11.3461 28.832 11.3035 28.8278 11.2613C28.8194 11.1764 28.8102 11.0916 28.7996 11.0067C28.7946 10.9641 28.7889 10.9215 28.7835 10.8793C28.7721 10.7944 28.7603 10.7096 28.7469 10.6247C28.7408 10.584 28.7344 10.5432 28.7275 10.5021C28.7252 10.4871 28.7225 10.4716 28.7199 10.4561C28.7145 10.4233 28.7088 10.3901 28.7027 10.3569C28.7008 10.3464 28.6989 10.3358 28.697 10.3253C28.6901 10.2872 28.6833 10.2491 28.676 10.2106C28.6676 10.1657 28.6589 10.1205 28.6497 10.0752C28.644 10.0466 28.6383 10.0183 28.6322 9.98963C28.6314 9.98624 28.6306 9.98284 28.6303 9.97907L28.6062 9.8682C28.5986 9.83162 28.5906 9.79504 28.5822 9.75845C28.5822 9.7577 28.5818 9.75695 28.5818 9.75582C28.5769 9.73357 28.5716 9.71169 28.5662 9.68944C28.5655 9.68492 28.5643 9.68077 28.5635 9.67624C28.5574 9.65135 28.5517 9.62609 28.5456 9.60119C28.5292 9.5352 28.5132 9.4692 28.4961 9.40358C28.4881 9.37379 28.4804 9.34362 28.4724 9.3142C28.4644 9.28441 28.4564 9.25462 28.448 9.22483C28.4465 9.21842 28.4446 9.21238 28.4431 9.20597C28.4431 9.20522 28.4431 9.20446 28.4423 9.20333C28.4419 9.20258 28.4415 9.20144 28.4415 9.20069C28.4404 9.19692 28.4392 9.19315 28.4381 9.18938C28.4381 9.18749 28.4381 9.18561 28.437 9.1841C28.4362 9.18221 28.4358 9.18033 28.4354 9.17844C28.4351 9.17769 28.4351 9.17731 28.4347 9.17655C28.4335 9.17241 28.4328 9.16864 28.4312 9.16486C28.427 9.14827 28.4225 9.13205 28.4175 9.11622C28.4175 9.1132 28.416 9.11056 28.4152 9.10792C28.4141 9.10302 28.4126 9.09774 28.411 9.09283C28.403 9.06493 28.395 9.03702 28.387 9.00949C28.3775 8.97668 28.3676 8.94387 28.3577 8.91106C28.3508 8.88843 28.3435 8.86543 28.3363 8.84242C28.3333 8.83262 28.3302 8.82281 28.3272 8.81301C28.323 8.79943 28.3188 8.78661 28.3146 8.77379C28.3134 8.76926 28.3123 8.76549 28.3108 8.76134C28.3028 8.73645 28.2951 8.71194 28.2871 8.68705C28.281 8.66857 28.2753 8.65009 28.2692 8.63161C28.2681 8.62897 28.2673 8.62633 28.2665 8.62369C28.2574 8.59616 28.2478 8.56863 28.2387 8.54148C28.2372 8.53658 28.2356 8.53243 28.2341 8.52753C28.225 8.50075 28.2154 8.4736 28.2063 8.44682C28.1754 8.35782 28.1434 8.2692 28.1102 8.18057C28.0877 8.12061 28.0652 8.06103 28.0416 8.00106C27.8662 7.55304 27.663 7.10992 27.4312 6.67472C27.4052 6.6257 27.3785 6.57705 27.3519 6.5284C27.3309 6.48993 27.3095 6.45185 27.2878 6.41338C27.2706 6.38283 27.2535 6.35228 27.2359 6.32211C27.2283 6.30854 27.2207 6.29534 27.2127 6.28214C27.1982 6.25687 27.1837 6.23198 27.1688 6.20672C27.1555 6.18409 27.1418 6.16108 27.128 6.13808C27.1158 6.11696 27.1029 6.09584 27.0903 6.07472C27.072 6.04493 27.0541 6.01514 27.0358 5.98572C27.0281 5.97328 27.0201 5.96083 27.0129 5.94876C27.0007 5.92915 26.9885 5.90992 26.9767 5.89031C26.9751 5.88805 26.9736 5.88578 26.9721 5.88352C26.971 5.88164 26.9698 5.87975 26.9687 5.87786C26.9561 5.85825 26.9435 5.83827 26.9309 5.81866C26.913 5.79 26.8947 5.76171 26.876 5.73343C26.8692 5.72249 26.8619 5.71155 26.855 5.70062C26.844 5.68402 26.8333 5.66743 26.8219 5.65084C26.7986 5.61501 26.775 5.57994 26.7513 5.54487C26.7384 5.52488 26.7247 5.50527 26.7109 5.48528C26.6884 5.45209 26.6659 5.41928 26.6427 5.38685C25.6639 3.98961 24.4042 2.79941 22.9447 1.89621C22.8978 1.86717 22.8505 1.83851 22.8028 1.80985C22.735 1.76912 22.6667 1.72876 22.5981 1.68954C21.2049 0.891175 19.6699 0.362449 18.0815 0.130896C18.0541 0.127125 18.0266 0.123354 17.9995 0.119583C17.998 0.119206 17.9965 0.119206 17.995 0.118828C17.969 0.115434 17.9427 0.111663 17.9168 0.107892C17.8905 0.104875 17.8642 0.101104 17.8383 0.0980867C17.8344 0.0973324 17.8302 0.0969553 17.8264 0.0965782C17.7955 0.092807 17.7647 0.0890358 17.7338 0.0856417C17.7189 0.083756 17.7044 0.0822476 17.6896 0.0803619C17.6815 0.0796077 17.6739 0.0784763 17.6663 0.0777221C17.6541 0.0765907 17.6415 0.0750822 17.6293 0.0739509C17.6282 0.0735737 17.6274 0.0735737 17.6259 0.0735737C17.5923 0.0698025 17.5588 0.0664084 17.5248 0.0630143C17.5065 0.0611287 17.4882 0.0592431 17.4699 0.0573575C17.4532 0.0562261 17.4368 0.0543405 17.42 0.0532091C17.3883 0.0501921 17.3571 0.0475523 17.3258 0.0449124C17.3239 0.0445353 17.3228 0.0445353 17.3209 0.0445353C17.3026 0.0430268 17.2839 0.0411412 17.2652 0.0400098C17.2465 0.0381242 17.2278 0.0369929 17.2091 0.0358615C17.1806 0.0335988 17.1516 0.031336 17.1226 0.0294504C17.1157 0.0294504 17.1089 0.0286962 17.102 0.028319C17.0936 0.0275648 17.0852 0.0271877 17.0765 0.0264334C17.057 0.0253021 17.0376 0.0241707 17.0185 0.0230393C16.9994 0.021908 16.98 0.0207766 16.9609 0.0196452C16.932 0.0181367 16.903 0.0166283 16.8744 0.0151198C16.8454 0.0139884 16.8168 0.0124799 16.7878 0.0113485C16.7855 0.0113485 16.7833 0.0113485 16.781 0.0113485H16.7806C16.773 0.0109714 16.7653 0.0105943 16.7577 0.0105943C16.7352 0.00946292 16.7123 0.00870868 16.6895 0.00795444C16.6792 0.00757731 16.6685 0.00720019 16.6578 0.00682307C16.654 0.00682307 16.6502 0.00644595 16.6464 0.00644595C16.6216 0.0056917 16.5964 0.00531458 16.5717 0.00456033C16.5362 0.00342897 16.5007 0.00267472 16.4649 0.0022976C16.4291 0.00154335 16.3932 0.00116623 16.3578 0.00116623C16.3219 0.00078911 16.2861 0.000411987 16.2502 0.000411987C16.1908 0.000411987 16.1317 0.00116623 16.0726 0.00154335C16.0428 0.0022976 16.0135 0.00267472 15.9837 0.00342897C15.9326 0.00418321 15.8819 0.0056917 15.8308 0.00720019C15.8095 0.00795444 15.7881 0.00870868 15.7664 0.00946293L15.7496 0.0102172C15.7241 0.0109714 15.6989 0.0121028 15.6734 0.0132341C15.5872 0.0170054 15.5014 0.021908 15.4156 0.0275648C15.3653 0.0305818 15.3153 0.034353 15.2654 0.0381242C15.2113 0.0422726 15.1575 0.046798 15.1034 0.0513235C15.0496 0.0562261 14.9955 0.0615058 14.9417 0.0667855C14.9333 0.0675398 14.9253 0.068294 14.9169 0.0694254C14.8792 0.0731966 14.841 0.077345 14.8033 0.0818704C14.8006 0.0818704 14.7983 0.0822476 14.7957 0.0826247C14.764 0.0860188 14.732 0.08979 14.7004 0.0935612C14.679 0.0962011 14.6576 0.0988409 14.6367 0.101481C14.6012 0.106006 14.5658 0.110532 14.5307 0.115434C14.507 0.118451 14.4838 0.121845 14.4605 0.124862C14.4377 0.128256 14.4152 0.131273 14.3923 0.134668C14.3892 0.134668 14.3866 0.135422 14.3835 0.136176C14.3522 0.140324 14.3214 0.145227 14.2901 0.15013C14.2787 0.151638 14.2676 0.153524 14.2562 0.155409C14.2447 0.156918 14.2337 0.158803 14.2222 0.160689C14.1894 0.165592 14.1563 0.171248 14.1231 0.176905C14.0903 0.182562 14.0575 0.187842 14.0247 0.193876C14.0091 0.196516 13.9935 0.199533 13.9778 0.202172C13.9755 0.20255 13.9729 0.203304 13.9702 0.203681C13.9309 0.210846 13.892 0.218012 13.8528 0.225554C13.8444 0.227063 13.8364 0.228571 13.828 0.23008C13.8158 0.232342 13.8032 0.234605 13.7906 0.237245C13.7857 0.237999 13.7807 0.23913 13.7758 0.239885C13.7731 0.240639 13.7704 0.241016 13.7678 0.24177C13.7624 0.242525 13.7571 0.243656 13.7517 0.244787C13.751 0.244787 13.7506 0.244787 13.7498 0.245164C13.7239 0.250444 13.6976 0.255347 13.6717 0.260626C13.6557 0.264021 13.6396 0.267415 13.6236 0.270809C13.5775 0.280614 13.531 0.290419 13.4845 0.300601C13.4551 0.307013 13.4257 0.313801 13.3964 0.320589C13.3708 0.326246 13.3453 0.33228 13.3201 0.338314C13.269 0.350382 13.2187 0.362449 13.168 0.374895C12.2133 0.613236 11.2715 0.9666 10.3618 1.44064C9.95918 1.65032 9.57219 1.87848 9.20235 2.12361C9.51042 1.91808 9.82841 1.72612 10.1552 1.54812L1.26228 6.18032C-0.00584465 6.84104 -0.0977322 8.59315 1.07279 9.38473L3.1088 10.9189C3.45233 11.1779 3.63343 11.5916 3.62085 12.0185C3.61895 12.0619 3.6178 12.1049 3.61666 12.1483C3.61513 12.1977 3.61399 12.2475 3.61285 12.2969C3.61246 12.3282 3.61208 12.3591 3.6117 12.39C3.61056 12.5088 3.61094 12.6276 3.61361 12.7468C3.6159 12.8893 3.62123 13.0323 3.62924 13.1752C3.63115 13.2087 3.63305 13.2427 3.63534 13.2766C3.65097 13.5301 3.67461 13.7839 3.70664 14.0369C3.71693 14.1214 3.72837 14.2059 3.74095 14.2903C3.7482 14.3412 3.75582 14.3918 3.76383 14.4423C3.77184 14.4929 3.78061 14.5434 3.789 14.5939C3.80081 14.6614 3.81263 14.7286 3.8256 14.7961C3.8439 14.8941 3.86373 14.9918 3.8847 15.0895C3.89156 15.1204 3.89804 15.1513 3.9049 15.1819C3.91177 15.2124 3.91863 15.2426 3.92549 15.2731C3.9274 15.2829 3.92969 15.2927 3.93197 15.3018C3.93693 15.3229 3.94189 15.3436 3.94684 15.3648C3.95828 15.4115 3.96934 15.4583 3.98116 15.5047C3.98497 15.519 3.9884 15.5333 3.99183 15.548C3.99412 15.556 3.99603 15.5639 3.99793 15.5718C4.00365 15.5944 4.00975 15.6167 4.01547 15.6389C4.03987 15.7306 4.06466 15.8218 4.09097 15.9131C4.1085 15.9738 4.12642 16.0341 4.14473 16.0945H4.14511C4.16341 16.1552 4.18209 16.2155 4.20154 16.2759C4.42534 16.9709 4.71359 17.6558 5.06894 18.3237C5.28093 18.7219 5.51198 19.1043 5.75981 19.4701C5.77659 19.4954 5.79413 19.5206 5.81128 19.5452C5.82806 19.57 5.84522 19.5949 5.86276 19.6195C5.89402 19.6643 5.92605 19.7088 5.95769 19.7533C6.89334 21.0499 8.07339 22.162 9.43112 23.0245C9.47649 23.0532 9.52186 23.0814 9.56761 23.1097C9.59926 23.1297 9.63167 23.1493 9.66408 23.1686C9.69305 23.1863 9.72241 23.2036 9.75177 23.221C9.796 23.247 9.84023 23.273 9.88445 23.2987C11.3623 24.1491 13.001 24.6951 14.6943 24.9041C14.7179 24.9071 14.7419 24.9101 14.7659 24.9127C14.7705 24.9135 14.7747 24.9139 14.7789 24.9143C14.8094 24.918 14.8399 24.9214 14.8708 24.9244L14.9104 24.929C14.9146 24.9293 14.9188 24.9297 14.923 24.9301C14.9402 24.932 14.9577 24.9339 14.9753 24.9354C15.0103 24.9388 15.045 24.9422 15.0801 24.9456C15.1117 24.9482 15.1426 24.9512 15.1743 24.9535C15.2132 24.9569 15.2521 24.9599 15.2906 24.9629C15.326 24.9652 15.3611 24.9678 15.3966 24.9701C15.429 24.9723 15.4621 24.9746 15.4949 24.9765C15.5029 24.9765 15.5109 24.9772 15.519 24.9776C15.5834 24.9814 15.6474 24.9844 15.7123 24.987C15.7145 24.9874 15.7172 24.9874 15.7195 24.9874C15.7496 24.9885 15.7801 24.9901 15.8102 24.9908C15.8209 24.9912 15.8316 24.9916 15.8423 24.9919C15.8709 24.9931 15.8995 24.9934 15.9281 24.9942C15.9639 24.9953 15.9994 24.9961 16.0352 24.9965C16.071 24.9972 16.1065 24.9976 16.1423 24.998C16.1782 24.998 16.214 24.9983 16.2499 24.9983C17.1642 24.9983 18.0556 24.9022 18.9146 24.72C18.9733 24.7076 19.032 24.6944 19.0907 24.6812C19.1716 24.6627 19.252 24.6439 19.3321 24.6239C20.2868 24.3855 21.2286 24.0322 22.1383 23.5585C22.478 23.3812 22.8059 23.1912 23.1224 22.989C22.8677 23.1531 22.6069 23.3077 22.34 23.4533L31.2378 18.8181C32.5059 18.1573 32.5974 16.4052 31.4277 15.6133H31.4281ZM24.0687 13.6571C24.0675 13.6643 24.0664 13.6715 24.0653 13.679L24.0572 13.7299C24.0565 13.7329 24.0561 13.736 24.0557 13.7394C24.0534 13.7529 24.0511 13.7665 24.0489 13.7801C24.0481 13.7842 24.0473 13.7884 24.0466 13.7925C24.045 13.802 24.0435 13.8114 24.0416 13.8208C24.0031 14.0497 23.9539 14.2753 23.8941 14.4981C23.8826 14.5426 23.87 14.5871 23.8575 14.6316C23.8483 14.6637 23.8392 14.6957 23.8296 14.7278C23.8197 14.7621 23.809 14.7961 23.7984 14.83C23.7903 14.8556 23.782 14.8813 23.774 14.9069C23.7545 14.9658 23.7347 15.0246 23.7141 15.083C23.708 15.1 23.7023 15.1166 23.6958 15.1336C23.6897 15.1521 23.6828 15.1698 23.676 15.1879C23.6539 15.2486 23.6306 15.3089 23.6066 15.3689C23.5959 15.3964 23.5848 15.4232 23.5738 15.4504C23.5635 15.4753 23.5536 15.4998 23.5429 15.5243C23.5212 15.5759 23.4987 15.6269 23.4758 15.6778C23.4686 15.6944 23.4609 15.711 23.4533 15.7272C23.4251 15.7894 23.3957 15.8509 23.3656 15.912C23.3553 15.9331 23.345 15.9542 23.334 15.9749C23.3176 16.0085 23.3004 16.0417 23.2829 16.0749C23.2691 16.102 23.2547 16.1292 23.2402 16.156C23.2299 16.1759 23.2188 16.1959 23.2081 16.2155C23.1792 16.2683 23.1494 16.3211 23.1185 16.3732C23.0995 16.4071 23.0797 16.4411 23.0594 16.4746C23.0511 16.489 23.0427 16.5025 23.0343 16.5165C23.0232 16.5346 23.0122 16.5531 23.0011 16.5712C22.8871 16.7567 22.7659 16.937 22.6362 17.1116C22.621 17.1327 22.6053 17.1534 22.5897 17.1742C22.5741 17.1949 22.5588 17.2157 22.5428 17.2364C22.5245 17.2609 22.5055 17.2851 22.486 17.3092C22.43 17.3812 22.372 17.4518 22.3129 17.5211C22.3102 17.5238 22.3079 17.5268 22.306 17.5298C22.2874 17.5517 22.2691 17.5732 22.25 17.5947C22.2298 17.6177 22.21 17.6403 22.1898 17.6633L22.1875 17.6656C22.168 17.6878 22.1482 17.7101 22.1276 17.7323C22.1272 17.7327 22.1265 17.7335 22.1257 17.7342C22.1078 17.7542 22.0895 17.7742 22.0704 17.7942C22.0022 17.8673 21.9328 17.9397 21.8615 18.0103C21.8428 18.0291 21.8237 18.0476 21.805 18.0661C21.7826 18.0876 21.7604 18.1091 21.7379 18.1302C21.6289 18.2339 21.5168 18.335 21.4013 18.4323C21.3773 18.453 21.3525 18.4734 21.3281 18.4937C21.3037 18.5137 21.2789 18.5337 21.2541 18.5537C21.155 18.6337 21.0532 18.7113 20.9498 18.7868C20.9354 18.7973 20.9209 18.8079 20.906 18.8184C20.8881 18.832 20.8698 18.8448 20.8515 18.8577C20.7809 18.9078 20.7096 18.9565 20.638 19.004C20.6143 19.0202 20.5903 19.0357 20.5663 19.0515C20.5076 19.0896 20.4481 19.1266 20.3886 19.1628C20.3703 19.1741 20.352 19.185 20.3337 19.1959C20.2647 19.2378 20.1949 19.2782 20.1244 19.317C20.0992 19.331 20.0744 19.3449 20.0489 19.3585C20.0245 19.3721 19.9997 19.3853 19.9749 19.3985C19.9742 19.3988 19.9734 19.3992 19.973 19.3996L19.8975 19.4388C19.8724 19.452 19.8468 19.4648 19.8213 19.4777C19.7702 19.5033 19.7187 19.5286 19.6672 19.5527C19.6158 19.5776 19.5639 19.6013 19.5117 19.6247C19.4659 19.6451 19.4202 19.6651 19.3744 19.6847C19.0988 19.8024 18.8162 19.9038 18.5276 19.9887C18.4796 20.003 18.4311 20.0166 18.3827 20.0298C18.3766 20.0316 18.3705 20.0332 18.3644 20.035C18.3461 20.0399 18.3278 20.0448 18.3099 20.0497C18.2916 20.055 18.2729 20.0599 18.255 20.0645C18.2237 20.0728 18.1925 20.0807 18.1612 20.0882C18.1368 20.0942 18.112 20.1003 18.0876 20.1059C18.0678 20.1105 18.048 20.115 18.0281 20.1195C18.0091 20.1237 17.9904 20.1278 17.9717 20.132H17.9709C17.9709 20.132 17.9694 20.1327 17.9686 20.1327C17.966 20.1331 17.9637 20.1338 17.961 20.1346C17.8024 20.1697 17.643 20.1998 17.4829 20.2247C17.4413 20.2315 17.3994 20.2379 17.3578 20.2436C17.2538 20.2583 17.1493 20.2707 17.0444 20.2813C17.0025 20.2854 16.9606 20.2892 16.9186 20.293C16.8382 20.2998 16.757 20.3054 16.6757 20.3096C16.6075 20.3134 16.5392 20.316 16.471 20.3179C16.2399 20.3239 16.0077 20.3198 15.7759 20.3058C15.7599 20.3047 15.7435 20.3036 15.7271 20.3024C15.6211 20.2956 15.5144 20.2862 15.4084 20.2745C15.3973 20.2734 15.3866 20.2723 15.376 20.2711C15.3356 20.2666 15.2955 20.2617 15.2555 20.2568C15.2044 20.25 15.1533 20.2432 15.1018 20.2357C15.0698 20.2311 15.0378 20.2262 15.0058 20.221C14.0526 20.0731 13.1421 19.7548 12.312 19.2804C12.3014 19.2748 12.2911 19.2687 12.2804 19.2627C12.2701 19.257 12.2598 19.251 12.2491 19.2446C12.2388 19.2386 12.2285 19.2325 12.2179 19.2265C12.2041 19.2186 12.19 19.2103 12.1763 19.2016C12.1717 19.1993 12.1675 19.1967 12.163 19.1941C12.1607 19.1929 12.158 19.191 12.1557 19.1895C12.1485 19.1854 12.1412 19.1809 12.1336 19.1763C12.1264 19.1722 12.1187 19.1677 12.1115 19.1628C12.0646 19.1349 12.0177 19.1058 11.9716 19.0764C11.9041 19.0338 11.837 18.99 11.771 18.9448C11.7047 18.9003 11.6395 18.8543 11.575 18.8075C11.4973 18.7513 11.4206 18.6936 11.3451 18.6348C11.2952 18.5956 11.2452 18.5556 11.196 18.5152C10.9745 18.3331 10.7629 18.1389 10.5624 17.933C10.546 17.9156 10.5292 17.8983 10.5124 17.8809C10.4792 17.8466 10.4468 17.8115 10.4144 17.7765C10.398 17.7587 10.382 17.741 10.366 17.7233C10.3447 17.6995 10.3233 17.6758 10.302 17.6516C10.2596 17.6037 10.2181 17.5551 10.1769 17.5064C10.1357 17.457 10.0949 17.4076 10.0549 17.3575C9.99998 17.2888 9.94622 17.2187 9.8936 17.1478C9.88407 17.135 9.87454 17.1225 9.86539 17.1097C9.86386 17.1078 9.86234 17.1063 9.8612 17.1044C9.84785 17.0863 9.83451 17.0686 9.82193 17.0505C9.80286 17.0245 9.7838 16.9981 9.76588 16.9717C9.73271 16.9257 9.70106 16.8797 9.6698 16.8333C9.65645 16.8144 9.64387 16.7952 9.63129 16.7759C9.61146 16.7462 9.59163 16.7164 9.57257 16.6866C9.55656 16.6617 9.54092 16.6372 9.52529 16.6123C9.515 16.5957 9.50432 16.5791 9.49441 16.5625C9.45819 16.504 9.42311 16.4456 9.38879 16.3868C9.37431 16.3611 9.35944 16.3358 9.34533 16.3106C9.33084 16.2849 9.31673 16.2597 9.30263 16.234C9.28814 16.2084 9.27403 16.1827 9.26069 16.1571C9.24658 16.1311 9.23285 16.1054 9.21989 16.0794C9.19244 16.0277 9.16613 15.9757 9.14058 15.9233C9.10131 15.8448 9.06433 15.766 9.02849 15.6861C9.01629 15.6597 9.00447 15.6333 8.99303 15.6065C8.97397 15.5631 8.95528 15.5198 8.93736 15.476C8.9286 15.4538 8.91944 15.4319 8.91029 15.41C8.89237 15.3663 8.87522 15.3221 8.85844 15.278C8.84776 15.2505 8.83747 15.2226 8.82718 15.1947C8.81803 15.1705 8.80926 15.1464 8.80049 15.1223C8.79362 15.1027 8.78676 15.083 8.7799 15.0634C8.7147 14.8786 8.65713 14.6912 8.60718 14.5015C8.60604 14.4974 8.60489 14.4929 8.60375 14.4887C8.59955 14.4732 8.59536 14.4578 8.59155 14.4423C8.58621 14.4227 8.58125 14.4031 8.5763 14.3835C8.57134 14.3646 8.56676 14.3454 8.56219 14.3262C8.56104 14.322 8.5599 14.3175 8.55914 14.313C8.55418 14.293 8.54961 14.2734 8.54503 14.2534C8.54122 14.2364 8.53741 14.2191 8.53359 14.2017C8.53359 14.1991 8.53245 14.1961 8.53169 14.1934C8.52978 14.1855 8.52826 14.1776 8.52635 14.1697C8.51872 14.1357 8.5111 14.1014 8.50424 14.0671C8.49661 14.0328 8.48975 13.9984 8.48326 13.9641C8.46992 13.8955 8.45772 13.8265 8.44628 13.7578C8.44018 13.7231 8.43446 13.6888 8.4295 13.6541C8.41883 13.5851 8.4093 13.5157 8.40091 13.4463C8.39633 13.4124 8.39252 13.3785 8.38909 13.3445C8.38909 13.3426 8.38909 13.3407 8.38833 13.3392C8.38451 13.3057 8.38146 13.2721 8.37803 13.2385C8.3746 13.2038 8.37155 13.1699 8.36888 13.1356C8.36888 13.1329 8.36888 13.1303 8.36812 13.128C8.36545 13.0979 8.36316 13.0673 8.36126 13.0372C8.36088 13.0274 8.36011 13.0179 8.35973 13.0085C8.35744 12.9806 8.35592 12.9527 8.35439 12.9252C8.35211 12.8916 8.35096 12.8584 8.34944 12.8248C8.34944 12.8158 8.34944 12.8067 8.34829 12.7981C8.34715 12.7705 8.34639 12.743 8.34562 12.7158C8.34448 12.6808 8.3441 12.6457 8.34334 12.611C8.33762 12.195 8.36621 11.7776 8.42874 11.362C8.43332 11.3311 8.43827 11.2998 8.44323 11.2685C8.45772 11.1787 8.47335 11.0897 8.49051 11.0007C8.49661 10.9709 8.50233 10.9415 8.50881 10.9121C8.51377 10.8868 8.5191 10.8619 8.52444 10.837C8.52864 10.8189 8.53245 10.8004 8.53664 10.7823C8.54007 10.7665 8.54351 10.751 8.54732 10.7356C8.55304 10.7103 8.55914 10.6858 8.56524 10.6609C8.57058 10.6379 8.5763 10.6149 8.5824 10.5919C8.58316 10.587 8.5843 10.5828 8.58583 10.5779C8.5904 10.5591 8.59536 10.5402 8.60032 10.5214C8.60985 10.4848 8.61976 10.4478 8.63006 10.4113C8.63768 10.3837 8.64531 10.3562 8.6537 10.3287C8.6617 10.3004 8.67009 10.2725 8.67848 10.2446C8.68687 10.217 8.69525 10.1891 8.7044 10.1612C8.71279 10.1337 8.72194 10.1058 8.73109 10.0783C8.73872 10.0541 8.74711 10.03 8.75511 10.0058C8.76236 9.98473 8.7696 9.96399 8.77685 9.94287C8.79896 9.87989 8.82184 9.81691 8.84548 9.75468C8.86873 9.69208 8.89352 9.63023 8.91868 9.56839C8.92745 9.54764 8.93584 9.5269 8.94423 9.50654C8.95414 9.48353 8.96367 9.46053 8.97359 9.43752C8.98846 9.40283 9.00371 9.36851 9.01896 9.33457C9.06471 9.23199 9.11313 9.13017 9.16384 9.02985C9.1749 9.00723 9.18634 8.98498 9.19778 8.96273C9.2115 8.93595 9.22561 8.90917 9.23934 8.88278C9.27098 8.82281 9.30339 8.76361 9.33656 8.7044C9.34762 8.68479 9.35906 8.66555 9.37011 8.64594C9.37545 8.63614 9.38117 8.62671 9.38651 8.61691C9.39566 8.60107 9.40481 8.58523 9.41434 8.56939C9.42502 8.55053 9.43607 8.53205 9.44713 8.51357C9.45514 8.49962 9.46391 8.48567 9.47268 8.47171C10.0053 7.59075 10.7088 6.82444 11.5506 6.21162C11.5651 6.20106 11.5796 6.1905 11.5941 6.17994C11.6124 6.16674 11.6307 6.15354 11.649 6.14072C11.7253 6.08641 11.8019 6.03399 11.8801 5.9827C11.922 5.9548 11.9643 5.92764 12.0066 5.90087C12.0169 5.89446 12.0272 5.88767 12.0375 5.88164C12.0608 5.86693 12.084 5.85222 12.1077 5.83789C12.1294 5.82469 12.1508 5.81187 12.1725 5.79867C12.2224 5.76888 12.2724 5.73984 12.3227 5.71118C12.3483 5.69647 12.3742 5.68214 12.4001 5.66818C12.4257 5.65348 12.4516 5.63952 12.4775 5.62557C12.5019 5.61237 12.5263 5.59917 12.5511 5.58673C12.5534 5.58522 12.5557 5.58409 12.558 5.58296C12.5835 5.56976 12.6087 5.55656 12.6342 5.54336C12.6605 5.52978 12.6868 5.51696 12.7135 5.50376C12.7661 5.47736 12.8191 5.45172 12.8725 5.42683C12.8992 5.41438 12.9259 5.40194 12.953 5.38987C12.9797 5.37742 13.0067 5.36573 13.0334 5.35404C13.0876 5.32991 13.1417 5.3069 13.1962 5.28427C13.2778 5.25071 13.3602 5.21828 13.4425 5.18735C13.4688 5.17755 13.4951 5.16774 13.5211 5.15832C13.5443 5.1504 13.5672 5.14172 13.5905 5.1338C13.6103 5.12664 13.6309 5.11947 13.6511 5.11268C13.6865 5.10062 13.7216 5.08855 13.7575 5.07723C13.9317 5.01953 14.1082 4.96862 14.2867 4.92375C14.308 4.91809 14.3294 4.91281 14.3507 4.90753C14.374 4.90187 14.3969 4.89621 14.4197 4.89094C14.4396 4.88641 14.4594 4.88188 14.4792 4.87736C14.4941 4.87396 14.5093 4.87057 14.5242 4.86718C14.5292 4.86605 14.5337 4.86491 14.5387 4.86416C14.5932 4.85209 14.6481 4.84078 14.703 4.82984C14.737 4.82305 14.7709 4.81664 14.8048 4.81023C15.0088 4.77214 15.2135 4.74235 15.4198 4.72085C15.4541 4.71708 15.4884 4.71407 15.5228 4.71067C15.5685 4.70652 15.6143 4.70275 15.6604 4.69936C15.6615 4.69936 15.6627 4.69936 15.6638 4.69898C15.6901 4.69709 15.7165 4.69521 15.7428 4.6937C15.7691 4.69181 15.7958 4.69031 15.8221 4.6888C15.856 4.68691 15.8899 4.6854 15.9242 4.68427C15.9296 4.6839 15.9345 4.6839 15.9395 4.68352C15.9708 4.68239 16.0016 4.68126 16.0329 4.6805C16.068 4.67975 16.1031 4.67899 16.1381 4.67824C16.5656 4.67296 16.9945 4.702 17.4211 4.76611C17.4455 4.7695 17.4699 4.77327 17.4947 4.77742C17.5443 4.78496 17.5935 4.79326 17.6427 4.80193C17.754 4.82117 17.8646 4.84304 17.9744 4.86718C17.9957 4.8717 18.0167 4.8766 18.038 4.88151C18.0624 4.88679 18.0872 4.89244 18.1112 4.89848C18.1326 4.90338 18.1539 4.90866 18.1749 4.91394C18.1829 4.91583 18.1909 4.91771 18.1986 4.9196C18.2169 4.92412 18.2348 4.92865 18.2531 4.93317C18.266 4.93694 18.279 4.93996 18.2924 4.94373C18.316 4.94977 18.3396 4.95618 18.3629 4.96259C18.3911 4.97013 18.4189 4.97805 18.4471 4.98559L18.4494 4.98672C18.4777 4.99464 18.5055 5.00256 18.5329 5.01086C18.5577 5.0184 18.5825 5.02557 18.6069 5.03311C18.6164 5.03613 18.6256 5.03877 18.6347 5.04178C18.6572 5.04857 18.6797 5.05574 18.7018 5.06328C18.7289 5.07158 18.756 5.08063 18.7831 5.08968C18.7869 5.09081 18.7903 5.09194 18.7941 5.09345C18.8193 5.10175 18.8444 5.11042 18.8692 5.11909C18.9249 5.13833 18.9802 5.15832 19.0355 5.17868C19.0595 5.18773 19.0839 5.19678 19.1075 5.20621C19.1315 5.21526 19.1556 5.22469 19.1796 5.23412C19.2276 5.25297 19.2753 5.27183 19.3226 5.29219C19.358 5.30728 19.3935 5.32199 19.4289 5.33745C19.4602 5.35102 19.4907 5.3646 19.5216 5.37855C19.591 5.40986 19.6596 5.44153 19.7279 5.4751C19.7507 5.48603 19.7732 5.49735 19.7961 5.50866C19.8262 5.52375 19.8563 5.53845 19.8865 5.55429C19.9315 5.5773 19.9764 5.60068 20.0211 5.62519C20.0211 5.62519 20.0218 5.62519 20.0222 5.62557C20.066 5.64933 20.1099 5.67346 20.1534 5.69835C20.1545 5.69911 20.1556 5.69949 20.1568 5.70024C20.1736 5.70929 20.1903 5.71872 20.2067 5.72852C20.2243 5.73833 20.2422 5.74814 20.2597 5.75869C20.2616 5.75945 20.2635 5.76058 20.2655 5.76171C20.2792 5.77001 20.2929 5.77793 20.3066 5.78585C20.3249 5.79678 20.3436 5.8081 20.3615 5.81903C20.3772 5.82846 20.3932 5.83827 20.4088 5.8477C20.6936 6.02117 20.9659 6.21162 21.2251 6.41979C21.2568 6.44468 21.288 6.46995 21.3189 6.49559C21.3544 6.52501 21.3895 6.55442 21.4245 6.58422C21.4649 6.61891 21.5054 6.65398 21.545 6.68981C21.5687 6.71055 21.5919 6.73167 21.6152 6.75279C21.6323 6.76863 21.6491 6.78409 21.6659 6.79955C21.6998 6.83123 21.7334 6.86291 21.7665 6.89496C21.7833 6.91118 21.7997 6.9274 21.8161 6.94361C21.8382 6.96473 21.8599 6.98661 21.8817 7.00848C21.9038 7.03035 21.9255 7.05222 21.9465 7.07447C21.9732 7.102 21.9999 7.12991 22.0258 7.15744C22.0422 7.17441 22.0582 7.19138 22.0735 7.20873C22.1158 7.25398 22.157 7.29962 22.1978 7.346C22.218 7.36901 22.2386 7.39239 22.2588 7.41577C22.279 7.43915 22.2988 7.46253 22.3186 7.48629C22.4181 7.60471 22.5142 7.72614 22.6069 7.85059C22.6179 7.8653 22.6286 7.87963 22.6393 7.89396C22.6526 7.91206 22.666 7.93016 22.6786 7.94789C23.2383 8.7176 23.6474 9.57517 23.8902 10.4855C23.8933 10.4957 23.896 10.5063 23.8986 10.5165C23.9028 10.5308 23.9066 10.5455 23.9105 10.5598C23.9105 10.5613 23.9112 10.5629 23.9116 10.5644C23.9135 10.5727 23.9158 10.581 23.9177 10.5893C23.9185 10.5919 23.9192 10.5949 23.92 10.5979C23.9238 10.613 23.9276 10.6277 23.9314 10.6432C23.9337 10.6526 23.936 10.6624 23.9383 10.6722C23.939 10.6752 23.9398 10.6786 23.9406 10.682C23.9432 10.6926 23.9459 10.7031 23.9486 10.7137C23.9509 10.7239 23.9535 10.7344 23.9562 10.745C23.9753 10.8276 23.9936 10.9106 24.0096 10.9935C24.0172 11.0286 24.0237 11.0641 24.0302 11.0995C24.037 11.135 24.0431 11.1704 24.0492 11.2059C24.0664 11.3065 24.0816 11.408 24.0946 11.5094C24.098 11.5347 24.1015 11.56 24.1041 11.5856C24.1072 11.6109 24.1102 11.6365 24.1129 11.6618C24.1152 11.6803 24.1171 11.6988 24.119 11.7176C24.1213 11.7402 24.1232 11.7632 24.1255 11.7866C24.127 11.8051 24.1289 11.8236 24.1304 11.8421C24.1308 11.8443 24.1308 11.847 24.1308 11.8492C24.1331 11.8749 24.135 11.9001 24.1369 11.9262C24.1392 11.9526 24.1407 11.9797 24.1427 12.0061C24.1438 12.0265 24.1449 12.0472 24.1461 12.0676C24.1488 12.1136 24.151 12.16 24.1526 12.2064C24.1533 12.2279 24.1541 12.2497 24.1549 12.2716C24.1556 12.2931 24.156 12.3146 24.1564 12.3361C24.1564 12.3606 24.1571 12.3847 24.1575 12.4092V12.4277C24.1579 12.4481 24.1579 12.4688 24.1579 12.4896C24.1579 12.8788 24.1282 13.2687 24.0687 13.6571Z" fill="#ED3144"/>
<path fill-rule="evenodd" clip-rule="evenodd" d="M17.5516 0.0655671C17.5428 0.0648129 17.5337 0.0640586 17.5249 0.0629272C17.5588 0.0663213 17.5928 0.0697155 17.6263 0.0734867C17.6015 0.0708468 17.5768 0.068207 17.5516 0.0655671ZM17.9729 20.1315C17.9729 20.1315 17.9721 20.1315 17.9718 20.1319C17.9904 20.1277 18.0091 20.1236 18.0282 20.119C18.0099 20.1232 17.9916 20.1273 17.9729 20.1311V20.1315ZM28.4622 9.27527C28.4607 9.26999 28.4595 9.26509 28.458 9.25981C28.4534 9.24171 28.4485 9.22361 28.4431 9.20588C28.4446 9.21229 28.4466 9.21833 28.4481 9.22474C28.4565 9.25453 28.4645 9.28432 28.4725 9.31374C28.469 9.30092 28.4656 9.28809 28.4622 9.27527Z" fill="black"/>
<path fill-rule="evenodd" clip-rule="evenodd" d="M22.8027 1.80942C24.3225 2.72281 25.6322 3.94431 26.6426 5.38642C25.6085 3.90396 24.2909 2.70018 22.8027 1.80942ZM27.0059 5.9374C26.996 5.92156 26.9861 5.90572 26.9762 5.89026C26.9884 5.90987 27.0002 5.9291 27.0124 5.94871C27.0101 5.94494 27.0078 5.94155 27.0059 5.93778V5.9374ZM27.0898 6.0743C27.1028 6.09541 27.1153 6.11653 27.1279 6.13803C27.1417 6.16066 27.155 6.18366 27.1687 6.20667C27.1832 6.23155 27.1981 6.25682 27.2126 6.28209C27.2202 6.29529 27.2282 6.30849 27.2358 6.32206C27.2534 6.35261 27.2705 6.38278 27.2881 6.41371C27.3094 6.45179 27.3308 6.49026 27.3521 6.52873C27.3788 6.577 27.4055 6.62602 27.4314 6.67505C27.6632 7.11025 27.8665 7.55337 28.0418 8.00139C28.0651 8.06098 28.088 8.12094 28.1101 8.18052C28.1433 8.26915 28.1753 8.35777 28.2062 8.44677C27.9176 7.61258 27.542 6.81798 27.0898 6.07467V6.0743ZM28.4395 9.19461C28.4395 9.19461 28.4388 9.19121 28.438 9.18933C28.4388 9.1931 28.4403 9.19687 28.441 9.20026C28.441 9.20102 28.4414 9.20215 28.4418 9.2029C28.441 9.20026 28.4403 9.19725 28.4395 9.19461ZM28.5078 9.45029C28.5009 9.42352 28.494 9.39674 28.4872 9.37034C28.4857 9.36431 28.4841 9.3579 28.4822 9.35187C28.4769 9.33112 28.4712 9.31076 28.4658 9.2904C28.4643 9.28512 28.4632 9.28021 28.4616 9.27531C28.4601 9.27003 28.459 9.26513 28.4574 9.25985C28.4529 9.24175 28.4479 9.22364 28.4426 9.20592C28.4441 9.21233 28.446 9.21836 28.4475 9.22478C28.4559 9.25457 28.4639 9.28436 28.4719 9.31378C28.4799 9.34319 28.4879 9.37336 28.4956 9.40315C28.5127 9.46877 28.5291 9.53477 28.5451 9.60077C28.5329 9.55061 28.5207 9.50045 28.5081 9.45029H28.5078ZM28.5631 9.67619C28.5638 9.68072 28.565 9.68486 28.5657 9.68901C28.5711 9.71126 28.576 9.73351 28.5814 9.75576C28.5753 9.72937 28.5692 9.70259 28.5631 9.67619ZM28.8803 12.0253C28.8787 11.9819 28.8768 11.9389 28.8746 11.8956C28.873 11.8609 28.8711 11.8262 28.8692 11.7915C28.8688 11.7836 28.8685 11.7756 28.8677 11.7677C28.8677 11.7632 28.8673 11.7587 28.8669 11.7545C28.8654 11.7277 28.8635 11.7013 28.8616 11.6746C28.8612 11.6663 28.8608 11.6576 28.8601 11.6489C28.8601 11.6467 28.8601 11.644 28.8597 11.6418C28.857 11.6025 28.854 11.5629 28.8509 11.5237C28.8494 11.5037 28.8479 11.4834 28.846 11.463C28.8441 11.4381 28.8418 11.4132 28.8395 11.3887C28.8357 11.3465 28.8319 11.3039 28.8273 11.2612C28.8189 11.1764 28.8094 11.0915 28.7991 11.0067C28.7937 10.9644 28.7884 10.9218 28.783 10.8792C28.772 10.7944 28.7598 10.7095 28.7464 10.6247C28.74 10.5835 28.7335 10.5428 28.7266 10.5021C28.7243 10.487 28.7217 10.4715 28.719 10.4561C28.7137 10.4229 28.7079 10.3901 28.7018 10.3569C28.6999 10.3463 28.698 10.3358 28.6961 10.3252C28.6893 10.2871 28.6824 10.249 28.6751 10.2106C28.6668 10.1653 28.658 10.1201 28.6488 10.0752C28.8044 10.8596 28.8864 11.67 28.8864 12.4993V12.2387C28.8848 12.1678 28.8829 12.0969 28.8799 12.0257L28.8803 12.0253Z" fill="#B20F26"/>
<path fill-rule="evenodd" clip-rule="evenodd" d="M28.8868 2.32689V12.2384C28.8853 12.1675 28.8834 12.0966 28.8804 12.0254C28.8788 11.982 28.8769 11.939 28.8746 11.8956C28.8731 11.8609 28.8712 11.8262 28.8693 11.7915C28.8689 11.7836 28.8685 11.7757 28.8678 11.7678C28.8678 11.7633 28.8674 11.7587 28.867 11.7546C28.8655 11.7278 28.8636 11.7014 28.8617 11.6746C28.8613 11.6663 28.8609 11.6577 28.8602 11.649C28.8602 11.6467 28.8602 11.6441 28.8598 11.6418C28.8571 11.6026 28.8541 11.563 28.851 11.5238C28.8495 11.5038 28.848 11.4834 28.846 11.4631C28.8441 11.4382 28.8419 11.4133 28.8396 11.3888C28.8358 11.3465 28.8319 11.3039 28.8274 11.2613C28.819 11.1764 28.8094 11.0916 28.7992 11.0067C28.7938 10.9645 28.7885 10.9219 28.7831 10.8793C28.7721 10.7944 28.7599 10.7096 28.7465 10.6247C28.7401 10.5836 28.7336 10.5429 28.7267 10.5022C28.7244 10.4871 28.7218 10.4716 28.7191 10.4561C28.7137 10.423 28.708 10.3902 28.7019 10.357C28.7 10.3464 28.6981 10.3358 28.6962 10.3253C28.6893 10.2872 28.6825 10.2491 28.6752 10.2106C28.6668 10.1654 28.6581 10.1201 28.6489 10.0753C28.6432 10.0466 28.6375 10.0183 28.6318 9.98965C28.631 9.98625 28.6302 9.98248 28.6295 9.97871C28.6219 9.94175 28.6135 9.90479 28.6055 9.86784C28.5978 9.83125 28.5898 9.79467 28.5814 9.75847C28.5814 9.75771 28.5811 9.75696 28.5811 9.75583C28.575 9.72943 28.5689 9.70265 28.5628 9.67626C28.5567 9.65137 28.5509 9.6261 28.5448 9.60083C28.5326 9.55067 28.5204 9.50052 28.5079 9.45036C28.501 9.42358 28.4941 9.39681 28.4873 9.37041C28.4857 9.36438 28.4842 9.35797 28.4823 9.35193C28.477 9.33119 28.4713 9.31082 28.4659 9.29046C28.4644 9.28518 28.4632 9.28028 28.4617 9.27538C28.4602 9.2701 28.4591 9.26519 28.4575 9.25991C28.453 9.24181 28.448 9.22371 28.4427 9.20598C28.4427 9.20523 28.4427 9.2041 28.4419 9.20335C28.4411 9.20071 28.4404 9.19769 28.4396 9.19505C28.4392 9.19316 28.4388 9.19165 28.4381 9.18977C28.4381 9.18788 28.4373 9.186 28.4366 9.18411C28.4362 9.18223 28.4358 9.18072 28.435 9.17883C28.435 9.17808 28.4347 9.17732 28.4343 9.17657C28.4331 9.17242 28.432 9.16903 28.4308 9.16488C28.4263 9.14866 28.4217 9.13245 28.4171 9.11623C28.4164 9.11359 28.4156 9.11095 28.4148 9.10793C28.4137 9.10303 28.4122 9.09775 28.4106 9.09285C28.4026 9.06494 28.3946 9.03703 28.3866 9.0095C28.3771 8.97669 28.3672 8.94388 28.3573 8.91108C28.3504 8.88807 28.3431 8.86507 28.3359 8.84244C28.3332 8.83263 28.3298 8.82283 28.3268 8.81302V8.81265C28.3226 8.79945 28.3184 8.78662 28.3145 8.77343C28.313 8.76928 28.3119 8.76513 28.3104 8.76098C28.3062 8.74778 28.302 8.73458 28.2982 8.72176C28.2943 8.71007 28.2905 8.69838 28.2867 8.68706C28.2806 8.66859 28.2749 8.65011 28.2688 8.63163C28.268 8.62899 28.2669 8.62635 28.2661 8.62371C28.257 8.59618 28.2478 8.56865 28.2383 8.5415C28.2368 8.53697 28.2352 8.53244 28.2337 8.52754C28.2246 8.50077 28.2154 8.47361 28.2059 8.44684C27.9173 7.61264 27.5417 6.81805 27.0895 6.07474C27.0716 6.04494 27.0533 6.01515 27.035 5.98574C27.0274 5.97329 27.0197 5.96085 27.0121 5.94878C27.0098 5.94501 27.0075 5.94161 27.0056 5.93784C26.9957 5.922 26.9858 5.90616 26.9759 5.8907C26.9744 5.88844 26.9732 5.88618 26.9717 5.88391C26.9706 5.88203 26.9694 5.88014 26.9683 5.87826C26.9557 5.85827 26.9431 5.83866 26.9305 5.81905C26.9122 5.79039 26.8939 5.7621 26.8752 5.73382C26.8684 5.72288 26.8611 5.71195 26.8543 5.70139C26.8432 5.68479 26.8325 5.66782 26.8215 5.65123C26.7982 5.61578 26.7746 5.58071 26.7509 5.54526C26.738 5.52527 26.7242 5.50566 26.7105 5.48567C26.688 5.45249 26.6652 5.42005 26.6423 5.38724C25.6083 3.90477 24.2906 2.701 22.8024 1.81024C22.7346 1.76951 22.6663 1.72916 22.5973 1.69031C22.5847 1.68277 22.5722 1.67523 22.5596 1.66844C22.9367 1.88114 23.3934 1.91659 23.7869 1.73557L26.1081 0.66831C27.3614 0.0132487 28.8865 0.910046 28.8865 2.32765L28.8868 2.32689Z" fill="#B20F26"/>
<path fill-rule="evenodd" clip-rule="evenodd" d="M9.94042 23.3306C9.56334 23.1179 9.10657 23.0825 8.71309 23.2635L6.39188 24.3308C5.13863 24.9858 3.61353 24.089 3.61353 22.6714V12.7467C3.61619 12.8896 3.62115 13.0322 3.62954 13.1751C3.63145 13.2087 3.63335 13.2426 3.63564 13.2766C3.65165 13.53 3.67529 13.7838 3.70694 14.0372C3.71723 14.1217 3.72905 14.2058 3.74125 14.2906C3.7485 14.3416 3.7565 14.3921 3.76451 14.4426C3.77252 14.4932 3.78091 14.5437 3.78967 14.5942C3.80111 14.6617 3.81331 14.7292 3.82628 14.7964C3.84458 14.894 3.8644 14.9921 3.88538 15.0898C3.89224 15.1207 3.89872 15.1512 3.90558 15.1822C3.91206 15.2127 3.91893 15.2429 3.92617 15.2734C3.92617 15.2734 3.92617 15.2735 3.92617 15.2738C3.92846 15.2832 3.93037 15.2927 3.93265 15.3021C3.93723 15.3228 3.94219 15.3439 3.94714 15.3647V15.3651C3.9582 15.4115 3.96926 15.4582 3.98108 15.5046C3.98451 15.5189 3.98832 15.5336 3.99175 15.548C3.99289 15.5525 3.99404 15.557 3.99518 15.5619C4.35549 16.9758 4.95867 18.2938 5.75973 19.4704C5.7765 19.4953 5.79366 19.5206 5.8112 19.5455C5.82798 19.5704 5.84513 19.5952 5.86267 19.6198C6.86581 21.0555 8.1347 22.2294 9.56753 23.11C9.59956 23.13 9.63159 23.1496 9.66399 23.1689C9.69297 23.1866 9.72233 23.2039 9.75169 23.2213C9.79553 23.2477 9.83976 23.2733 9.88437 23.2986C9.90267 23.3095 9.92135 23.3205 9.94004 23.331L9.94042 23.3306Z" fill="#B20F26"/>
</svg>
