<svg width="24" height="25" viewBox="0 0 24 25" fill="none" xmlns="http://www.w3.org/2000/svg">
<path fill-rule="evenodd" clip-rule="evenodd" d="M4 4.50061C4 3.94833 4.44772 3.50061 5 3.50061H19C19.5523 3.50061 20 3.94833 20 4.50061C20 5.0529 19.5523 5.50061 19 5.50061H5C4.44772 5.50061 4 5.0529 4 4.50061Z" fill="#ED3144"/>
<path fill-rule="evenodd" clip-rule="evenodd" d="M5.92335 7.50324C6.47401 7.46088 6.95474 7.87292 6.9971 8.42355L7.78403 18.6531C7.86419 19.695 8.73307 20.4996 9.77814 20.4996H14.222C15.267 20.4996 16.1359 19.695 16.2161 18.6531L17.003 8.42355C17.0454 7.87292 17.5261 7.46088 18.0767 7.50324C18.6274 7.54559 19.0395 8.0263 18.9971 8.57693L18.2102 18.8065C18.0499 20.8903 16.3121 22.4995 14.222 22.4995H9.77814C7.688 22.4995 5.95023 20.8903 5.78992 18.8065L5.00299 8.57693C4.96064 8.0263 5.37269 7.54559 5.92335 7.50324Z" fill="#ED3144"/>
<path fill-rule="evenodd" clip-rule="evenodd" d="M12 4.65112C12.5784 5.19094 13.3463 5.5006 14.1552 5.5006L16 5.5006V3.5006L14.1552 3.5006C13.7679 3.5006 13.4061 3.30701 13.1913 2.98471C12.6246 2.13466 11.3754 2.13465 10.8087 2.98471C10.5939 3.30701 10.2321 3.5006 9.84479 3.5006L8 3.5006V5.5006L9.84479 5.5006C10.6537 5.5006 11.4216 5.19094 12 4.65112Z" fill="#ED3144"/>
</svg>
