<svg width="387" height="580" viewBox="0 0 387 580" fill="none" xmlns="http://www.w3.org/2000/svg">
<g filter="url(#filter0_dddd_140_3598)">
<rect x="13" y="2" width="361" height="533" rx="16" fill="#FEFFFF"/>
<rect x="13.5" y="2.5" width="360" height="532" rx="15.5" stroke="#F2DDDF"/>
<rect x="21" y="10" width="345" height="517" rx="8" fill="#F4F4F7"/>
<path d="M253.5 235C253.5 268.137 226.637 295 193.5 295C160.363 295 133.5 268.137 133.5 235C133.5 201.863 160.363 175 193.5 175C226.637 175 253.5 201.863 253.5 235Z" fill="url(#paint0_linear_140_3598)"/>
<path d="M246.998 235.226C246.535 265.414 222.216 289.519 192.68 289.066C163.144 288.613 139.575 263.775 140.038 233.587C140.5 203.399 164.819 179.294 194.356 179.747C223.892 180.2 247.461 205.038 246.998 235.226Z" fill="url(#paint1_radial_140_3598)"/>
<path d="M253.5 235C253.5 268.137 226.637 295 193.5 295C160.363 295 133.5 268.137 133.5 235C133.5 201.863 160.363 175 193.5 175C226.637 175 253.5 201.863 253.5 235Z" stroke="#E76900" stroke-width="2.56715" stroke-miterlimit="10"/>
<g opacity="0.6">
<path d="M224.116 264.489C222.696 258.493 213.661 241.349 193.587 241.399C175.274 241.184 164.494 257.597 163.412 264.033C163.271 264.874 164.026 267.131 166.146 266.118C169.858 264.344 163.143 247.644 193.609 247.762C224.075 247.644 217.709 264.241 221.212 266.271C223.154 267.396 224.309 265.301 224.116 264.489Z" fill="#EAAC1F"/>
</g>
<path d="M223.215 265.598C215.317 249.46 201.861 246.44 193.66 246.498C185.459 246.44 172.976 250.08 164.161 265.122C163.381 266.453 164.992 267.186 165.654 266.367C172.355 258.08 181.178 248.141 193.626 248.274C206.073 248.141 216.627 259.045 221.188 265.878C221.763 266.74 223.927 267.053 223.215 265.598Z" fill="#FEDD78"/>
<path d="M222.914 266.453C220.464 265.392 212.492 247.109 193.879 246.942C174.631 246.77 166.647 264.754 164.589 266.33C163.994 266.786 163.385 266.224 163.654 265.608C166.037 260.148 173.318 243.012 193.763 242.994C212.145 242.977 221.006 258.528 223.651 265.357C223.896 265.99 223.63 266.763 222.914 266.453Z" fill="#974800"/>
<path d="M223.43 266.253C223.176 266.268 223.126 265.684 222.954 265.39C222.782 265.096 222.599 264.56 222.398 264.218C217.662 256.149 208.628 244.494 193.784 244.503C178.829 244.511 169.666 254.563 165.3 263.892C165.129 264.257 164.659 264.76 164.336 265.278C164.089 265.674 163.933 265.975 163.703 266.223C163.485 266.036 163.549 265.675 163.895 264.886C168.838 253.597 178.056 243.1 193.756 243.041C210.662 242.977 220.282 256.838 223.575 264.771C223.783 265.273 223.765 266.234 223.43 266.253Z" fill="#632900"/>
<path d="M166.306 223.292C166.306 228.87 169.657 233.392 173.791 233.392C177.924 233.392 181.275 228.87 181.275 223.292C181.275 217.714 177.924 213.192 173.791 213.192C169.657 213.192 166.306 217.714 166.306 223.292Z" fill="#FFE6A0"/>
<path d="M166.306 222.252C166.306 227.256 169.657 231.313 173.791 231.313C177.924 231.313 181.275 227.256 181.275 222.252C181.275 217.248 177.924 213.192 173.791 213.192C169.657 213.192 166.306 217.248 166.306 222.252Z" fill="#EAAC1F"/>
<path d="M166.909 223.247C166.909 227.963 169.99 231.786 173.791 231.786C177.592 231.786 180.673 227.963 180.673 223.247C180.673 218.532 177.592 214.71 173.791 214.71C169.99 214.71 166.909 218.532 166.909 223.247Z" fill="#974800"/>
<path d="M166.908 223.249C166.908 223.624 166.927 223.992 166.968 224.355C167.403 220.16 170.293 216.918 173.791 216.918C177.289 216.918 180.18 220.16 180.614 224.355C180.655 223.992 180.674 223.624 180.674 223.249C180.674 218.533 177.591 214.709 173.791 214.709C169.991 214.709 166.908 218.533 166.908 223.249Z" fill="#632900"/>
<path d="M221.065 223.292C221.065 228.87 217.714 233.392 213.581 233.392C209.447 233.392 206.096 228.87 206.096 223.292C206.096 217.714 209.447 213.192 213.581 213.192C217.714 213.192 221.065 217.714 221.065 223.292Z" fill="#FFE6A0"/>
<path d="M221.065 222.252C221.065 227.256 217.714 231.313 213.581 231.313C209.447 231.313 206.096 227.256 206.096 222.252C206.096 217.248 209.447 213.192 213.581 213.192C217.714 213.192 221.065 217.248 221.065 222.252Z" fill="#EAAC1F"/>
<path d="M220.462 223.247C220.462 227.963 217.381 231.786 213.581 231.786C209.78 231.786 206.699 227.963 206.699 223.247C206.699 218.532 209.78 214.71 213.581 214.71C217.381 214.71 220.462 218.532 220.462 223.247Z" fill="#974800"/>
<path d="M220.463 223.249C220.463 223.624 220.444 223.992 220.403 224.355C219.969 220.16 217.079 216.918 213.581 216.918C210.082 216.918 207.192 220.16 206.758 224.355C206.717 223.992 206.698 223.624 206.698 223.249C206.698 218.533 209.78 214.709 213.581 214.709C217.381 214.709 220.463 218.533 220.463 223.249Z" fill="#632900"/>
<path d="M94.4332 337V326.395H94.2867L87.109 337H84.9801V322.908H87.148V333.543H87.2945L94.4723 322.908H96.6012V337H94.4332ZM102.588 337.195C101.351 337.195 100.339 336.915 99.5508 336.355C98.763 335.789 98.3203 335.024 98.2227 334.061H100.313C100.423 334.523 100.674 334.878 101.064 335.125C101.462 335.372 101.969 335.496 102.588 335.496C103.285 335.496 103.825 335.35 104.209 335.057C104.6 334.757 104.795 334.363 104.795 333.875C104.795 332.827 104.059 332.303 102.588 332.303H101.035V330.73H102.559C103.828 330.73 104.463 330.252 104.463 329.295C104.463 328.865 104.303 328.523 103.984 328.27C103.672 328.009 103.213 327.879 102.607 327.879C102.015 327.879 101.53 327.999 101.152 328.24C100.775 328.481 100.55 328.813 100.479 329.236H98.4473C98.5579 328.299 98.9844 327.557 99.7266 327.01C100.469 326.463 101.426 326.189 102.598 326.189C103.848 326.189 104.814 326.453 105.498 326.98C106.182 327.508 106.523 328.217 106.523 329.109C106.523 329.65 106.367 330.132 106.055 330.555C105.742 330.971 105.326 331.242 104.805 331.365V331.443C105.482 331.606 105.996 331.896 106.348 332.312C106.706 332.729 106.885 333.243 106.885 333.855C106.885 334.865 106.494 335.675 105.713 336.287C104.932 336.893 103.89 337.195 102.588 337.195ZM112.862 327.947H110.518V330.76H112.637C113.881 330.76 114.502 330.288 114.502 329.344C114.502 328.895 114.362 328.549 114.082 328.309C113.802 328.068 113.396 327.947 112.862 327.947ZM112.784 332.264H110.518V335.438H113.047C113.666 335.438 114.138 335.304 114.463 335.037C114.789 334.77 114.952 334.38 114.952 333.865C114.952 332.798 114.229 332.264 112.784 332.264ZM108.438 337V326.395H113.272C114.294 326.395 115.098 326.635 115.684 327.117C116.276 327.599 116.573 328.257 116.573 329.09C116.573 329.643 116.4 330.141 116.055 330.584C115.71 331.02 115.284 331.287 114.776 331.385V331.463C115.453 331.554 116 331.827 116.416 332.283C116.833 332.732 117.041 333.286 117.041 333.943C117.041 334.881 116.706 335.626 116.036 336.18C115.371 336.727 114.467 337 113.321 337H108.438ZM120.684 337H118.604V326.395H120.684V333.895H120.763L125.831 326.395H127.911V337H125.831V329.471H125.753L120.684 337ZM136.954 337V332.352H131.984V337H129.884V326.395H131.984V330.672H136.954V326.395H139.054V337H136.954ZM143.107 337H141.027V326.395H143.107V333.895H143.185L148.254 326.395H150.334V337H148.254V329.471H148.175L143.107 337ZM160.324 326.395V328.074H156.975V337H154.885V328.074H151.535V326.395H160.324ZM165.774 327.986C165.012 327.986 164.377 328.24 163.87 328.748C163.368 329.256 163.088 329.917 163.03 330.73H168.411C168.385 329.904 168.131 329.24 167.649 328.738C167.167 328.237 166.542 327.986 165.774 327.986ZM168.401 333.895H170.422C170.273 334.845 169.774 335.623 168.928 336.229C168.082 336.827 167.063 337.127 165.871 337.127C164.335 337.127 163.118 336.645 162.219 335.682C161.327 334.712 160.881 333.396 160.881 331.736C160.881 330.076 161.327 328.748 162.219 327.752C163.111 326.756 164.299 326.258 165.784 326.258C167.242 326.258 168.398 326.73 169.25 327.674C170.103 328.611 170.53 329.884 170.53 331.492V332.234H163.02V332.361C163.02 333.279 163.284 334.018 163.811 334.578C164.338 335.132 165.038 335.408 165.911 335.408C166.529 335.408 167.063 335.271 167.512 334.998C167.961 334.725 168.258 334.357 168.401 333.895ZM173.382 339.559H171.761L172.679 334.793H174.798L173.382 339.559ZM186.683 326.287C188.037 326.287 189.121 326.779 189.935 327.762C190.755 328.745 191.166 330.057 191.166 331.697C191.166 333.331 190.759 334.643 189.945 335.633C189.138 336.616 188.067 337.107 186.732 337.107C185.97 337.107 185.3 336.948 184.72 336.629C184.141 336.303 183.692 335.848 183.373 335.262H183.334V340.467H181.214V326.395H183.255V328.152H183.304C183.604 327.579 184.056 327.127 184.662 326.795C185.274 326.456 185.948 326.287 186.683 326.287ZM186.146 335.311C187.005 335.311 187.696 334.982 188.216 334.324C188.737 333.667 188.998 332.791 188.998 331.697C188.998 330.604 188.737 329.728 188.216 329.07C187.696 328.413 187.005 328.084 186.146 328.084C185.306 328.084 184.626 328.416 184.105 329.08C183.584 329.744 183.321 330.617 183.314 331.697C183.321 332.785 183.581 333.66 184.095 334.324C184.616 334.982 185.3 335.311 186.146 335.311ZM196.664 331.707H198.607V328.064H196.664C196.026 328.064 195.518 328.234 195.141 328.572C194.77 328.904 194.584 329.36 194.584 329.939C194.584 330.46 194.773 330.887 195.15 331.219C195.535 331.544 196.039 331.707 196.664 331.707ZM198.607 337V333.328H196.938L194.359 337H191.967L194.867 332.977C194.125 332.755 193.542 332.381 193.119 331.854C192.702 331.326 192.494 330.695 192.494 329.959C192.494 328.859 192.862 327.99 193.598 327.352C194.333 326.714 195.323 326.395 196.566 326.395H200.678V337H198.607ZM209.702 335.32V328.064H205.961L205.659 332.195C205.561 333.595 205.281 334.611 204.819 335.242V335.32H209.702ZM203.598 339.783H201.655V335.32H202.514C203.217 334.878 203.627 333.807 203.745 332.107L204.135 326.395H211.791V335.32H213.452V339.783H211.498V337H203.598V339.783ZM222.739 335.662C221.841 336.639 220.623 337.127 219.087 337.127C217.55 337.127 216.33 336.639 215.425 335.662C214.52 334.686 214.067 333.364 214.067 331.697C214.067 330.037 214.52 328.715 215.425 327.732C216.336 326.749 217.557 326.258 219.087 326.258C220.617 326.258 221.834 326.749 222.739 327.732C223.644 328.709 224.096 330.031 224.096 331.697C224.096 333.364 223.644 334.686 222.739 335.662ZM216.977 334.402C217.485 335.047 218.188 335.369 219.087 335.369C219.985 335.369 220.685 335.047 221.186 334.402C221.694 333.758 221.948 332.856 221.948 331.697C221.948 330.538 221.694 329.637 221.186 328.992C220.685 328.341 219.985 328.016 219.087 328.016C218.188 328.016 217.485 328.341 216.977 328.992C216.47 329.643 216.216 330.545 216.216 331.697C216.216 332.85 216.47 333.751 216.977 334.402ZM227.652 337H225.611V326.395H228.247L231.714 334.246H231.792L235.279 326.395H237.837V337H235.796V329.607H235.718L232.495 336.6H230.943L227.73 329.607H227.652V337ZM253.033 329.773H250.992C250.855 329.253 250.572 328.836 250.143 328.523C249.713 328.204 249.173 328.045 248.521 328.045C247.662 328.045 246.972 328.377 246.451 329.041C245.937 329.705 245.68 330.59 245.68 331.697C245.68 332.83 245.94 333.722 246.461 334.373C246.982 335.024 247.672 335.35 248.531 335.35C249.176 335.35 249.71 335.203 250.133 334.91C250.562 334.617 250.855 334.197 251.012 333.65H253.053C252.89 334.699 252.398 335.542 251.578 336.18C250.764 336.811 249.745 337.127 248.521 337.127C247.011 337.127 245.803 336.642 244.898 335.672C243.993 334.695 243.541 333.37 243.541 331.697C243.541 330.05 243.993 328.732 244.898 327.742C245.803 326.753 247.005 326.258 248.502 326.258C249.752 326.258 250.781 326.593 251.588 327.264C252.402 327.928 252.883 328.764 253.033 329.773ZM263.063 327.947H260.72V330.76H262.839C264.082 330.76 264.704 330.288 264.704 329.344C264.704 328.895 264.564 328.549 264.284 328.309C264.004 328.068 263.597 327.947 263.063 327.947ZM262.985 332.264H260.72V335.438H263.249C263.867 335.438 264.339 335.304 264.665 335.037C264.99 334.77 265.153 334.38 265.153 333.865C265.153 332.798 264.43 332.264 262.985 332.264ZM258.639 337V326.395H263.473C264.496 326.395 265.3 326.635 265.886 327.117C266.478 327.599 266.774 328.257 266.774 329.09C266.774 329.643 266.602 330.141 266.257 330.584C265.912 331.02 265.485 331.287 264.977 331.385V331.463C265.654 331.554 266.201 331.827 266.618 332.283C267.035 332.732 267.243 333.286 267.243 333.943C267.243 334.881 266.908 335.626 266.237 336.18C265.573 336.727 264.668 337 263.522 337H258.639ZM272.487 335.418C273.275 335.418 273.933 335.193 274.46 334.744C274.987 334.288 275.251 333.712 275.251 333.016V332.186L272.673 332.361C271.208 332.452 270.476 332.973 270.476 333.924C270.476 334.38 270.658 334.744 271.023 335.018C271.387 335.285 271.876 335.418 272.487 335.418ZM271.921 337.107C270.86 337.107 269.997 336.821 269.333 336.248C268.669 335.669 268.337 334.907 268.337 333.963C268.337 333.038 268.682 332.312 269.372 331.785C270.069 331.258 271.075 330.952 272.39 330.867L275.251 330.701V329.881C275.251 329.275 275.056 328.813 274.665 328.494C274.281 328.169 273.734 328.006 273.025 328.006C272.452 328.006 271.967 328.143 271.57 328.416C271.179 328.689 270.938 329.057 270.847 329.52H268.864C268.897 328.582 269.31 327.804 270.105 327.186C270.899 326.567 271.892 326.258 273.083 326.258C274.379 326.258 275.411 326.574 276.179 327.205C276.954 327.837 277.341 328.676 277.341 329.725V337H275.32V335.232H275.271C274.978 335.805 274.529 336.261 273.923 336.6C273.318 336.938 272.65 337.107 271.921 337.107ZM281.209 337H279.168V326.395H281.804L285.271 334.246H285.349L288.836 326.395H291.394V337H289.353V329.607H289.275L286.052 336.6H284.5L281.287 329.607H281.209V337ZM295.438 337H293.357V326.395H295.438V333.895H295.516L300.584 326.395H302.664V337H300.584V329.471H300.506L295.438 337ZM113.473 359.195C112.236 359.195 111.223 358.915 110.436 358.355C109.648 357.789 109.205 357.024 109.107 356.061H111.197C111.308 356.523 111.559 356.878 111.949 357.125C112.346 357.372 112.854 357.496 113.473 357.496C114.169 357.496 114.71 357.35 115.094 357.057C115.484 356.757 115.68 356.363 115.68 355.875C115.68 354.827 114.944 354.303 113.473 354.303H111.92V352.73H113.443C114.713 352.73 115.348 352.252 115.348 351.295C115.348 350.865 115.188 350.523 114.869 350.27C114.557 350.009 114.098 349.879 113.492 349.879C112.9 349.879 112.415 349.999 112.037 350.24C111.66 350.481 111.435 350.813 111.363 351.236H109.332C109.443 350.299 109.869 349.557 110.611 349.01C111.354 348.463 112.311 348.189 113.482 348.189C114.732 348.189 115.699 348.453 116.383 348.98C117.066 349.508 117.408 350.217 117.408 351.109C117.408 351.65 117.252 352.132 116.939 352.555C116.627 352.971 116.21 353.242 115.689 353.365V353.443C116.367 353.606 116.881 353.896 117.232 354.312C117.59 354.729 117.77 355.243 117.77 355.855C117.77 356.865 117.379 357.675 116.598 358.287C115.816 358.893 114.775 359.195 113.473 359.195ZM123.004 357.418C123.792 357.418 124.45 357.193 124.977 356.744C125.504 356.288 125.768 355.712 125.768 355.016V354.186L123.19 354.361C121.725 354.452 120.993 354.973 120.993 355.924C120.993 356.38 121.175 356.744 121.539 357.018C121.904 357.285 122.392 357.418 123.004 357.418ZM122.438 359.107C121.377 359.107 120.514 358.821 119.85 358.248C119.186 357.669 118.854 356.907 118.854 355.963C118.854 355.038 119.199 354.312 119.889 353.785C120.586 353.258 121.592 352.952 122.907 352.867L125.768 352.701V351.881C125.768 351.275 125.573 350.813 125.182 350.494C124.798 350.169 124.251 350.006 123.541 350.006C122.968 350.006 122.483 350.143 122.086 350.416C121.696 350.689 121.455 351.057 121.364 351.52H119.381C119.414 350.582 119.827 349.804 120.621 349.186C121.416 348.567 122.409 348.258 123.6 348.258C124.896 348.258 125.927 348.574 126.696 349.205C127.47 349.837 127.858 350.676 127.858 351.725V359H125.836V357.232H125.787C125.495 357.805 125.045 358.261 124.44 358.6C123.834 358.938 123.167 359.107 122.438 359.107ZM133.884 353.385L138.786 359H136.139L131.862 354.068H131.784V359H129.684V348.395H131.784V352.955H131.862L136.091 348.395H138.61L133.884 353.385ZM147.81 357.662C146.911 358.639 145.694 359.127 144.157 359.127C142.621 359.127 141.4 358.639 140.495 357.662C139.59 356.686 139.138 355.364 139.138 353.697C139.138 352.037 139.59 350.715 140.495 349.732C141.407 348.749 142.627 348.258 144.157 348.258C145.687 348.258 146.905 348.749 147.81 349.732C148.715 350.709 149.167 352.031 149.167 353.697C149.167 355.364 148.715 356.686 147.81 357.662ZM142.048 356.402C142.556 357.047 143.259 357.369 144.157 357.369C145.056 357.369 145.756 357.047 146.257 356.402C146.765 355.758 147.019 354.856 147.019 353.697C147.019 352.538 146.765 351.637 146.257 350.992C145.756 350.341 145.056 350.016 144.157 350.016C143.259 350.016 142.556 350.341 142.048 350.992C141.54 351.643 141.286 352.545 141.286 353.697C141.286 354.85 141.54 355.751 142.048 356.402ZM157.752 359V354.352H152.781V359H150.681V348.395H152.781V352.672H157.752V348.395H159.851V359H157.752ZM170.311 359H168.211V354.244H168.133C167.397 354.993 166.437 355.367 165.252 355.367C164.113 355.367 163.214 355.022 162.557 354.332C161.906 353.635 161.58 352.701 161.58 351.529V348.395H163.67V351.383C163.67 352.053 163.846 352.584 164.197 352.975C164.549 353.365 165.034 353.561 165.652 353.561C166.01 353.561 166.342 353.515 166.648 353.424C166.961 353.333 167.218 353.215 167.42 353.072C167.628 352.929 167.791 352.799 167.908 352.682C168.032 352.558 168.133 352.434 168.211 352.311V348.395H170.311V359ZM174.364 359H172.284V348.395H174.364V355.895H174.442L179.51 348.395H181.59V359H179.51V351.471H179.432L174.364 359ZM186.708 354.195C186.662 354.82 186.594 355.377 186.503 355.865C186.418 356.347 186.294 356.796 186.132 357.213C185.969 357.63 185.767 357.975 185.526 358.248C185.285 358.515 184.986 358.723 184.628 358.873C184.276 359.023 183.869 359.098 183.407 359.098C183.114 359.098 182.873 359.062 182.684 358.99V357.125C182.86 357.177 183.046 357.203 183.241 357.203C183.736 357.203 184.097 356.939 184.325 356.412C184.559 355.885 184.709 355.117 184.774 354.107L185.155 348.395H192.479V359H190.38V350.074H187.011L186.708 354.195ZM196.532 359H194.452V348.395H196.532V355.895H196.611L201.679 348.395H203.759V359H201.679V351.471H201.601L196.532 359ZM214.755 351.773H212.714C212.578 351.253 212.295 350.836 211.865 350.523C211.435 350.204 210.895 350.045 210.244 350.045C209.384 350.045 208.694 350.377 208.173 351.041C207.659 351.705 207.402 352.59 207.402 353.697C207.402 354.83 207.662 355.722 208.183 356.373C208.704 357.024 209.394 357.35 210.254 357.35C210.898 357.35 211.432 357.203 211.855 356.91C212.285 356.617 212.578 356.197 212.734 355.65H214.775C214.612 356.699 214.121 357.542 213.3 358.18C212.487 358.811 211.468 359.127 210.244 359.127C208.733 359.127 207.526 358.642 206.621 357.672C205.716 356.695 205.263 355.37 205.263 353.697C205.263 352.05 205.716 350.732 206.621 349.742C207.526 348.753 208.727 348.258 210.224 348.258C211.474 348.258 212.503 348.593 213.31 349.264C214.124 349.928 214.606 350.764 214.755 351.773ZM220.107 353.346H218.252V357.33H220.107C220.745 357.33 221.253 357.148 221.631 356.783C222.015 356.419 222.207 355.937 222.207 355.338C222.207 354.732 222.015 354.251 221.631 353.893C221.253 353.528 220.745 353.346 220.107 353.346ZM216.152 359V348.395H218.252V351.686H220.273C221.504 351.686 222.484 352.014 223.213 352.672C223.942 353.329 224.307 354.218 224.307 355.338C224.307 356.458 223.942 357.35 223.213 358.014C222.484 358.671 221.504 359 220.273 359H216.152ZM233.087 354.195C233.041 354.82 232.973 355.377 232.882 355.865C232.797 356.347 232.673 356.796 232.511 357.213C232.348 357.63 232.146 357.975 231.905 358.248C231.664 358.515 231.365 358.723 231.007 358.873C230.655 359.023 230.248 359.098 229.786 359.098C229.493 359.098 229.252 359.062 229.063 358.99V357.125C229.239 357.177 229.425 357.203 229.62 357.203C230.115 357.203 230.476 356.939 230.704 356.412C230.938 355.885 231.088 355.117 231.153 354.107L231.534 348.395H238.858V359H236.759V350.074H233.389L233.087 354.195ZM249.63 359.205C248.211 359.205 247.065 358.775 246.193 357.916C245.327 357.057 244.838 355.868 244.728 354.352H242.931V359H240.831V348.395H242.931V352.672H244.757C244.933 351.266 245.447 350.169 246.3 349.381C247.159 348.587 248.269 348.189 249.63 348.189C251.16 348.189 252.364 348.681 253.243 349.664C254.122 350.641 254.562 351.985 254.562 353.697C254.562 355.416 254.122 356.764 253.243 357.74C252.364 358.717 251.16 359.205 249.63 359.205ZM247.57 356.451C248.058 357.096 248.745 357.418 249.63 357.418C250.515 357.418 251.199 357.096 251.681 356.451C252.163 355.8 252.404 354.882 252.404 353.697C252.404 352.512 252.163 351.594 251.681 350.943C251.199 350.292 250.515 349.967 249.63 349.967C248.745 349.967 248.058 350.292 247.57 350.943C247.088 351.594 246.847 352.512 246.847 353.697C246.847 354.882 247.088 355.8 247.57 356.451ZM263.136 357.32V350.064H259.396L259.093 354.195C258.996 355.595 258.716 356.611 258.254 357.242V357.32H263.136ZM257.033 361.783H255.089V357.32H255.949C256.652 356.878 257.062 355.807 257.179 354.107L257.57 348.395H265.226V357.32H266.886V361.783H264.933V359H257.033V361.783ZM270.061 359H267.98V348.395H270.061V355.895H270.139L275.207 348.395H277.287V359H275.207V351.471H275.129L270.061 359Z" fill="#2E2526"/>
</g>
<defs>
<filter id="filter0_dddd_140_3598" x="0" y="0" width="387" height="580" filterUnits="userSpaceOnUse" color-interpolation-filters="sRGB">
<feFlood flood-opacity="0" result="BackgroundImageFix"/>
<feColorMatrix in="SourceAlpha" type="matrix" values="0 0 0 0 0 0 0 0 0 0 0 0 0 0 0 0 0 0 127 0" result="hardAlpha"/>
<feOffset dy="2"/>
<feGaussianBlur stdDeviation="2"/>
<feColorMatrix type="matrix" values="0 0 0 0 0.545098 0 0 0 0 0.572549 0 0 0 0 0.623529 0 0 0 0.1 0"/>
<feBlend mode="normal" in2="BackgroundImageFix" result="effect1_dropShadow_140_3598"/>
<feColorMatrix in="SourceAlpha" type="matrix" values="0 0 0 0 0 0 0 0 0 0 0 0 0 0 0 0 0 0 127 0" result="hardAlpha"/>
<feOffset dy="8"/>
<feGaussianBlur stdDeviation="4"/>
<feColorMatrix type="matrix" values="0 0 0 0 0.545098 0 0 0 0 0.572549 0 0 0 0 0.623529 0 0 0 0.09 0"/>
<feBlend mode="normal" in2="effect1_dropShadow_140_3598" result="effect2_dropShadow_140_3598"/>
<feColorMatrix in="SourceAlpha" type="matrix" values="0 0 0 0 0 0 0 0 0 0 0 0 0 0 0 0 0 0 127 0" result="hardAlpha"/>
<feOffset dy="18"/>
<feGaussianBlur stdDeviation="5.5"/>
<feColorMatrix type="matrix" values="0 0 0 0 0.545098 0 0 0 0 0.572549 0 0 0 0 0.623529 0 0 0 0.05 0"/>
<feBlend mode="normal" in2="effect2_dropShadow_140_3598" result="effect3_dropShadow_140_3598"/>
<feColorMatrix in="SourceAlpha" type="matrix" values="0 0 0 0 0 0 0 0 0 0 0 0 0 0 0 0 0 0 127 0" result="hardAlpha"/>
<feOffset dy="32"/>
<feGaussianBlur stdDeviation="6.5"/>
<feColorMatrix type="matrix" values="0 0 0 0 0.545098 0 0 0 0 0.572549 0 0 0 0 0.623529 0 0 0 0.01 0"/>
<feBlend mode="normal" in2="effect3_dropShadow_140_3598" result="effect4_dropShadow_140_3598"/>
<feBlend mode="normal" in="SourceGraphic" in2="effect4_dropShadow_140_3598" result="shape"/>
</filter>
<linearGradient id="paint0_linear_140_3598" x1="193.18" y1="180.691" x2="193.795" y2="293.121" gradientUnits="userSpaceOnUse">
<stop stop-color="#FDCF18"/>
<stop offset="0.47" stop-color="#F5AB0C"/>
<stop offset="0.93" stop-color="#ED8700"/>
</linearGradient>
<radialGradient id="paint1_radial_140_3598" cx="0" cy="0" r="1" gradientUnits="userSpaceOnUse" gradientTransform="translate(191.659 185.137) scale(105.439 105.439)">
<stop offset="0.07" stop-color="#FEFEE2"/>
<stop offset="0.28" stop-color="#FDEE8C"/>
<stop offset="0.49" stop-color="#FCDE36"/>
<stop offset="0.82" stop-color="#F5B820"/>
<stop offset="1" stop-color="#EE910A"/>
</radialGradient>
</defs>
</svg>
